<svg width="118" height="98" viewBox="0 0 118 98" fill="none" xmlns="http://www.w3.org/2000/svg">
<path d="M90.7476 0.684191C104.759 25.4902 96.193 57.0073 71.4663 71.2833C46.7396 85.5593 15.1617 77.2195 0.685051 52.6818L90.7476 0.684191Z" fill="#112433" stroke="#D2D01F"/>
<path d="M46.8958 39.168C46.7465 39.9147 46.6451 40.6827 46.5918 41.472C46.5385 42.2613 46.5118 43.5307 46.5118 45.28C46.5118 47.0293 46.5811 48.416 46.7198 49.44C47.2851 49.4933 47.8718 49.5947 48.4798 49.744L48.4318 50.128C47.6425 50.0427 46.7838 50 45.8558 50C44.9385 50 44.1971 50.0427 43.6318 50.128L43.5678 49.728C44.0478 49.5787 44.5598 49.4667 45.1038 49.392C45.1891 48.688 45.2478 47.552 45.2798 45.984C44.7251 45.92 44.1118 45.888 43.4398 45.888C42.7785 45.888 42.2185 45.92 41.7598 45.984C41.5038 47.0293 41.3758 47.8667 41.3758 48.496C41.3758 49.1253 41.6051 49.5733 42.0638 49.84L41.9998 50.064C41.6691 50.0213 41.1091 50 40.3198 50C39.5411 50 38.8371 50.0427 38.2078 50.128L38.1438 49.728C38.6238 49.5787 39.1358 49.4667 39.6798 49.392L42.2078 40.432C40.9491 40.432 40.1438 40.6027 39.7918 40.944C39.7171 41.0933 39.6798 41.328 39.6798 41.648C39.6798 41.968 39.7331 42.1867 39.8398 42.304L39.8238 42.416C39.5571 42.576 39.2905 42.8 39.0238 43.088C38.8958 43.0773 38.7945 43.024 38.7198 42.928C38.6345 42.832 38.5918 42.72 38.5918 42.592C38.5918 42.0693 38.9065 41.4453 39.5358 40.72C40.1651 39.9947 40.7518 39.536 41.2958 39.344C42.9065 39.5253 44.5385 39.68 46.1918 39.808C46.3411 39.616 46.4638 39.3707 46.5598 39.072L46.8958 39.168ZM41.9358 45.184C42.4158 45.2587 42.9811 45.296 43.6318 45.296C44.2931 45.296 44.8425 45.2587 45.2798 45.184C45.2798 43.296 45.2531 41.7547 45.1998 40.56L45.1518 40.512C44.5971 40.4587 43.9091 40.432 43.0878 40.432L41.9358 45.184ZM49.2739 41.696L52.9859 41.584C54.9166 41.584 55.8819 42.2827 55.8819 43.68C55.8819 44.4587 55.5353 45.088 54.8419 45.568C54.1593 46.048 53.3806 46.288 52.5059 46.288C52.3779 46.288 52.2873 46.2827 52.2339 46.272L52.2979 45.744H52.4419C53.1033 45.744 53.5939 45.6 53.9139 45.312C54.2446 45.024 54.4099 44.5707 54.4099 43.952C54.4099 43.3333 54.2766 42.88 54.0099 42.592C53.7539 42.2933 53.3379 42.144 52.7619 42.144C52.4099 42.144 52.0793 42.2027 51.7699 42.32C51.6953 43.024 51.6579 44.2187 51.6579 45.904C51.6579 47.5893 51.7059 48.7787 51.8019 49.472C52.2499 49.5253 52.7193 49.6107 53.2099 49.728L53.1619 50.128C52.6393 50.0427 52.0099 50 51.2739 50C50.5379 50 49.8979 50.0427 49.3539 50.128L49.2899 49.712C49.6099 49.6053 49.9459 49.5253 50.2979 49.472C50.4046 48.7253 50.4579 47.5627 50.4579 45.984C50.4579 44.3947 50.4099 43.168 50.3139 42.304C49.9406 42.1653 49.5939 42.096 49.2739 42.096V41.696ZM56.6333 41.696L60.3453 41.584C62.276 41.584 63.2413 42.2827 63.2413 43.68C63.2413 44.4587 62.8946 45.088 62.2013 45.568C61.5186 46.048 60.74 46.288 59.8653 46.288C59.7373 46.288 59.6466 46.2827 59.5933 46.272L59.6573 45.744H59.8013C60.4626 45.744 60.9533 45.6 61.2733 45.312C61.604 45.024 61.7693 44.5707 61.7693 43.952C61.7693 43.3333 61.636 42.88 61.3693 42.592C61.1133 42.2933 60.6973 42.144 60.1213 42.144C59.7693 42.144 59.4386 42.2027 59.1293 42.32C59.0546 43.024 59.0173 44.2187 59.0173 45.904C59.0173 47.5893 59.0653 48.7787 59.1613 49.472C59.6093 49.5253 60.0786 49.6107 60.5693 49.728L60.5213 50.128C59.9986 50.0427 59.3693 50 58.6333 50C57.8973 50 57.2573 50.0427 56.7133 50.128L56.6493 49.712C56.9693 49.6053 57.3053 49.5253 57.6573 49.472C57.764 48.7253 57.8173 47.5627 57.8173 45.984C57.8173 44.3947 57.7693 43.168 57.6733 42.304C57.3 42.1653 56.9533 42.096 56.6333 42.096V41.696ZM69.8487 50.176C69.1554 50.0587 68.2114 50 67.0167 50C65.8327 50 64.8407 50.0533 64.0407 50.16L63.9927 49.76C64.2914 49.6427 64.6327 49.5467 65.0167 49.472C65.1234 48.832 65.1767 47.744 65.1767 46.208V45.456C65.1767 44.1333 65.1234 43.0453 65.0167 42.192C64.6647 42.1387 64.3287 42.0587 64.0087 41.952L64.0727 41.536C64.6167 41.6213 65.2567 41.664 65.9927 41.664C66.7287 41.664 67.358 41.6213 67.8807 41.536L67.9287 41.936C67.4487 42.0533 66.974 42.1387 66.5047 42.192C66.4194 42.768 66.3767 43.9573 66.3767 45.76C66.3767 47.552 66.4194 48.7467 66.5047 49.344C66.7607 49.3867 67.1234 49.408 67.5927 49.408C68.062 49.408 68.4834 49.3173 68.8567 49.136C69.006 48.7733 69.0807 48.3467 69.0807 47.856H69.4807C69.5234 48.6773 69.6727 49.344 69.9287 49.856L69.8487 50.176ZM71.9163 46.048C71.9483 46.9973 72.1243 47.7387 72.4443 48.272C72.7643 48.8053 73.3083 49.072 74.0763 49.072C74.8443 49.072 75.5536 48.7467 76.2043 48.096L76.4283 48.32C75.7136 49.2267 74.855 49.8507 73.8523 50.192C72.8176 50.192 72.007 49.8667 71.4203 49.216C70.8336 48.5547 70.5403 47.6693 70.5403 46.56C70.5403 45.44 70.887 44.3893 71.5803 43.408C72.2736 42.4267 73.159 41.7813 74.2363 41.472C75.015 41.472 75.895 41.552 76.8763 41.712L76.8603 42.064C76.6576 42.064 76.4656 42.1013 76.2843 42.176C76.0816 42.656 75.9483 43.2267 75.8843 43.888H75.4843C75.399 43.5253 75.3563 43.152 75.3563 42.768C74.951 42.5653 74.471 42.464 73.9163 42.464C73.3616 42.464 72.903 42.6133 72.5403 42.912C72.1776 43.5733 71.9696 44.3627 71.9163 45.28C72.3643 45.3547 72.8443 45.392 73.3563 45.392C74.2416 45.392 74.775 45.2053 74.9563 44.832L75.2923 44.88C75.1963 45.2 75.1483 45.5147 75.1483 45.824C75.1483 46.1333 75.1856 46.512 75.2603 46.96L74.8763 47.024C74.759 46.704 74.6736 46.3733 74.6203 46.032C74.1936 45.9893 73.767 45.968 73.3403 45.968C72.9243 45.968 72.4496 45.9947 71.9163 46.048Z" fill="#D2D01F"/>
</svg>
