<svg width="89" height="94" viewBox="0 0 89 94" fill="none" xmlns="http://www.w3.org/2000/svg">
<path d="M38.2002 2.00326L18.7404 12.1922C16.9774 13.1152 15.9296 14.9959 16.0725 16.9808L17.4342 35.8923C17.6569 38.9854 15.0394 41.5331 11.9535 41.2269L8.66095 40.9003C6.19634 40.6558 3.92413 42.2524 3.31892 44.6541L1.20968 53.024C1.07091 53.5747 1.02697 54.145 1.07974 54.7105L3.94879 85.4503C4.18868 88.0205 6.34575 89.9856 8.92715 89.9856H34.8107C36.4449 89.9856 37.9759 89.1871 38.911 87.847L40.9392 84.9407C42.3922 82.8586 45.1749 82.196 47.4103 83.3999L64.0599 92.3665C65.8862 93.3501 68.1302 93.1039 69.6997 91.7477L86.269 77.4309C87.3682 76.4812 88 75.1003 88 73.6476V49.5288C88 47.3297 86.5631 45.3887 84.4598 44.7467L73.6085 41.4343C71.7005 40.8519 70.3214 39.1911 70.0993 37.2087L67.4439 13.4997C67.2295 11.5855 65.9346 9.96469 64.115 9.33288L42.1595 1.70945C40.8557 1.25675 39.4228 1.36308 38.2002 2.00326Z" fill="#112433" stroke="#D2D01F"/>
<path d="M38.238 42.7661C38.1207 43.5661 38.062 45.0594 38.062 47.2461C38.062 49.4327 38.1313 51.0381 38.27 52.0621C38.8353 52.1154 39.422 52.2167 40.03 52.3661L39.982 52.7501C39.1927 52.6647 38.334 52.6221 37.406 52.6221C36.4887 52.6221 35.7473 52.6647 35.182 52.7501L35.118 52.3501C35.598 52.2007 36.11 52.0887 36.654 52.0141C36.7713 51.1394 36.83 49.7634 36.83 47.8861V46.9421C36.83 45.2141 36.7607 43.8381 36.622 42.8141C36.078 42.7394 35.566 42.6274 35.086 42.4781L35.15 42.0781C35.7153 42.1634 36.4567 42.2061 37.374 42.2061C38.302 42.2061 39.1607 42.1634 39.95 42.0781L39.998 42.4621C39.39 42.6114 38.8033 42.7127 38.238 42.7661ZM44.4446 51.6941C45.1806 51.6941 45.874 51.3687 46.5246 50.7181L46.7486 50.9421C46.034 51.8487 45.1753 52.4727 44.1726 52.8141C43.138 52.8141 42.3273 52.4887 41.7406 51.8381C41.154 51.1767 40.8606 50.2914 40.8606 49.1821C40.8606 48.0621 41.2073 47.0114 41.9006 46.0301C42.594 45.0487 43.4793 44.4034 44.5566 44.0941C45.3353 44.0941 46.2153 44.1741 47.1966 44.3341L47.1806 44.6861C46.978 44.6861 46.786 44.7234 46.6046 44.7981C46.402 45.2781 46.2686 45.8487 46.2046 46.5101H45.8046C45.7193 46.1474 45.6766 45.7741 45.6766 45.3901C45.2713 45.1874 44.7913 45.0861 44.2366 45.0861C43.682 45.0861 43.2233 45.2354 42.8606 45.5341C42.4446 46.2914 42.2366 47.2087 42.2366 48.2861C42.2366 49.9607 42.594 51.0114 43.3086 51.4381C43.618 51.6087 43.9966 51.6941 44.4446 51.6941ZM49.1741 48.6701C49.2061 49.6194 49.3821 50.3607 49.7021 50.8941C50.0221 51.4274 50.5661 51.6941 51.3341 51.6941C52.1021 51.6941 52.8115 51.3687 53.4621 50.7181L53.6861 50.9421C52.9715 51.8487 52.1128 52.4727 51.1101 52.8141C50.0755 52.8141 49.2648 52.4887 48.6781 51.8381C48.0915 51.1767 47.7981 50.2914 47.7981 49.1821C47.7981 48.0621 48.1448 47.0114 48.8381 46.0301C49.5315 45.0487 50.4168 44.4034 51.4941 44.0941C52.2728 44.0941 53.1528 44.1741 54.1341 44.3341L54.1181 44.6861C53.9155 44.6861 53.7235 44.7234 53.5421 44.7981C53.3395 45.2781 53.2061 45.8487 53.1421 46.5101H52.7421C52.6568 46.1474 52.6141 45.7741 52.6141 45.3901C52.2088 45.1874 51.7288 45.0861 51.1741 45.0861C50.6195 45.0861 50.1608 45.2354 49.7981 45.5341C49.4355 46.1954 49.2275 46.9847 49.1741 47.9021C49.6221 47.9767 50.1021 48.0141 50.6141 48.0141C51.4995 48.0141 52.0328 47.8274 52.2141 47.4541L52.5501 47.5021C52.4541 47.8221 52.4061 48.1367 52.4061 48.4461C52.4061 48.7554 52.4435 49.1341 52.5181 49.5821L52.1341 49.6461C52.0168 49.3261 51.9315 48.9954 51.8781 48.6541C51.4515 48.6114 51.0248 48.5901 50.5981 48.5901C50.1821 48.5901 49.7075 48.6167 49.1741 48.6701Z" fill="#D2D01F"/>
</svg>
