<svg width="71" height="218" viewBox="0 0 71 218" fill="none" xmlns="http://www.w3.org/2000/svg">
<mask id="path-1-inside-1_72_130" fill="white">
<path fill-rule="evenodd" clip-rule="evenodd" d="M27.7009 0C25.0591 0 22.8731 2.05517 22.7104 4.69195L18.4938 73H5C2.23858 73 0 75.2386 0 78V213C0 215.761 2.23858 218 5 218H66C68.7614 218 71 215.761 71 213V78C71 75.2386 68.7614 73 66 73H52.9568L48.3165 4.66127C48.1383 2.03736 45.9579 0 43.328 0H27.7009Z"/>
</mask>
<path fill-rule="evenodd" clip-rule="evenodd" d="M27.7009 0C25.0591 0 22.8731 2.05517 22.7104 4.69195L18.4938 73H5C2.23858 73 0 75.2386 0 78V213C0 215.761 2.23858 218 5 218H66C68.7614 218 71 215.761 71 213V78C71 75.2386 68.7614 73 66 73H52.9568L48.3165 4.66127C48.1383 2.03736 45.9579 0 43.328 0H27.7009Z" fill="#112433"/>
<path d="M22.7104 4.69195L23.7085 4.75356V4.75356L22.7104 4.69195ZM18.4938 73V74H19.434L19.4919 73.0616L18.4938 73ZM52.9568 73L51.9591 73.0677L52.0224 74H52.9568V73ZM48.3165 4.66127L47.3188 4.72902V4.72902L48.3165 4.66127ZM23.7085 4.75356C23.8387 2.64414 25.5874 1 27.7009 1V-1C24.5307 -1 21.9076 1.46621 21.7123 4.63034L23.7085 4.75356ZM19.4919 73.0616L23.7085 4.75356L21.7123 4.63034L17.4957 72.9384L19.4919 73.0616ZM5 74H18.4938V72H5V74ZM1 78C1 75.7909 2.79086 74 5 74V72C1.68629 72 -1 74.6863 -1 78H1ZM1 213V78H-1V213H1ZM5 217C2.79086 217 1 215.209 1 213H-1C-1 216.314 1.68629 219 5 219V217ZM66 217H5V219H66V217ZM70 213C70 215.209 68.2091 217 66 217V219C69.3137 219 72 216.314 72 213H70ZM70 78V213H72V78H70ZM66 74C68.2091 74 70 75.7909 70 78H72C72 74.6863 69.3137 72 66 72V74ZM52.9568 74H66V72H52.9568V74ZM47.3188 4.72902L51.9591 73.0677L53.9545 72.9323L49.3142 4.59353L47.3188 4.72902ZM43.328 1C45.432 1 47.1763 2.62989 47.3188 4.72902L49.3142 4.59353C49.1004 1.44484 46.4839 -1 43.328 -1V1ZM27.7009 1H43.328V-1H27.7009V1Z" fill="#D2D01F" mask="url(#path-1-inside-1_72_130)"/>
<path d="M16.7693 101.144C16.6306 102.083 16.5613 103.576 16.5613 105.624C16.5613 107.661 16.6039 109.16 16.6893 110.12C17.0519 110.141 17.3933 110.152 17.7133 110.152C18.9719 110.152 19.7773 109.981 20.1293 109.64C20.2039 109.491 20.2413 109.256 20.2413 108.936C20.2413 108.616 20.1879 108.397 20.0813 108.28L20.0973 108.168C20.3639 108.008 20.6306 107.784 20.8973 107.496C21.0253 107.507 21.1266 107.56 21.2013 107.656C21.2866 107.752 21.3293 107.864 21.3293 107.992C21.3293 108.515 21.0146 109.139 20.3853 109.864C19.7559 110.589 19.1693 111.048 18.6253 111.24C17.7079 111.208 16.7159 111.053 15.6493 110.776C15.4999 110.968 15.3773 111.213 15.2812 111.512L14.9453 111.416C15.1693 110.339 15.2973 108.573 15.3293 106.12V105.32C15.3293 103.453 15.2706 102.077 15.1533 101.192C14.6093 101.117 14.0973 101.005 13.6173 100.856L13.6813 100.456C14.2466 100.541 14.9879 100.584 15.9053 100.584C16.8333 100.584 17.6919 100.541 18.4813 100.456L18.5293 100.84C17.8893 100.989 17.3026 101.091 16.7693 101.144ZM22.6741 107.048C22.7061 107.997 22.8821 108.739 23.2021 109.272C23.5221 109.805 24.0661 110.072 24.8341 110.072C25.6021 110.072 26.3115 109.747 26.9621 109.096L27.1861 109.32C26.4715 110.227 25.6128 110.851 24.6101 111.192C23.5755 111.192 22.7648 110.867 22.1781 110.216C21.5915 109.555 21.2981 108.669 21.2981 107.56C21.2981 106.44 21.6448 105.389 22.3381 104.408C23.0315 103.427 23.9168 102.781 24.9941 102.472C25.7728 102.472 26.6528 102.552 27.6341 102.712L27.6181 103.064C27.4155 103.064 27.2235 103.101 27.0421 103.176C26.8395 103.656 26.7061 104.227 26.6421 104.888H26.2421C26.1568 104.525 26.1141 104.152 26.1141 103.768C25.7088 103.565 25.2288 103.464 24.6741 103.464C24.1195 103.464 23.6608 103.613 23.2981 103.912C22.9355 104.573 22.7275 105.363 22.6741 106.28C23.1221 106.355 23.6021 106.392 24.1141 106.392C24.9995 106.392 25.5328 106.205 25.7141 105.832L26.0501 105.88C25.9541 106.2 25.9061 106.515 25.9061 106.824C25.9061 107.133 25.9435 107.512 26.0181 107.96L25.6341 108.024C25.5168 107.704 25.4315 107.373 25.3781 107.032C24.9515 106.989 24.5248 106.968 24.0981 106.968C23.6821 106.968 23.2075 106.995 22.6741 107.048ZM32.582 110.104C32.582 109.443 32.4167 108.456 32.086 107.144C31.7553 105.821 31.3873 104.541 30.982 103.304L30.918 103.32L30.518 106.296C30.3473 107.523 30.262 108.627 30.262 109.608C30.262 110.205 30.4487 110.605 30.822 110.808L30.758 111.08C30.438 111.027 30.0167 111 29.494 111C28.982 111 28.4167 111.043 27.798 111.128L27.734 110.712C28.0967 110.595 28.438 110.509 28.758 110.456L30.246 103.16C29.6913 103.064 29.2807 102.979 29.014 102.904L29.062 102.488C29.83 102.605 30.5393 102.664 31.19 102.664C31.8513 102.664 32.3633 102.627 32.726 102.552L32.758 102.824C32.47 102.899 32.326 103.021 32.326 103.192C32.326 103.427 32.6567 104.781 33.318 107.256L33.67 108.456L33.782 108.424C33.782 108.147 34.2673 106.408 35.238 103.208C35.238 103.027 35.094 102.899 34.806 102.824L34.838 102.552C35.2007 102.627 35.7127 102.664 36.374 102.664C37.046 102.664 37.7607 102.605 38.518 102.488L38.566 102.904C38.278 102.979 37.91 103.059 37.462 103.144C37.43 103.4 37.414 103.779 37.414 104.28C37.414 104.771 37.4833 105.784 37.622 107.32C37.7607 108.856 37.8887 109.912 38.006 110.488C38.4007 110.541 38.806 110.616 39.222 110.712L39.174 111.112C38.6193 111.037 38.0007 111 37.318 111C36.646 111 36.038 111.043 35.494 111.128L35.43 110.712C35.782 110.605 36.1607 110.525 36.566 110.472C36.534 107.955 36.3633 105.581 36.054 103.352H36.006C34.9073 106.595 34.3207 108.696 34.246 109.656C34.022 109.731 33.7607 109.869 33.462 110.072C33.1633 110.264 32.934 110.456 32.774 110.648L32.582 110.52V110.104ZM43.5361 111.192C42.4801 111.192 41.6268 110.861 40.9761 110.2C40.3255 109.528 40.0001 108.632 40.0001 107.512C40.0001 106.392 40.3415 105.341 41.0241 104.36C41.7068 103.379 42.5975 102.749 43.6961 102.472C44.7948 102.472 45.6321 102.787 46.2081 103.416C46.7841 104.035 47.0721 104.92 47.0721 106.072C47.0721 107.224 46.7575 108.264 46.1281 109.192C45.5095 110.12 44.6455 110.787 43.5361 111.192ZM43.2641 103.448C42.7841 103.448 42.3681 103.581 42.0161 103.848C41.5788 104.595 41.3601 105.533 41.3601 106.664C41.3601 107.965 41.7228 108.963 42.4481 109.656C42.8321 110.029 43.2855 110.216 43.8081 110.216C44.3308 110.216 44.7521 110.077 45.0721 109.8C45.4988 109.053 45.7121 108.141 45.7121 107.064C45.7121 105.987 45.5201 105.117 45.1361 104.456C44.7521 103.784 44.1281 103.448 43.2641 103.448ZM52.294 111.112C51.7393 111.037 51.1153 111 50.422 111C49.7393 111 49.126 111.043 48.582 111.128L48.518 110.712C48.8593 110.605 49.1793 110.525 49.478 110.472C49.574 109.64 49.622 108.552 49.622 107.208V106.456C49.622 105.027 49.5687 103.928 49.462 103.16C49.174 103.128 48.8273 103.043 48.422 102.904L48.47 102.488C49.078 102.605 49.7127 102.664 50.374 102.664C51.046 102.664 51.526 102.627 51.814 102.552L51.846 102.824C51.558 102.899 51.414 103.021 51.414 103.192C51.414 103.32 51.5367 103.592 51.782 104.008C52.038 104.413 52.2833 104.808 52.518 105.192C53.222 106.312 54.054 107.688 55.014 109.32L55.062 109.288V107.336C55.062 105.907 54.9873 104.835 54.838 104.12C54.6887 103.395 54.4327 102.973 54.07 102.856L54.102 102.584C54.3793 102.637 54.7953 102.664 55.35 102.664C55.9047 102.664 56.4753 102.605 57.062 102.488L57.11 102.904C56.6727 103.043 56.3047 103.128 56.006 103.16C55.8993 104.013 55.846 105.112 55.846 106.456V107.208C55.846 108.829 55.8993 109.928 56.006 110.504C56.454 110.579 56.8113 110.664 57.078 110.76L57.03 111.176C56.4967 111.059 55.9953 111 55.526 111C55.0567 111 54.694 111.021 54.438 111.064C54.438 110.829 54.2727 110.435 53.942 109.88C53.622 109.325 53.3287 108.835 53.062 108.408C52.198 107.011 51.35 105.592 50.518 104.152L50.454 104.184V106.328C50.454 108.451 50.614 109.832 50.934 110.472C51.414 110.525 51.8833 110.605 52.342 110.712L52.294 111.112ZM21.9683 124.32V125.264C21.9683 127.237 22.0109 128.64 22.0963 129.472C21.3816 130.912 20.0643 132.053 18.1442 132.896L17.9522 132.56C18.9656 131.867 19.6803 131.147 20.0963 130.4C20.5229 129.664 20.7363 128.709 20.7363 127.536V124.32C20.7363 122.709 20.6883 121.424 20.5923 120.464C19.3336 120.464 18.5282 120.635 18.1762 120.976C18.1016 121.125 18.0642 121.36 18.0642 121.68C18.0642 122 18.1176 122.219 18.2242 122.336L18.2082 122.448C17.9416 122.608 17.6749 122.832 17.4082 123.12C17.2802 123.109 17.1789 123.056 17.1042 122.96C17.0189 122.864 16.9762 122.752 16.9762 122.624C16.9762 122.101 17.2909 121.477 17.9202 120.752C18.5496 120.027 19.1363 119.568 19.6803 119.376C19.7656 119.376 20.1496 119.413 20.8323 119.488C21.5149 119.552 22.0483 119.584 22.4323 119.584C22.8163 119.584 23.1789 119.552 23.5203 119.488L23.5843 119.888C23.1683 120.048 22.6936 120.192 22.1603 120.32C22.0323 121.472 21.9683 122.805 21.9683 124.32ZM31.4229 125.456V126.208C31.4229 127.669 31.4762 128.763 31.5829 129.488C32.0735 129.552 32.4789 129.627 32.7989 129.712L32.7509 130.112C32.2282 130.037 31.6895 130 31.1349 130C30.5909 130 30.2175 130.016 30.0149 130.048L29.9509 129.84C30.0469 129.733 30.1109 129.429 30.1429 128.928C29.5882 129.504 28.9482 129.925 28.2229 130.192C26.3882 130.192 25.4709 129.099 25.4709 126.912C25.4709 126.432 25.5082 125.664 25.5829 124.608C25.6575 123.552 25.6949 122.933 25.6949 122.752C25.6949 122.571 25.6629 122.395 25.5989 122.224V122.208C25.1509 122.133 24.7935 122.053 24.5269 121.968L24.5909 121.536C25.2095 121.621 25.7695 121.664 26.2709 121.664C26.7722 121.664 27.1829 121.637 27.5029 121.584L27.5669 121.856C27.1829 122.059 26.9589 122.427 26.8949 122.96C26.7669 123.984 26.7029 125.035 26.7029 126.112C26.7029 127.189 26.8255 127.957 27.0709 128.416C27.3269 128.864 27.7962 129.088 28.4789 129.088C29.1722 129.088 29.7322 128.891 30.1589 128.496C30.2015 127.643 30.2229 126.635 30.2229 125.472C30.2229 124.309 30.1802 123.216 30.0949 122.192C29.6149 122.139 29.1722 122.059 28.7669 121.952L28.8149 121.552C29.3695 121.627 29.9882 121.664 30.6709 121.664C31.3642 121.664 31.9829 121.621 32.5269 121.536L32.5909 121.952C32.2922 122.048 31.9562 122.128 31.5829 122.192C31.4762 122.907 31.4229 123.995 31.4229 125.456ZM36.4969 122.192C36.4115 122.768 36.3689 123.947 36.3689 125.728C36.3689 127.509 36.4169 128.757 36.5129 129.472C36.9929 129.525 37.4355 129.605 37.8409 129.712L37.7929 130.112C37.2382 130.037 36.6142 130 35.9209 130C35.2382 130 34.6249 130.043 34.0809 130.128L34.0169 129.712C34.3155 129.616 34.6515 129.536 35.0249 129.472C35.1209 128.704 35.1689 127.616 35.1689 126.208V125.456C35.1689 124.048 35.1155 122.96 35.0089 122.192C34.6355 122.128 34.2995 122.048 34.0009 121.952L34.0649 121.536C34.6089 121.621 35.2222 121.664 35.9049 121.664C36.5982 121.664 37.2222 121.627 37.7769 121.552L37.8249 121.952C37.4195 122.059 36.9769 122.139 36.4969 122.192ZM42.5384 129.072C43.2744 129.072 43.9677 128.747 44.6184 128.096L44.8424 128.32C44.1277 129.227 43.269 129.851 42.2664 130.192C41.2317 130.192 40.421 129.867 39.8344 129.216C39.2477 128.555 38.9544 127.669 38.9544 126.56C38.9544 125.44 39.301 124.389 39.9944 123.408C40.6877 122.427 41.573 121.781 42.6504 121.472C43.429 121.472 44.309 121.552 45.2904 121.712L45.2744 122.064C45.0717 122.064 44.8797 122.101 44.6984 122.176C44.4957 122.656 44.3624 123.227 44.2984 123.888H43.8984C43.813 123.525 43.7704 123.152 43.7704 122.768C43.365 122.565 42.885 122.464 42.3304 122.464C41.7757 122.464 41.317 122.613 40.9544 122.912C40.5384 123.669 40.3304 124.587 40.3304 125.664C40.3304 127.339 40.6877 128.389 41.4024 128.816C41.7117 128.987 42.0904 129.072 42.5384 129.072ZM47.2679 126.048C47.2999 126.997 47.4759 127.739 47.7959 128.272C48.1159 128.805 48.6599 129.072 49.4279 129.072C50.1959 129.072 50.9052 128.747 51.5559 128.096L51.7799 128.32C51.0652 129.227 50.2065 129.851 49.2039 130.192C48.1692 130.192 47.3585 129.867 46.7719 129.216C46.1852 128.555 45.8919 127.669 45.8919 126.56C45.8919 125.44 46.2385 124.389 46.9319 123.408C47.6252 122.427 48.5105 121.781 49.5879 121.472C50.3665 121.472 51.2465 121.552 52.2279 121.712L52.2119 122.064C52.0092 122.064 51.8172 122.101 51.6359 122.176C51.4332 122.656 51.2999 123.227 51.2359 123.888H50.8359C50.7505 123.525 50.7079 123.152 50.7079 122.768C50.3025 122.565 49.8225 122.464 49.2679 122.464C48.7132 122.464 48.2545 122.613 47.8919 122.912C47.5292 123.573 47.3212 124.363 47.2679 125.28C47.7159 125.355 48.1959 125.392 48.7079 125.392C49.5932 125.392 50.1265 125.205 50.3079 124.832L50.6439 124.88C50.5479 125.2 50.4999 125.515 50.4999 125.824C50.4999 126.133 50.5372 126.512 50.6119 126.96L50.2279 127.024C50.1105 126.704 50.0252 126.373 49.9719 126.032C49.5452 125.989 49.1185 125.968 48.6919 125.968C48.2759 125.968 47.8012 125.995 47.2679 126.048Z" fill="#D2D01F"/>
</svg>
