<svg width="118" height="98" viewBox="0 0 118 98" fill="none" xmlns="http://www.w3.org/2000/svg">
<path d="M90.7476 0.684191C104.759 25.4902 96.193 57.0073 71.4663 71.2833C46.7396 85.5593 15.1617 77.2195 0.685051 52.6818L90.7476 0.684191Z" fill="#112433" stroke="#D2D01F"/>
<path d="M45.9958 40.144C45.8571 41.0827 45.7878 42.576 45.7878 44.624C45.7878 46.6613 45.8305 48.16 45.9158 49.12C46.2785 49.1413 46.6198 49.152 46.9398 49.152C48.1985 49.152 49.0038 48.9813 49.3558 48.64C49.4305 48.4907 49.4678 48.256 49.4678 47.936C49.4678 47.616 49.4145 47.3973 49.3078 47.28L49.3238 47.168C49.5905 47.008 49.8571 46.784 50.1238 46.496C50.2518 46.5067 50.3531 46.56 50.4278 46.656C50.5131 46.752 50.5558 46.864 50.5558 46.992C50.5558 47.5147 50.2411 48.1387 49.6118 48.864C48.9825 49.5893 48.3958 50.048 47.8518 50.24C46.9345 50.208 45.9425 50.0533 44.8758 49.776C44.7265 49.968 44.6038 50.2133 44.5078 50.512L44.1718 50.416C44.3958 49.3387 44.5238 47.5733 44.5558 45.12V44.32C44.5558 42.4533 44.4971 41.0773 44.3798 40.192C43.8358 40.1173 43.3238 40.0053 42.8438 39.856L42.9078 39.456C43.4731 39.5413 44.2145 39.584 45.1318 39.584C46.0598 39.584 46.9185 39.5413 47.7078 39.456L47.7558 39.84C47.1158 39.9893 46.5291 40.0907 45.9958 40.144ZM53.0047 42.192C52.9194 42.768 52.8767 43.9467 52.8767 45.728C52.8767 47.5093 52.9247 48.7573 53.0207 49.472C53.5007 49.5253 53.9434 49.6053 54.3487 49.712L54.3007 50.112C53.746 50.0373 53.122 50 52.4287 50C51.746 50 51.1327 50.0427 50.5887 50.128L50.5247 49.712C50.8234 49.616 51.1594 49.536 51.5327 49.472C51.6287 48.704 51.6767 47.616 51.6767 46.208V45.456C51.6767 44.048 51.6234 42.96 51.5167 42.192C51.1434 42.128 50.8074 42.048 50.5087 41.952L50.5727 41.536C51.1167 41.6213 51.73 41.664 52.4127 41.664C53.106 41.664 53.73 41.6267 54.2847 41.552L54.3327 41.952C53.9274 42.0587 53.4847 42.1387 53.0047 42.192ZM59.5742 49.104C59.5742 48.4427 59.4089 47.456 59.0782 46.144C58.7475 44.8213 58.3795 43.5413 57.9742 42.304L57.9102 42.32L57.5102 45.296C57.3395 46.5227 57.2542 47.6267 57.2542 48.608C57.2542 49.2053 57.4409 49.6053 57.8142 49.808L57.7502 50.08C57.4302 50.0267 57.0089 50 56.4862 50C55.9742 50 55.4089 50.0427 54.7902 50.128L54.7262 49.712C55.0889 49.5947 55.4302 49.5093 55.7502 49.456L57.2382 42.16C56.6835 42.064 56.2729 41.9787 56.0062 41.904L56.0542 41.488C56.8222 41.6053 57.5315 41.664 58.1822 41.664C58.8435 41.664 59.3555 41.6267 59.7182 41.552L59.7502 41.824C59.4622 41.8987 59.3182 42.0213 59.3182 42.192C59.3182 42.4267 59.6489 43.7813 60.3102 46.256L60.6622 47.456L60.7742 47.424C60.7742 47.1467 61.2595 45.408 62.2302 42.208C62.2302 42.0267 62.0862 41.8987 61.7982 41.824L61.8302 41.552C62.1929 41.6267 62.7049 41.664 63.3662 41.664C64.0382 41.664 64.7529 41.6053 65.5102 41.488L65.5582 41.904C65.2702 41.9787 64.9022 42.0587 64.4542 42.144C64.4222 42.4 64.4062 42.7787 64.4062 43.28C64.4062 43.7707 64.4755 44.784 64.6142 46.32C64.7529 47.856 64.8809 48.912 64.9982 49.488C65.3929 49.5413 65.7982 49.616 66.2142 49.712L66.1662 50.112C65.6115 50.0373 64.9929 50 64.3102 50C63.6382 50 63.0302 50.0427 62.4862 50.128L62.4222 49.712C62.7742 49.6053 63.1529 49.5253 63.5582 49.472C63.5262 46.9547 63.3555 44.5813 63.0462 42.352H62.9982C61.8995 45.5947 61.3129 47.696 61.2382 48.656C61.0142 48.7307 60.7529 48.8693 60.4542 49.072C60.1555 49.264 59.9262 49.456 59.7662 49.648L59.5742 49.52V49.104ZM68.4163 46.048C68.4483 46.9973 68.6243 47.7387 68.9443 48.272C69.2643 48.8053 69.8083 49.072 70.5763 49.072C71.3443 49.072 72.0536 48.7467 72.7043 48.096L72.9283 48.32C72.2136 49.2267 71.355 49.8507 70.3523 50.192C69.3176 50.192 68.507 49.8667 67.9203 49.216C67.3336 48.5547 67.0403 47.6693 67.0403 46.56C67.0403 45.44 67.387 44.3893 68.0803 43.408C68.7736 42.4267 69.659 41.7813 70.7363 41.472C71.515 41.472 72.395 41.552 73.3763 41.712L73.3603 42.064C73.1576 42.064 72.9656 42.1013 72.7843 42.176C72.5816 42.656 72.4483 43.2267 72.3843 43.888H71.9843C71.899 43.5253 71.8563 43.152 71.8563 42.768C71.451 42.5653 70.971 42.464 70.4163 42.464C69.8616 42.464 69.403 42.6133 69.0403 42.912C68.6776 43.5733 68.4696 44.3627 68.4163 45.28C68.8643 45.3547 69.3443 45.392 69.8563 45.392C70.7416 45.392 71.275 45.2053 71.4563 44.832L71.7923 44.88C71.6963 45.2 71.6483 45.5147 71.6483 45.824C71.6483 46.1333 71.6856 46.512 71.7603 46.96L71.3763 47.024C71.259 46.704 71.1736 46.3733 71.1203 46.032C70.6936 45.9893 70.267 45.968 69.8403 45.968C69.4243 45.968 68.9496 45.9947 68.4163 46.048Z" fill="#D2D01F"/>
</svg>
