<svg width="118" height="98" viewBox="0 0 118 98" fill="none" xmlns="http://www.w3.org/2000/svg">
<path d="M90.7476 0.684191C104.759 25.4902 96.193 57.0073 71.4663 71.2833C46.7396 85.5593 15.1617 77.2195 0.685051 52.6818L90.7476 0.684191Z" fill="#112433" stroke="#D2D01F"/>
<path d="M37.1955 39.344C38.4968 39.344 39.4782 39.7333 40.1395 40.512C40.8115 41.2907 41.1475 42.4053 41.1475 43.856C41.1475 45.296 40.7795 46.5973 40.0435 47.76C39.3182 48.912 38.3048 49.7387 37.0035 50.24C35.7555 50.24 34.7528 49.8293 33.9955 49.008C33.2382 48.176 32.8595 47.0933 32.8595 45.76C32.8595 43.584 33.6488 41.7813 35.2275 40.352L35.4195 40.48C34.6622 41.5787 34.2835 42.944 34.2835 44.576C34.2835 45.7387 34.5502 46.784 35.0835 47.712C35.6275 48.6293 36.3795 49.088 37.3395 49.088C37.9688 49.088 38.4968 48.9013 38.9235 48.528C39.4568 47.5467 39.7235 46.384 39.7235 45.04C39.7235 43.28 39.3875 41.9893 38.7155 41.168C38.3528 40.72 37.8995 40.496 37.3555 40.496C37.0782 40.496 36.8222 40.576 36.5875 40.736C36.3528 40.896 36.1875 41.104 36.0915 41.36C36.0915 41.5733 36.1395 41.824 36.2355 42.112C36.3315 42.3893 36.4542 42.5653 36.6035 42.64L36.6355 42.752C36.4008 43.04 36.2248 43.344 36.1075 43.664C36.0862 43.6747 36.0435 43.68 35.9795 43.68C35.5955 43.68 35.4035 43.3387 35.4035 42.656C35.4035 41.504 36.0008 40.4 37.1955 39.344ZM42.5005 41.696L46.1805 41.584C47.1405 41.584 47.8605 41.728 48.3405 42.016C48.8205 42.2933 49.0605 42.8053 49.0605 43.552C49.0605 44.064 48.9005 44.5173 48.5805 44.912C48.2712 45.3067 47.8605 45.6 47.3485 45.792L49.1405 49.456C49.5032 49.52 49.8445 49.5947 50.1645 49.68L50.1005 50.112C49.6525 50.0373 49.1458 50 48.5805 50C48.0258 50 47.5885 50.0267 47.2685 50.08L47.2045 49.824C47.3432 49.6853 47.4125 49.456 47.4125 49.136C47.4125 48.4853 47.0392 47.44 46.2925 46C46.0685 45.9573 45.8072 45.936 45.5085 45.936L45.5405 45.472H45.7005C46.9592 45.472 47.5885 44.896 47.5885 43.744C47.5885 42.6773 47.0498 42.144 45.9725 42.144C45.6098 42.144 45.2845 42.2027 44.9965 42.32C44.9218 43.024 44.8845 44.2293 44.8845 45.936C44.8845 47.6427 44.9325 48.8213 45.0285 49.472C45.4978 49.5253 45.9352 49.6053 46.3405 49.712L46.2925 50.112C45.7378 50.0373 45.1138 50 44.4205 50C43.7378 50 43.1245 50.0427 42.5805 50.128L42.5165 49.712C42.8152 49.616 43.1512 49.536 43.5245 49.472C43.6312 48.672 43.6845 47.4293 43.6845 45.744C43.6845 44.048 43.6365 42.8747 43.5405 42.224C43.1245 42.0853 42.7778 42.016 42.5005 42.016V41.696ZM51.9624 41.488C52.965 41.6053 53.9784 41.664 55.0024 41.664C56.0264 41.664 57.0344 41.6053 58.0264 41.488L58.0904 41.904C57.7704 42.032 57.4397 42.128 57.0984 42.192C56.981 43.0667 56.9224 44.2827 56.9224 45.84C56.9224 47.3973 56.981 48.6133 57.0984 49.488C57.3117 49.52 57.7064 49.6 58.2824 49.728L58.2184 50.128C57.7064 50.0427 57.0504 50 56.2504 50C55.4504 50 54.837 50.0427 54.4104 50.128L54.3464 49.712C54.709 49.5947 55.1197 49.5093 55.5784 49.456C55.6424 48.8373 55.6904 47.9787 55.7224 46.88C55.221 46.8267 54.7197 46.8 54.2184 46.8C53.717 46.8 53.2797 46.8267 52.9064 46.88C52.693 47.7547 52.5864 48.3627 52.5864 48.704C52.5864 49.2267 52.773 49.5947 53.1464 49.808L53.0824 50.08C52.837 50.0267 52.373 50 51.6904 50C51.0077 50 50.469 50.0427 50.0744 50.128L50.0104 49.712C50.2664 49.616 50.6184 49.5307 51.0664 49.456L53.1464 42.16C52.677 42.0853 52.2664 42 51.9144 41.904L51.9624 41.488ZM53.0344 46.128C53.4504 46.192 53.909 46.224 54.4104 46.224C54.9224 46.224 55.3597 46.192 55.7224 46.128C55.7224 44.1547 55.6797 42.88 55.5944 42.304C55.2317 42.2827 54.9597 42.272 54.7784 42.272C54.6077 42.272 54.341 42.2827 53.9784 42.304L53.0344 46.128ZM63.3409 50.112C62.7862 50.0373 62.1622 50 61.4689 50C60.7862 50 60.1729 50.0427 59.6289 50.128L59.5649 49.712C59.9062 49.6053 60.2262 49.5253 60.5249 49.472C60.6209 48.64 60.6689 47.552 60.6689 46.208V45.456C60.6689 44.0267 60.6155 42.928 60.5089 42.16C60.2209 42.128 59.8742 42.0427 59.4689 41.904L59.5169 41.488C60.1249 41.6053 60.7595 41.664 61.4209 41.664C62.0929 41.664 62.5729 41.6267 62.8609 41.552L62.8929 41.824C62.6049 41.8987 62.4609 42.0213 62.4609 42.192C62.4609 42.32 62.5835 42.592 62.8289 43.008C63.0849 43.4133 63.3302 43.808 63.5649 44.192C64.2689 45.312 65.1009 46.688 66.0609 48.32L66.1089 48.288V46.336C66.1089 44.9067 66.0342 43.8347 65.8849 43.12C65.7355 42.3947 65.4795 41.9733 65.1169 41.856L65.1489 41.584C65.4262 41.6373 65.8422 41.664 66.3969 41.664C66.9515 41.664 67.5222 41.6053 68.1089 41.488L68.1569 41.904C67.7195 42.0427 67.3515 42.128 67.0529 42.16C66.9462 43.0133 66.8929 44.112 66.8929 45.456V46.208C66.8929 47.8293 66.9462 48.928 67.0529 49.504C67.5009 49.5787 67.8582 49.664 68.1249 49.76L68.0769 50.176C67.5435 50.0587 67.0422 50 66.5729 50C66.1035 50 65.7409 50.0213 65.4849 50.064C65.4849 49.8293 65.3195 49.4347 64.9889 48.88C64.6689 48.3253 64.3755 47.8347 64.1089 47.408C63.2449 46.0107 62.3969 44.592 61.5649 43.152L61.5009 43.184V45.328C61.5009 47.4507 61.6609 48.832 61.9809 49.472C62.4609 49.5253 62.9302 49.6053 63.3889 49.712L63.3409 50.112ZM73.0696 49.072C73.5283 49.072 73.9816 48.9387 74.4296 48.672L74.3496 46.96C74.051 46.864 73.6883 46.7787 73.2616 46.704L73.3096 46.368C73.5656 46.3893 73.7523 46.4 73.8696 46.4C74.6056 46.4 75.2723 46.2027 75.8696 45.808L76.0296 46.096C75.9016 46.2133 75.7843 46.336 75.6776 46.464C75.5283 47.9147 75.4323 49.1093 75.3896 50.048H75.0536C74.9683 49.6533 74.8403 49.328 74.6696 49.072C74.051 49.616 73.427 49.9893 72.7976 50.192C71.763 50.192 70.9523 49.8667 70.3656 49.216C69.779 48.5547 69.4856 47.6693 69.4856 46.56C69.4856 45.44 69.8323 44.3893 70.5256 43.408C71.219 42.4267 72.1043 41.7813 73.1816 41.472C73.9603 41.472 74.8403 41.552 75.8216 41.712L75.8056 42.064C75.603 42.064 75.411 42.1013 75.2296 42.176C75.027 42.656 74.8936 43.2267 74.8296 43.888H74.4296C74.3443 43.5253 74.3016 43.152 74.3016 42.768C73.8963 42.5653 73.4163 42.464 72.8616 42.464C72.307 42.464 71.8483 42.6133 71.4856 42.912C71.059 43.6907 70.8456 44.6133 70.8456 45.68C70.8456 46.736 71.0003 47.568 71.3096 48.176C71.6296 48.7733 72.2163 49.072 73.0696 49.072ZM78.7366 46.048C78.7686 46.9973 78.9446 47.7387 79.2646 48.272C79.5846 48.8053 80.1286 49.072 80.8966 49.072C81.6646 49.072 82.374 48.7467 83.0246 48.096L83.2486 48.32C82.534 49.2267 81.6753 49.8507 80.6726 50.192C79.638 50.192 78.8273 49.8667 78.2406 49.216C77.654 48.5547 77.3606 47.6693 77.3606 46.56C77.3606 45.44 77.7073 44.3893 78.4006 43.408C79.094 42.4267 79.9793 41.7813 81.0566 41.472C81.8353 41.472 82.7153 41.552 83.6966 41.712L83.6806 42.064C83.478 42.064 83.286 42.1013 83.1046 42.176C82.902 42.656 82.7686 43.2267 82.7046 43.888H82.3046C82.2193 43.5253 82.1766 43.152 82.1766 42.768C81.7713 42.5653 81.2913 42.464 80.7366 42.464C80.182 42.464 79.7233 42.6133 79.3606 42.912C78.998 43.5733 78.79 44.3627 78.7366 45.28C79.1846 45.3547 79.6646 45.392 80.1766 45.392C81.062 45.392 81.5953 45.2053 81.7766 44.832L82.1126 44.88C82.0166 45.2 81.9686 45.5147 81.9686 45.824C81.9686 46.1333 82.006 46.512 82.0806 46.96L81.6966 47.024C81.5793 46.704 81.494 46.3733 81.4406 46.032C81.014 45.9893 80.5873 45.968 80.1606 45.968C79.7446 45.968 79.27 45.9947 78.7366 46.048Z" fill="#D2D01F"/>
</svg>
