<svg width="71" height="218" viewBox="0 0 71 218" fill="none" xmlns="http://www.w3.org/2000/svg">
<mask id="path-1-inside-1_72_140" fill="white">
<path fill-rule="evenodd" clip-rule="evenodd" d="M27.7009 0C25.0591 0 22.8731 2.05517 22.7104 4.69195L18.4938 73H5C2.23858 73 0 75.2386 0 78V213C0 215.761 2.23858 218 5 218H66C68.7614 218 71 215.761 71 213V78C71 75.2386 68.7614 73 66 73H52.9568L48.3165 4.66127C48.1383 2.03736 45.9579 0 43.328 0H27.7009Z"/>
</mask>
<path fill-rule="evenodd" clip-rule="evenodd" d="M27.7009 0C25.0591 0 22.8731 2.05517 22.7104 4.69195L18.4938 73H5C2.23858 73 0 75.2386 0 78V213C0 215.761 2.23858 218 5 218H66C68.7614 218 71 215.761 71 213V78C71 75.2386 68.7614 73 66 73H52.9568L48.3165 4.66127C48.1383 2.03736 45.9579 0 43.328 0H27.7009Z" fill="#112433"/>
<path d="M22.7104 4.69195L21.7123 4.63034V4.63034L22.7104 4.69195ZM18.4938 73V74H19.434L19.4919 73.0616L18.4938 73ZM52.9568 73L51.9591 73.0677L52.0224 74H52.9568V73ZM48.3165 4.66127L47.3188 4.72902V4.72902L48.3165 4.66127ZM23.7085 4.75356C23.8387 2.64414 25.5874 1 27.7009 1V-1C24.5307 -1 21.9076 1.46621 21.7123 4.63034L23.7085 4.75356ZM19.4919 73.0616L23.7085 4.75356L21.7123 4.63034L17.4957 72.9384L19.4919 73.0616ZM5 74H18.4938V72H5V74ZM1 78C1 75.7909 2.79086 74 5 74V72C1.68629 72 -1 74.6863 -1 78H1ZM1 213V78H-1V213H1ZM5 217C2.79086 217 1 215.209 1 213H-1C-1 216.314 1.68629 219 5 219V217ZM66 217H5V219H66V217ZM70 213C70 215.209 68.2091 217 66 217V219C69.3137 219 72 216.314 72 213H70ZM70 78V213H72V78H70ZM66 74C68.2091 74 70 75.7909 70 78H72C72 74.6863 69.3137 72 66 72V74ZM52.9568 74H66V72H52.9568V74ZM47.3188 4.72902L51.9591 73.0677L53.9545 72.9323L49.3142 4.59353L47.3188 4.72902ZM43.328 1C45.432 1 47.1763 2.62989 47.3188 4.72902L49.3142 4.59353C49.1004 1.44484 46.4839 -1 43.328 -1V1ZM27.7009 1H43.328V-1H27.7009V1Z" fill="#D2D01F" mask="url(#path-1-inside-1_72_140)"/>
<path d="M14.6955 100.344C15.9968 100.344 16.9782 100.733 17.6395 101.512C18.3115 102.291 18.6475 103.405 18.6475 104.856C18.6475 106.296 18.2795 107.597 17.5435 108.76C16.8182 109.912 15.8048 110.739 14.5035 111.24C13.2555 111.24 12.2528 110.829 11.4955 110.008C10.7382 109.176 10.3595 108.093 10.3595 106.76C10.3595 104.584 11.1488 102.781 12.7275 101.352L12.9195 101.48C12.1622 102.579 11.7835 103.944 11.7835 105.576C11.7835 106.739 12.0502 107.784 12.5835 108.712C13.1275 109.629 13.8795 110.088 14.8395 110.088C15.4688 110.088 15.9968 109.901 16.4235 109.528C16.9568 108.547 17.2235 107.384 17.2235 106.04C17.2235 104.28 16.8875 102.989 16.2155 102.168C15.8528 101.72 15.3995 101.496 14.8555 101.496C14.5782 101.496 14.3222 101.576 14.0875 101.736C13.8528 101.896 13.6875 102.104 13.5915 102.36C13.5915 102.573 13.6395 102.824 13.7355 103.112C13.8315 103.389 13.9542 103.565 14.1035 103.64L14.1355 103.752C13.9008 104.04 13.7248 104.344 13.6075 104.664C13.5862 104.675 13.5435 104.68 13.4795 104.68C13.0955 104.68 12.9035 104.339 12.9035 103.656C12.9035 102.504 13.5008 101.4 14.6955 100.344ZM20.0005 102.696L23.6805 102.584C24.6405 102.584 25.3605 102.728 25.8405 103.016C26.3205 103.293 26.5605 103.805 26.5605 104.552C26.5605 105.064 26.4005 105.517 26.0805 105.912C25.7712 106.307 25.3605 106.6 24.8485 106.792L26.6405 110.456C27.0032 110.52 27.3445 110.595 27.6645 110.68L27.6005 111.112C27.1525 111.037 26.6458 111 26.0805 111C25.5258 111 25.0885 111.027 24.7685 111.08L24.7045 110.824C24.8432 110.685 24.9125 110.456 24.9125 110.136C24.9125 109.485 24.5392 108.44 23.7925 107C23.5685 106.957 23.3072 106.936 23.0085 106.936L23.0405 106.472H23.2005C24.4592 106.472 25.0885 105.896 25.0885 104.744C25.0885 103.677 24.5498 103.144 23.4725 103.144C23.1098 103.144 22.7845 103.203 22.4965 103.32C22.4218 104.024 22.3845 105.229 22.3845 106.936C22.3845 108.643 22.4325 109.821 22.5285 110.472C22.9978 110.525 23.4352 110.605 23.8405 110.712L23.7925 111.112C23.2378 111.037 22.6138 111 21.9205 111C21.2378 111 20.6245 111.043 20.0805 111.128L20.0165 110.712C20.3152 110.616 20.6512 110.536 21.0245 110.472C21.1312 109.672 21.1845 108.429 21.1845 106.744C21.1845 105.048 21.1365 103.875 21.0405 103.224C20.6245 103.085 20.2778 103.016 20.0005 103.016V102.696ZM29.4624 102.488C30.465 102.605 31.4784 102.664 32.5024 102.664C33.5264 102.664 34.5344 102.605 35.5264 102.488L35.5904 102.904C35.2704 103.032 34.9397 103.128 34.5984 103.192C34.481 104.067 34.4224 105.283 34.4224 106.84C34.4224 108.397 34.481 109.613 34.5984 110.488C34.8117 110.52 35.2064 110.6 35.7824 110.728L35.7184 111.128C35.2064 111.043 34.5504 111 33.7504 111C32.9504 111 32.337 111.043 31.9104 111.128L31.8464 110.712C32.209 110.595 32.6197 110.509 33.0784 110.456C33.1424 109.837 33.1904 108.979 33.2224 107.88C32.721 107.827 32.2197 107.8 31.7184 107.8C31.217 107.8 30.7797 107.827 30.4064 107.88C30.193 108.755 30.0864 109.363 30.0864 109.704C30.0864 110.227 30.273 110.595 30.6464 110.808L30.5824 111.08C30.337 111.027 29.873 111 29.1904 111C28.5077 111 27.969 111.043 27.5744 111.128L27.5104 110.712C27.7664 110.616 28.1184 110.531 28.5664 110.456L30.6464 103.16C30.177 103.085 29.7664 103 29.4144 102.904L29.4624 102.488ZM30.5344 107.128C30.9504 107.192 31.409 107.224 31.9104 107.224C32.4224 107.224 32.8597 107.192 33.2224 107.128C33.2224 105.155 33.1797 103.88 33.0944 103.304C32.7317 103.283 32.4597 103.272 32.2784 103.272C32.1077 103.272 31.841 103.283 31.4784 103.304L30.5344 107.128ZM40.8409 111.112C40.2862 111.037 39.6622 111 38.9689 111C38.2862 111 37.6729 111.043 37.1289 111.128L37.0649 110.712C37.4062 110.605 37.7262 110.525 38.0249 110.472C38.1209 109.64 38.1689 108.552 38.1689 107.208V106.456C38.1689 105.027 38.1155 103.928 38.0089 103.16C37.7209 103.128 37.3742 103.043 36.9689 102.904L37.0169 102.488C37.6249 102.605 38.2595 102.664 38.9209 102.664C39.5929 102.664 40.0729 102.627 40.3609 102.552L40.3929 102.824C40.1049 102.899 39.9609 103.021 39.9609 103.192C39.9609 103.32 40.0835 103.592 40.3289 104.008C40.5849 104.413 40.8302 104.808 41.0649 105.192C41.7689 106.312 42.6009 107.688 43.5609 109.32L43.6089 109.288V107.336C43.6089 105.907 43.5342 104.835 43.3849 104.12C43.2355 103.395 42.9795 102.973 42.6169 102.856L42.6489 102.584C42.9262 102.637 43.3422 102.664 43.8969 102.664C44.4515 102.664 45.0222 102.605 45.6089 102.488L45.6569 102.904C45.2195 103.043 44.8515 103.128 44.5529 103.16C44.4462 104.013 44.3929 105.112 44.3929 106.456V107.208C44.3929 108.829 44.4462 109.928 44.5529 110.504C45.0009 110.579 45.3582 110.664 45.6249 110.76L45.5769 111.176C45.0435 111.059 44.5422 111 44.0729 111C43.6035 111 43.2409 111.021 42.9849 111.064C42.9849 110.829 42.8195 110.435 42.4889 109.88C42.1689 109.325 41.8755 108.835 41.6089 108.408C40.7449 107.011 39.8969 105.592 39.0649 104.152L39.0009 104.184V106.328C39.0009 108.451 39.1609 109.832 39.4809 110.472C39.9609 110.525 40.4302 110.605 40.8889 110.712L40.8409 111.112ZM50.5696 110.072C51.0283 110.072 51.4816 109.939 51.9296 109.672L51.8496 107.96C51.551 107.864 51.1883 107.779 50.7616 107.704L50.8096 107.368C51.0656 107.389 51.2523 107.4 51.3696 107.4C52.1056 107.4 52.7723 107.203 53.3696 106.808L53.5296 107.096C53.4016 107.213 53.2843 107.336 53.1776 107.464C53.0283 108.915 52.9323 110.109 52.8896 111.048H52.5536C52.4683 110.653 52.3403 110.328 52.1696 110.072C51.551 110.616 50.927 110.989 50.2976 111.192C49.263 111.192 48.4523 110.867 47.8656 110.216C47.279 109.555 46.9856 108.669 46.9856 107.56C46.9856 106.44 47.3323 105.389 48.0256 104.408C48.719 103.427 49.6043 102.781 50.6816 102.472C51.4603 102.472 52.3403 102.552 53.3216 102.712L53.3056 103.064C53.103 103.064 52.911 103.101 52.7296 103.176C52.527 103.656 52.3936 104.227 52.3296 104.888H51.9296C51.8443 104.525 51.8016 104.152 51.8016 103.768C51.3963 103.565 50.9163 103.464 50.3616 103.464C49.807 103.464 49.3483 103.613 48.9856 103.912C48.559 104.691 48.3456 105.613 48.3456 106.68C48.3456 107.736 48.5003 108.568 48.8096 109.176C49.1296 109.773 49.7163 110.072 50.5696 110.072ZM56.2366 107.048C56.2686 107.997 56.4446 108.739 56.7646 109.272C57.0846 109.805 57.6286 110.072 58.3966 110.072C59.1646 110.072 59.874 109.747 60.5246 109.096L60.7486 109.32C60.034 110.227 59.1753 110.851 58.1726 111.192C57.138 111.192 56.3273 110.867 55.7406 110.216C55.154 109.555 54.8606 108.669 54.8606 107.56C54.8606 106.44 55.2073 105.389 55.9006 104.408C56.594 103.427 57.4793 102.781 58.5566 102.472C59.3353 102.472 60.2153 102.552 61.1966 102.712L61.1806 103.064C60.978 103.064 60.786 103.101 60.6046 103.176C60.402 103.656 60.2686 104.227 60.2046 104.888H59.8046C59.7193 104.525 59.6766 104.152 59.6766 103.768C59.2713 103.565 58.7913 103.464 58.2366 103.464C57.682 103.464 57.2233 103.613 56.8606 103.912C56.498 104.573 56.29 105.363 56.2366 106.28C56.6846 106.355 57.1646 106.392 57.6766 106.392C58.562 106.392 59.0953 106.205 59.2766 105.832L59.6126 105.88C59.5166 106.2 59.4686 106.515 59.4686 106.824C59.4686 107.133 59.506 107.512 59.5806 107.96L59.1966 108.024C59.0793 107.704 58.994 107.373 58.9406 107.032C58.514 106.989 58.0873 106.968 57.6606 106.968C57.2446 106.968 56.77 106.995 56.2366 107.048ZM11.613 120.144C11.4743 121.083 11.405 122.576 11.405 124.624C11.405 126.661 11.4477 128.16 11.533 129.12C11.8957 129.141 12.237 129.152 12.557 129.152C13.8157 129.152 14.621 128.981 14.973 128.64C15.0477 128.491 15.085 128.256 15.085 127.936C15.085 127.616 15.0317 127.397 14.925 127.28L14.941 127.168C15.2077 127.008 15.4743 126.784 15.741 126.496C15.869 126.507 15.9703 126.56 16.045 126.656C16.1303 126.752 16.173 126.864 16.173 126.992C16.173 127.515 15.8583 128.139 15.229 128.864C14.5997 129.589 14.013 130.048 13.469 130.24C12.5517 130.208 11.5597 130.053 10.493 129.776C10.3437 129.968 10.221 130.213 10.125 130.512L9.789 130.416C10.013 129.339 10.141 127.573 10.173 125.12V124.32C10.173 122.453 10.1143 121.077 9.997 120.192C9.453 120.117 8.941 120.005 8.461 119.856L8.525 119.456C9.09033 119.541 9.83167 119.584 10.749 119.584C11.677 119.584 12.5357 119.541 13.325 119.456L13.373 119.84C12.733 119.989 12.1463 120.091 11.613 120.144ZM18.6219 122.192C18.5365 122.768 18.4939 123.947 18.4939 125.728C18.4939 127.509 18.5419 128.757 18.6379 129.472C19.1179 129.525 19.5605 129.605 19.9659 129.712L19.9179 130.112C19.3632 130.037 18.7392 130 18.0459 130C17.3632 130 16.7499 130.043 16.2059 130.128L16.1419 129.712C16.4405 129.616 16.7765 129.536 17.1499 129.472C17.2459 128.704 17.2939 127.616 17.2939 126.208V125.456C17.2939 124.048 17.2405 122.96 17.1339 122.192C16.7605 122.128 16.4245 122.048 16.1259 121.952L16.1899 121.536C16.7339 121.621 17.3472 121.664 18.0299 121.664C18.7232 121.664 19.3472 121.627 19.9019 121.552L19.9499 121.952C19.5445 122.059 19.1019 122.139 18.6219 122.192ZM24.2794 130.176C23.3087 130.112 22.5247 129.755 21.9274 129.104C21.33 128.453 21.0314 127.579 21.0314 126.48C21.0314 125.381 21.3727 124.341 22.0554 123.36C22.738 122.379 23.6287 121.749 24.7274 121.472C25.826 121.472 26.6634 121.787 27.2394 122.416C27.8154 123.035 28.1034 123.904 28.1034 125.024C28.1034 126.133 27.8207 127.141 27.2554 128.048C26.7007 128.944 25.922 129.611 24.9194 130.048C25.3247 130.059 25.9647 130.256 26.8394 130.64C27.714 131.024 28.2687 131.248 28.5034 131.312C28.8447 131.184 29.1594 131.035 29.4474 130.864L29.6394 131.152C29.138 131.515 28.6847 132.075 28.2794 132.832C26.6687 131.659 25.3354 131.072 24.2794 131.072C23.7674 131.072 23.3087 131.227 22.9034 131.536L22.6314 131.28C23.0794 130.811 23.6287 130.443 24.2794 130.176ZM24.2954 122.448C23.8154 122.448 23.3994 122.581 23.0474 122.848C22.61 123.595 22.3914 124.533 22.3914 125.664C22.3914 126.965 22.754 127.963 23.4794 128.656C23.8634 129.029 24.3167 129.216 24.8394 129.216C25.362 129.216 25.7834 129.077 26.1034 128.8C26.53 128.053 26.7434 127.141 26.7434 126.064C26.7434 124.987 26.5514 124.117 26.1674 123.456C25.7834 122.784 25.1594 122.448 24.2954 122.448ZM36.1573 125.456V126.208C36.1573 127.669 36.2106 128.763 36.3173 129.488C36.8079 129.552 37.2133 129.627 37.5333 129.712L37.4853 130.112C36.9626 130.037 36.4239 130 35.8693 130C35.3253 130 34.9519 130.016 34.7493 130.048L34.6853 129.84C34.7813 129.733 34.8453 129.429 34.8773 128.928C34.3226 129.504 33.6826 129.925 32.9573 130.192C31.1226 130.192 30.2053 129.099 30.2053 126.912C30.2053 126.432 30.2426 125.664 30.3173 124.608C30.3919 123.552 30.4293 122.933 30.4293 122.752C30.4293 122.571 30.3973 122.395 30.3333 122.224V122.208C29.8853 122.133 29.5279 122.053 29.2613 121.968L29.3253 121.536C29.9439 121.621 30.5039 121.664 31.0053 121.664C31.5066 121.664 31.9173 121.637 32.2373 121.584L32.3013 121.856C31.9173 122.059 31.6933 122.427 31.6293 122.96C31.5013 123.984 31.4373 125.035 31.4373 126.112C31.4373 127.189 31.5599 127.957 31.8053 128.416C32.0613 128.864 32.5306 129.088 33.2133 129.088C33.9066 129.088 34.4666 128.891 34.8933 128.496C34.9359 127.643 34.9573 126.635 34.9573 125.472C34.9573 124.309 34.9146 123.216 34.8293 122.192C34.3493 122.139 33.9066 122.059 33.5013 121.952L33.5493 121.552C34.1039 121.627 34.7226 121.664 35.4053 121.664C36.0986 121.664 36.7173 121.621 37.2613 121.536L37.3253 121.952C37.0266 122.048 36.6906 122.128 36.3173 122.192C36.2106 122.907 36.1573 123.995 36.1573 125.456ZM40.1273 126.048C40.1593 126.997 40.3353 127.739 40.6553 128.272C40.9753 128.805 41.5193 129.072 42.2873 129.072C43.0553 129.072 43.7646 128.747 44.4153 128.096L44.6393 128.32C43.9246 129.227 43.0659 129.851 42.0633 130.192C41.0286 130.192 40.2179 129.867 39.6313 129.216C39.0446 128.555 38.7513 127.669 38.7513 126.56C38.7513 125.44 39.0979 124.389 39.7913 123.408C40.4846 122.427 41.3699 121.781 42.4473 121.472C43.2259 121.472 44.1059 121.552 45.0873 121.712L45.0713 122.064C44.8686 122.064 44.6766 122.101 44.4953 122.176C44.2926 122.656 44.1593 123.227 44.0953 123.888H43.6953C43.6099 123.525 43.5673 123.152 43.5673 122.768C43.1619 122.565 42.6819 122.464 42.1273 122.464C41.5726 122.464 41.1139 122.613 40.7513 122.912C40.3886 123.573 40.1806 124.363 40.1273 125.28C40.5753 125.355 41.0553 125.392 41.5673 125.392C42.4526 125.392 42.9859 125.205 43.1673 124.832L43.5033 124.88C43.4073 125.2 43.3593 125.515 43.3593 125.824C43.3593 126.133 43.3966 126.512 43.4713 126.96L43.0873 127.024C42.9699 126.704 42.8846 126.373 42.8313 126.032C42.4046 125.989 41.9779 125.968 41.5513 125.968C41.1353 125.968 40.6606 125.995 40.1273 126.048ZM52.5791 125.456V126.208C52.5791 127.669 52.6325 128.763 52.7391 129.488C53.2298 129.552 53.6351 129.627 53.9551 129.712L53.9071 130.112C53.3845 130.037 52.8458 130 52.2911 130C51.7471 130 51.3738 130.016 51.1711 130.048L51.1071 129.84C51.2031 129.733 51.2671 129.429 51.2991 128.928C50.7445 129.504 50.1045 129.925 49.3791 130.192C47.5445 130.192 46.6271 129.099 46.6271 126.912C46.6271 126.432 46.6645 125.664 46.7391 124.608C46.8138 123.552 46.8511 122.933 46.8511 122.752C46.8511 122.571 46.8191 122.395 46.7551 122.224V122.208C46.3071 122.133 45.9498 122.053 45.6831 121.968L45.7471 121.536C46.3658 121.621 46.9258 121.664 47.4271 121.664C47.9285 121.664 48.3391 121.637 48.6591 121.584L48.7231 121.856C48.3391 122.059 48.1151 122.427 48.0511 122.96C47.9231 123.984 47.8591 125.035 47.8591 126.112C47.8591 127.189 47.9818 127.957 48.2271 128.416C48.4831 128.864 48.9525 129.088 49.6351 129.088C50.3285 129.088 50.8885 128.891 51.3151 128.496C51.3578 127.643 51.3791 126.635 51.3791 125.472C51.3791 124.309 51.3365 123.216 51.2511 122.192C50.7711 122.139 50.3285 122.059 49.9231 121.952L49.9711 121.552C50.5258 121.627 51.1445 121.664 51.8271 121.664C52.5205 121.664 53.1391 121.621 53.6831 121.536L53.7471 121.952C53.4485 122.048 53.1125 122.128 52.7391 122.192C52.6325 122.907 52.5791 123.995 52.5791 125.456ZM55.1411 121.696L58.8211 121.584C59.7811 121.584 60.5011 121.728 60.9811 122.016C61.4611 122.293 61.7011 122.805 61.7011 123.552C61.7011 124.064 61.5411 124.517 61.2211 124.912C60.9118 125.307 60.5011 125.6 59.9891 125.792L61.7811 129.456C62.1438 129.52 62.4851 129.595 62.8051 129.68L62.7411 130.112C62.2931 130.037 61.7865 130 61.2211 130C60.6665 130 60.2291 130.027 59.9091 130.08L59.8451 129.824C59.9838 129.685 60.0531 129.456 60.0531 129.136C60.0531 128.485 59.6798 127.44 58.9331 126C58.7091 125.957 58.4478 125.936 58.1491 125.936L58.1811 125.472H58.3411C59.5998 125.472 60.2291 124.896 60.2291 123.744C60.2291 122.677 59.6905 122.144 58.6131 122.144C58.2505 122.144 57.9251 122.203 57.6371 122.32C57.5625 123.024 57.5251 124.229 57.5251 125.936C57.5251 127.643 57.5731 128.821 57.6691 129.472C58.1385 129.525 58.5758 129.605 58.9811 129.712L58.9331 130.112C58.3785 130.037 57.7545 130 57.0611 130C56.3785 130 55.7651 130.043 55.2211 130.128L55.1571 129.712C55.4558 129.616 55.7918 129.536 56.1651 129.472C56.2718 128.672 56.3251 127.429 56.3251 125.744C56.3251 124.048 56.2771 122.875 56.1811 122.224C55.7651 122.085 55.4185 122.016 55.1411 122.016V121.696Z" fill="#D2D01F"/>
</svg>
