<svg width="89" height="94" viewBox="0 0 89 94" fill="none" xmlns="http://www.w3.org/2000/svg">
<path d="M38.2002 2.00326L18.7404 12.1922C16.9774 13.1152 15.9296 14.9959 16.0725 16.9808L17.4342 35.8923C17.6569 38.9854 15.0394 41.5331 11.9535 41.2269L8.66095 40.9003C6.19634 40.6558 3.92413 42.2524 3.31892 44.6541L1.20968 53.024C1.07091 53.5747 1.02697 54.145 1.07974 54.7105L3.94879 85.4503C4.18868 88.0205 6.34575 89.9856 8.92715 89.9856H34.8107C36.4449 89.9856 37.9759 89.1871 38.911 87.847L40.9392 84.9407C42.3922 82.8586 45.1749 82.196 47.4103 83.3999L64.0599 92.3665C65.8862 93.3501 68.1302 93.1039 69.6997 91.7477L86.269 77.4309C87.3682 76.4812 88 75.1003 88 73.6476V49.5288C88 47.3297 86.5631 45.3887 84.4598 44.7467L73.6085 41.4343C71.7005 40.8519 70.3214 39.1911 70.0993 37.2087L67.4439 13.4997C67.2295 11.5855 65.9346 9.96469 64.115 9.33288L42.1595 1.70945C40.8557 1.25675 39.4228 1.36308 38.2002 2.00326Z" fill="#112433" stroke="#D2D01F"/>
<path d="M29.9729 52.4301C29.9729 51.4914 30.1756 50.6807 30.5809 49.9981C30.9969 49.3154 31.4289 48.9741 31.8769 48.9741C31.9942 48.9741 32.1116 49.0114 32.2289 49.0861L32.2769 49.1981C32.1382 49.4647 32.0529 49.8007 32.0209 50.2061L31.9249 50.2701C31.8822 50.2487 31.8022 50.2381 31.6849 50.2381C31.5676 50.2381 31.3916 50.3021 31.1569 50.4301C30.9329 50.5581 30.7569 50.6861 30.6289 50.8141C30.5542 50.9634 30.5169 51.1341 30.5169 51.3261C30.5169 51.8274 30.8529 52.2594 31.5249 52.6221C32.2076 52.9741 32.8636 53.1501 33.4929 53.1501C34.8049 53.1501 35.4609 52.4034 35.4609 50.9101C35.4609 50.3447 34.9222 49.6354 33.8449 48.7821C33.3969 48.4194 32.9489 48.0567 32.5009 47.6941C31.4236 46.8407 30.8849 46.0994 30.8849 45.4701C30.8849 44.7234 31.2209 44.0301 31.8929 43.3901C32.5649 42.7394 33.3276 42.2647 34.1809 41.9661C35.0982 41.9661 35.9676 42.0567 36.7889 42.2381V42.5581C36.2342 43.0701 35.9249 43.8594 35.8609 44.9261H35.4609C35.4609 44.3607 35.4342 43.8647 35.3809 43.4381C34.9222 43.2247 34.4209 43.1181 33.8769 43.1181C33.3436 43.1181 32.8902 43.2354 32.5169 43.4701C32.1436 43.6941 31.9569 43.9821 31.9569 44.3341C31.9569 44.6861 32.1116 45.0434 32.4209 45.4061C32.7409 45.7581 33.1249 46.1047 33.5729 46.4461C34.0209 46.7767 34.4636 47.1181 34.9009 47.4701C35.3489 47.8114 35.7276 48.1847 36.0369 48.5901C36.3569 48.9847 36.5169 49.3687 36.5169 49.7421C36.5169 50.8087 36.2236 51.7581 35.6369 52.5901C35.0502 53.4221 34.2502 54.0461 33.2369 54.4621C31.9036 54.3234 30.8369 53.9501 30.0369 53.3421C29.9942 53.0434 29.9729 52.7394 29.9729 52.4301ZM38.9624 44.1101C39.9651 44.2274 40.9784 44.2861 42.0024 44.2861C43.0264 44.2861 44.0344 44.2274 45.0264 44.1101L45.0904 44.5261C44.7704 44.6541 44.4397 44.7501 44.0984 44.8141C43.9811 45.6887 43.9224 46.9047 43.9224 48.4621C43.9224 50.0194 43.9811 51.2354 44.0984 52.1101C44.3117 52.1421 44.7064 52.2221 45.2824 52.3501L45.2184 52.7501C44.7064 52.6647 44.0504 52.6221 43.2504 52.6221C42.4504 52.6221 41.8371 52.6647 41.4104 52.7501L41.3464 52.3341C41.7091 52.2167 42.1197 52.1314 42.5784 52.0781C42.6424 51.4594 42.6904 50.6007 42.7224 49.5021C42.2211 49.4487 41.7197 49.4221 41.2184 49.4221C40.7171 49.4221 40.2797 49.4487 39.9064 49.5021C39.6931 50.3767 39.5864 50.9847 39.5864 51.3261C39.5864 51.8487 39.7731 52.2167 40.1464 52.4301L40.0824 52.7021C39.8371 52.6487 39.3731 52.6221 38.6904 52.6221C38.0077 52.6221 37.4691 52.6647 37.0744 52.7501L37.0104 52.3341C37.2664 52.2381 37.6184 52.1527 38.0664 52.0781L40.1464 44.7821C39.6771 44.7074 39.2664 44.6221 38.9144 44.5261L38.9624 44.1101ZM40.0344 48.7501C40.4504 48.8141 40.9091 48.8461 41.4104 48.8461C41.9224 48.8461 42.3597 48.8141 42.7224 48.7501C42.7224 46.7767 42.6797 45.5021 42.5944 44.9261C42.2317 44.9047 41.9597 44.8941 41.7784 44.8941C41.6077 44.8941 41.3411 44.9047 40.9784 44.9261L40.0344 48.7501ZM52.3409 52.7981C51.6476 52.6807 50.7036 52.6221 49.5089 52.6221C48.3249 52.6221 47.3329 52.6754 46.5329 52.7821L46.4849 52.3821C46.7836 52.2647 47.1249 52.1687 47.5089 52.0941C47.6156 51.4541 47.6689 50.3661 47.6689 48.8301V48.0781C47.6689 46.7554 47.6156 45.6674 47.5089 44.8141C47.1569 44.7607 46.8209 44.6807 46.5009 44.5741L46.5649 44.1581C47.1089 44.2434 47.7489 44.2861 48.4849 44.2861C49.2209 44.2861 49.8502 44.2434 50.3729 44.1581L50.4209 44.5581C49.9409 44.6754 49.4662 44.7607 48.9969 44.8141C48.9116 45.3901 48.8689 46.5794 48.8689 48.3821C48.8689 50.1741 48.9116 51.3687 48.9969 51.9661C49.2529 52.0087 49.6156 52.0301 50.0849 52.0301C50.5542 52.0301 50.9756 51.9394 51.3489 51.7581C51.4982 51.3954 51.5729 50.9687 51.5729 50.4781H51.9729C52.0156 51.2994 52.1649 51.9661 52.4209 52.4781L52.3409 52.7981ZM58.2325 45.1501C57.8592 44.9687 57.5018 44.8781 57.1605 44.8781C56.8192 44.8781 56.5898 44.8994 56.4725 44.9421C56.3872 45.5181 56.3445 46.6327 56.3445 48.2861C56.3445 49.9394 56.4032 51.2087 56.5205 52.0941C57.0005 52.1474 57.4432 52.2274 57.8485 52.3341L57.8005 52.7341C57.2458 52.6594 56.6058 52.6221 55.8805 52.6221C55.1658 52.6221 54.5365 52.6647 53.9925 52.7501L53.9285 52.3341C54.1418 52.2701 54.5098 52.1901 55.0325 52.0941C55.1285 51.3261 55.1765 50.2381 55.1765 48.8301V48.0781C55.1765 47.3314 55.1178 46.2861 55.0005 44.9421C54.8832 44.8994 54.6645 44.8781 54.3445 44.8781C54.0245 44.8781 53.6832 44.9527 53.3205 45.1021C53.2138 45.4327 53.1392 45.8754 53.0965 46.4301H52.6805C52.6805 45.5554 52.5365 44.8781 52.2485 44.3981L52.3285 44.1261C53.1498 44.2327 54.3018 44.2861 55.7845 44.2861C57.2672 44.2861 58.4618 44.2274 59.3685 44.1101L59.4645 44.4141C59.1978 44.7127 59.0165 45.0061 58.9205 45.2941C58.8245 45.5714 58.7658 45.9501 58.7445 46.4301H58.3445C58.2698 46.0781 58.2325 45.6514 58.2325 45.1501Z" fill="#D2D01F"/>
</svg>
