<svg width="118" height="83" viewBox="0 0 118 83" fill="none" xmlns="http://www.w3.org/2000/svg">
<rect x="0.5" y="0.5" width="117" height="82" rx="19.5" fill="#112433" stroke="#D2D01F"/>
<path d="M38.9416 46.808C38.9416 45.8693 39.1443 45.0587 39.5496 44.376C39.9656 43.6933 40.3976 43.352 40.8456 43.352C40.963 43.352 41.0803 43.3893 41.1976 43.464L41.2456 43.576C41.107 43.8427 41.0216 44.1787 40.9896 44.584L40.8936 44.648C40.851 44.6267 40.771 44.616 40.6536 44.616C40.5363 44.616 40.3603 44.68 40.1256 44.808C39.9016 44.936 39.7256 45.064 39.5976 45.192C39.523 45.3413 39.4856 45.512 39.4856 45.704C39.4856 46.2053 39.8216 46.6373 40.4936 47C41.1763 47.352 41.8323 47.528 42.4616 47.528C43.7736 47.528 44.4296 46.7813 44.4296 45.288C44.4296 44.7227 43.891 44.0133 42.8136 43.16C42.3656 42.7973 41.9176 42.4347 41.4696 42.072C40.3923 41.2187 39.8536 40.4773 39.8536 39.848C39.8536 39.1013 40.1896 38.408 40.8616 37.768C41.5336 37.1173 42.2963 36.6427 43.1496 36.344C44.067 36.344 44.9363 36.4347 45.7576 36.616V36.936C45.203 37.448 44.8936 38.2373 44.8296 39.304H44.4296C44.4296 38.7387 44.403 38.2427 44.3496 37.816C43.891 37.6027 43.3896 37.496 42.8456 37.496C42.3123 37.496 41.859 37.6133 41.4856 37.848C41.1123 38.072 40.9256 38.36 40.9256 38.712C40.9256 39.064 41.0803 39.4213 41.3896 39.784C41.7096 40.136 42.0936 40.4827 42.5416 40.824C42.9896 41.1547 43.4323 41.496 43.8696 41.848C44.3176 42.1893 44.6963 42.5627 45.0056 42.968C45.3256 43.3627 45.4856 43.7467 45.4856 44.12C45.4856 45.1867 45.1923 46.136 44.6056 46.968C44.019 47.8 43.219 48.424 42.2056 48.84C40.8723 48.7013 39.8056 48.328 39.0056 47.72C38.963 47.4213 38.9416 47.1173 38.9416 46.808ZM51.9471 38.536C52.4911 38.6213 53.1045 38.664 53.7871 38.664C54.4805 38.664 55.1045 38.6267 55.6591 38.552L55.7071 38.952C55.3018 39.0587 54.8591 39.1387 54.3791 39.192C54.2725 39.8533 54.2191 40.9413 54.2191 42.456V43.208C54.2191 44.744 54.2725 45.832 54.3791 46.472C54.8591 46.5253 55.3018 46.6053 55.7071 46.712L55.6591 47.112C55.1045 47.0373 54.4805 47 53.7871 47C53.1045 47 52.4911 47.0427 51.9471 47.128L51.8831 46.712C52.1818 46.616 52.5178 46.536 52.8911 46.472C52.9765 45.2667 53.0245 44.0613 53.0351 42.856C52.3525 42.792 51.7231 42.76 51.1471 42.76C50.5711 42.76 49.9471 42.792 49.2751 42.856C49.2751 44.616 49.3231 45.8213 49.4191 46.472C49.8991 46.5253 50.3418 46.6053 50.7471 46.712L50.6991 47.112C50.1445 47.0373 49.5205 47 48.8271 47C48.1445 47 47.5311 47.0427 46.9871 47.128L46.9231 46.712C47.2218 46.616 47.5578 46.536 47.9311 46.472C48.0271 45.704 48.0751 44.616 48.0751 43.208V42.456C48.0751 41.048 48.0218 39.96 47.9151 39.192C47.5418 39.128 47.2058 39.048 46.9071 38.952L46.9711 38.536C47.5151 38.6213 48.1285 38.664 48.8111 38.664C49.5045 38.664 50.1285 38.6267 50.6831 38.552L50.7311 38.952C50.3258 39.0587 49.8831 39.1387 49.4031 39.192C49.3178 39.8107 49.2751 40.7653 49.2751 42.056C49.8725 42.1413 50.5125 42.184 51.1951 42.184C51.8885 42.184 52.5018 42.1467 53.0351 42.072C53.0245 41.1653 52.9765 40.2053 52.8911 39.192C52.5178 39.128 52.1818 39.048 51.8831 38.952L51.9471 38.536ZM57.8218 38.488C58.8244 38.6053 59.8378 38.664 60.8618 38.664C61.8858 38.664 62.8938 38.6053 63.8858 38.488L63.9498 38.904C63.6298 39.032 63.2991 39.128 62.9578 39.192C62.8404 40.0667 62.7818 41.2827 62.7818 42.84C62.7818 44.3973 62.8404 45.6133 62.9578 46.488C63.1711 46.52 63.5658 46.6 64.1418 46.728L64.0778 47.128C63.5658 47.0427 62.9098 47 62.1098 47C61.3098 47 60.6964 47.0427 60.2698 47.128L60.2057 46.712C60.5684 46.5947 60.9791 46.5093 61.4378 46.456C61.5018 45.8373 61.5498 44.9787 61.5818 43.88C61.0804 43.8267 60.5791 43.8 60.0778 43.8C59.5764 43.8 59.1391 43.8267 58.7658 43.88C58.5524 44.7547 58.4457 45.3627 58.4457 45.704C58.4457 46.2267 58.6324 46.5947 59.0058 46.808L58.9418 47.08C58.6964 47.0267 58.2324 47 57.5498 47C56.8671 47 56.3284 47.0427 55.9337 47.128L55.8697 46.712C56.1258 46.616 56.4778 46.5307 56.9258 46.456L59.0058 39.16C58.5364 39.0853 58.1258 39 57.7738 38.904L57.8218 38.488ZM58.8938 43.128C59.3098 43.192 59.7684 43.224 60.2698 43.224C60.7818 43.224 61.2191 43.192 61.5818 43.128C61.5818 41.1547 61.5391 39.88 61.4538 39.304C61.0911 39.2827 60.8191 39.272 60.6378 39.272C60.4671 39.272 60.2004 39.2827 59.8378 39.304L58.8938 43.128ZM67.7283 42.472V43.128C68.8163 41.976 69.5203 41.1493 69.8403 40.648C70.1709 40.136 70.3363 39.7413 70.3363 39.464C70.3363 39.176 70.2563 38.9733 70.0963 38.856L70.1763 38.584C70.4109 38.6373 70.7469 38.664 71.1843 38.664C71.6323 38.664 72.1763 38.6213 72.8163 38.536L72.8802 38.952C72.6349 39.0373 72.2776 39.1227 71.8083 39.208C71.7123 39.9333 71.0936 40.8347 69.9523 41.912L72.0643 46.456C72.5123 46.5307 72.8643 46.616 73.1203 46.712L73.0563 47.128C72.6616 47.0427 72.1443 47 71.5043 47C70.8749 47 70.4323 47.0267 70.1763 47.08L70.0963 46.808C70.2456 46.6587 70.3203 46.4347 70.3203 46.136C70.3203 45.4213 69.8989 44.2587 69.0563 42.648C68.8429 42.8293 68.4003 43.1973 67.7283 43.752C67.7603 45.0533 67.8083 45.96 67.8723 46.472C68.3523 46.5253 68.7949 46.6053 69.2003 46.712L69.1523 47.112C68.5976 47.0373 67.9736 47 67.2803 47C66.5976 47 65.9843 47.0427 65.4403 47.128L65.3763 46.712C65.6749 46.616 66.0109 46.536 66.3843 46.472C66.4803 45.704 66.5283 44.616 66.5283 43.208V42.456C66.5283 41.048 66.4749 39.96 66.3683 39.192C65.9949 39.128 65.6589 39.048 65.3603 38.952L65.4243 38.536C65.9683 38.6213 66.5816 38.664 67.2643 38.664C67.9576 38.664 68.5816 38.6267 69.1363 38.552L69.1843 38.952C68.7789 39.0587 68.3363 39.1387 67.8563 39.192C67.7709 39.768 67.7283 40.8613 67.7283 42.472ZM75.1585 43.048C75.1905 43.9973 75.3665 44.7387 75.6865 45.272C76.0065 45.8053 76.5505 46.072 77.3185 46.072C78.0865 46.072 78.7958 45.7467 79.4465 45.096L79.6705 45.32C78.9558 46.2267 78.0972 46.8507 77.0945 47.192C76.0598 47.192 75.2492 46.8667 74.6625 46.216C74.0758 45.5547 73.7825 44.6693 73.7825 43.56C73.7825 42.44 74.1292 41.3893 74.8225 40.408C75.5158 39.4267 76.4012 38.7813 77.4785 38.472C78.2572 38.472 79.1372 38.552 80.1185 38.712L80.1025 39.064C79.8998 39.064 79.7078 39.1013 79.5265 39.176C79.3238 39.656 79.1905 40.2267 79.1265 40.888H78.7265C78.6412 40.5253 78.5985 40.152 78.5985 39.768C78.1932 39.5653 77.7132 39.464 77.1585 39.464C76.6038 39.464 76.1452 39.6133 75.7825 39.912C75.4198 40.5733 75.2118 41.3627 75.1585 42.28C75.6065 42.3547 76.0865 42.392 76.5985 42.392C77.4838 42.392 78.0172 42.2053 78.1985 41.832L78.5345 41.88C78.4385 42.2 78.3905 42.5147 78.3905 42.824C78.3905 43.1333 78.4278 43.512 78.5025 43.96L78.1185 44.024C78.0012 43.704 77.9158 43.3733 77.8625 43.032C77.4358 42.9893 77.0092 42.968 76.5825 42.968C76.1665 42.968 75.6918 42.9947 75.1585 43.048Z" fill="#D2D01F"/>
</svg>
