<svg width="71" height="218" viewBox="0 0 71 218" fill="none" xmlns="http://www.w3.org/2000/svg">
<mask id="path-1-inside-1_72_150" fill="white">
<path fill-rule="evenodd" clip-rule="evenodd" d="M27.7009 0C25.0591 0 22.8731 2.05517 22.7104 4.69195L18.4938 73H5C2.23858 73 0 75.2386 0 78V213C0 215.761 2.23858 218 5 218H66C68.7614 218 71 215.761 71 213V78C71 75.2386 68.7614 73 66 73H52.9568L48.3165 4.66127C48.1383 2.03736 45.9579 0 43.328 0H27.7009Z"/>
</mask>
<path fill-rule="evenodd" clip-rule="evenodd" d="M27.7009 0C25.0591 0 22.8731 2.05517 22.7104 4.69195L18.4938 73H5C2.23858 73 0 75.2386 0 78V213C0 215.761 2.23858 218 5 218H66C68.7614 218 71 215.761 71 213V78C71 75.2386 68.7614 73 66 73H52.9568L48.3165 4.66127C48.1383 2.03736 45.9579 0 43.328 0H27.7009Z" fill="#112433"/>
<path d="M22.7104 4.69195L21.7123 4.63034V4.63034L22.7104 4.69195ZM18.4938 73V74H19.434L19.4919 73.0616L18.4938 73ZM52.9568 73L51.9591 73.0677L52.0224 74H52.9568V73ZM48.3165 4.66127L47.3188 4.72902V4.72902L48.3165 4.66127ZM23.7085 4.75356C23.8387 2.64414 25.5874 1 27.7009 1V-1C24.5307 -1 21.9076 1.46621 21.7123 4.63034L23.7085 4.75356ZM19.4919 73.0616L23.7085 4.75356L21.7123 4.63034L17.4957 72.9384L19.4919 73.0616ZM5 74H18.4938V72H5V74ZM1 78C1 75.7909 2.79086 74 5 74V72C1.68629 72 -1 74.6863 -1 78H1ZM1 213V78H-1V213H1ZM5 217C2.79086 217 1 215.209 1 213H-1C-1 216.314 1.68629 219 5 219V217ZM66 217H5V219H66V217ZM70 213C70 215.209 68.2091 217 66 217V219C69.3137 219 72 216.314 72 213H70ZM70 78V213H72V78H70ZM66 74C68.2091 74 70 75.7909 70 78H72C72 74.6863 69.3137 72 66 72V74ZM52.9568 74H66V72H52.9568V74ZM47.3188 4.72902L51.9591 73.0677L53.9545 72.9323L49.3142 4.59353L47.3188 4.72902ZM43.328 1C45.432 1 47.1763 2.62989 47.3188 4.72902L49.3142 4.59353C49.1004 1.44484 46.4839 -1 43.328 -1V1ZM27.7009 1H43.328V-1H27.7009V1Z" fill="#D2D01F" mask="url(#path-1-inside-1_72_150)"/>
<path d="M19.1526 110.808C19.1526 109.869 19.3552 109.059 19.7606 108.376C20.1766 107.693 20.6086 107.352 21.0566 107.352C21.1739 107.352 21.2912 107.389 21.4086 107.464L21.4566 107.576C21.3179 107.843 21.2326 108.179 21.2006 108.584L21.1046 108.648C21.0619 108.627 20.9819 108.616 20.8646 108.616C20.7472 108.616 20.5712 108.68 20.3366 108.808C20.1126 108.936 19.9366 109.064 19.8086 109.192C19.7339 109.341 19.6966 109.512 19.6966 109.704C19.6966 110.205 20.0326 110.637 20.7046 111C21.3872 111.352 22.0432 111.528 22.6726 111.528C23.9846 111.528 24.6406 110.781 24.6406 109.288C24.6406 108.723 24.1019 108.013 23.0246 107.16C22.5766 106.797 22.1286 106.435 21.6806 106.072C20.6032 105.219 20.0646 104.477 20.0646 103.848C20.0646 103.101 20.4006 102.408 21.0726 101.768C21.7446 101.117 22.5072 100.643 23.3606 100.344C24.2779 100.344 25.1472 100.435 25.9686 100.616V100.936C25.4139 101.448 25.1046 102.237 25.0406 103.304H24.6406C24.6406 102.739 24.6139 102.243 24.5606 101.816C24.1019 101.603 23.6006 101.496 23.0566 101.496C22.5232 101.496 22.0699 101.613 21.6966 101.848C21.3232 102.072 21.1366 102.36 21.1366 102.712C21.1366 103.064 21.2912 103.421 21.6006 103.784C21.9206 104.136 22.3046 104.483 22.7526 104.824C23.2006 105.155 23.6432 105.496 24.0806 105.848C24.5286 106.189 24.9072 106.563 25.2166 106.968C25.5366 107.363 25.6966 107.747 25.6966 108.12C25.6966 109.187 25.4032 110.136 24.8166 110.968C24.2299 111.8 23.4299 112.424 22.4166 112.84C21.0832 112.701 20.0166 112.328 19.2166 111.72C19.1739 111.421 19.1526 111.117 19.1526 110.808ZM30.6221 111.192C29.5661 111.192 28.7127 110.861 28.0621 110.2C27.4114 109.528 27.0861 108.632 27.0861 107.512C27.0861 106.392 27.4274 105.341 28.1101 104.36C28.7927 103.379 29.6834 102.749 30.7821 102.472C31.8807 102.472 32.7181 102.787 33.2941 103.416C33.8701 104.035 34.1581 104.92 34.1581 106.072C34.1581 107.224 33.8434 108.264 33.2141 109.192C32.5954 110.12 31.7314 110.787 30.6221 111.192ZM30.3501 103.448C29.8701 103.448 29.4541 103.581 29.1021 103.848C28.6647 104.595 28.4461 105.533 28.4461 106.664C28.4461 107.965 28.8087 108.963 29.5341 109.656C29.9181 110.029 30.3714 110.216 30.8941 110.216C31.4167 110.216 31.8381 110.077 32.1581 109.8C32.5847 109.053 32.7981 108.141 32.7981 107.064C32.7981 105.987 32.6061 105.117 32.2221 104.456C31.8381 103.784 31.2141 103.448 30.3501 103.448ZM35.4119 102.696L39.0919 102.584C40.3079 102.584 41.2413 102.872 41.8919 103.448C42.5533 104.024 42.8839 104.888 42.8839 106.04C42.8839 107.181 42.5213 108.248 41.7959 109.24C41.0813 110.232 40.1906 110.883 39.1239 111.192C38.8466 111.192 38.4839 111.139 38.0359 111.032C37.5986 110.936 37.2359 110.829 36.9479 110.712C36.8306 110.851 36.7239 111.048 36.6279 111.304L36.2919 111.224C36.4946 110.275 36.5959 108.936 36.5959 107.208C36.5959 105.469 36.5479 104.168 36.4519 103.304C36.0893 103.165 35.7426 103.096 35.4119 103.096V102.696ZM40.9159 104.296C40.7239 103.933 40.4519 103.651 40.0999 103.448C39.7586 103.245 39.3799 103.144 38.9639 103.144C38.5586 103.144 38.2066 103.203 37.9079 103.32C37.8333 104.013 37.7959 105.123 37.7959 106.648C37.7959 108.163 37.8173 109.213 37.8599 109.8C38.3933 110.045 38.9373 110.168 39.4919 110.168C40.0573 110.168 40.5053 110.024 40.8359 109.736C41.2413 108.968 41.4439 108.024 41.4439 106.904C41.4439 105.859 41.2679 104.989 40.9159 104.296ZM45.1889 102.488C46.1916 102.605 47.2049 102.664 48.2289 102.664C49.2529 102.664 50.2609 102.605 51.2529 102.488L51.3169 102.904C50.9969 103.032 50.6663 103.128 50.3249 103.192C50.2076 104.067 50.1489 105.283 50.1489 106.84C50.1489 108.397 50.2076 109.613 50.3249 110.488C50.5383 110.52 50.9329 110.6 51.5089 110.728L51.4449 111.128C50.9329 111.043 50.2769 111 49.4769 111C48.6769 111 48.0636 111.043 47.6369 111.128L47.5729 110.712C47.9356 110.595 48.3463 110.509 48.8049 110.456C48.8689 109.837 48.9169 108.979 48.9489 107.88C48.4476 107.827 47.9463 107.8 47.4449 107.8C46.9436 107.8 46.5063 107.827 46.1329 107.88C45.9196 108.755 45.8129 109.363 45.8129 109.704C45.8129 110.227 45.9996 110.595 46.3729 110.808L46.3089 111.08C46.0636 111.027 45.5996 111 44.9169 111C44.2343 111 43.6956 111.043 43.3009 111.128L43.2369 110.712C43.4929 110.616 43.8449 110.531 44.2929 110.456L46.3729 103.16C45.9036 103.085 45.4929 103 45.1409 102.904L45.1889 102.488ZM46.2609 107.128C46.6769 107.192 47.1356 107.224 47.6369 107.224C48.1489 107.224 48.5863 107.192 48.9489 107.128C48.9489 105.155 48.9063 103.88 48.8209 103.304C48.4583 103.283 48.1863 103.272 48.0049 103.272C47.8343 103.272 47.5676 103.283 47.2049 103.304L46.2609 107.128Z" fill="#D2D01F"/>
</svg>
