<svg width="71" height="218" viewBox="0 0 71 218" fill="none" xmlns="http://www.w3.org/2000/svg">
<mask id="path-1-inside-1_72_145" fill="white">
<path fill-rule="evenodd" clip-rule="evenodd" d="M27.7009 0C25.0591 0 22.8731 2.05517 22.7104 4.69195L18.4938 73H5C2.23858 73 0 75.2386 0 78V213C0 215.761 2.23858 218 5 218H66C68.7614 218 71 215.761 71 213V78C71 75.2386 68.7614 73 66 73H52.9568L48.3165 4.66127C48.1383 2.03736 45.9579 0 43.328 0H27.7009Z"/>
</mask>
<path fill-rule="evenodd" clip-rule="evenodd" d="M27.7009 0C25.0591 0 22.8731 2.05517 22.7104 4.69195L18.4938 73H5C2.23858 73 0 75.2386 0 78V213C0 215.761 2.23858 218 5 218H66C68.7614 218 71 215.761 71 213V78C71 75.2386 68.7614 73 66 73H52.9568L48.3165 4.66127C48.1383 2.03736 45.9579 0 43.328 0H27.7009Z" fill="#112433"/>
<path d="M22.7104 4.69195L21.7123 4.63034V4.63034L22.7104 4.69195ZM18.4938 73V74H19.434L19.4919 73.0616L18.4938 73ZM52.9568 73L51.9591 73.0677L52.0224 74H52.9568V73ZM48.3165 4.66127L47.3188 4.72902V4.72902L48.3165 4.66127ZM23.7085 4.75356C23.8387 2.64414 25.5874 1 27.7009 1V-1C24.5307 -1 21.9076 1.46621 21.7123 4.63034L23.7085 4.75356ZM19.4919 73.0616L23.7085 4.75356L21.7123 4.63034L17.4957 72.9384L19.4919 73.0616ZM5 74H18.4938V72H5V74ZM1 78C1 75.7909 2.79086 74 5 74V72C1.68629 72 -1 74.6863 -1 78H1ZM1 213V78H-1V213H1ZM5 217C2.79086 217 1 215.209 1 213H-1C-1 216.314 1.68629 219 5 219V217ZM66 217H5V219H66V217ZM70 213C70 215.209 68.2091 217 66 217V219C69.3137 219 72 216.314 72 213H70ZM70 78V213H72V78H70ZM66 74C68.2091 74 70 75.7909 70 78H72C72 74.6863 69.3137 72 66 72V74ZM52.9568 74H66V72H52.9568V74ZM47.3188 4.72902L51.9591 73.0677L53.9545 72.9323L49.3142 4.59353L47.3188 4.72902ZM43.328 1C45.432 1 47.1763 2.62989 47.3188 4.72902L49.3142 4.59353C49.1004 1.44484 46.4839 -1 43.328 -1V1ZM27.7009 1H43.328V-1H27.7009V1Z" fill="#D2D01F" mask="url(#path-1-inside-1_72_145)"/>
<path d="M15.7229 110.808C15.7229 109.869 15.9255 109.059 16.3309 108.376C16.7469 107.693 17.1789 107.352 17.6269 107.352C17.7442 107.352 17.8615 107.389 17.9789 107.464L18.0269 107.576C17.8882 107.843 17.8029 108.179 17.7709 108.584L17.6749 108.648C17.6322 108.627 17.5522 108.616 17.4349 108.616C17.3175 108.616 17.1415 108.68 16.9069 108.808C16.6829 108.936 16.5069 109.064 16.3789 109.192C16.3042 109.341 16.2669 109.512 16.2669 109.704C16.2669 110.205 16.6029 110.637 17.2749 111C17.9575 111.352 18.6135 111.528 19.2429 111.528C20.5549 111.528 21.2109 110.781 21.2109 109.288C21.2109 108.723 20.6722 108.013 19.5949 107.16C19.1469 106.797 18.6989 106.435 18.2509 106.072C17.1735 105.219 16.6349 104.477 16.6349 103.848C16.6349 103.101 16.9709 102.408 17.6429 101.768C18.3149 101.117 19.0775 100.643 19.9309 100.344C20.8482 100.344 21.7175 100.435 22.5389 100.616V100.936C21.9842 101.448 21.6749 102.237 21.6109 103.304H21.2109C21.2109 102.739 21.1842 102.243 21.1309 101.816C20.6722 101.603 20.1709 101.496 19.6269 101.496C19.0935 101.496 18.6402 101.613 18.2669 101.848C17.8935 102.072 17.7069 102.36 17.7069 102.712C17.7069 103.064 17.8615 103.421 18.1709 103.784C18.4909 104.136 18.8749 104.483 19.3229 104.824C19.7709 105.155 20.2135 105.496 20.6509 105.848C21.0989 106.189 21.4775 106.563 21.7869 106.968C22.1069 107.363 22.2669 107.747 22.2669 108.12C22.2669 109.187 21.9735 110.136 21.3869 110.968C20.8002 111.8 20.0002 112.424 18.9869 112.84C17.6535 112.701 16.5869 112.328 15.7869 111.72C15.7442 111.421 15.7229 111.117 15.7229 110.808ZM28.3604 103.208C28.3604 103.037 28.2164 102.92 27.9284 102.856L27.9924 102.584C28.3124 102.637 28.7284 102.664 29.2404 102.664C29.763 102.664 30.3337 102.621 30.9524 102.536L31.0164 102.952C30.739 103.048 30.387 103.128 29.9604 103.192L27.3044 107.192C27.3044 108.579 27.3577 109.672 27.4644 110.472C27.9337 110.525 28.371 110.605 28.7764 110.712L28.7284 111.112C28.1737 111.037 27.5337 111 26.8084 111C26.0937 111 25.4644 111.043 24.9204 111.128L24.8564 110.712C25.059 110.648 25.4217 110.568 25.9444 110.472C26.0404 109.896 26.0884 109.027 26.0884 107.864V107.528C24.851 105.032 24.067 103.581 23.7364 103.176C23.4377 103.144 23.107 103.069 22.7444 102.952L22.8084 102.536C23.235 102.621 23.8484 102.664 24.6484 102.664C25.4484 102.664 26.1044 102.621 26.6164 102.536L26.6804 102.936C26.179 103.053 25.7577 103.133 25.4164 103.176C25.779 104.285 26.2857 105.453 26.9364 106.68C27.8857 104.835 28.3604 103.677 28.3604 103.208ZM31.1099 102.696L34.7899 102.584C35.7499 102.584 36.4699 102.728 36.9499 103.016C37.4299 103.293 37.6699 103.805 37.6699 104.552C37.6699 105.064 37.5099 105.517 37.1899 105.912C36.8805 106.307 36.4699 106.6 35.9579 106.792L37.7499 110.456C38.1125 110.52 38.4539 110.595 38.7739 110.68L38.7099 111.112C38.2619 111.037 37.7552 111 37.1899 111C36.6352 111 36.1979 111.027 35.8779 111.08L35.8139 110.824C35.9525 110.685 36.0219 110.456 36.0219 110.136C36.0219 109.485 35.6485 108.44 34.9019 107C34.6779 106.957 34.4165 106.936 34.1179 106.936L34.1499 106.472H34.3099C35.5685 106.472 36.1979 105.896 36.1979 104.744C36.1979 103.677 35.6592 103.144 34.5819 103.144C34.2192 103.144 33.8939 103.203 33.6059 103.32C33.5312 104.024 33.4939 105.229 33.4939 106.936C33.4939 108.643 33.5419 109.821 33.6379 110.472C34.1072 110.525 34.5445 110.605 34.9499 110.712L34.9019 111.112C34.3472 111.037 33.7232 111 33.0299 111C32.3472 111 31.7339 111.043 31.1899 111.128L31.1259 110.712C31.4245 110.616 31.7605 110.536 32.1339 110.472C32.2405 109.672 32.2939 108.429 32.2939 106.744C32.2939 105.048 32.2459 103.875 32.1499 103.224C31.7339 103.085 31.3872 103.016 31.1099 103.016V102.696ZM46.2198 106.456V107.208C46.2198 108.669 46.2731 109.763 46.3798 110.488C46.8704 110.552 47.2758 110.627 47.5958 110.712L47.5478 111.112C47.0251 111.037 46.4864 111 45.9318 111C45.3878 111 45.0144 111.016 44.8118 111.048L44.7478 110.84C44.8438 110.733 44.9078 110.429 44.9398 109.928C44.3851 110.504 43.7451 110.925 43.0198 111.192C41.1851 111.192 40.2678 110.099 40.2678 107.912C40.2678 107.432 40.3051 106.664 40.3798 105.608C40.4544 104.552 40.4918 103.933 40.4918 103.752C40.4918 103.571 40.4598 103.395 40.3958 103.224V103.208C39.9478 103.133 39.5904 103.053 39.3238 102.968L39.3878 102.536C40.0064 102.621 40.5664 102.664 41.0678 102.664C41.5691 102.664 41.9798 102.637 42.2998 102.584L42.3638 102.856C41.9798 103.059 41.7558 103.427 41.6918 103.96C41.5638 104.984 41.4998 106.035 41.4998 107.112C41.4998 108.189 41.6224 108.957 41.8678 109.416C42.1238 109.864 42.5931 110.088 43.2758 110.088C43.9691 110.088 44.5291 109.891 44.9558 109.496C44.9984 108.643 45.0198 107.635 45.0198 106.472C45.0198 105.309 44.9771 104.216 44.8918 103.192C44.4118 103.139 43.9691 103.059 43.5638 102.952L43.6118 102.552C44.1664 102.627 44.7851 102.664 45.4678 102.664C46.1611 102.664 46.7798 102.621 47.3238 102.536L47.3878 102.952C47.0891 103.048 46.7531 103.128 46.3798 103.192C46.2731 103.907 46.2198 104.995 46.2198 106.456ZM48.7818 102.696L52.4938 102.584C54.4244 102.584 55.3898 103.283 55.3898 104.68C55.3898 105.459 55.0431 106.088 54.3498 106.568C53.6671 107.048 52.8884 107.288 52.0138 107.288C51.8858 107.288 51.7951 107.283 51.7418 107.272L51.8058 106.744H51.9498C52.6111 106.744 53.1018 106.6 53.4218 106.312C53.7524 106.024 53.9178 105.571 53.9178 104.952C53.9178 104.333 53.7844 103.88 53.5178 103.592C53.2618 103.293 52.8458 103.144 52.2698 103.144C51.9178 103.144 51.5871 103.203 51.2778 103.32C51.2031 104.024 51.1658 105.219 51.1658 106.904C51.1658 108.589 51.2138 109.779 51.3098 110.472C51.7578 110.525 52.2271 110.611 52.7178 110.728L52.6698 111.128C52.1471 111.043 51.5178 111 50.7818 111C50.0458 111 49.4058 111.043 48.8618 111.128L48.7978 110.712C49.1178 110.605 49.4538 110.525 49.8058 110.472C49.9124 109.725 49.9658 108.563 49.9658 106.984C49.9658 105.395 49.9178 104.168 49.8218 103.304C49.4484 103.165 49.1018 103.096 48.7818 103.096V102.696Z" fill="#D2D01F"/>
</svg>
