<svg width="71" height="218" viewBox="0 0 71 218" fill="none" xmlns="http://www.w3.org/2000/svg">
<mask id="path-1-inside-1_72_114" fill="white">
<path fill-rule="evenodd" clip-rule="evenodd" d="M27.7009 0C25.0591 0 22.8731 2.05517 22.7104 4.69195L18.4938 73H5C2.23858 73 0 75.2386 0 78V213C0 215.761 2.23858 218 5 218H66C68.7614 218 71 215.761 71 213V78C71 75.2386 68.7614 73 66 73H52.9568L48.3165 4.66127C48.1383 2.03736 45.9579 0 43.328 0H27.7009Z"/>
</mask>
<path fill-rule="evenodd" clip-rule="evenodd" d="M27.7009 0C25.0591 0 22.8731 2.05517 22.7104 4.69195L18.4938 73H5C2.23858 73 0 75.2386 0 78V213C0 215.761 2.23858 218 5 218H66C68.7614 218 71 215.761 71 213V78C71 75.2386 68.7614 73 66 73H52.9568L48.3165 4.66127C48.1383 2.03736 45.9579 0 43.328 0H27.7009Z" fill="#112433"/>
<path d="M22.7104 4.69195L23.7085 4.75356L23.7085 4.75356L22.7104 4.69195ZM18.4938 73V74H19.434L19.4919 73.0616L18.4938 73ZM52.9568 73L51.9591 73.0677L52.0224 74H52.9568V73ZM48.3165 4.66127L47.3188 4.72902L47.3188 4.72902L48.3165 4.66127ZM23.7085 4.75356C23.8387 2.64414 25.5874 1 27.7009 1V-1C24.5307 -1 21.9076 1.46621 21.7123 4.63034L23.7085 4.75356ZM19.4919 73.0616L23.7085 4.75356L21.7123 4.63034L17.4957 72.9384L19.4919 73.0616ZM5 74H18.4938V72H5V74ZM1 78C1 75.7909 2.79086 74 5 74V72C1.68629 72 -1 74.6863 -1 78H1ZM1 213V78H-1V213H1ZM5 217C2.79086 217 1 215.209 1 213H-1C-1 216.314 1.68629 219 5 219V217ZM66 217H5V219H66V217ZM70 213C70 215.209 68.2091 217 66 217V219C69.3137 219 72 216.314 72 213H70ZM70 78V213H72V78H70ZM66 74C68.2091 74 70 75.7909 70 78H72C72 74.6863 69.3137 72 66 72V74ZM52.9568 74H66V72H52.9568V74ZM47.3188 4.72902L51.9591 73.0677L53.9545 72.9323L49.3142 4.59353L47.3188 4.72902ZM43.328 1C45.432 1 47.1763 2.62989 47.3188 4.72902L49.3142 4.59353C49.1004 1.44484 46.4839 -1 43.328 -1V1ZM27.7009 1H43.328V-1H27.7009V1Z" fill="#D2D01F" mask="url(#path-1-inside-1_72_114)"/>
<path d="M20.4711 111.128C19.8418 111.043 19.1378 111 18.3591 111C17.5911 111 17.0418 111.021 16.7111 111.064L16.6471 110.84C16.7751 110.797 16.8978 110.733 17.0151 110.648C17.1325 110.552 17.1911 110.451 17.1911 110.344C17.1911 109.565 16.4818 106.963 15.0631 102.536C14.9351 102.131 14.8071 101.773 14.6791 101.464C13.4311 101.464 12.6311 101.635 12.2791 101.976C12.2045 102.125 12.1671 102.36 12.1671 102.68C12.1671 103 12.2205 103.219 12.3271 103.336L12.3111 103.448C12.0445 103.608 11.7778 103.832 11.5111 104.12C11.3831 104.109 11.2818 104.056 11.2071 103.96C11.1218 103.864 11.0791 103.752 11.0791 103.624C11.0791 103.101 11.3938 102.477 12.0231 101.752C12.6525 101.027 13.2391 100.568 13.7831 100.376C13.8685 100.376 14.2525 100.413 14.9351 100.488C15.6178 100.552 16.1511 100.584 16.5351 100.584C16.9298 100.584 17.2925 100.552 17.6231 100.488L17.6871 100.888C17.3458 101.016 16.8925 101.155 16.3271 101.304C16.4338 102.211 16.7111 103.512 17.1591 105.208C17.6178 106.893 18.1031 108.456 18.6151 109.896C19.5111 107.912 20.1085 106.408 20.4071 105.384C20.7165 104.349 20.8711 103.459 20.8711 102.712C20.8711 101.709 20.6045 101.053 20.0711 100.744L20.1351 100.52C20.4658 100.563 20.9938 100.584 21.7191 100.584C22.4551 100.584 23.1378 100.541 23.7671 100.456L23.8311 100.856C23.3511 101.005 22.8391 101.117 22.2951 101.192C22.3485 101.565 22.3751 101.875 22.3751 102.12C22.3751 103.059 22.1405 104.067 21.6711 105.144C21.2125 106.221 20.3218 107.987 18.9991 110.44C19.5431 110.515 20.0551 110.627 20.5351 110.776L20.4711 111.128ZM27.4893 111.192C26.4333 111.192 25.5799 110.861 24.9293 110.2C24.2786 109.528 23.9533 108.632 23.9533 107.512C23.9533 106.392 24.2946 105.341 24.9773 104.36C25.6599 103.379 26.5506 102.749 27.6493 102.472C28.7479 102.472 29.5853 102.787 30.1613 103.416C30.7373 104.035 31.0253 104.92 31.0253 106.072C31.0253 107.224 30.7106 108.264 30.0813 109.192C29.4626 110.12 28.5986 110.787 27.4893 111.192ZM27.2173 103.448C26.7373 103.448 26.3213 103.581 25.9693 103.848C25.5319 104.595 25.3133 105.533 25.3133 106.664C25.3133 107.965 25.6759 108.963 26.4013 109.656C26.7853 110.029 27.2386 110.216 27.7613 110.216C28.2839 110.216 28.7053 110.077 29.0253 109.8C29.4519 109.053 29.6653 108.141 29.6653 107.064C29.6653 105.987 29.4733 105.117 29.0893 104.456C28.7053 103.784 28.0813 103.448 27.2173 103.448ZM32.2791 102.696L35.9591 102.584C37.1751 102.584 38.1085 102.872 38.7591 103.448C39.4205 104.024 39.7511 104.888 39.7511 106.04C39.7511 107.181 39.3885 108.248 38.6631 109.24C37.9485 110.232 37.0578 110.883 35.9911 111.192C35.7138 111.192 35.3511 111.139 34.9031 111.032C34.4658 110.936 34.1031 110.829 33.8151 110.712C33.6978 110.851 33.5911 111.048 33.4951 111.304L33.1591 111.224C33.3618 110.275 33.4631 108.936 33.4631 107.208C33.4631 105.469 33.4151 104.168 33.3191 103.304C32.9565 103.165 32.6098 103.096 32.2791 103.096V102.696ZM37.7831 104.296C37.5911 103.933 37.3191 103.651 36.9671 103.448C36.6258 103.245 36.2471 103.144 35.8311 103.144C35.4258 103.144 35.0738 103.203 34.7751 103.32C34.7005 104.013 34.6631 105.123 34.6631 106.648C34.6631 108.163 34.6845 109.213 34.7271 109.8C35.2605 110.045 35.8045 110.168 36.3591 110.168C36.9245 110.168 37.3725 110.024 37.7031 109.736C38.1085 108.968 38.3111 108.024 38.3111 106.904C38.3111 105.859 38.1351 104.989 37.7831 104.296ZM43.4001 106.472V107.128C44.4881 105.976 45.1921 105.149 45.5121 104.648C45.8428 104.136 46.0081 103.741 46.0081 103.464C46.0081 103.176 45.9281 102.973 45.7681 102.856L45.8481 102.584C46.0828 102.637 46.4188 102.664 46.8561 102.664C47.3041 102.664 47.8481 102.621 48.4881 102.536L48.5521 102.952C48.3068 103.037 47.9495 103.123 47.4801 103.208C47.3841 103.933 46.7655 104.835 45.6241 105.912L47.7361 110.456C48.1841 110.531 48.5361 110.616 48.7921 110.712L48.7281 111.128C48.3335 111.043 47.8161 111 47.1761 111C46.5468 111 46.1041 111.027 45.8481 111.08L45.7681 110.808C45.9175 110.659 45.9921 110.435 45.9921 110.136C45.9921 109.421 45.5708 108.259 44.7281 106.648C44.5148 106.829 44.0721 107.197 43.4001 107.752C43.4321 109.053 43.4801 109.96 43.5441 110.472C44.0241 110.525 44.4668 110.605 44.8721 110.712L44.8241 111.112C44.2695 111.037 43.6455 111 42.9521 111C42.2695 111 41.6561 111.043 41.1121 111.128L41.0481 110.712C41.3468 110.616 41.6828 110.536 42.0561 110.472C42.1521 109.704 42.2001 108.616 42.2001 107.208V106.456C42.2001 105.048 42.1468 103.96 42.0401 103.192C41.6668 103.128 41.3308 103.048 41.0321 102.952L41.0961 102.536C41.6401 102.621 42.2535 102.664 42.9361 102.664C43.6295 102.664 44.2535 102.627 44.8081 102.552L44.8561 102.952C44.4508 103.059 44.0081 103.139 43.5281 103.192C43.4428 103.768 43.4001 104.861 43.4001 106.472ZM50.4624 102.488C51.465 102.605 52.4784 102.664 53.5024 102.664C54.5264 102.664 55.5344 102.605 56.5264 102.488L56.5904 102.904C56.2704 103.032 55.9397 103.128 55.5984 103.192C55.481 104.067 55.4224 105.283 55.4224 106.84C55.4224 108.397 55.481 109.613 55.5984 110.488C55.8117 110.52 56.2064 110.6 56.7824 110.728L56.7184 111.128C56.2064 111.043 55.5504 111 54.7504 111C53.9504 111 53.337 111.043 52.9104 111.128L52.8464 110.712C53.209 110.595 53.6197 110.509 54.0784 110.456C54.1424 109.837 54.1904 108.979 54.2224 107.88C53.721 107.827 53.2197 107.8 52.7184 107.8C52.217 107.8 51.7797 107.827 51.4064 107.88C51.193 108.755 51.0864 109.363 51.0864 109.704C51.0864 110.227 51.273 110.595 51.6464 110.808L51.5824 111.08C51.337 111.027 50.873 111 50.1904 111C49.5077 111 48.969 111.043 48.5744 111.128L48.5104 110.712C48.7664 110.616 49.1184 110.531 49.5664 110.456L51.6464 103.16C51.177 103.085 50.7664 103 50.4144 102.904L50.4624 102.488ZM51.5344 107.128C51.9504 107.192 52.409 107.224 52.9104 107.224C53.4224 107.224 53.8597 107.192 54.2224 107.128C54.2224 105.155 54.1797 103.88 54.0944 103.304C53.7317 103.283 53.4597 103.272 53.2784 103.272C53.1077 103.272 52.841 103.283 52.4784 103.304L51.5344 107.128Z" fill="#D2D01F"/>
</svg>
