<?xml version="1.0" encoding="UTF-8"?>
<svg id="Layer_1" xmlns="http://www.w3.org/2000/svg" version="1.1" viewBox="0 0 273 362">
  <!-- Generator: Adobe Illustrator 29.3.1, SVG Export Plug-In . SVG Version: 2.1.0 Build 151)  -->
  <defs>
    <style>
      .st0 {
        fill: #112433;
        stroke: #112433;
        stroke-width: 1.2px;
      }
    </style>
  </defs>
  <path class="st0" d="M227.8,295c-.4-1.1-.8-2.2-1.2-3.3l1.2,3.3Z"/>
  <path class="st0" d="M4.1,136.4c1.4,5.1,3.6,9.3,6.2,13,11.9,18.3,32.7,33.1,53.6,44.7l-13.4,27.3c-5.8,11-10.5,19.8-14.2,26.1-1.5,2.4-4.8,8-2.5,13.2,1.6,3.5,5.6,5.6,9.6,7.1-5.2,16.6-8.7,30.6-12,43.8-1,3.9-1.8,7.3-2.5,10.4-2.5,10.3-4.1,17.1-7.7,27.1-.2.6-1.6,4.9-3.6,10.9h234.3l-3-7.7c.2.6.5,1.1.7,1.6l-21.8-58.9c4.5,12.2,6.3,18.1,7.8,22.9l-12.8-33.3c.2-.1.5-.2.7-.3l3,7.4c-1.1-2.8-2-5.3-2.8-7.4.6-.3,1.2-.6,1.8-1,.7-.4,1.4-.8,2-1.3,0,0,.2-.1.3-.2,6.4-4,11.3-10.4,10.9-17.2-.3-5.8-4.3-10.9-8.1-15.6l-24.5-30.4v.9l-.3-.3h-2.3c6.9-2.3,13.2-5.4,18.7-9.4,8.6-6.4,11-15.1,10.8-24.9-.4-16.4-2.6-30.1,4.9-44.9l-3.2,1.6c1.9-7,4.2-10.7,6.8-14.6,0-.1.2-.2.2-.3h3.2l-2.9-.5h3.3l4.2-11.9h.6c2.5-7.6,4.1-15.3,4.6-22.9v-2.8c.4-15-3.7-29.6-14.9-42.7-2.9-3.5-6.1-6.7-9.5-9.7-1.8-1.8-3.8-3.7-6-5.5-15.1-12.8-32.9-19.2-47.5-22.6-23.4-6.1-48.8-6.4-73-.7-19,4.4-36.1,12.3-49.9,22.9-5.1,3.6-10,8-14.5,13.5l.3-.2c-.1.2-.3.3-.4.5v-.2s-.2.2-.3.4c-.2.3-.5.6-.8,1-12.3,15-19.1,33.3-17.9,53.8h.3l-1.8,1.1c-5.6,1.8-10.3,5.3-12.9,10.7-.7,1.5-1.3,3.1-1.8,4.6,0,.2,0,.4-.2.5-2.6,6.7-1.6,12.6-.5,17.5.2,1,.5,1.9.7,2.9ZM45,269.3v-1.2h.2c0,.1-.2,1.2-.2,1.2ZM21.7,99h1.4c-.6.2-1.2.3-1.7.5,0,0,.2-.3.3-.5Z"/>
</svg>