<?xml version="1.0" encoding="UTF-8"?>
<svg id="Layer_1" xmlns="http://www.w3.org/2000/svg" version="1.1" viewBox="0 0 273 386">
  <!-- Generator: Adobe Illustrator 29.3.1, SVG Export Plug-In . SVG Version: 2.1.0 Build 151)  -->
  <defs>
    <style>
      .st0 {
        fill: #112433;
        stroke: #112433;
        stroke-width: 1.2px;
      }
    </style>
  </defs>
  <polygon class="st0" points="265.4 394.9 264.9 395.2 264.9 395.2 265.4 394.9"/>
  <path class="st0" d="M232.3,416.9c.2,0,.3,0,.4-.1h-8c2.7,1,7.1.2,7.6.1Z"/>
  <path class="st0" d="M240.8,417.6s0,0,0,0h0s0,0,0,0c0,0,0,0,0,0h0s0,0,0,.1c.3.2.5.3.5.2,0,0-.1-.2-.4-.4Z"/>
  <polygon class="st0" points="218.3 409.2 218.7 408.7 218.7 408.7 218.3 409.2"/>
  <path class="st0" d="M238.7,416.2c-.2-.2-.4-.3-.6-.5h-.8c.5.2,1,.3,1.4.5Z"/>
  <path class="st0" d="M250,414.1l-4.6.6c1.5,0,3-.1,4.6-.6Z"/>
  <path class="st0" d="M250.1,414.7l-6.5.5c2,.2,4.3.1,6.5-.5Z"/>
  <polygon class="st0" points="264.9 395.2 264.9 395.2 264.9 395.2 264.9 395.2"/>
  <path class="st0" d="M245.4,414.7c-1.2,0-2.4-.1-3.4-.3l8.8-1.3,13-16.4-.4-4.1c.4.8,1,1.7,1.6,2.6h0s-1.8-4.8-1.8-4.8v-1.5c-.1,0-3.1-7.8-3.1-7.8,0,.4.2.8.2,1.2,0,.1,0,.3,0,.4l-8.1-21.8-3.3-8.6c.2.6.5,1.1.7,1.6l-23-62.2c5.4,14.5,7.4,21,9,26.2,0,0,0,0,0,0l-12.8-33.3c.2-.1.5-.2.7-.3l3,7.4c-1.1-2.8-2-5.3-2.8-7.4.6-.3,1.2-.6,1.8-1,.7-.4,1.4-.8,2-1.3,0,0,.2-.1.3-.2,6.4-4,11.3-10.4,10.9-17.2-.3-5.8-4.3-10.9-8.1-15.6l-24.5-30.4v.9c-.1-.1-.2-.2-.3-.3h-2.3c6.9-2.3,13.2-5.4,18.7-9.4,8.6-6.4,11-15.1,10.8-24.9-.4-16.4-2.6-30.1,4.9-44.9l-3.2,1.6c1.9-7,4.2-10.7,6.8-14.6,0-.1.2-.2.2-.3,1.1,0,2.2,0,3.2,0l-2.9-.5s0,0,0,0c1.1,0,2.2,0,3.3,0l4.2-11.9h.6c2.5-7.6,4.1-15.3,4.6-22.9,0-.4,0-.7,0-1.1,0-.2,0-.4,0-.7,0-.3,0-.7,0-1,.4-15-3.7-29.6-14.9-42.7-2.9-3.5-6.1-6.7-9.5-9.7-1.8-1.8-3.8-3.7-6-5.5-15.1-12.8-32.9-19.2-47.5-22.6-23.4-6.1-48.8-6.4-73-.7-19,4.4-36.1,12.3-49.9,22.9-5.1,3.6-10,8-14.5,13.5l.3-.2c-.1.2-.3.3-.4.5v-.3c0,0,0,0,0,0h0s0,0,0,0c0,0,0,0,0,.1,0,0-.2.2-.3.4-.2.3-.5.6-.8,1-12.3,15-19.1,33.3-17.9,53.8h.3s-1.8,1.1-1.8,1.1c-5.6,1.8-10.3,5.3-12.9,10.7-.7,1.5-1.3,3.1-1.8,4.6,0,.2-.1.4-.2.5-2.6,6.7-1.6,12.6-.5,17.5.2,1,.5,1.9.7,2.9,1.4,5.1,3.6,9.3,6.2,13,11.9,18.3,32.7,33.1,53.6,44.7l-13.4,27.3c-5.8,11-10.5,19.8-14.2,26.1-1.5,2.4-4.8,8-2.5,13.2,1.6,3.5,5.6,5.6,9.6,7.1-5.2,16.6-8.7,30.6-12,43.8-1,3.9-1.8,7.3-2.5,10.4-2.5,10.3-4.1,17.1-7.7,27.1h0c-.3.8-2.3,7-5.1,15.4-2.8,8.6-6.6,22.2-8.9,31.8v.3c-.6,2.4-1.1,4.5-1.3,7.3h0c0,2.1-.2,3.6,0,4.8.1,1.1.5,1.9,1.1,2.4,1,.9,2,.8,3.8.7.1,0,.2,0,.3,0,1.8-.2,4-.4,7,.3,3.2.7,5.3,1.9,7,2.9.1,0,.3.2.4.2,1.8,1,3.1,1.7,5,1.3h0c1-.2,1.5-.6,2.1-1,0,0,0,0,.1,0,.7-.5,1.4-1,2.9-1.1,1.5-.2,2.6.1,3.8.6.4.2.8.3,1.1.5.8.4,1.7.8,2.9,1.1,0,0,0,0,0,0h0c.5.2,2.7.8,5.2,1.2,1.3.2,2.7.2,3.9,0,1.2-.1,2.3-.5,3-1.2h0c1.1-1,1.3-2.3,1.5-3.6,0-.1,0-.3,0-.4,0-.5,0-1,.2-1.4.1-.5.4-1.1,1.1-1.3l-.5-4.7h.5c0,0,0,4.7,0,4.7.8-.2,1.5.3,2,.8.4.4.8,1,1.3,1.6.1.2.3.4.4.5.1.2.3.3.4.5l-4.1-3.4,9.1,8.3,1-.2s0,0,0,0l-1,.2c4.9,2.3,12.4,2.1,16.5-1.1,1.1-.8,1.8-1.8,2.4-2.8l-.8.2c0-.1.2-.2.2-.3l-8.4,1.6,8.7-2.1c.7-1.4,1.2-2.8,1.5-4.2,0-.3.2-.7.2-1,.2-.8.4-1.6.6-2.3.3-.7.7-1.5,1.5-1.7v.9c0,0-1.4,3.2-1.4,3.2h-.1c0,.2,0,.4-.1.6l-1.8,4.4h-.4c0,.3-.2.4-.3.6l.8-.2c0,.1-.1.2-.2.3l24.7-5.1c.7,0,1.4,0,2.2,0h0c0,0,0,0,0,0,22.1.8,41.4,1.1,57.3,1.2,25.7.1,41.2-.3,51-2.3l1.2,2.9,5.9,2.7,7.5.9s0,0,0,0h0c-.2.4,0,.7.1.9,0,.1.2.3.3.4h.8c0,0,0,0,0,0l5.5-.5c-.4,0-.9,0-1.3-.1l3-.4ZM21.7,99h1.4c-.6.2-1.2.3-1.7.5.1-.1.2-.3.3-.5ZM45.2,268.2l-.2,1.1v-1.2s0,0,.2.1ZM96.9,408.4c.1,0,.3,0,.4,0h-.4s0,0,0,0Z"/>
  <path class="st0" d="M234.1,415.7h0s3.2,0,3.2,0c-1-.2-2.1-.3-3.2,0Z"/>
  <polygon class="st0" points="250 414.1 250.1 414.7 250 414.1 250 414.1"/>
  <path class="st0" d="M267.7,397.9c-.7-.9-1.5-1.8-2.3-3l-.4.5c0,0,0-.1-.1-.2l-1.2,1.5v.3s-12.3,16-12.3,16h-.7c0,0-.8,1.1-.8,1.1.3,0,.6-.2.8-.3l-.7.9c1.2-.3,1.8-.7,2.4-1.1.6-.4,1.3-.8,2.7-1.1l-2.7.4c.6-.4,1.3-.7,2.6-1,.3,0,.5-.1.7-.1l-.6.7c2-.4,3.3-.2,4.5,0,1,.2,1.9.3,3.1,0,4.1-.8,7.5-5,7.6-8.8,0-2.3-1.1-3.8-2.8-5.8Z"/>
  <path class="st0" d="M238.4,416.7l-1.1-1c0,0,.1.1.2.2.3.2.6.5.9.8Z"/>
  <path class="st0" d="M224.3,413l-.9-2.1-4.7-2.1c1.4,1.2,2.2,2.6,2.8,3.9,0,.2.2.4.3.6.7,1.4,1.4,2.5,3.1,3.1h0c1.3.4,3,.4,4.4.4,1.5,0,2.7-.3,2.9-.4h0c.4-.1.7-.2.9-.3h0c.3-.1.5-.2,1-.3l-4.7-2.1-5.1-.6Z"/>
  <path class="st0" d="M260,381.1c0-.5-.2-1-.3-1.5h0c-1.2-5.7-3.2-10.6-6.1-17.1-.5-1-.9-2.1-1.4-3.2-.8-1.7-1.6-3.5-2.5-5.5l2.6,7,7.8,20.2Z"/>
  <polygon class="st0" points="234.1 415.7 234.1 415.7 234.1 415.7 234.1 415.7"/>
  <polygon class="st0" points="234.1 415.7 234.2 416.3 234.1 415.7 234.1 415.7"/>
  <path class="st0" d="M234.2,416.3c-.4,0-.6.2-.9.3-.2,0-.4.2-.6.2h5.7c-1.2-.5-2.7-.8-4.2-.5Z"/>
</svg>