<?xml version="1.0" encoding="UTF-8"?>
<svg id="Layer_1" xmlns="http://www.w3.org/2000/svg" xmlns:xlink="http://www.w3.org/1999/xlink" version="1.1" viewBox="0 0 216 361">
  <!-- Generator: Adobe Illustrator 29.3.1, SVG Export Plug-In . SVG Version: 2.1.0 Build 151)  -->
  <defs>
    <style>
      .st0 {
        mask: url(#mask);
      }

      .st1 {
        fill: #fbbd20;
      }

      .st1, .st2, .st3, .st4, .st5 {
        stroke: #112433;
      }

      .st6 {
        fill: #fff;
      }

      .st2 {
        fill: #ffe4aa;
      }

      .st7 {
        fill: #112433;
      }

      .st3 {
        stroke-width: 3.5px;
      }

      .st3, .st4 {
        fill: none;
        stroke-linecap: round;
        stroke-linejoin: round;
      }

      .st4 {
        stroke-width: 3.7px;
      }

      .st5 {
        fill: #d2d01f;
      }
    </style>
    <mask id="mask" x="53.1" y="325.8" width="114.2" height="33.3" maskUnits="userSpaceOnUse">
      <g id="path-1-inside-1_81_447">
        <path class="st6" d="M54,334.4c3.6,7.9,7.2,15.7,10.8,23.6,33.7-1.1,67.1-1.7,101.2-3.4-2.4-9.5-4.8-19.1-7.2-28.6"/>
      </g>
    </mask>
  </defs>
  <path class="st7" d="M54,334.4c3.6,7.9,7.2,15.7,10.8,23.6,33.7-1.1,67.1-1.7,101.2-3.4-2.4-9.5-4.8-19.1-7.2-28.6"/>
  <g class="st0">
    <path class="st7" d="M64.8,358l-.9.4.3.6h.7s0-1,0-1ZM166,354.6v1s1.3,0,1.3,0l-.3-1.2-1,.2ZM53.1,334.8c1.8,3.9,3.6,7.9,5.4,11.8,1.8,3.9,3.6,7.9,5.4,11.8l1.8-.8c-1.8-3.9-3.6-7.9-5.4-11.8-1.8-3.9-3.6-7.9-5.4-11.8l-1.8.8ZM64.9,359c33.7-1.1,67.1-1.7,101.2-3.4v-2c-34.1,1.7-67.5,2.2-101.2,3.4v2ZM167,354.4c-2.4-9.6-4.8-19.1-7.2-28.6l-1.9.5c2.4,9.5,4.8,19.1,7.2,28.6l1.9-.5Z"/>
  </g>
  <path class="st4" d="M55,337c2.4,6,4.8,11.9,7.2,17.9,1,2.6,3.7,4.2,6.6,4.1,13.2-.5,30-1,43.3-1.5"/>
  <path class="st4" d="M113,358c12.9,0,39.7-.8,50.5-1.5,1.7,0,2.8-1.6,2.4-3-1-3.5-1.9-7-2.9-10.5"/>
  <g>
    <path class="st2" d="M28.4,307.6l-1.2,3.3c0,.4-.1.8-.2,1.2l1-2.7c.1-.6.3-1.1.4-1.7Z"/>
    <path class="st2" d="M147.9,333.2c-.1-.7-.3-1.3-.4-1.8-.1-.3-.3-.7-.5-.9-.2-.3-.5-.5-.9-.5-.1,0-.4,0-.7-.2-.2,0-.5-.2-.7-.3,0,0-.1,0-.2,0-.3-.1-.6-.2-.9-.3-.1,0-.3,0-.4,0-.1,0-.4,0-.6.3h0c-.5.8-1.5,1.6-2.9,2.3-1.4.7-3.2,1.2-5.3,1.6-4.2.9-9.4,1.3-14.7,1.5-10.5.3-21-.3-23.1-.5h0c-4.6-.3-9,.3-13.4.8-.8.1-1.6.2-2.3.3-.3,0-.6,0-1,.1l68.3-.6c0-.3-.2-.7-.2-1,0-.3-.1-.5-.2-.8Z"/>
    <path class="st2" d="M178.6,222.1l9.4,37.8c-.1-.6-.3-1.3-.4-1.9-2.4-10.7-5-22.1-8.9-35.9Z"/>
    <polygon class="st2" points="198.3 299.1 198.8 298.9 198.3 299.1 198.3 299.1"/>
    <polygon class="st2" points="194.7 287.1 194.7 287.1 194.7 287.1 194.7 287.1"/>
    <path class="st2" d="M40.1,276.9l-5.2,13.5c.5-1.2,1-2.5,1.5-3.8l3.6-9.7Z"/>
    <polygon class="st2" points="161.2 170.7 161 171.1 161 171.1 161.2 170.7"/>
    <path class="st2" d="M41,340.5s0,0,0,0c0,0,0,0,0,0h0s0,0,0,0c-.2.2-.4.3-.4.3,0,0,.2,0,.4-.2,0,0,0,0,0,0,0,0,0,0,0,0h0Z"/>
    <path class="st2" d="M39.2,338.6l-4.9-.4c1.7.5,3.4.5,4.9.4Z"/>
    <path class="st2" d="M33,295.3c-.4.9-.7,1.7-1,2.5-1.5,3.7-2.7,6.8-3.5,9.9l6.6-17.2c-.7,1.8-1.4,3.4-2,4.9Z"/>
    <path class="st2" d="M42.4,339.3c.3-.1.7-.2,1-.3h-.6c-.1,0-.3.2-.4.3Z"/>
    <polygon class="st2" points="154.1 169.5 154.1 169.5 154.1 169 154.1 169.5"/>
    <path class="st2" d="M113.8,172.4c-7.3,1.1-14.2,2.7-19.4,5-5.2,2.3-8.7,5.2-9.5,8.8h0c0,.2-.1.5-.2.9-.2.8-.4,2-.7,3-.5,1.4-1.3,3-2.8,3.4l72.9-24c-9.1.2-25.6.7-40.3,2.9Z"/>
    <path class="st2" d="M81.2,193.5c-1.1.3-2.1-.2-2.9-.7,0,0,0,0,0,0-.8-.5-1.7-1-2.8-1-1.4,0-2.8.6-4.1,1.7-1.3,1.1-2.5,2.6-3.5,4h0c-4.9,7-6.4,14.2-7.6,19.5-.1.6-.3,1.2-.4,1.7h-.5c-.8,3.5-1.4,4.8-2.5,7-1.2,2.6-3,6.5-6.5,16.8l-10.3,34.4c-1.3,3.7-2.5,6.8-3.6,9.7l-8.5,22.8c-.1.5-.2,1.1-.3,1.6h0c-.1.7-.2,1.4-.3,2.1-.5,3.1-1,6.4-3.3,10l-.4-.3c2.2-3.6,2.7-6.7,3.2-9.8,0-.3.1-.7.2-1l-4.8,12.9c0,0-.1.2-.2.2-1.2,1.5-2,2.7-1.9,4.5,0,2.9,2.5,6.2,5.4,6.8.9.2,1.5,0,2.2,0,.8-.1,1.8-.3,3.2,0,1,.2,1.5.6,1.9.9.4.3.8.6,1.7.8l-.5-.7c.2,0,.3.1.5.2,0,0,0,0,.1,0v.5c-.1,0,0-.5,0-.5,1.1.5,2.6.7,4.4.6l-1.1-.2c.9,0,1.7-.1,2.4-.2.4,0,.8-.1,1.1-.2h0c.3,0,.6-.1.9-.2.3,0,.5,0,.7,0,.2,0,.6,0,.7.5h0c.1.3,0,.6,0,.7,0,0,0,0,0,0,.2.2.4.4.7.5.4,0,.8,0,1.2,0h-.9c1.2.6,3,.8,5,.8,0,0,0,0,0,0,.9,0,1.8,0,2.8,0l28.8-146.8h0Z"/>
    <path class="st2" d="M150.8,339.6c1.4,1.2,3.3,1.8,5.3,1.9,2,.1,4.1-.3,5.7-1.1,1.8-1,3-2.5,3.9-3.7,0-.1.2-.3.3-.4.3-.5.6-.9.9-1.2,0,0,0,0,.1-.1,7.7,8.9,13,8.7,15.3-2.9,8.2,12.4,12.8,9.8,15.1-2.9,3.5,8.9,6.4,9.5,8.3-1.6l-34.5-129.2-30.8,11.2,7.7,125.6c.4,1.7,1.1,3.4,2.6,4.6Z"/>
    <path class="st2" d="M79.9,335.6h-11.8c4,.7,7.9.5,11.8,0Z"/>
    <path class="st2" d="M65.6,335.7h2.5c-.8-.1-1.6-.3-2.4-.5v.5Z"/>
    <path class="st2" d="M43.5,339l-.8.8c.2-.2.4-.4.6-.5,0,0,.1-.1.2-.2Z"/>
    <path class="st2" d="M189.3,266.1c1.8,8,2.9,13.3,5.4,21.1l-6.7-27.2c.5,2.2.9,4.3,1.3,6.1Z"/>
    <path class="st2" d="M43.2,338.4s0,0,0-.1c0,0,0,0,0,0,0-.2-.1-.4-.2-.6-1.5.4-2.8.7-4.1.8l1.1.2c-.3,0-.6,0-.9.1l3.7.3s0,0,0,0h.6s0,0,0,0c-.1-.1-.2-.3-.3-.5Z"/>
    <path class="st2" d="M42.7,339.7l1.9-.2c-.1,0-.2,0-.3-.2-.6,0-1.1.2-1.6.4Z"/>
  </g>
  <path class="st1" d="M144.7,335.2l-89.1,1.3,23.2-118v-.4c0,0-.2-.2-.2-.2l-14.4-8.3,3.3-11,7.8-6.9,5.3,2.8.5.3.2-.5,2.9-7,58-11.2h0s0,0,0,0l12.3-6.5,6,1.4,10.6,27.3-32.4,9.7h-.4c0,.1,0,.5,0,.5l6.1,126.7Z"/>
  <path class="st4" d="M84,186c-9.3,49.7-18.7,99.3-28,149"/>
  <path class="st4" d="M155,169.1c.8-.2,1.7-.1,2.6.1,2.7.8,4.8,2.8,5.8,5.3,18.2,44.4,25.3,92,37.7,138.5"/>
  <path class="st4" d="M145,329l-6.2-122.9c-.5-9.5-2.7-21.7,3.2-30.1"/>
  <path class="st4" d="M81,192.6c-5.4-3.8-11.4-.3-13.9,5.4-16.9,41.4-28.9,82.9-44.1,124"/>
  <path class="st4" d="M21.1,328c-6.6,11.6,19.3,12.4,14.3.2"/>
  <path class="st4" d="M33,337.2c2.2,2.4,5.7,3.3,8.7,2.4,3.6-1.1,5.9-4.8,5.2-8.6"/>
  <path class="st4" d="M45,338.5c1.9,2.5,5.1,3.2,7.4,1.8,1.7-1,2.7-3.1,2.6-5.3"/>
  <path class="st4" d="M151,341.5c8.8,4.9,21.5-2.7,17.1-12.5"/>
  <path class="st4" d="M169,335.3c0,.4.8,3.7,3.9,5.1,3.1,1.4,6.8.2,8.8-2.5,1.9-2.7,1.7-6.4-.5-8.9"/>
  <path class="st4" d="M183,336.1c.4.6,1.9,2.8,4.7,3.6,2.9.8,6.2,0,8.3-2.4,2.4-2.8,2.7-7,.5-10.3"/>
  <path class="st4" d="M199,335.2c.2.4.8,1.3,1.9,1.6,2.1.7,3.8-1.5,4-1.6,1.6-2,1.1-4.6,1.1-4.9-.4-1.9-1.5-3-1.8-3.3"/>
  <path class="st4" d="M58,337c29-.7,58-1.3,87-2"/>
  <path class="st4" d="M139,210l33-12"/>
  <path class="st4" d="M64,210c4.7,2,9.3,4,14,6"/>
  <path class="st2" d="M190.8,87.4h0c0,0,0,.2,0,.5h0c0,.3-.1.5-.2.9,0,.7,0,1.5.3,2.3.5,1.2,1.5,1.9,2.5,2.4.5.2,1,.5,1.6.7h0c.5.2,1,.4,1.5.6,4,2,5.6,6.4,6.9,10,2.1,5.9.9,10.9,0,14.9v.2s0,0,0,0c-1.7,7.4-5.4,12.4-8.8,16.9-2.1,2.8-5.9,7.3-16,15.3h0c-5.3,4.2-13.1,10.4-24.9,17.1-17.6,9.9-32.4,14.4-35.6,15.3h0c-9.5,2.8-17.4,5.1-28.4,5.1s-15.8,0-26.6-5.1h0c-5.3-2.5-14.2-6.6-17.6-15.1h0c-1-2.5-1.2-4.9-1.7-9.9v-.3h0c-.3-3.5-.3-6.1-.3-8.7,0-.8,0-1.5,0-2.3,0-1.9.2-3.8.2-6.1h0c0-2.7,0-9.9-1.8-17.2-1.3-5.6-3-8.6-4.8-11.7-.1-.2-.2-.4-.3-.5-1.7-2.9-3.6-6-5.6-11.8-1.7-4.9-3.9-11.6-3.5-20.3h-.5s.5,0,.5,0c.4-10.7,4.4-18.5,7.1-23.7h0c1.5-2.9,6-11,14.2-18.7,19-17.8,43.9-19.8,51.5-20.4h0c26-2.1,45.1,7,51.5,10.2h0c8,3.9,18.3,9.2,26.6,20.4h0s0,0,0,0h0s0,0,0,0c0,0,0,0,0,0,0,0,.1.2.2.3.2.3.5.8.9,1.3.8,1.2,1.8,2.9,2.9,5,2.3,4.3,4.9,10.2,6.4,16.9.9,4,1.3,7.8,1.6,10.7.1,1.4.2,2.6.2,3.4,0,.4,0,.7,0,.9,0,.1,0,.2,0,.2h0Z"/>
  <path class="st5" d="M160.7,116.3c-1.6-3.5-3.1-7.1-4.7-10.6-2.1-4.7-4.2-9.5-6.3-14.2l-.2-.5-.5.3c-8.2,5.1-19.1,5.9-28.1,2.2-9-3.7-15.7-11.9-17.3-21h-1c-1.6,9-9,16.8-18.3,19.4-9.3,2.6-20-.2-26.5-6.9l-.8.5c2,6.4.4,13.7-4.1,18.9h0c-3.9,4.5-10,7.3-16.2,7.5h-.7s.3.7.3.7c2.1,4.7,4.6,10.5,5.6,21.3h0c.2,2.7.3,4.8.3,6.5h0c0,3.4-.3,5.8-.4,7.5,0,.3,0,.6,0,.9h.5s-.5,0-.5,0c-.2,3-.3,10.1,2,17.7,1.1,3.8,1.9,6.1,3.6,8.7h0c3.4,4.9,8.5,7.2,12.6,8.6.9.3,1.8.6,2.6.9,0,0,.2,0,.3,0,.9.3,1.7.5,2.3.8.7.3,1.1.5,1.4.7.3.2.4.4.4.6s-.1.4-.5.8c-.4.3-.9.7-1.6,1-1.5.7-3.5,1.3-6,1.9-4.9,1.2-11.1,2.1-16.5,2.6h-.1c-8,.8-13.9,1.4-18.6,1.3-4.7-.1-8.2-.9-11.3-2.9h0c-3.2-2.1-5.5-5.2-6.9-10.7-1.5-5.5-2.2-13.4-2.4-25h0c-.6-30.9-.7-49.8,7.6-76.5,7.4-23.6,12.1-38.3,26.1-52.1C60.6,3.4,99.2-4.1,132,3.2c45.2,10.1,66.5,45.5,71.3,54.2h0l.4.7c13.2,24.5,10.8,45.7,5.9,88.3h.5c0,0-.5,0-.5,0-1.4,12.6-3.7,23.5-13,30.7l.3.4-.3-.4c-6.4,5-14,5.6-27.3,6.7-.4,0-.8,0-1.2,0h0c-.8,0-9.2.7-17.6.7-4.2,0-8.3-.2-11.5-.7-1.6-.3-2.9-.6-3.8-1-1-.4-1.4-.9-1.5-1.4,0-.3,0-.5.2-.9.2-.3.7-.7,1.3-1.2,1.3-.9,3.2-1.9,5.8-3.3.3-.2.6-.3,1-.5,5.2-2.7,12.7-6.4,21.8-12.5h0c7.3-4.8,16.2-10.8,25.1-20.6h0c4.4-4.9,8.7-9.7,11.8-14.7,3.1-5,4.9-10.4,4.4-16.5h0c0-.5-.4-3.9-1.9-7.8-1.5-3.9-4.2-8.5-9.1-11.4h0c-5.8-3.5-10.8-2.4-16.3-1.1-.9.2-1.8.4-2.8.6h0s0,0,0,0c-3.1,1.3-5.9,3.2-8.2,5.7-6.1,6.5-6.6,14.2-6.2,18.8Z"/>
  <path class="st3" d="M178.1,105c-.4,8.2,1.3,16.4,4.9,24"/>
  <path class="st3" d="M180,119l7-5"/>
  <path class="st4" d="M34,112.9c7.2.6,14.6-2.4,19.2-7.8,4.6-5.5,6.2-13.2,4.3-20,6.6,7,17.5,10,26.9,7.3,9.4-2.7,16.9-11,18.6-20.4,1.6,9.6,8.5,18.2,17.5,22.1,9.1,3.9,20.2,3,28.5-2.3"/>
  <path class="st3" d="M151,171c18.2-10.2,38.6-24.3,48.6-42.9,4.7-8.9,6.1-19.2,2.1-28.5-4.1-9.6-15.8-11.5-24.9-7.8-13.4,5.4-17.8,20.1-12.2,32.6"/>
  <path class="st3" d="M40,123c5.2,11.5,3.6,22.1,3.4,34.9-.1,7.7,1.5,14.4,7.5,19.4,13,10.8,33.6,13,49.9,11.1,13-1.5,25.5-5.6,37.2-11"/>
  <path class="st4" d="M47,192.7c-4.6,1.5-26.7,8-38.4-2.6-6.2-5.6-6.9-13.6-6.4-31.8,1.2-40.9,2.8-61.3,7.7-76.9,7.4-23.7,12.2-38.5,26.3-52.4C60.5,4.9,99.4-2.7,132.4,4.7c46.9,10.5,68.3,48.1,72.2,55.4,12.5,23.2,10.4,45.1,6,88.8-.9,9.2-2.7,20.8-11.7,27.5-5.5,4.1-12.6,5.7-17.9,6.9-8,1.8-14.9,1.9-19.7,1.7"/>
  <path class="st3" d="M57.4,130c-2-.4-3.9,2-3.3,4,.6,2,3.5,2.7,4.9,1.1"/>
  <path class="st3" d="M87.5,129c-2.1.4-3.3,3.2-2,4.9,1.3,1.7,4.5,1.3,5.4-.6"/>
  <path class="st3" d="M57,130c-2.4-3.1-6.1-3.9-9-2"/>
  <path class="st3" d="M84,127.8c4.5-1.1,9.6-1,14,.2"/>
  <path class="st4" d="M67,118c-3.3-2-6.7-4-10-6"/>
  <path class="st4" d="M90,112c-3.7,2-7.3,4-11,6"/>
  <path class="st3" d="M65.6,142.1c-2.2,2.8,1.8,11.7,6.9,11.9,5.3.2,10.1-9.2,8-11.9-.7-1-2.8-1-6.9-1.1-4.7,0-7.1,0-8,1.1Z"/>
  <path class="st3" d="M69,152c.3-2.3,2-4.2,4.4-4.8,2.9-.7,5.3.8,5.6,1"/>
</svg>