<svg width="228" height="373" viewBox="0 0 228 373" fill="none" xmlns="http://www.w3.org/2000/svg">
<path d="M52 347.895C55.3553 355.268 58.7099 362.626 62.0652 370C93.3826 368.942 124.683 367.9 156 366.842C153.769 357.89 151.521 348.953 149.291 340" fill="#112433"/>
<path d="M53 349C55.2612 354.955 57.5223 360.91 59.801 366.865C60.7796 369.441 63.2773 371.114 66.0107 370.994C78.5492 370.482 94.4624 369.987 107 369.476" stroke="#112433" stroke-width="3.61893" stroke-linecap="round" stroke-linejoin="round"/>
<path d="M95 349C97.2332 354.349 99.4656 359.681 101.698 365.03C102.697 367.438 105.046 369 107.662 369C119.424 369 143.898 368.17 153.711 367.505C155.243 367.405 156.293 365.943 155.927 364.465C155.044 360.977 154.178 357.488 153.295 353.984" stroke="#112433" stroke-width="3.61893" stroke-linecap="round" stroke-linejoin="round"/>
<path d="M73.0298 203.236C70.2028 205.486 71.0562 208.632 68.8483 212.203C66.6907 215.692 64.0155 213.947 61.3222 217.909C56.1882 225.474 54.9336 233.185 53.7961 238.288C52.1412 245.722 51.4214 242.869 45.4348 261.112C38.3932 282.552 39.9821 280.644 35.3995 293.719C29.0611 311.848 25.2313 317.718 23.6927 326.326C23.0241 330.027 22.9234 333.532 20.3479 337.738C18.5918 340.625 16.9194 341.782 17.003 344.26C17.0866 347.048 19.3444 350.194 22.0204 350.781C23.7761 351.172 24.6295 350.194 27.0372 350.781C28.8441 351.222 28.693 351.857 30.3826 352.412C34.4461 353.732 38.4601 351.727 38.7448 352.412C38.9784 352.982 36.1357 354.71 36.2356 354.857C36.3198 354.987 38.5104 353.063 40.8521 353.569C41.387 353.683 41.4373 353.862 42.0894 354.042C42.4237 354.14 45.3002 354.694 47.107 354.042C49.6493 353.129 49.2647 350.162 51.2877 348.336C54.2485 345.645 60.0684 347.553 62.9953 348.336C63.7646 348.548 72.4272 348.483 89.7542 348.336C114.004 348.14 117.767 347.325 119.858 346.705C122.851 345.809 124.641 345.564 128.22 345.075C133.471 344.358 134.441 344.798 134.91 345.075C137.987 346.885 135.896 351.271 139.09 354.042C141.817 356.406 146.75 356.569 149.961 354.857C153.59 352.917 154.627 348.792 155.815 349.151C156.852 349.461 155.782 352.33 157.487 354.042C159.712 356.275 165.432 354.189 165.849 354.042C168.191 353.194 169.044 352.167 170.867 352.412C172.606 352.64 172.606 353.683 174.212 354.042C177.005 354.677 178.175 351.841 182.574 350.781C186.621 349.803 188.561 351.531 190.1 349.966C191.12 348.923 191.053 347.342 190.936 344.26C190.853 342.026 190.501 340.445 190.1 338.553C188.578 331.38 186.102 321.338 184.246 314.914C182.44 308.686 181.086 304.072 180.902 303.501C177.891 293.948 176.988 288.372 174.212 275.786C171.954 265.564 169.546 254.673 165.849 241.549C157.07 210.409 154.711 215.284 154.143 205.681C153.975 202.747 153.808 195.817 149.125 192.638C146.633 190.959 143.823 190.976 142.436 191.008C117.382 191.546 88.8677 200.839 78.0466 201.605C77.0438 201.67 74.8688 201.768 73.0298 203.236Z" fill="#FFE1D4"/>
<path d="M40 337.3C41.5502 339.186 43.0838 341.054 44.634 342.94C47.4309 344.269 50.8182 345.581 54.7445 346.533C62.7991 348.491 69.8092 348.15 74.6794 347.449C92.3896 347.054 110.1 346.658 127.811 346.263L139 344.719L138.157 339.779L41.0953 335L40 337.281V337.3Z" fill="#112433"/>
<path d="M194 327.659L192.76 332.042L189.006 334L161.674 333.503L139.504 332.773L136.152 328.813C136.051 328.506 135.867 327.775 136.152 326.928C136.554 325.759 137.543 325.16 137.828 325C143.676 326.125 149.525 327.25 155.373 328.389L194 327.659Z" fill="#112433"/>
<path d="M80 321.75L78.757 326.25L74.9931 328.26C65.7355 328.845 56.4605 329.415 47.2029 330C39.9272 328.995 32.6358 328.006 25.3601 327L22 322.935C22 322.29 22 321.645 22 321C22 319.995 22 318.99 22 318C28.4183 319.5 34.8531 321 41.2714 322.5L80 321.75Z" fill="#112433"/>
<path d="M70.5787 202.671L25.5449 293.542L21 310.727C21 312.146 21.1831 315.068 23.1473 317.744C25.3953 320.812 28.6581 321.792 31.4714 322.64C33.3859 323.212 36.5994 323.913 40.7117 323.506L39.8457 336.365L61.2883 340.837L137.187 341V332.905L135.806 327.487L137.187 323.816L149.674 327.536C162.443 328.075 175.195 328.63 187.965 329.168C190.745 326.998 193.508 324.811 196.289 322.64C197.038 320.567 197.754 317.793 197.953 314.48C198.303 308.311 196.605 303.431 195.406 300.706C179.89 263.138 164.358 225.569 148.842 188C140.234 191.542 131.644 195.066 123.037 198.608C119.424 203.781 115.828 208.939 112.216 214.112C110.101 215.858 107.071 218.013 103.059 219.824C98.4976 221.881 94.3523 222.713 91.4051 223.088C90.0896 223.088 87.5096 222.908 84.7456 221.456C81.2667 219.629 79.552 216.887 78.9193 215.744C78.6358 211.125 78.3696 206.491 78.087 201.872L70.5951 202.688L70.5787 202.671Z" fill="#D2D01F"/>
<path d="M136 348V333" stroke="#112433" stroke-width="3.67294" stroke-linecap="round" stroke-linejoin="round"/>
<path d="M24 328C22.9951 330.995 22.0046 334.006 21 337" stroke="#112433" stroke-width="3.61893" stroke-linecap="round" stroke-linejoin="round"/>
<path d="M17.9517 343C12.1694 354.581 34.8058 355.356 30.4359 343.162" stroke="#112433" stroke-width="3.61893" stroke-linecap="round" stroke-linejoin="round"/>
<path d="M29 351.243C31.2037 353.648 34.6586 354.587 37.6732 353.632C41.269 352.495 43.5788 348.838 42.8733 345" stroke="#112433" stroke-width="3.61893" stroke-linecap="round" stroke-linejoin="round"/>
<path d="M40 352.478C41.9002 355.009 45.1387 355.68 47.4027 354.286C49.0721 353.252 50.063 351.204 49.9969 349" stroke="#112433" stroke-width="3.61893" stroke-linecap="round" stroke-linejoin="round"/>
<path d="M141 355.59C148.298 360.106 158.927 353.116 155.247 344" stroke="#112433" stroke-width="3.61893" stroke-linecap="round" stroke-linejoin="round"/>
<path d="M156 349.804C156.078 350.166 156.751 353.196 159.63 354.477C162.462 355.729 165.967 354.643 167.782 352.171C169.566 349.728 169.378 346.336 167.297 344" stroke="#112433" stroke-width="3.61893" stroke-linecap="round" stroke-linejoin="round"/>
<path d="M168 350.701C168.378 351.242 169.777 353.048 172.425 353.74C175.107 354.431 178.217 353.74 180.158 351.723C182.412 349.392 182.642 345.782 180.602 343" stroke="#112433" stroke-width="3.61893" stroke-linecap="round" stroke-linejoin="round"/>
<path d="M183 350.228C183.276 350.631 183.95 351.506 185.125 351.856C187.492 352.574 189.496 350.385 189.669 350.21C191.466 348.197 190.947 345.588 190.878 345.291C190.464 343.401 189.22 342.315 188.805 342" stroke="#112433" stroke-width="3.61893" stroke-linecap="round" stroke-linejoin="round"/>
<path d="M53.4071 281C50.1383 290.885 46.8523 300.787 43.7326 310.719C38.7796 326.568 37.5583 334.91 40.8108 339.86C44.8716 346.048 53.9188 347.173 83.1722 346.98C97.1055 346.9 115.034 346.514 136 345.373" stroke="#112433" stroke-width="3.61893" stroke-linecap="round" stroke-linejoin="round"/>
<path d="M71 203C66.9733 210.278 30.7697 276.025 22.6498 300.663C20.8305 306.207 19.8197 312.74 23.4081 317.408C27.8555 323.195 37.2392 323.114 40.6589 322.952" stroke="#112433" stroke-width="3.5109" stroke-linecap="round" stroke-linejoin="round"/>
<path d="M128.372 236.97C125.5 258.081 124.896 275.801 125.014 289.005C125.215 312.415 129.732 318.186 134.047 321.755C141.67 328.048 152.299 328.341 168.671 328.798C182.641 329.189 189.627 329.385 193.858 325.733C203.178 317.679 194.933 297.123 187.142 278.295C176.261 252.017 163.398 221.679 148.521 188" stroke="#112433" stroke-width="3.5109" stroke-linecap="round" stroke-linejoin="round"/>
<path d="M77.0363 205.196C76.9867 205.906 76.2949 217.098 84.0529 221.42C87.973 223.612 92.2068 223.01 94.7433 222.609C109.782 220.278 118.726 205.89 121 202" stroke="#112433" stroke-width="3.61893" stroke-linecap="round" stroke-linejoin="round"/>
<path d="M136.365 325C134.132 326.496 134.843 329.986 137.025 331.545C139.206 333.104 142.15 333.275 144.907 333.4L182.762 334.943C185.79 335.067 189.054 335.129 191.558 333.571C194.062 332.012 195.026 328.147 192.59 326.48" stroke="#112433" stroke-width="3.5109" stroke-linecap="round" stroke-linejoin="round"/>
<path d="M21.8195 317C19.6622 320.424 22.0449 325.115 25.6991 327.087C29.3542 329.059 33.7975 329.044 38 328.982" stroke="#112433" stroke-width="3.4839" stroke-linecap="round" stroke-linejoin="round"/>
<path d="M39 335C50.1103 340.211 62.1711 340.365 73.9646 340.474C94.3043 340.649 114.66 340.824 135 341" stroke="#112433" stroke-width="3.61893" stroke-linecap="round" stroke-linejoin="round"/>
<path d="M50.367 64.8875C42.6843 72.2323 38.4354 80.0499 37.0355 82.802C34.4858 87.7854 30.7362 95.3264 30.3693 105.603C30.0691 113.99 32.1525 120.456 33.702 125.146C37.5849 136.839 41.2515 137.344 43.7009 147.946C45.3014 154.868 45.3508 161.643 45.368 164.232C45.3845 170.307 44.7347 173.841 45.368 180.518C45.8344 185.372 46.0507 187.798 47.0344 190.29C50.3169 198.628 58.7497 202.618 63.6994 204.948C73.8644 209.752 83.0975 209.833 88.6969 209.833C99.0618 209.833 106.462 207.618 115.361 204.948C118.411 204.035 132.226 199.785 148.69 190.29C159.723 183.922 167.105 177.994 172.021 174.004C181.42 166.382 185.02 162.001 187.02 159.346C190.253 155.047 193.786 150.259 195.352 143.06C196.202 139.217 197.368 134.217 195.352 128.403C194.169 124.999 192.652 120.618 188.686 118.632C186.853 117.72 184.537 117.329 183.686 115.374C183.087 114.006 183.686 112.638 183.686 112.117C183.686 112.117 183.704 105.163 182.02 97.4596C179.187 84.5614 172.021 74.6589 172.021 74.6589C164.239 63.9109 154.473 58.8616 147.024 55.116C141.025 52.0865 123.093 43.3736 98.6958 45.3445C91.6628 45.9144 68.2485 47.8032 50.367 64.8875Z" fill="#FFE1D4"/>
<path d="M221.983 74.7731C213.651 54.4649 192.187 40.7844 167.756 40.3284C172.189 28.8305 166.506 15.02 156.124 8.06587C145.758 1.1117 131.826 0.460321 119.944 4.46665C108.046 8.45667 98.0131 16.616 89.864 25.9805C87.3472 16.5183 76.0316 11.7139 66.0328 12.1048C54.4005 12.5607 43.1186 18.44 36.2361 27.6253C29.3536 36.8106 27.0367 49.1062 30.1037 60.0833C20.0877 57.9172 9.28885 63.894 4.68931 72.8513C-0.72678 83.4209 3.22276 94.382 6.22249 101.727C12.5051 117.036 25.9535 130.422 36.2525 134.917L36.7197 136.399C38.0694 136.513 39.419 136.464 40.7523 136.318C42.8521 136.677 44.7183 136.529 46.1847 135.732C46.8682 135.374 47.3847 134.885 47.8182 134.331C50.4509 133.077 52.8509 131.351 54.7179 129.169C59.0335 124.136 60.5666 117.019 58.6839 110.749C64.8994 117.264 75.0652 119.967 83.8813 117.459C92.6802 114.951 99.6959 107.361 101.263 98.6323C102.796 107.475 109.178 115.407 117.678 119.006C126.177 122.605 136.559 121.775 144.325 116.872L156.157 143.891C155.874 142.768 153.324 131.53 161.156 122.719C166.189 117.068 173.872 114.25 181.671 114.934C185.121 115.521 188.52 116.791 191.154 119.462C194.319 122.687 195.653 127.28 196.153 129.234C198.286 137.507 194.537 142.849 196.153 143.891C198.569 145.439 210.601 136.123 217.818 122.719C219.901 118.859 231.316 97.6549 221.95 74.7892L221.983 74.7731Z" fill="#D5B4FB"/>
<path d="M146.158 192.016C163.223 182.407 182.355 169.118 191.687 151.611C196.12 143.272 197.403 133.549 193.653 124.722C189.788 115.651 178.872 113.909 170.289 117.41C157.724 122.54 153.641 136.334 158.824 148.158" stroke="#112433" stroke-width="3.42988" stroke-linecap="round" stroke-linejoin="round"/>
<path d="M41.9352 146.35C46.8347 157.294 45.3518 167.424 45.1182 179.59C44.9849 186.886 46.5682 193.286 52.2178 198.042C64.4332 208.335 83.7811 210.436 99.0957 208.66C111.278 207.243 123.044 203.367 134.092 198.221" stroke="#112433" stroke-width="3.42988" stroke-linecap="round" stroke-linejoin="round"/>
<path d="M171.805 128.81C171.422 136.807 172.888 144.869 176.055 152.246" stroke="#112433" stroke-width="3.42988" stroke-linecap="round" stroke-linejoin="round"/>
<path d="M173.588 142.914L179.654 137.67" stroke="#112433" stroke-width="3.42988" stroke-linecap="round" stroke-linejoin="round"/>
<path d="M31.5861 129.332C25.5869 125.96 12.7048 117.54 6.23881 101.727C3.23916 94.398 -0.710465 83.4208 4.70571 72.8512C9.28855 63.8778 20.1041 57.9171 30.1196 60.0832C27.0534 49.1061 29.3695 36.8105 36.2528 27.6251C43.1353 18.4398 54.4172 12.5606 66.0495 12.1046C76.0483 11.7138 87.3475 16.5181 89.8799 25.9803C98.029 16.6158 108.062 8.45656 119.96 4.46646C131.859 0.476365 145.775 1.11159 156.14 8.06568C166.506 15.0198 172.205 28.8303 167.772 40.3282C191.753 40.2306 213.301 54.0083 222 74.773C231.932 98.4691 223.316 126.888 200.702 142.458" stroke="#112433" stroke-width="3.61893" stroke-linecap="round" stroke-linejoin="round"/>
<path d="M37.2861 136.383C44.0017 136.986 50.9343 134.152 55.2178 129.087C59.5169 124.006 61.0335 116.824 59.1837 110.505C65.3828 117.069 75.5157 119.805 84.2808 117.28C93.0468 114.755 100.046 107.085 101.613 98.2908C103.13 107.215 109.495 115.212 117.978 118.843C126.46 122.476 136.775 121.644 144.525 116.694" stroke="#112433" stroke-width="3.61893" stroke-linecap="round" stroke-linejoin="round"/>
<path d="M57.0565 151.037C54.701 150.675 52.3907 153.008 53.1457 155.019C53.9008 157.03 57.3533 157.694 59 156.145" stroke="#112433" stroke-width="3.42988" stroke-linecap="round" stroke-linejoin="round"/>
<path d="M85.106 150C83.3169 150.395 82.3679 153.249 83.4728 154.919C84.5769 156.588 87.2222 156.264 88 154.362" stroke="#112433" stroke-width="3.42988" stroke-linecap="round" stroke-linejoin="round"/>
<path d="M62 141C61.0577 139.553 58.9958 138.435 56.6664 138.105C54.3378 137.776 51.7776 138.234 50 139.294" stroke="#112433" stroke-width="3.42988" stroke-linecap="round" stroke-linejoin="round"/>
<path d="M81 142C81.8058 140.152 83.6309 138.703 85.7684 138.2C87.9059 137.698 90.2902 138.156 92 139.412" stroke="#112433" stroke-width="3.42988" stroke-linecap="round" stroke-linejoin="round"/>
<path d="M73 168C72.7276 169.509 71.1759 170.803 69.3676 170.979C67.5593 171.154 65.6878 170.238 65 168.822" stroke="#112433" stroke-width="3.42988" stroke-linecap="round" stroke-linejoin="round"/>
</svg>
