<?xml version="1.0" encoding="UTF-8"?>
<svg id="Layer_1" xmlns="http://www.w3.org/2000/svg" version="1.1" viewBox="0 0 228 361">
  <!-- Generator: Adobe Illustrator 29.3.1, SVG Export Plug-In . SVG Version: 2.1.0 Build 151)  -->
  <defs>
    <style>
      .st0 {
        fill: #d2d01f;
      }

      .st1 {
        fill: #d5b4fb;
      }

      .st2 {
        fill: #ffe1d4;
      }

      .st3 {
        fill: #112433;
      }

      .st4 {
        stroke-width: 3.5px;
      }

      .st4, .st5, .st6, .st7, .st8 {
        fill: none;
        stroke: #112433;
        stroke-linecap: round;
        stroke-linejoin: round;
      }

      .st5 {
        stroke-width: 3.5px;
      }

      .st6 {
        stroke-width: 3.4px;
      }

      .st7 {
        stroke-width: 3.7px;
      }

      .st8 {
        stroke-width: 3.6px;
      }
    </style>
  </defs>
  <path class="st3" d="M52,347.9c3.4,7.4,6.7,14.7,10.1,22.1,31.3-1.1,62.6-2.1,93.9-3.2-2.2-9-4.5-17.9-6.7-26.8"/>
  <path class="st8" d="M53,349c2.3,6,4.5,11.9,6.8,17.9,1,2.6,3.5,4.2,6.2,4.1,12.5-.5,28.5-1,41-1.5"/>
  <path class="st8" d="M95,349c2.2,5.3,4.5,10.7,6.7,16,1,2.4,3.3,4,6,4,11.8,0,36.2-.8,46-1.5,1.5-.1,2.6-1.6,2.2-3-.9-3.5-1.7-7-2.6-10.5"/>
  <path class="st2" d="M73,203.2c-2.8,2.2-2,5.4-4.2,9-2.2,3.5-4.8,1.7-7.5,5.7-5.1,7.6-6.4,15.3-7.5,20.4-1.7,7.4-2.4,4.6-8.4,22.8-7,21.4-5.5,19.5-10,32.6-6.3,18.1-10.2,24-11.7,32.6-.7,3.7-.8,7.2-3.3,11.4-1.8,2.9-3.4,4-3.3,6.5,0,2.8,2.3,5.9,5,6.5,1.8.4,2.6-.6,5,0,1.8.4,1.7,1.1,3.3,1.6,4.1,1.3,8.1-.7,8.4,0,.2.6-2.6,2.3-2.5,2.4,0,.1,2.3-1.8,4.6-1.3.5.1.6.3,1.2.5.3,0,3.2.7,5,0,2.5-.9,2.2-3.9,4.2-5.7,3-2.7,8.8-.8,11.7,0,.8.2,9.4.1,26.8,0,24.2-.2,28-1,30.1-1.6,3-.9,4.8-1.1,8.4-1.6,5.3-.7,6.2-.3,6.7,0,3.1,1.8,1,6.2,4.2,9,2.7,2.4,7.7,2.5,10.9.8,3.6-1.9,4.7-6.1,5.9-5.7,1,.3,0,3.2,1.7,4.9,2.2,2.2,7.9.1,8.4,0,2.3-.8,3.2-1.9,5-1.6,1.7.2,1.7,1.3,3.3,1.6,2.8.6,4-2.2,8.4-3.3,4-1,6,.8,7.5-.8,1-1,1-2.6.8-5.7,0-2.2-.4-3.8-.8-5.7-1.5-7.2-4-17.2-5.9-23.6-1.8-6.2-3.2-10.8-3.3-11.4-3-9.6-3.9-15.1-6.7-27.7-2.3-10.2-4.7-21.1-8.4-34.2-8.8-31.1-11.1-26.3-11.7-35.9-.2-2.9-.3-9.9-5-13-2.5-1.7-5.3-1.7-6.7-1.6-25.1.5-53.6,9.8-64.4,10.6-1,0-3.2.2-5,1.6Z"/>
  <path class="st3" d="M40,337.3c1.6,1.9,3.1,3.8,4.6,5.6,2.8,1.3,6.2,2.6,10.1,3.6,8.1,2,15.1,1.6,19.9.9,17.7-.4,35.4-.8,53.1-1.2l11.2-1.5-.8-4.9-97.1-4.8-1.1,2.3h0Z"/>
  <path class="st3" d="M194,327.7l-1.2,4.4-3.8,2-27.3-.5-22.2-.7-3.4-4c-.1-.3-.3-1,0-1.9.4-1.2,1.4-1.8,1.7-1.9,5.8,1.1,11.7,2.2,17.5,3.4l38.6-.7Z"/>
  <path class="st3" d="M80,321.7l-1.2,4.5-3.8,2c-9.3.6-18.5,1.2-27.8,1.7-7.3-1-14.6-2-21.8-3l-3.4-4.1v-4.9c6.4,1.5,12.9,3,19.3,4.5l38.7-.8Z"/>
  <path class="st0" d="M70.6,202.7l-45,90.9-4.5,17.2c0,1.4.2,4.3,2.1,7,2.2,3.1,5.5,4,8.3,4.9,1.9.6,5.1,1.3,9.2.9l-.9,12.9,21.4,4.5,75.9.2v-8.1l-1.4-5.4,1.4-3.7,12.5,3.7c12.8.5,25.5,1.1,38.3,1.6,2.8-2.2,5.5-4.4,8.3-6.5.7-2.1,1.5-4.8,1.7-8.2.3-6.2-1.3-11-2.5-13.8-15.5-37.6-31-75.1-46.6-112.7-8.6,3.5-17.2,7.1-25.8,10.6-3.6,5.2-7.2,10.3-10.8,15.5-2.1,1.7-5.1,3.9-9.2,5.7-4.6,2.1-8.7,2.9-11.7,3.3-1.3,0-3.9-.2-6.7-1.6-3.5-1.8-5.2-4.6-5.8-5.7-.3-4.6-.5-9.3-.8-13.9l-7.5.8h0Z"/>
  <path class="st7" d="M136,348v-15"/>
  <path class="st8" d="M24,328c-1,3-2,6-3,9"/>
  <path class="st8" d="M18,343c-5.8,11.6,16.9,12.4,12.5.2"/>
  <path class="st8" d="M29,351.2c2.2,2.4,5.7,3.3,8.7,2.4,3.6-1.1,5.9-4.8,5.2-8.6"/>
  <path class="st8" d="M40,352.5c1.9,2.5,5.1,3.2,7.4,1.8,1.7-1,2.7-3.1,2.6-5.3"/>
  <path class="st8" d="M141,355.6c7.3,4.5,17.9-2.5,14.2-11.6"/>
  <path class="st8" d="M156,349.8c0,.4.8,3.4,3.6,4.7,2.8,1.3,6.3.2,8.2-2.3,1.8-2.4,1.6-5.8-.5-8.2"/>
  <path class="st8" d="M168,350.7c.4.5,1.8,2.3,4.4,3,2.7.7,5.8,0,7.7-2,2.3-2.3,2.5-5.9.4-8.7"/>
  <path class="st8" d="M183,350.2c.3.4.9,1.3,2.1,1.6,2.4.7,4.4-1.5,4.5-1.6,1.8-2,1.3-4.6,1.2-4.9-.4-1.9-1.7-3-2.1-3.3"/>
  <path class="st8" d="M53.4,281c-3.3,9.9-6.6,19.8-9.7,29.7-5,15.8-6.2,24.2-2.9,29.1,4.1,6.2,13.1,7.3,42.4,7.1,13.9,0,31.9-.5,52.8-1.6"/>
  <path class="st4" d="M71,203c-4,7.3-40.2,73-48.4,97.7-1.8,5.5-2.8,12.1.8,16.7,4.4,5.8,13.8,5.7,17.3,5.5"/>
  <path class="st4" d="M128.4,237c-2.9,21.1-3.5,38.8-3.4,52,.2,23.4,4.7,29.2,9,32.8,7.6,6.3,18.3,6.6,34.6,7,14,.4,21,.6,25.2-3.1,9.3-8.1,1.1-28.6-6.7-47.4-10.9-26.3-23.7-56.6-38.6-90.3"/>
  <path class="st8" d="M77,205.2c0,.7-.7,11.9,7,16.2,3.9,2.2,8.2,1.6,10.7,1.2,15-2.3,24-16.7,26.3-20.6"/>
  <path class="st4" d="M136.4,325c-2.2,1.5-1.5,5,.7,6.5,2.2,1.6,5.1,1.7,7.9,1.9l37.9,1.5c3,.1,6.3.2,8.8-1.4,2.5-1.6,3.5-5.4,1-7.1"/>
  <path class="st5" d="M21.8,317c-2.2,3.4.2,8.1,3.9,10.1,3.7,2,8.1,2,12.3,1.9"/>
  <path class="st8" d="M39,335c11.1,5.2,23.2,5.4,35,5.5,20.3.2,40.7.4,61,.5"/>
  <path class="st2" d="M50.4,64.9c-7.7,7.3-11.9,15.2-13.3,17.9-2.5,5-6.3,12.5-6.7,22.8-.3,8.4,1.8,14.9,3.3,19.5,3.9,11.7,7.5,12.2,10,22.8,1.6,6.9,1.6,13.7,1.7,16.3,0,6.1-.6,9.6,0,16.3.5,4.9.7,7.3,1.7,9.8,3.3,8.3,11.7,12.3,16.7,14.7,10.2,4.8,19.4,4.9,25,4.9,10.4,0,17.8-2.2,26.7-4.9,3.1-.9,16.9-5.2,33.3-14.7,11-6.4,18.4-12.3,23.3-16.3,9.4-7.6,13-12,15-14.7,3.2-4.3,6.8-9.1,8.3-16.3.8-3.8,2-8.8,0-14.7-1.2-3.4-2.7-7.8-6.7-9.8-1.8-.9-4.1-1.3-5-3.3-.6-1.4,0-2.7,0-3.3,0,0,0-7-1.7-14.7-2.8-12.9-10-22.8-10-22.8-7.8-10.7-17.5-15.8-25-19.5-6-3-23.9-11.7-48.3-9.8-7,.6-30.4,2.5-48.3,19.5Z"/>
  <path class="st1" d="M222,74.8c-8.3-20.3-29.8-34-54.2-34.4,4.4-11.5-1.2-25.3-11.6-32.3-10.4-7-24.3-7.6-36.2-3.6-11.9,4-21.9,12.1-30.1,21.5-2.5-9.5-13.8-14.3-23.8-13.9-11.6.5-22.9,6.3-29.8,15.5-6.9,9.2-9.2,21.5-6.1,32.5-10-2.2-20.8,3.8-25.4,12.8-5.4,10.6-1.5,21.5,1.5,28.9,6.3,15.3,19.7,28.7,30,33.2l.5,1.5c1.3.1,2.7,0,4,0,2.1.4,4,.2,5.4-.6.7-.4,1.2-.8,1.6-1.4,2.6-1.3,5-3,6.9-5.2,4.3-5,5.8-12.2,4-18.4,6.2,6.5,16.4,9.2,25.2,6.7,8.8-2.5,15.8-10.1,17.4-18.8,1.5,8.8,7.9,16.8,16.4,20.4,8.5,3.6,18.9,2.8,26.6-2.1l11.8,27c-.3-1.1-2.8-12.4,5-21.2,5-5.7,12.7-8.5,20.5-7.8,3.4.6,6.8,1.9,9.5,4.5,3.2,3.2,4.5,7.8,5,9.8,2.1,8.3-1.6,13.6,0,14.7,2.4,1.5,14.4-7.8,21.7-21.2,2.1-3.9,13.5-25.1,4.1-47.9h0Z"/>
  <path class="st6" d="M146.2,192c17.1-9.6,36.2-22.9,45.5-40.4,4.4-8.3,5.7-18.1,2-26.9-3.9-9.1-14.8-10.8-23.4-7.3-12.6,5.1-16.6,18.9-11.5,30.7"/>
  <path class="st6" d="M41.9,146.3c4.9,10.9,3.4,21.1,3.2,33.2-.1,7.3,1.5,13.7,7.1,18.5,12.2,10.3,31.6,12.4,46.9,10.6,12.2-1.4,23.9-5.3,35-10.4"/>
  <path class="st6" d="M171.8,128.8c-.4,8,1.1,16.1,4.2,23.4"/>
  <path class="st6" d="M173.6,142.9l6.1-5.2"/>
  <path class="st8" d="M31.6,129.3c-6-3.4-18.9-11.8-25.3-27.6-3-7.3-6.9-18.3-1.5-28.9,4.6-9,15.4-14.9,25.4-12.8-3.1-11-.8-23.3,6.1-32.5,6.9-9.2,18.2-15.1,29.8-15.5,10-.4,21.3,4.4,23.8,13.9,8.1-9.4,18.2-17.5,30.1-21.5,11.9-4,25.8-3.4,36.2,3.6,10.4,7,16.1,20.8,11.6,32.3,24,0,45.5,13.7,54.2,34.4,9.9,23.7,1.3,52.1-21.3,67.7"/>
  <path class="st8" d="M37.3,136.4c6.7.6,13.6-2.2,17.9-7.3,4.3-5.1,5.8-12.3,4-18.6,6.2,6.6,16.3,9.3,25.1,6.8,8.8-2.5,15.8-10.2,17.3-19,1.5,8.9,7.9,16.9,16.4,20.6,8.5,3.6,18.8,2.8,26.5-2.1"/>
  <path class="st6" d="M57.1,151c-2.4-.4-4.7,2-3.9,4,.8,2,4.2,2.7,5.9,1.1"/>
  <path class="st6" d="M85.1,150c-1.8.4-2.7,3.2-1.6,4.9,1.1,1.7,3.7,1.3,4.5-.6"/>
  <path class="st6" d="M62,141c-.9-1.4-3-2.6-5.3-2.9-2.3-.3-4.9.1-6.7,1.2"/>
  <path class="st6" d="M81,142c.8-1.8,2.6-3.3,4.8-3.8,2.1-.5,4.5,0,6.2,1.2"/>
  <path class="st6" d="M73,168c-.3,1.5-1.8,2.8-3.6,3-1.8.2-3.7-.7-4.4-2.2"/>
</svg>