<?xml version="1.0" encoding="UTF-8"?>
<svg id="Layer_1" xmlns="http://www.w3.org/2000/svg" xmlns:xlink="http://www.w3.org/1999/xlink" version="1.1" viewBox="0 0 205 365">
  <!-- Generator: Adobe Illustrator 29.3.1, SVG Export Plug-In . SVG Version: 2.1.0 Build 151)  -->
  <defs>
    <style>
      .st0 {
        mask: url(#mask);
      }

      .st1, .st2, .st3, .st4, .st5, .st6, .st7 {
        stroke: #112433;
      }

      .st1, .st2, .st4, .st5 {
        stroke-width: 1.3px;
      }

      .st1, .st8 {
        fill: #112433;
      }

      .st2 {
        fill: #d38767;
      }

      .st3, .st4, .st9 {
        fill: #d4dee8;
      }

      .st3, .st6, .st7 {
        stroke-linecap: round;
        stroke-linejoin: round;
      }

      .st3, .st7 {
        stroke-width: 3.6px;
      }

      .st10 {
        mask: url(#mask-1);
      }

      .st11 {
        fill: #fff;
      }

      .st5 {
        fill: #d5b4fb;
      }

      .st6 {
        stroke-width: 3.4px;
      }

      .st6, .st7 {
        fill: none;
      }
    </style>
    <mask id="mask" x="38.8" y="331.7" width="118.9" height="32.7" maskUnits="userSpaceOnUse">
      <g id="path-1-inside-1_114_208">
        <path class="st11" d="M40,340.2c3.7,7.6,7.5,15.2,11.2,22.8,34.9-1.1,73.5-1.6,104.8-3.3-2.5-9.2-5-18.5-7.5-27.7"/>
      </g>
    </mask>
    <mask id="mask-1" x="110.7" y=".7" width="93.7" height="62.7" maskUnits="userSpaceOnUse">
      <g id="path-27-inside-2_114_208">
        <path class="st11" d="M122.2,36c-9.5-3.3-12.8-14.5-7.9-22.2,4.9-7.7,15.6-11.7,25.9-11.8,10.3,0,20.2,3.2,29.4,7,9.6,3.9,19.1,8.7,25.7,15.8,6.6,7.1,10,17,6.1,25.5-3.8,8.5-16,14.2-25.8,10.6"/>
      </g>
    </mask>
  </defs>
  <path class="st9" d="M40,340.2c3.7,7.6,7.5,15.2,11.2,22.8,34.9-1.1,73.5-1.6,104.8-3.3-2.5-9.2-5-18.5-7.5-27.7"/>
  <g class="st0">
    <path class="st8" d="M51.2,363l-1.2.6.4.8h.9s0-1.4,0-1.4ZM156,359.7v1.3c0,0,1.7,0,1.7,0l-.4-1.6-1.3.3ZM38.8,340.7c3.7,7.6,7.5,15.2,11.2,22.8l2.4-1.2c-3.7-7.6-7.5-15.2-11.2-22.8l-2.4,1.2ZM51.3,364.3c34.9-1.1,73.5-1.6,104.8-3.3v-2.7c-31.4,1.6-69.9,2.2-104.9,3.3v2.7ZM157.3,359.4c-1.2-4.6-2.5-9.2-3.7-13.9-1.2-4.6-2.5-9.2-3.7-13.9l-2.6.7c1.2,4.6,2.5,9.2,3.7,13.9,1.2,4.6,2.5,9.2,3.7,13.9l2.6-.7Z"/>
  </g>
  <path class="st7" d="M41,342c2.5,5.7,5,11.4,7.6,17.1,1.1,2.5,3.9,4.1,6.9,3.9,13.9-.5,31.6-1,45.5-1.4"/>
  <path class="st7" d="M101,362c13.1,0,41.5-.7,52.4-1.3,1.7,0,2.9-1.5,2.5-2.8-1-3.3-1.9-6.5-2.9-9.8"/>
  <g>
    <path class="st2" d="M100.8,188.4c-7.7,1.1-14.9,2.6-20.4,4.7-2.7,1.1-5,2.3-6.7,3.6-1.7,1.4-2.8,2.9-3.2,4.5h0c0,.2-.1.5-.2.8-.2.8-.4,1.9-.8,2.9-.5,1.4-1.4,2.9-3,3.3l76.8-22.6c-9.6.2-27,.6-42.5,2.8Z"/>
    <polygon class="st2" points="175.3 344.5 175.4 343.8 175.4 343.8 175.3 344.5"/>
    <path class="st2" d="M63.3,207.6s0,0,0,0c-.9-.5-1.8-.9-2.9-.9-1.5,0-2.9.6-4.3,1.6-1.4,1-2.6,2.4-3.6,3.8h0c-5.1,6.6-6.7,13.3-8,18.3-.1.6-.3,1.1-.4,1.6-.9,3.5-1.5,4.7-2.7,6.9,0,.2-.2.3-.3.5-1.3,2.4-3.1,6.2-6.5,15.2-4,10.6-5.5,15.4-6.7,19.2,0,.1,0,.3-.1.4-1.1,3.6-2,6.4-4.5,12.6-3,7.6-5.5,13-7.6,17.4-.4.8-.7,1.6-1.1,2.3-2.2,4.7-3.7,8.3-4.5,12.4h0c-.1.7-.2,1.3-.4,2-.5,3-1.1,6-3.5,9.6-.5.7-1,1.4-1.5,1.9,0,.1-.2.2-.3.3-.3.4-.6.8-.9,1.1-.7.9-1,1.6-1,2.6h0c0,1.2.6,2.5,1.6,3.6.9,1.1,2.2,1.9,3.5,2.2h0c.8.2,1.4,0,2.1,0,0,0,.1,0,.2,0,.9-.1,1.9-.2,3.3,0,1.1.2,1.6.5,2.1.8,0,0,0,0,0,0,.4.3.8.5,1.6.7,2.2.6,4.3.5,6,.2.4,0,.8-.1,1.2-.2h0c.3,0,.7-.1.9-.2.3,0,.6,0,.8,0,.2,0,.6,0,.9.5h0c.1.3,0,.6,0,.7.6,0,1.2,0,1.9,0,.4,0,.6.2.8.3h0c.2,0,.3.1.6.2h0c.7.2,3,.6,5.3,0,7.1-1.6,19.9-82.2,30.8-137.2h0c-1.2.3-2.3-.2-3.2-.7Z"/>
    <polygon class="st2" points="28.9 345.6 29 344.9 29 344.9 28.9 345.6"/>
    <path class="st2" d="M155.8,199.6s0,0,0,0h0c0-.1,0-.3,0-.4,0-1.5-.2-3.6-.9-5.8-.7-2.4-2-4.7-4.4-6.1l4.8,12.4h.5Z"/>
    <path class="st2" d="M197.9,336.5h0c0-2.2-.5-3.7-.9-5.5v-.2c-1.7-6.8-4.4-16.3-6.4-22.7l-.4-1.2.2.5h0c-2-6.2-3.6-10.7-3.8-11.3-2.2-6.2-3.4-10.7-4.9-16.6l-3.3-10.6.6-.2c-2.5-10.1-5.3-20.9-9.4-33.8-5.4-16.8-8.6-23-10.6-26.7-1.6-3.1-2.3-4.4-2.6-8.8,0,0-3.9-13.1-10.1-14.2l-79.9,22.9c25.9,50.8,59.6,130.1,74,137.9,8.1,2.9,16.1,1.1,18.1-5.5l-.2.6.2-.6c.6.2.9.7,1,1.1,0,.3.1.7.1,1.1,0,0,0,.2,0,.3,0,.9.2,1.8,1,2.5.5.4,1.2.7,2.1.8.9.1,1.9,0,2.8,0,1.8-.2,3.5-.7,3.8-.8h0s0,0,0,0c.9-.3,1.5-.6,2.1-.8.3-.1.6-.3.9-.4.9-.4,1.8-.6,2.9-.4l-1.6-.3c.6,0,1.2,0,1.8-.2l-.2.5c1.1.1,1.7.5,2.2.9,0,0,0,0,0,0,.4.3.8.6,1.5.7h0c1.3.3,2.2-.2,3.6-.9.1,0,.2-.1.3-.2,1.3-.7,2.9-1.6,5.3-2.1h0v.7c2.3-.5,3.9-.3,5.2-.2,1.4.1,2.5.2,3.4-.6,1.1-1,1.1-2.6.9-5.6ZM156.5,199.5"/>
    <path class="st2" d="M150.5,187.2h0l.3-.6-.3.6c-2.6-1.6-5.7-1.5-7.2-1.5v-.7s0,.7,0,.7l7.2,1.5h0Z"/>
    <path class="st2" d="M181.7,279.5l8.5,27.4-11.1-38.1c.7,2.9,1.3,5.3,1.9,7.6.3,1.1.5,2.2.8,3.2Z"/>
  </g>
  <path class="st5" d="M125.9,203.3h0c0,.1,0,.2,0,.2l7.4,136.2-92.5.6,29.7-139.3,61.2-13.9-2,1.9h-.1c0,.1,0,.3,0,.3l-3.7,13.9Z"/>
  <path class="st4" d="M70.9,213h0c0-2.8-1-5.1-1.9-6.6-.3-1.1-.4-2.6,0-4.3h0c1.1-4.1,5.2-7.6,11.1-10.4,5.9-2.8,13.4-4.9,21-6.2,7.5-1.3,15-1.9,20.8-1.7,2.9.1,5.4.4,7.2.9.9.2,1.6.5,2.2.8.5.3.9.6,1,.9h0c.2.4.1.8-.5,1.5-.4.5-1,1.1-1.7,1.8-.3.3-.7.7-1.1,1-2.3,2.3-5.1,5.7-6.3,11.1-.2.9-.3,1.8-.5,2.7,0,0,0,.1,0,.2-.1.9-.3,1.8-.5,2.5-.4,1.5-1.1,2.8-2.5,3.7h0c-1.7,1.1-4.5,1.9-7.1,1.5-1.4-.2-2.4-.7-3.2-1,0,0,0,0,0,0h0c-.8-.4-1.7-.8-2.7-.5-.8.2-1.3.8-1.6,1.4-.3.5-.4,1.2-.6,1.7,0,0,0,0,0,.1-.3,1.3-.6,2.4-1.8,3.2-1.1.7-2.6,1-4.3.9-1.7,0-3.3-.5-4.6-1-2.1-.8-3.3-2-4.3-3,0,0,0,0,0,0-.9-.9-1.9-1.9-3.5-1.7-1.4.1-2.1,1.1-2.8,2,0,0,0,0,0,0-.7.9-1.5,1.9-3.1,2.8-1.5.8-3.4,1.2-5.1,1.2s-1.6,0-2.2-.3c-.6-.2-1.1-.4-1.3-.7h0c-.3-.3-.3-.6-.2-1.3,0-.1,0-.3,0-.5.1-.7.3-1.5.3-2.6Z"/>
  <path class="st7" d="M69,202c-9.7,46-19.3,92-29,138"/>
  <path class="st7" d="M143,185.1c.9-.2,1.8-.1,2.8.1,2.9.7,5.2,2.6,6.3,4.9,19.8,41.3,27.5,85.6,40.9,128.9"/>
  <path class="st7" d="M134,335l-7.1-114.9c-.5-8.9-3.1-20.3,3.7-28.1"/>
  <path class="st7" d="M67,207.5c-5.7-3.5-12-.3-14.6,5.1-17.7,38.9-30.4,77.8-46.4,116.4"/>
  <path class="st7" d="M3.2,334c-7,11.6,20.5,12.4,15.2.2"/>
  <path class="st7" d="M15,343.2c2.5,2.4,6.5,3.3,9.9,2.4,4.1-1.1,6.7-4.8,5.9-8.6"/>
  <path class="st7" d="M28,344.5c2.3,2.5,6.2,3.2,8.9,1.8,2-1,3.2-3.1,3.1-5.3"/>
  <path class="st7" d="M141,347.6c8.3,4.5,20.3-2.5,16.1-11.6"/>
  <path class="st7" d="M158,341.3c0,.4.9,3.7,4.2,5.1,3.3,1.4,7.3.2,9.4-2.5,2.1-2.7,1.8-6.4-.6-8.9"/>
  <path class="st7" d="M173,342.4c.4.6,2,2.6,5.1,3.3,3.1.8,6.6,0,8.8-2.2,2.6-2.5,2.8-6.5.5-9.5"/>
  <path class="st7" d="M41,342c31-.3,62-.7,93-1"/>
  <path class="st7" d="M85,221c-7.7,31.8-12.1,64.3-13,96.8,0,2.6-.1,5.2,1,7.6,1.1,2.4,3.6,4.5,6.5,4.6"/>
  <path class="st7" d="M91,214.7c1.6,3,5.7,4.8,9.4,4.1,3.7-.7,6.7-3.8,6.7-7,3.3,2.5,8.7,2.7,12.2.4,3.5-2.3,4.7-6.8,2.7-10.2"/>
  <path class="st3" d="M89.5,243c1.9,0,3.5-1.1,3.5-2.5s-1.6-2.5-3.5-2.5-3.5,1.1-3.5,2.5,1.6,2.5,3.5,2.5Z"/>
  <path class="st3" d="M87.5,258c1.4,0,2.5-1.3,2.5-3s-1.1-3-2.5-3-2.5,1.3-2.5,3,1.1,3,2.5,3Z"/>
  <path class="st3" d="M85.5,270c1.9,0,3.5-1.1,3.5-2.5s-1.6-2.5-3.5-2.5-3.5,1.1-3.5,2.5,1.6,2.5,3.5,2.5Z"/>
  <path class="st7" d="M81,218.1c-1.2,2.6-5,3.7-7.6,2.3-2.6-1.5-3.2-5.2-1.3-7.4"/>
  <path class="st7" d="M72,213c-2.3-.7-3.9-2.3-4-4"/>
  <g>
    <polygon class="st2" points="20.2 78.4 20.2 78.4 20.2 78.4 20.2 78.4"/>
    <path class="st2" d="M20.2,78.4l14.9-17.4c-8.6,7.2-13.4,14.8-14.9,17.4Z"/>
    <path class="st2" d="M198.1,123.2c-1.4-3.4-3-7.4-7.2-9.2-.5-.2-1-.4-1.6-.6h0c-.5-.2-1.1-.4-1.7-.6-1.1-.5-2.2-1.1-2.7-2.3-.4-.8-.4-1.7-.3-2.3,0-.3.1-.6.2-.8h0c0-.1,0-.2,0-.3,0,0,0-.1,0-.1h0c0-.1,0-.1,0-.2s0,0,0-.1c0-.2,0-.5,0-.9,0-.8,0-1.8-.2-3.1-.2-2.6-.7-6.2-1.6-9.9-1.6-6.3-4.4-11.8-6.8-15.8-1.2-2-2.3-3.6-3.1-4.7-.4-.5-.7-1-.9-1.3-.1-.1-.2-.3-.3-.3,0,0,0,0,0,0,0,0,0,0,0,0h0s0,0,0,0h0c-8.7-10.4-19.6-15.3-28-19h0c-6.8-3-26.9-11.5-54.4-9.6-8,.6-34.3,2.4-54.3,19.1l-14.9,17.4,3.2,32.5,2.6,25.8h0s6.8,18.9,6.8,18.9l-3.1,18.4c0-.4,0-.8-.1-1.2v1.4c.7,4.7.9,6.9,1.9,9.2h0c1.8,3.9,5,6.9,8.5,9.1,3.5,2.3,7.2,3.8,10,4.9h0c11.4,4.7,21.7,4.8,28,4.8,11.6,0,19.9-2.2,30-4.8,3.4-.9,19-5.1,37.6-14.4,12.4-6.2,20.8-12,26.3-16,10.6-7.5,14.6-11.7,16.9-14.3,3.7-4.2,7.6-8.8,9.3-15.7h0s0-.2,0-.2c1-3.8,2.1-8.4,0-13.8Z"/>
    <path class="st2" d="M20.2,78.4c-2.9,4.9-7,12.2-7.5,22.1h0c-.3,8.1,2,14.3,3.7,19,2,5.3,4,8.3,5.9,11,.1.2.2.3.3.5,1.2,1.8,2.3,3.5,3.3,5.8l-2.6-25.8-3.2-32.5Z"/>
  </g>
  <path class="st8" d="M122.2,36c-9.5-3.3-12.8-14.5-7.9-22.2,4.9-7.7,15.6-11.7,25.9-11.8,10.3,0,20.2,3.2,29.4,7,9.6,3.9,19.1,8.7,25.7,15.8,6.6,7.1,10,17,6.1,25.5-3.8,8.5-16,14.2-25.8,10.6"/>
  <g class="st10">
    <path class="st8" d="M114.2,13.8l-1.1-.7h0l1.1.7ZM140.1,2v1.3h0v-1.3ZM169.5,9l-.5,1.2h0s.5-1.2.5-1.2ZM122.6,34.8c-8.7-3-11.7-13.3-7.2-20.3l-2.3-1.4c-5.3,8.4-1.8,20.7,8.6,24.2l.9-2.5ZM115.4,14.5c4.5-7.2,14.7-11.1,24.8-11.2V.7c-10.5,0-21.8,4.2-27,12.4l2.3,1.4ZM140.1,3.3c10,0,19.7,3.1,28.9,6.9l1-2.5c-9.3-3.8-19.4-7.1-29.9-7.1v2.7ZM169,10.2c9.6,3.9,18.8,8.6,25.2,15.5l2-1.8c-6.8-7.4-16.5-12.2-26.2-16.2l-1,2.5ZM194.3,25.7c6.4,6.9,9.4,16.2,5.9,24.1l2.4,1.1c4.1-9.2.5-19.6-6.4-27l-2,1.8ZM200.2,49.8c-1.7,3.9-5.5,7.2-10,9.1-4.5,1.9-9.6,2.4-14.2.7l-.9,2.5c5.3,2,11.1,1.4,16.1-.8,5-2.1,9.3-5.9,11.4-10.5l-2.4-1.1Z"/>
  </g>
  <path class="st1" d="M45.4,105.5c.1.4.3.8.4,1.2-.3-.2-.5-.5-.8-.7l.4-.5ZM45.4,105.5c.3.3.6.6,1,.8,0-.3-.2-.7-.3-1l-.6.2ZM182,86.8c4,9.2,4.5,17.5,4.3,23.2-9.5-2-19.6.6-26.1,6.7-6.1,5.7-6.9,12.5-6.6,16.9-1.5-3-3-6.1-4.6-9.1-2.2-4.5-4.5-8.9-6.7-13.4l-.3-.6-.6.3c-8.6,4.7-20,5.5-29.4,2.1-9.4-3.5-16.4-11.1-18-19.5h-1.3c-1.7,8.3-9.4,15.5-19.1,17.9-9.7,2.4-20.9-.2-27.7-6.4l-1.1.7c2,5.9.4,12.6-4.3,17.4h0c-4.6,4.7-12,7.4-19.3,6.9l-3.1-8.7c-5.6-17.2-5.3-34.4,7.4-49h0c22.7-26.3,63-36.2,99.4-27.8h0c2.4.5,13.3,3.4,25.3,9.9,12,6.6,25.1,16.9,31.7,32.3h0Z"/>
  <path class="st7" d="M123.9,36c-9.3-3.3-12.5-14.5-7.7-22.2,4.8-7.7,15.3-11.7,25.3-11.8,10.1,0,19.7,3.2,28.8,7,9.4,3.9,18.7,8.7,25.1,15.8,6.5,7.1,9.7,17,6,25.5-3.7,8.5-15.7,14.2-25.2,10.6"/>
  <path class="st6" d="M27,140c5.5,10.8,3.8,20.8,3.6,32.8-.1,7.2,1.6,13.5,7.9,18.2,13.7,10.2,35.3,12.2,52.4,10.5,13.6-1.4,26.8-5.2,39.1-10.3"/>
  <path class="st6" d="M186.9,110.1c2-33-25.2-57.9-61.6-66.2-36.7-8.4-77.3,1.5-100.2,27.8-12.9,14.8-13.2,32.1-7.5,49.3"/>
  <path class="st6" d="M173.1,124c-.4,7.8,1,15.8,3.9,23"/>
  <path class="st6" d="M174,137l8-5"/>
  <path class="st7" d="M21,130.9c7.6.6,15.4-2.2,20.2-7.3,4.9-5.1,6.6-12.2,4.5-18.5,7,6.5,18.4,9.3,28.3,6.7,9.9-2.5,17.8-10.1,19.6-18.9,1.7,8.9,8.9,16.8,18.5,20.5,9.6,3.6,21.2,2.8,30-2.1"/>
  <path class="st6" d="M186.9,110.1c2-33-25.2-57.9-61.6-66.2-36.7-8.4-77.3,1.5-100.2,27.8-12.9,14.8-13.2,32.1-7.5,49.3"/>
  <path class="st6" d="M143,185c19.6-9.4,41.5-22.5,52.2-39.7,5.1-8.2,6.6-17.8,2.3-26.4-4.4-8.9-17-10.6-26.8-7.2-14.4,5-19.1,18.6-13.1,30.2"/>
  <path class="st6" d="M42.7,149.8c-1.9-.3-3.8,1.6-3.2,3.2.6,1.6,3.5,2.1,4.8.9"/>
  <path class="st6" d="M75.1,148.3c-2.2.4-3.3,2.9-2,4.4,1.3,1.5,4.5,1.2,5.5-.5"/>
  <path class="st6" d="M42.7,149c-1.6-.3-2.9-1.7-2.8-3.1"/>
  <path class="st6" d="M75.7,148.4c-2.1-1-3.1-3.2-2.6-5.2"/>
  <path class="st6" d="M49,138.7c-.1-3.7-4.4-6.1-8-5.6-2.9.4-5.4,3-5,5.9"/>
  <path class="st6" d="M82,136.7c-.1-3.7-4.4-6.1-8-5.6-2.9.4-5.4,3-5,5.9"/>
  <path class="st6" d="M53,166.6c.2,1.9,2.8,3.2,4.9,3.4,2.5.2,5.8-1.1,6.1-3.4.3-2.2-2.4-4.3-4.9-4.5-3.1-.3-6.4,2.2-6.1,4.5Z"/>
</svg>