<svg width="169" height="169" viewBox="0 0 169 169" fill="none" xmlns="http://www.w3.org/2000/svg">
<rect width="169" height="169" fill="#103454"/>
<path d="M13.5 33.5V156.1C13.5 156.321 13.6791 156.5 13.9 156.5H84.5" stroke="#FBBD20" stroke-width="3" stroke-linecap="round"/>
<path d="M157 136V13.4C157 13.1791 156.821 13 156.6 13H86" stroke="#FBBD20" stroke-width="3" stroke-linecap="round"/>
<path d="M117.5 76.4999C109.347 76.4647 105.35 74.9643 99.5 68.9999C92.5616 76.4424 88.9483 81.4306 80.7303 85.3899C80.5911 85.4569 80.5 85.5984 80.5 85.7529V91.9999V124.29C80.5 124.421 80.5648 124.545 80.6734 124.619L88.469 129.979C88.4896 129.993 88.5121 130.005 88.535 130.015C90.1234 130.717 90.8824 131.226 91.4909 131.882C91.7151 132.124 91.529 132.5 91.1993 132.5H63.7627C63.3722 132.5 63.2181 132.004 63.5477 131.795C64.791 131.005 65.8219 130.548 67.4548 130.015C67.4845 130.005 67.5135 129.992 67.5401 129.975L76.3086 124.617C76.4275 124.544 76.5 124.415 76.5 124.276V91.9999C76.5617 89.5369 76.5858 88.1241 76.5075 85.7235C76.503 85.5847 76.4273 85.4589 76.3071 85.3891C68.6292 80.9329 61.6538 71.5694 51.6234 60.6747C51.3869 60.4178 51.5672 59.9999 51.9163 59.9999H98.9206C99.2005 59.9999 99.3933 59.7193 99.3017 59.4548C98.5665 57.3332 98.5303 55.8457 99.5 52.9999C102.555 45.481 106.594 43.4655 117.5 43.4999C126.724 43.7104 130.459 45.7082 134.5 52.9999C136.909 58.8299 136.626 62.3241 134.52 68.9379C134.507 68.9784 134.487 69.0182 134.462 69.0526C130.656 74.2765 126.965 75.9736 117.5 76.4999Z" fill="#103454"/>
<path d="M99.5 68.9999C105.35 74.9643 109.347 76.4647 117.5 76.4999C126.965 75.9736 130.656 74.2765 134.462 69.0526C134.487 69.0182 134.507 68.9784 134.52 68.9379C136.626 62.3241 136.909 58.8299 134.5 52.9999C130.459 45.7082 126.724 43.7104 117.5 43.4999C106.594 43.4655 102.555 45.481 99.5 52.9999C98.5303 55.8457 98.5665 57.3332 99.3017 59.4548C99.3933 59.7193 99.2005 59.9999 98.9206 59.9999H51.9163C51.5672 59.9999 51.3869 60.4178 51.6234 60.6747C61.6538 71.5694 68.6292 80.9329 76.3071 85.3891C76.4273 85.4589 76.503 85.5847 76.5075 85.7235C76.5858 88.1241 76.5617 89.5369 76.5 91.9999V124.276C76.5 124.415 76.4275 124.544 76.3086 124.617L67.5401 129.975C67.5135 129.992 67.4845 130.005 67.4548 130.015C65.8219 130.548 64.791 131.005 63.5477 131.795C63.2181 132.004 63.3722 132.5 63.7627 132.5H91.1993C91.529 132.5 91.7151 132.124 91.4909 131.882C90.8824 131.226 90.1234 130.717 88.535 130.015C88.5121 130.005 88.4896 129.993 88.469 129.979L80.6734 124.619C80.5648 124.545 80.5 124.421 80.5 124.29V91.9999V85.7529C80.5 85.5984 80.5911 85.4569 80.7303 85.3899C88.9483 81.4306 92.5616 76.4424 99.5 68.9999ZM99.5 68.9999C93.4527 66.5862 90.0502 66.5332 84 68.9999C78.4742 71.1704 75.4761 71.522 70.5 68.9999" stroke="#FBBD20" stroke-width="3"/>
<path d="M67.5 59.5L57.1924 40.8482C57.086 40.6556 56.844 40.5851 56.6508 40.6905L46 46.5" stroke="#FBBD20" stroke-width="3"/>
</svg>
