<svg width="439" height="116" viewBox="0 0 439 116" fill="none" xmlns="http://www.w3.org/2000/svg">
<rect x="0.5" y="0.5" width="438" height="115" fill="#103454" stroke="#FBBD20"/>
<path d="M141.84 68.44C139.173 68.1467 136.12 68 132.68 68C129.267 68 126.373 68.1333 124 68.4L123.84 67.4C124.88 67.0533 126.16 66.7467 127.68 66.48C127.973 64.2933 128.12 60.8533 128.12 56.16V53.8C128.12 49.1333 127.973 45.6933 127.68 43.48C126.32 43.2933 125.04 43.0133 123.84 42.64L124 41.64C125.413 41.8533 127.267 41.96 129.56 41.96C131.88 41.96 134.027 41.8533 136 41.64L136.12 42.6C134.52 42.9733 133.053 43.2267 131.72 43.36C131.373 45.7067 131.2 49.6267 131.2 55.12C131.2 60.6133 131.333 64.3467 131.6 66.32C132.48 66.4533 133.667 66.52 135.16 66.52C136.653 66.52 137.933 66.28 139 65.8C139.32 64.8133 139.573 63.32 139.76 61.32H140.76C140.867 64.1467 141.307 66.2533 142.08 67.64L141.84 68.44ZM151.002 68.6C148.682 68.6 146.776 67.8267 145.282 66.28C143.789 64.7067 143.042 62.6533 143.042 60.12C143.042 57.5867 143.802 55.2 145.322 52.96C146.869 50.6933 148.896 49.24 151.402 48.6C153.882 48.6 155.762 49.32 157.042 50.76C158.322 52.2 158.962 54.1867 158.962 56.72C158.962 59.2533 158.216 61.64 156.722 63.88C155.229 66.12 153.322 67.6933 151.002 68.6ZM150.322 51.08C149.202 51.08 148.282 51.4 147.562 52.04C146.682 53.72 146.242 55.6533 146.242 57.84C146.242 60.0267 146.736 61.96 147.722 63.64C148.709 65.2933 150.029 66.12 151.682 66.12C152.802 66.12 153.736 65.7867 154.482 65.12C155.336 63.4933 155.762 61.52 155.762 59.2C155.762 56.8533 155.309 54.92 154.402 53.4C153.522 51.8533 152.162 51.08 150.322 51.08ZM188.293 52.2C188.293 54.7067 187.613 57.4133 186.253 60.32C184.893 63.2 183.267 65.6533 181.373 67.68C180.707 68.0267 179.96 68.3333 179.133 68.6C177.907 68.3067 176.8 65.6 175.813 60.48C174.56 63.1733 172.96 65.5733 171.013 67.68C170.347 68.0267 169.6 68.3333 168.773 68.6C168.32 68.4933 167.893 68.12 167.493 67.48C167.12 66.84 166.653 65.4667 166.093 63.36C165.56 61.2267 165.08 58.7867 164.653 56.04C164.227 53.2933 163.893 51.4667 163.653 50.56C163.013 50.3467 162.293 50.24 161.493 50.24V49.4C163.28 49.32 165.173 49.0533 167.173 48.6L167.453 48.76C167.24 49.5067 167.133 50.3467 167.133 51.28C167.133 52.1867 167.32 53.8133 167.693 56.16C168.067 58.48 168.467 60.5333 168.893 62.32C169.32 64.08 169.653 65.16 169.893 65.56C170.133 65.96 170.387 66.16 170.653 66.16C172.067 64.2933 173.093 62.44 173.733 60.6C174.4 58.7333 174.733 56.84 174.733 54.92C174.733 53 174.493 51.5467 174.013 50.56C173.373 50.3467 172.653 50.24 171.853 50.24V49.4C173.427 49.5067 175.373 49.56 177.693 49.56C182.52 49.56 186.533 49.16 189.733 48.36L189.893 49.08C189.547 49.3467 188.907 49.72 187.973 50.2C188.187 50.8933 188.293 51.56 188.293 52.2ZM182.013 50.28C179.853 50.28 178.347 50.5467 177.493 51.08C177.493 52.12 177.68 53.8133 178.053 56.16C178.427 58.48 178.827 60.5333 179.253 62.32C179.68 64.08 180.013 65.16 180.253 65.56C180.493 65.96 180.747 66.16 181.013 66.16C182.427 64.2933 183.453 62.44 184.093 60.6C184.76 58.7333 185.093 56.64 185.093 54.32C185.093 52.9867 184.813 51.76 184.253 50.64C183.48 50.4 182.733 50.28 182.013 50.28ZM215.903 68.44C213.236 68.1467 210.183 68 206.743 68C203.329 68 200.436 68.1333 198.063 68.4L197.903 67.4C198.943 67.0533 200.223 66.7467 201.743 66.48C202.036 64.2933 202.183 60.8533 202.183 56.16V53.8C202.183 49.1333 202.036 45.6933 201.743 43.48C200.383 43.2933 199.103 43.0133 197.903 42.64L198.063 41.64C199.476 41.8533 201.329 41.96 203.623 41.96C205.943 41.96 208.089 41.8533 210.063 41.64L210.183 42.6C208.583 42.9733 207.116 43.2267 205.783 43.36C205.436 45.7067 205.263 49.6267 205.263 55.12C205.263 60.6133 205.396 64.3467 205.663 66.32C206.543 66.4533 207.729 66.52 209.223 66.52C210.716 66.52 211.996 66.28 213.063 65.8C213.383 64.8133 213.636 63.32 213.823 61.32H214.823C214.929 64.1467 215.369 66.2533 216.143 67.64L215.903 68.44ZM222.905 57.04V60.4C222.905 63.28 222.998 65.4133 223.185 66.8C223.931 66.96 224.771 67.2133 225.705 67.56L225.625 68.32C224.131 68.1067 222.718 68 221.385 68C220.051 68 218.705 68.08 217.345 68.24L217.225 67.48C218.025 67.1333 218.811 66.8667 219.585 66.68C219.825 64.8667 219.945 62.7733 219.945 60.4V57.04C219.945 54.88 219.838 52.72 219.625 50.56C218.931 50.3467 218.211 50.24 217.465 50.24V49.4C219.518 49.2667 221.411 49 223.145 48.6L223.425 48.76C223.078 50.8133 222.905 53.5733 222.905 57.04ZM223.625 43.2C223.438 43.5467 223.105 43.9867 222.625 44.52C222.171 45.0533 221.785 45.4267 221.465 45.64C221.145 45.4267 220.745 45.0533 220.265 44.52C219.811 43.9867 219.491 43.5467 219.305 43.2C219.465 42.88 219.771 42.52 220.225 42.12C220.678 41.6933 221.091 41.3867 221.465 41.2C221.811 41.4133 222.211 41.7333 222.665 42.16C223.118 42.56 223.438 42.9067 223.625 43.2ZM228.909 60.6C228.909 57.88 229.629 55.4133 231.069 53.2C232.509 50.96 234.469 49.4267 236.949 48.6C238.736 48.6 240.602 48.88 242.549 49.44C243.722 49.2 244.749 48.9467 245.629 48.68L245.829 49.4C245.322 49.8 244.696 50.1867 243.949 50.56C243.602 53.7867 243.429 57.2267 243.429 60.88C243.429 64.5067 243.522 67.3333 243.709 69.36C243.122 70.8267 242.016 72.2667 240.389 73.68C238.762 75.12 237.149 76.0933 235.549 76.6C233.069 76.6 230.696 76.1867 228.429 75.36V74.6C228.936 72.8133 230.429 70.5867 232.909 67.92V67.76C231.682 67.4133 230.709 66.52 229.989 65.08C229.269 63.6133 228.909 62.12 228.909 60.6ZM232.109 58.84C232.109 60.0933 232.336 61.3867 232.789 62.72C233.269 64.0533 233.936 64.72 234.789 64.72C235.669 64.72 236.749 64.0267 238.029 62.64C239.336 61.2267 240.202 60 240.629 58.96C240.629 55.4667 240.536 53.16 240.349 52.04C238.936 51.4 237.589 51.08 236.309 51.08C235.029 51.08 234.029 51.4 233.309 52.04C232.509 53.9867 232.109 56.2533 232.109 58.84ZM236.509 74.12C237.682 74.12 238.602 73.8 239.269 73.16C239.882 71.56 240.256 70.0133 240.389 68.52C240.549 67.0267 240.629 64.5867 240.629 61.2L240.469 61.16C239.749 62.68 238.442 64.2667 236.549 65.92C235.802 66.56 235.082 67.2267 234.389 67.92C232.709 69.6 231.776 71.2933 231.589 73C233.056 73.7467 234.696 74.12 236.509 74.12ZM262.306 56.36C262.306 53.3733 261.693 51.88 260.466 51.88C259.426 51.88 258.2 52.5333 256.786 53.84C255.373 55.1467 254.426 56.36 253.946 57.48C253.946 61.3467 254.093 64.4533 254.386 66.8C255.106 66.96 255.946 67.2133 256.906 67.56L256.826 68.32C255.333 68.1067 253.92 68 252.586 68C251.253 68 249.906 68.08 248.546 68.24L248.426 67.48C249.226 67.1333 250.013 66.8667 250.786 66.68C251.026 64.8667 251.146 62.7733 251.146 60.4V52.96C251.146 45.9467 250.826 41.1733 250.186 38.64L251.026 38.4C251.266 39.2533 251.573 39.96 251.946 40.52C253.413 40.28 254.84 39.96 256.226 39.56L256.426 40.28C255.92 40.68 255.293 41.0667 254.546 41.44C254.146 43.6267 253.946 48.1467 253.946 55L254.106 55.04C255.013 53.7867 256.186 52.5067 257.626 51.2C259.093 49.8667 260.413 49 261.586 48.6C263.213 48.6 264.266 49.3333 264.746 50.8C265.066 51.84 265.226 53.12 265.226 54.64C265.226 54.88 265.226 55.1467 265.226 55.44L265.026 66.68C265.666 66.8933 266.386 67 267.186 67V67.84C265.48 67.92 263.68 68.1733 261.786 68.6L261.506 68.44C261.933 65.8533 262.186 62.12 262.266 57.24C262.293 56.9733 262.306 56.68 262.306 56.36ZM275.386 60.2C275.386 63.88 275.786 65.72 276.586 65.72C278.053 65.72 279.573 65.0133 281.146 63.6L281.546 64C279.999 66.16 278.119 67.6933 275.906 68.6C274.386 68.6 273.413 67.9067 272.986 66.52C272.613 65.3467 272.426 63.32 272.426 60.44C272.426 59.9333 272.426 59.3867 272.426 58.8L272.586 50.84H270.426L270.346 50.76C270.346 50.3333 270.386 50.04 270.466 49.88C272.706 48.4133 274.173 46.8933 274.866 45.32C275.186 45.24 275.559 45.2 275.986 45.2L276.146 45.28C275.879 46.88 275.719 48.1733 275.666 49.16L281.266 48.96L281.426 49.12C281.239 49.6 281.066 50.2267 280.906 51C279.546 50.92 277.759 50.88 275.546 50.88L275.386 58.8C275.386 59.28 275.386 59.7467 275.386 60.2ZM308.363 68.44C305.697 68.1467 302.643 68 299.203 68C295.79 68 292.897 68.1333 290.523 68.4L290.363 67.4C291.403 67.0533 292.683 66.7467 294.203 66.48C294.497 64.2933 294.643 60.8533 294.643 56.16V53.8C294.643 49.1333 294.497 45.6933 294.203 43.48C292.843 43.2933 291.563 43.0133 290.363 42.64L290.523 41.64C291.937 41.8533 293.79 41.96 296.083 41.96C298.403 41.96 300.55 41.8533 302.523 41.64L302.643 42.6C301.043 42.9733 299.577 43.2267 298.243 43.36C297.897 45.7067 297.723 49.6267 297.723 55.12C297.723 60.6133 297.857 64.3467 298.123 66.32C299.003 66.4533 300.19 66.52 301.683 66.52C303.177 66.52 304.457 66.28 305.523 65.8C305.843 64.8133 306.097 63.32 306.283 61.32H307.283C307.39 64.1467 307.83 66.2533 308.603 67.64L308.363 68.44ZM317.526 68.6C315.206 68.6 313.299 67.8267 311.806 66.28C310.312 64.7067 309.566 62.6533 309.566 60.12C309.566 57.5867 310.326 55.2 311.846 52.96C313.392 50.6933 315.419 49.24 317.926 48.6C320.406 48.6 322.286 49.32 323.566 50.76C324.846 52.2 325.486 54.1867 325.486 56.72C325.486 59.2533 324.739 61.64 323.246 63.88C321.752 66.12 319.846 67.6933 317.526 68.6ZM316.846 51.08C315.726 51.08 314.806 51.4 314.086 52.04C313.206 53.72 312.766 55.6533 312.766 57.84C312.766 60.0267 313.259 61.96 314.246 63.64C315.232 65.2933 316.552 66.12 318.206 66.12C319.326 66.12 320.259 65.7867 321.006 65.12C321.859 63.4933 322.286 61.52 322.286 59.2C322.286 56.8533 321.832 54.92 320.926 53.4C320.046 51.8533 318.686 51.08 316.846 51.08ZM333.577 60.84C333.577 63.8267 334.19 65.32 335.417 65.32C336.457 65.32 337.684 64.6667 339.097 63.36C340.51 62.0533 341.457 60.84 341.937 59.72C341.937 55.8533 341.79 52.7467 341.497 50.4C340.777 50.24 339.937 49.9867 338.977 49.64L339.057 48.88C340.55 49.0933 341.964 49.2 343.297 49.2C344.63 49.2 345.977 49.12 347.337 48.96L347.457 49.72C346.657 50.0667 345.87 50.3333 345.097 50.52C344.857 52.3333 344.737 54.4267 344.737 56.8V60.16C344.737 62.6133 344.83 64.7867 345.017 66.68C345.657 66.8933 346.377 67 347.177 67V67.84C345.47 67.92 343.67 68.1733 341.777 68.6L341.497 68.52C341.79 66.68 341.937 64.5733 341.937 62.2L341.777 62.16C340.87 63.4133 339.684 64.7067 338.217 66.04C336.777 67.3467 335.47 68.2 334.297 68.6C332.67 68.6 331.617 67.8667 331.137 66.4C330.817 65.36 330.657 64.08 330.657 62.56C330.657 62.32 330.657 62.0533 330.657 61.76L330.857 50.52C330.217 50.3067 329.497 50.2 328.697 50.2V49.36C330.404 49.28 332.204 49.0267 334.097 48.6L334.377 48.76C333.95 51.3467 333.697 55.08 333.617 59.96C333.59 60.2267 333.577 60.52 333.577 60.84ZM364.377 56.36C364.377 53.3733 363.763 51.88 362.537 51.88C361.497 51.88 360.27 52.5333 358.857 53.84C357.443 55.1467 356.497 56.36 356.017 57.48C356.017 61.3467 356.163 64.4533 356.457 66.8C357.177 66.96 358.017 67.2133 358.977 67.56L358.897 68.32C357.403 68.1067 355.99 68 354.657 68C353.323 68 351.977 68.08 350.617 68.24L350.497 67.48C351.297 67.1333 352.083 66.8667 352.857 66.68C353.097 64.8667 353.217 62.7733 353.217 60.4V57.04C353.217 54.5867 353.123 52.4133 352.937 50.52C352.297 50.3067 351.577 50.2 350.777 50.2V49.36C352.483 49.28 354.283 49.0267 356.177 48.6L356.457 48.76C356.163 50.6 356.017 52.68 356.017 55L356.177 55.04C357.083 53.7867 358.257 52.5067 359.697 51.2C361.163 49.8667 362.483 49 363.657 48.6C365.283 48.6 366.337 49.3333 366.817 50.8C367.137 51.84 367.297 53.12 367.297 54.64C367.297 54.88 367.297 55.1467 367.297 55.44L367.097 66.68C367.87 66.8667 368.657 67.1333 369.457 67.48L369.337 68.24C368.057 68.08 366.963 68 366.057 68C365.177 68 364.337 68.0267 363.537 68.08V67.52C363.963 65.44 364.23 62.0133 364.337 57.24C364.363 56.9733 364.377 56.68 364.377 56.36ZM372.972 60.6C372.972 57.88 373.692 55.4133 375.132 53.2C376.572 50.96 378.532 49.4267 381.012 48.6C382.798 48.6 384.665 48.88 386.612 49.44C387.785 49.2 388.812 48.9467 389.692 48.68L389.892 49.4C389.385 49.8 388.758 50.1867 388.012 50.56C387.665 53.7867 387.492 57.2267 387.492 60.88C387.492 64.5067 387.585 67.3333 387.772 69.36C387.185 70.8267 386.078 72.2667 384.452 73.68C382.825 75.12 381.212 76.0933 379.612 76.6C377.132 76.6 374.758 76.1867 372.492 75.36V74.6C372.998 72.8133 374.492 70.5867 376.972 67.92V67.76C375.745 67.4133 374.772 66.52 374.052 65.08C373.332 63.6133 372.972 62.12 372.972 60.6ZM376.172 58.84C376.172 60.0933 376.398 61.3867 376.852 62.72C377.332 64.0533 377.998 64.72 378.852 64.72C379.732 64.72 380.812 64.0267 382.092 62.64C383.398 61.2267 384.265 60 384.692 58.96C384.692 55.4667 384.598 53.16 384.412 52.04C382.998 51.4 381.652 51.08 380.372 51.08C379.092 51.08 378.092 51.4 377.372 52.04C376.572 53.9867 376.172 56.2533 376.172 58.84ZM380.572 74.12C381.745 74.12 382.665 73.8 383.332 73.16C383.945 71.56 384.318 70.0133 384.452 68.52C384.612 67.0267 384.692 64.5867 384.692 61.2L384.532 61.16C383.812 62.68 382.505 64.2667 380.612 65.92C379.865 66.56 379.145 67.2267 378.452 67.92C376.772 69.6 375.838 71.2933 375.652 73C377.118 73.7467 378.758 74.12 380.572 74.12ZM400.489 65.72C402.169 65.72 403.809 65.0133 405.409 63.6L405.849 64C404.329 66.08 402.382 67.6133 400.009 68.6C397.662 68.6 395.902 67.8667 394.729 66.4C393.555 64.9333 392.969 62.8933 392.969 60.28C392.969 57.6667 393.702 55.24 395.169 53C396.635 50.7333 398.595 49.2667 401.049 48.6C402.835 48.6 404.089 48.96 404.809 49.68C405.529 50.3733 405.889 51.6133 405.889 53.4C405.889 54.4133 405.755 55.28 405.489 56C406.049 56.2133 406.702 56.32 407.449 56.32L407.409 57.16C407.249 57.16 407.075 57.16 406.889 57.16C403.902 57.16 400.329 57.6 396.169 58.48C396.169 62.0267 396.862 64.24 398.249 65.12C398.835 65.52 399.582 65.72 400.489 65.72ZM402.689 55.8C402.689 54.04 402.515 52.8133 402.169 52.12C401.849 51.4267 401.155 51.08 400.089 51.08C399.022 51.08 398.102 51.4 397.329 52.04C396.609 53.5333 396.222 55.3333 396.169 57.44C398.355 56.72 400.529 56.1733 402.689 55.8Z" fill="#FBBD20"/>
<rect x="23" y="19" width="76.5947" height="76.5947" fill="#103454"/>
<path d="M29.1185 34.1831V89.7483C29.1185 89.8484 29.1997 89.9296 29.2998 89.9296H61.2974" stroke="#FBBD20" stroke-width="1.35967" stroke-linecap="round"/>
<path d="M94.156 80.6384V25.0733C94.156 24.9731 94.0748 24.892 93.9747 24.892H61.9772" stroke="#FBBD20" stroke-width="1.35967" stroke-linecap="round"/>
<path d="M76.2537 53.6714C72.5584 53.6554 70.7473 52.9754 68.0957 50.2722C64.9511 53.6453 63.3134 55.9061 59.5888 57.7005C59.5257 57.7309 59.4845 57.795 59.4845 57.8651V60.6964V75.3308C59.4845 75.3904 59.5139 75.4463 59.563 75.4801L63.0962 77.9092C63.1055 77.9156 63.1157 77.9213 63.1261 77.9258C63.846 78.2439 64.19 78.4747 64.4658 78.772C64.5674 78.8816 64.4831 79.0519 64.3336 79.0519H51.8988C51.7218 79.0519 51.6519 78.8271 51.8013 78.7322C52.3648 78.3742 52.832 78.1672 53.5721 77.9255C53.5855 77.9211 53.5987 77.9151 53.6108 77.9077L57.5848 75.4791C57.6387 75.4462 57.6716 75.3876 57.6716 75.3244V60.6964C57.6995 59.5801 57.7105 58.9397 57.675 57.8517C57.6729 57.7888 57.6386 57.7318 57.5842 57.7002C54.1043 55.6805 50.9429 51.4367 46.3969 46.499C46.2897 46.3826 46.3714 46.1932 46.5297 46.1932H67.8331C67.96 46.1932 68.0474 46.066 68.0058 45.9461C67.6726 44.9846 67.6562 44.3104 68.0957 43.0207C69.4804 39.6129 71.3108 38.6994 76.2537 38.715C80.4344 38.8104 82.1271 39.7159 83.9585 43.0207C85.0502 45.6629 84.9222 47.2466 83.9675 50.2441C83.9616 50.2625 83.9525 50.2805 83.9412 50.2961C82.2162 52.6637 80.5435 53.4328 76.2537 53.6714Z" fill="#103454"/>
<path d="M68.0957 50.2722C70.7473 52.9754 72.5584 53.6554 76.2537 53.6714C80.5435 53.4328 82.2162 52.6637 83.9412 50.2961C83.9525 50.2805 83.9616 50.2625 83.9675 50.2441C84.9222 47.2466 85.0502 45.6629 83.9585 43.0207C82.1271 39.7159 80.4344 38.8104 76.2537 38.715C71.3108 38.6994 69.4804 39.6129 68.0957 43.0207C67.6562 44.3104 67.6726 44.9846 68.0058 45.9461C68.0474 46.066 67.96 46.1932 67.8331 46.1932H46.5297C46.3714 46.1932 46.2897 46.3826 46.3969 46.499C50.9429 51.4367 54.1043 55.6805 57.5842 57.7002C57.6386 57.7318 57.6729 57.7888 57.675 57.8517C57.7105 58.9397 57.6995 59.5801 57.6716 60.6964V75.3244C57.6716 75.3876 57.6387 75.4462 57.5848 75.4791L53.6108 77.9077C53.5987 77.9151 53.5855 77.9211 53.5721 77.9255C52.832 78.1672 52.3648 78.3742 51.8013 78.7322C51.6519 78.8271 51.7218 79.0519 51.8988 79.0519H64.3336C64.4831 79.0519 64.5674 78.8816 64.4658 78.772C64.19 78.4747 63.846 78.2439 63.1261 77.9258C63.1157 77.9213 63.1055 77.9156 63.0962 77.9092L59.563 75.4801C59.5139 75.4463 59.4845 75.3905 59.4845 75.3308V60.6964V57.8651C59.4845 57.795 59.5257 57.7309 59.5888 57.7005C63.3134 55.9061 64.9511 53.6453 68.0957 50.2722ZM68.0957 50.2722C65.3549 49.1783 63.8129 49.1542 61.0707 50.2722C58.5663 51.2559 57.2075 51.4153 54.9522 50.2722" stroke="#FBBD20" stroke-width="1.35967"/>
<path d="M53.5926 45.9665L48.921 37.513C48.8727 37.4257 48.7631 37.3938 48.6755 37.4416L43.8483 40.0746" stroke="#FBBD20" stroke-width="1.35967"/>
</svg>
