<svg width="529" height="540" viewBox="0 0 529 540" fill="none" xmlns="http://www.w3.org/2000/svg">
<rect x="3" width="523" height="510.896" fill="#D4DEE8"/>
<path d="M17.7154 539.861L2.4223 509.818L32.3753 509.577L17.7154 539.861Z" fill="#D4DEE8"/>
<path d="M44.7154 539.861L29.4223 509.818L59.3753 509.577L44.7154 539.861Z" fill="#D4DEE8"/>
<path d="M71.7154 539.861L56.4223 509.818L86.3753 509.577L71.7154 539.861Z" fill="#D4DEE8"/>
<path d="M97.7154 539.861L82.4223 509.818L112.375 509.577L97.7154 539.861Z" fill="#D4DEE8"/>
<path d="M124.715 539.861L109.422 509.818L139.375 509.577L124.715 539.861Z" fill="#D4DEE8"/>
<path d="M151.715 539.861L136.422 509.818L166.375 509.577L151.715 539.861Z" fill="#D4DEE8"/>
<path d="M181.715 539.861L166.422 509.818L196.375 509.577L181.715 539.861Z" fill="#D4DEE8"/>
<path d="M208.715 539.861L193.422 509.818L223.375 509.577L208.715 539.861Z" fill="#D4DEE8"/>
<path d="M235.715 539.861L220.422 509.818L250.375 509.577L235.715 539.861Z" fill="#D4DEE8"/>
<path d="M261.715 539.861L246.422 509.818L276.375 509.577L261.715 539.861Z" fill="#D4DEE8"/>
<path d="M288.715 539.861L273.422 509.818L303.375 509.577L288.715 539.861Z" fill="#D4DEE8"/>
<path d="M315.715 539.861L300.422 509.818L330.375 509.577L315.715 539.861Z" fill="#D4DEE8"/>
<path d="M342.715 539.861L327.422 509.818L357.375 509.577L342.715 539.861Z" fill="#D4DEE8"/>
<path d="M369.715 539.861L354.422 509.818L384.375 509.577L369.715 539.861Z" fill="#D4DEE8"/>
<path d="M396.715 539.861L381.422 509.818L411.375 509.577L396.715 539.861Z" fill="#D4DEE8"/>
<path d="M426.715 539.861L411.422 509.818L441.375 509.577L426.715 539.861Z" fill="#D4DEE8"/>
<path d="M454.715 539.861L439.422 509.818L469.375 509.577L454.715 539.861Z" fill="#D4DEE8"/>
<path d="M483.715 539.861L468.422 509.818L498.375 509.577L483.715 539.861Z" fill="#D4DEE8"/>
<path d="M511.715 539.861L496.422 509.818L526.375 509.577L511.715 539.861Z" fill="#D4DEE8"/>
</svg>
