<svg width="234" height="87" viewBox="0 0 234 87" fill="none" xmlns="http://www.w3.org/2000/svg">
<rect width="220.012" height="62" transform="matrix(-1 0 0 1 233.724 0)" fill="#D4DEE8"/>
<path d="M12.2824 78.5158L34.779 61.5724L13.5053 47.9676L12.2824 78.5158Z" fill="#D4DEE8"/>
<path d="M58.992 31.008C58.128 33.744 57.696 35.4 57.696 35.976C57.696 36.168 57.752 36.328 57.864 36.456C57.992 36.568 58.152 36.624 58.344 36.624C60.184 36.624 62.216 36.328 64.44 35.736C65.16 35.544 65.576 35.448 65.688 35.448C65.928 35.448 66.048 35.616 66.048 35.952C66.048 36.528 65.16 37.12 63.384 37.728C61.624 38.336 59.92 38.64 58.272 38.64C57.536 38.64 56.888 38.424 56.328 37.992C55.784 37.56 55.512 37.016 55.512 36.36C55.512 35.704 55.744 34.584 56.208 33C56.688 31.416 57.168 29.728 57.648 27.936C58.128 26.144 58.368 24.632 58.368 23.4C58.368 23.224 58.4 23.04 58.464 22.848C58.736 22.256 60.48 21.96 63.696 21.96C66.912 21.96 68.52 22.192 68.52 22.656C68.52 22.976 68.176 23.192 67.488 23.304C66.912 23.416 66.144 23.52 65.184 23.616C64.24 23.696 63.576 23.76 63.192 23.808C62.808 23.84 61.88 23.984 60.408 24.24V24.312C60.408 25.4 60.112 27.04 59.52 29.232C59.616 29.248 59.936 29.256 60.48 29.256C61.04 29.256 61.784 29.216 62.712 29.136C63.64 29.056 64.336 29.016 64.8 29.016C65.28 29.016 65.52 29.128 65.52 29.352C65.52 29.912 64.864 30.328 63.552 30.6C62.24 30.872 60.72 31.008 58.992 31.008ZM71.1351 34.464C72.6711 31.856 73.9191 29.92 74.8791 28.656C75.8551 27.376 76.6471 26.736 77.2551 26.736C77.8791 26.736 78.4631 27.064 79.0071 27.72C79.5671 28.376 79.8471 29.072 79.8471 29.808C79.8471 30.96 79.5831 32.368 79.0551 34.032C78.0951 37.104 77.2311 38.64 76.4631 38.64C76.1111 38.64 75.9351 38.4 75.9351 37.92C75.9351 37.584 76.1031 36.904 76.4391 35.88C76.7911 34.84 77.1111 33.824 77.3991 32.832C77.7031 31.824 77.8551 31.072 77.8551 30.576C77.8551 30.064 77.7751 29.688 77.6151 29.448C77.4711 29.208 77.3191 29.088 77.1591 29.088C77.0151 29.088 76.8631 29.136 76.7031 29.232C76.5431 29.328 76.3591 29.488 76.1511 29.712C75.9591 29.936 75.7751 30.16 75.5991 30.384C75.4231 30.592 75.1991 30.896 74.9271 31.296C74.6711 31.696 74.4551 32.04 74.2791 32.328C74.1031 32.6 73.8471 33 73.5111 33.528C73.1751 34.056 72.9191 34.456 72.7431 34.728C72.5671 35 72.3351 35.368 72.0471 35.832C71.7591 36.296 71.5271 36.656 71.3511 36.912C71.1911 37.168 71.0071 37.448 70.7991 37.752C70.3991 38.344 70.0791 38.64 69.8391 38.64C69.6151 38.64 69.3511 38.464 69.0471 38.112C68.7431 37.744 68.5911 37.424 68.5911 37.152C68.5911 37.072 68.6471 36.856 68.7591 36.504C69.0631 35.576 69.3991 34.432 69.7671 33.072C70.1351 31.696 70.3351 30.136 70.3671 28.392C70.4151 27.224 70.5831 26.64 70.8711 26.64C71.2231 26.64 71.5751 26.824 71.9271 27.192C72.2791 27.56 72.4551 27.968 72.4551 28.416C72.4551 28.848 72.3191 29.696 72.0471 30.96C71.7911 32.208 71.4871 33.376 71.1351 34.464ZM77.2599 41.904C77.9479 42.784 78.5159 43.224 78.9639 43.224C79.4119 43.224 79.7879 42.984 80.0919 42.504C80.3959 42.024 80.6919 41.264 80.9799 40.224C81.2679 39.2 81.5399 38.144 81.7959 37.056C82.0519 35.968 82.3799 34.528 82.7799 32.736C83.1959 30.944 83.5959 29.336 83.9799 27.912C84.2199 27.128 84.4519 26.736 84.6759 26.736C84.9479 26.736 85.2279 26.912 85.5159 27.264C85.8039 27.6 85.9479 27.968 85.9479 28.368C85.9479 28.736 85.6999 29.856 85.2039 31.728C84.7079 33.584 84.2679 35.256 83.8839 36.744C83.4999 38.232 83.1239 39.688 82.7559 41.112C82.0679 43.624 80.8199 44.88 79.0119 44.88C78.2119 44.88 77.4359 44.544 76.6839 43.872C75.9159 43.2 75.5319 42.624 75.5319 42.144C75.5319 41.936 75.6199 41.688 75.7959 41.4C75.9559 41.128 76.1079 40.992 76.2519 40.992C76.4279 40.992 76.6119 41.104 76.8039 41.328C76.9959 41.568 77.1479 41.76 77.2599 41.904ZM84.9639 23.328C84.9639 23.008 85.0919 22.704 85.3479 22.416C85.6039 22.128 85.8679 21.984 86.1399 21.984C86.4119 21.984 86.7239 22.312 87.0759 22.968C87.4439 23.608 87.6279 24.144 87.6279 24.576C87.6279 24.736 87.5559 24.88 87.4119 25.008C87.2679 25.136 87.1239 25.2 86.9799 25.2C86.5959 25.2 86.1639 24.968 85.6839 24.504C85.2039 24.04 84.9639 23.648 84.9639 23.328ZM94.9217 30.816C94.9217 30.272 94.8337 29.76 94.6577 29.28C94.4817 28.784 94.2257 28.424 93.8897 28.2C92.7857 28.504 91.8337 29.36 91.0337 30.768C90.2497 32.16 89.8577 33.472 89.8577 34.704C89.8577 35.936 90.1617 36.704 90.7697 37.008C91.9217 36.784 92.8977 36 93.6977 34.656C94.5137 33.296 94.9217 32.016 94.9217 30.816ZM88.6097 31.032C89.1697 29.784 89.8977 28.76 90.7937 27.96C91.7057 27.144 92.6337 26.736 93.5777 26.736C94.5377 26.736 95.3377 27.144 95.9777 27.96C96.6177 28.76 96.9377 29.744 96.9377 30.912C96.9377 32.064 96.6577 33.248 96.0977 34.464C95.5377 35.664 94.7617 36.664 93.7697 37.464C92.7937 38.248 91.7537 38.64 90.6497 38.64C89.8337 38.64 89.1537 38.264 88.6097 37.512C88.0657 36.76 87.7937 35.808 87.7937 34.656C87.7937 33.488 88.0657 32.28 88.6097 31.032ZM107.933 26.736C108.189 26.736 108.461 26.928 108.749 27.312C109.053 27.68 109.205 28.096 109.205 28.56C109.205 28.88 108.877 29.968 108.221 31.824C107.565 33.68 107.117 34.944 106.877 35.616C106.653 36.272 106.341 37.152 105.941 38.256C105.557 39.344 105.181 40.408 104.813 41.448C104.013 43.736 102.813 44.88 101.213 44.88C100.301 44.88 99.4287 44.6 98.5967 44.04C97.7647 43.496 97.3487 42.928 97.3487 42.336C97.3487 42.112 97.4527 41.864 97.6607 41.592C97.8527 41.32 98.0207 41.184 98.1647 41.184C98.3087 41.184 98.5407 41.36 98.8607 41.712C99.7887 42.768 100.581 43.296 101.237 43.296C101.733 43.296 102.181 42.856 102.581 41.976C102.981 41.112 103.357 40.128 103.709 39.024C104.077 37.936 104.277 37.336 104.309 37.224C104.357 37.112 104.405 36.968 104.453 36.792C104.517 36.616 104.573 36.456 104.621 36.312C103.485 37.864 102.365 38.64 101.261 38.64C100.589 38.64 99.9647 38.328 99.3887 37.704C98.8287 37.08 98.5487 36.344 98.5487 35.496C98.5487 34.648 98.7567 33.504 99.1727 32.064C99.5887 30.624 100.077 29.376 100.637 28.32C101.197 27.264 101.653 26.736 102.005 26.736C102.293 26.736 102.557 26.872 102.797 27.144C103.053 27.4 103.181 27.664 103.181 27.936C103.181 28.208 102.973 28.776 102.557 29.64C101.261 32.296 100.613 34.36 100.613 35.832C100.613 36.088 100.693 36.304 100.853 36.48C101.013 36.64 101.205 36.72 101.429 36.72C102.005 36.72 102.693 36.208 103.493 35.184C104.293 34.16 105.029 32.944 105.701 31.536C106.261 30.352 106.845 28.84 107.453 27C107.517 26.824 107.677 26.736 107.933 26.736ZM112.535 39.144C112.135 39.144 111.679 38.888 111.167 38.376C110.655 37.848 110.399 37.416 110.399 37.08C110.399 36.728 110.535 36.384 110.807 36.048C111.095 35.696 111.383 35.52 111.671 35.52C111.975 35.52 112.319 35.912 112.703 36.696C113.103 37.48 113.303 38.072 113.303 38.472C113.303 38.6 113.215 38.744 113.039 38.904C112.863 39.064 112.695 39.144 112.535 39.144ZM118.23 39.144C117.83 39.144 117.374 38.888 116.862 38.376C116.35 37.848 116.094 37.416 116.094 37.08C116.094 36.728 116.23 36.384 116.502 36.048C116.79 35.696 117.078 35.52 117.366 35.52C117.67 35.52 118.014 35.912 118.398 36.696C118.798 37.48 118.998 38.072 118.998 38.472C118.998 38.6 118.91 38.744 118.734 38.904C118.558 39.064 118.39 39.144 118.23 39.144ZM123.925 39.144C123.525 39.144 123.069 38.888 122.557 38.376C122.045 37.848 121.789 37.416 121.789 37.08C121.789 36.728 121.925 36.384 122.197 36.048C122.485 35.696 122.773 35.52 123.061 35.52C123.365 35.52 123.709 35.912 124.093 36.696C124.493 37.48 124.693 38.072 124.693 38.472C124.693 38.6 124.605 38.744 124.429 38.904C124.253 39.064 124.085 39.144 123.925 39.144Z" fill="#112433"/>
</svg>
