<svg width="118" height="98" viewBox="0 0 118 98" fill="none" xmlns="http://www.w3.org/2000/svg">
<path d="M90.7476 0.684191C104.759 25.4902 96.193 57.0073 71.4663 71.2833C46.7396 85.5593 15.1617 77.2195 0.685051 52.6818L90.7476 0.684191Z" fill="#D2D01F" stroke="#112433"/>
<path d="M46.8958 39.2017C46.7465 39.9484 46.6451 40.7164 46.5918 41.5057C46.5385 42.295 46.5118 43.5644 46.5118 45.3137C46.5118 47.063 46.5811 48.4497 46.7198 49.4737C47.2851 49.527 47.8718 49.6284 48.4798 49.7777L48.4318 50.1617C47.6425 50.0764 46.7838 50.0337 45.8558 50.0337C44.9385 50.0337 44.1971 50.0764 43.6318 50.1617L43.5678 49.7617C44.0478 49.6124 44.5598 49.5004 45.1038 49.4257C45.1891 48.7217 45.2478 47.5857 45.2798 46.0177C44.7251 45.9537 44.1118 45.9217 43.4398 45.9217C42.7785 45.9217 42.2185 45.9537 41.7598 46.0177C41.5038 47.063 41.3758 47.9004 41.3758 48.5297C41.3758 49.159 41.6051 49.607 42.0638 49.8737L41.9998 50.0977C41.6691 50.055 41.1091 50.0337 40.3198 50.0337C39.5411 50.0337 38.8371 50.0764 38.2078 50.1617L38.1438 49.7617C38.6238 49.6124 39.1358 49.5004 39.6798 49.4257L42.2078 40.4657C40.9491 40.4657 40.1438 40.6364 39.7918 40.9777C39.7171 41.127 39.6798 41.3617 39.6798 41.6817C39.6798 42.0017 39.7331 42.2204 39.8398 42.3377L39.8238 42.4497C39.5571 42.6097 39.2905 42.8337 39.0238 43.1217C38.8958 43.111 38.7945 43.0577 38.7198 42.9617C38.6345 42.8657 38.5918 42.7537 38.5918 42.6257C38.5918 42.103 38.9065 41.479 39.5358 40.7537C40.1651 40.0284 40.7518 39.5697 41.2958 39.3777C42.9065 39.559 44.5385 39.7137 46.1918 39.8417C46.3411 39.6497 46.4638 39.4044 46.5598 39.1057L46.8958 39.2017ZM41.9358 45.2177C42.4158 45.2924 42.9811 45.3297 43.6318 45.3297C44.2931 45.3297 44.8425 45.2924 45.2798 45.2177C45.2798 43.3297 45.2531 41.7884 45.1998 40.5937L45.1518 40.5457C44.5971 40.4924 43.9091 40.4657 43.0878 40.4657L41.9358 45.2177ZM49.2739 41.7297L52.9859 41.6177C54.9166 41.6177 55.8819 42.3164 55.8819 43.7137C55.8819 44.4924 55.5353 45.1217 54.8419 45.6017C54.1593 46.0817 53.3806 46.3217 52.5059 46.3217C52.3779 46.3217 52.2873 46.3164 52.2339 46.3057L52.2979 45.7777H52.4419C53.1033 45.7777 53.5939 45.6337 53.9139 45.3457C54.2446 45.0577 54.4099 44.6044 54.4099 43.9857C54.4099 43.367 54.2766 42.9137 54.0099 42.6257C53.7539 42.327 53.3379 42.1777 52.7619 42.1777C52.4099 42.1777 52.0793 42.2364 51.7699 42.3537C51.6953 43.0577 51.6579 44.2524 51.6579 45.9377C51.6579 47.623 51.7059 48.8124 51.8019 49.5057C52.2499 49.559 52.7193 49.6444 53.2099 49.7617L53.1619 50.1617C52.6393 50.0764 52.0099 50.0337 51.2739 50.0337C50.5379 50.0337 49.8979 50.0764 49.3539 50.1617L49.2899 49.7457C49.6099 49.639 49.9459 49.559 50.2979 49.5057C50.4046 48.759 50.4579 47.5964 50.4579 46.0177C50.4579 44.4284 50.4099 43.2017 50.3139 42.3377C49.9406 42.199 49.5939 42.1297 49.2739 42.1297V41.7297ZM56.6333 41.7297L60.3453 41.6177C62.276 41.6177 63.2413 42.3164 63.2413 43.7137C63.2413 44.4924 62.8946 45.1217 62.2013 45.6017C61.5186 46.0817 60.74 46.3217 59.8653 46.3217C59.7373 46.3217 59.6466 46.3164 59.5933 46.3057L59.6573 45.7777H59.8013C60.4626 45.7777 60.9533 45.6337 61.2733 45.3457C61.604 45.0577 61.7693 44.6044 61.7693 43.9857C61.7693 43.367 61.636 42.9137 61.3693 42.6257C61.1133 42.327 60.6973 42.1777 60.1213 42.1777C59.7693 42.1777 59.4386 42.2364 59.1293 42.3537C59.0546 43.0577 59.0173 44.2524 59.0173 45.9377C59.0173 47.623 59.0653 48.8124 59.1613 49.5057C59.6093 49.559 60.0786 49.6444 60.5693 49.7617L60.5213 50.1617C59.9986 50.0764 59.3693 50.0337 58.6333 50.0337C57.8973 50.0337 57.2573 50.0764 56.7133 50.1617L56.6493 49.7457C56.9693 49.639 57.3053 49.559 57.6573 49.5057C57.764 48.759 57.8173 47.5964 57.8173 46.0177C57.8173 44.4284 57.7693 43.2017 57.6733 42.3377C57.3 42.199 56.9533 42.1297 56.6333 42.1297V41.7297ZM69.8487 50.2097C69.1554 50.0924 68.2114 50.0337 67.0167 50.0337C65.8327 50.0337 64.8407 50.087 64.0407 50.1937L63.9927 49.7937C64.2914 49.6764 64.6327 49.5804 65.0167 49.5057C65.1234 48.8657 65.1767 47.7777 65.1767 46.2417V45.4897C65.1767 44.167 65.1234 43.079 65.0167 42.2257C64.6647 42.1724 64.3287 42.0924 64.0087 41.9857L64.0727 41.5697C64.6167 41.655 65.2567 41.6977 65.9927 41.6977C66.7287 41.6977 67.358 41.655 67.8807 41.5697L67.9287 41.9697C67.4487 42.087 66.974 42.1724 66.5047 42.2257C66.4194 42.8017 66.3767 43.991 66.3767 45.7937C66.3767 47.5857 66.4194 48.7804 66.5047 49.3777C66.7607 49.4204 67.1234 49.4417 67.5927 49.4417C68.062 49.4417 68.4834 49.351 68.8567 49.1697C69.006 48.807 69.0807 48.3804 69.0807 47.8897H69.4807C69.5234 48.711 69.6727 49.3777 69.9287 49.8897L69.8487 50.2097ZM71.9163 46.0817C71.9483 47.031 72.1243 47.7724 72.4443 48.3057C72.7643 48.839 73.3083 49.1057 74.0763 49.1057C74.8443 49.1057 75.5536 48.7804 76.2043 48.1297L76.4283 48.3537C75.7136 49.2604 74.855 49.8844 73.8523 50.2257C72.8176 50.2257 72.007 49.9004 71.4203 49.2497C70.8336 48.5884 70.5403 47.703 70.5403 46.5937C70.5403 45.4737 70.887 44.423 71.5803 43.4417C72.2736 42.4604 73.159 41.815 74.2363 41.5057C75.015 41.5057 75.895 41.5857 76.8763 41.7457L76.8603 42.0977C76.6576 42.0977 76.4656 42.135 76.2843 42.2097C76.0816 42.6897 75.9483 43.2604 75.8843 43.9217H75.4843C75.399 43.559 75.3563 43.1857 75.3563 42.8017C74.951 42.599 74.471 42.4977 73.9163 42.4977C73.3616 42.4977 72.903 42.647 72.5403 42.9457C72.1776 43.607 71.9696 44.3964 71.9163 45.3137C72.3643 45.3884 72.8443 45.4257 73.3563 45.4257C74.2416 45.4257 74.775 45.239 74.9563 44.8657L75.2923 44.9137C75.1963 45.2337 75.1483 45.5484 75.1483 45.8577C75.1483 46.167 75.1856 46.5457 75.2603 46.9937L74.8763 47.0577C74.759 46.7377 74.6736 46.407 74.6203 46.0657C74.1936 46.023 73.767 46.0017 73.3403 46.0017C72.9243 46.0017 72.4496 46.0284 71.9163 46.0817Z" fill="#112433"/>
</svg>
