<svg width="71" height="218" viewBox="0 0 71 218" fill="none" xmlns="http://www.w3.org/2000/svg">
<mask id="path-1-inside-1_72_120" fill="white">
<path fill-rule="evenodd" clip-rule="evenodd" d="M27.7009 0C25.0591 0 22.8731 2.05517 22.7104 4.69195L18.4938 73H5C2.23858 73 0 75.2386 0 78V213C0 215.761 2.23858 218 5 218H66C68.7614 218 71 215.761 71 213V78C71 75.2386 68.7614 73 66 73H52.9568L48.3165 4.66127C48.1383 2.03736 45.9579 0 43.328 0H27.7009Z"/>
</mask>
<path fill-rule="evenodd" clip-rule="evenodd" d="M27.7009 0C25.0591 0 22.8731 2.05517 22.7104 4.69195L18.4938 73H5C2.23858 73 0 75.2386 0 78V213C0 215.761 2.23858 218 5 218H66C68.7614 218 71 215.761 71 213V78C71 75.2386 68.7614 73 66 73H52.9568L48.3165 4.66127C48.1383 2.03736 45.9579 0 43.328 0H27.7009Z" fill="#D2D01F"/>
<path d="M22.7104 4.69195L23.7085 4.75356L23.7085 4.75356L22.7104 4.69195ZM18.4938 73V74H19.434L19.4919 73.0616L18.4938 73ZM52.9568 73L51.9591 73.0677L52.0224 74H52.9568V73ZM48.3165 4.66127L47.3188 4.72902L47.3188 4.72902L48.3165 4.66127ZM23.7085 4.75356C23.8387 2.64414 25.5874 1 27.7009 1V-1C24.5307 -1 21.9076 1.46621 21.7123 4.63034L23.7085 4.75356ZM19.4919 73.0616L23.7085 4.75356L21.7123 4.63034L17.4957 72.9384L19.4919 73.0616ZM5 74H18.4938V72H5V74ZM1 78C1 75.7909 2.79086 74 5 74V72C1.68629 72 -1 74.6863 -1 78H1ZM1 213V78H-1V213H1ZM5 217C2.79086 217 1 215.209 1 213H-1C-1 216.314 1.68629 219 5 219V217ZM66 217H5V219H66V217ZM70 213C70 215.209 68.2091 217 66 217V219C69.3137 219 72 216.314 72 213H70ZM70 78V213H72V78H70ZM66 74C68.2091 74 70 75.7909 70 78H72C72 74.6863 69.3137 72 66 72V74ZM52.9568 74H66V72H52.9568V74ZM47.3188 4.72902L51.9591 73.0677L53.9545 72.9323L49.3142 4.59353L47.3188 4.72902ZM43.328 1C45.432 1 47.1763 2.62989 47.3188 4.72902L49.3142 4.59353C49.1004 1.44484 46.4839 -1 43.328 -1V1ZM27.7009 1H43.328V-1H27.7009V1Z" fill="#112433" mask="url(#path-1-inside-1_72_120)"/>
<path d="M24.3958 100.168C24.2465 100.915 24.1451 101.683 24.0918 102.472C24.0385 103.261 24.0118 104.531 24.0118 106.28C24.0118 108.029 24.0811 109.416 24.2198 110.44C24.7851 110.493 25.3718 110.595 25.9798 110.744L25.9318 111.128C25.1425 111.043 24.2838 111 23.3558 111C22.4385 111 21.6971 111.043 21.1318 111.128L21.0678 110.728C21.5478 110.579 22.0598 110.467 22.6038 110.392C22.6891 109.688 22.7478 108.552 22.7798 106.984C22.2251 106.92 21.6118 106.888 20.9398 106.888C20.2785 106.888 19.7185 106.92 19.2598 106.984C19.0038 108.029 18.8758 108.867 18.8758 109.496C18.8758 110.125 19.1051 110.573 19.5638 110.84L19.4998 111.064C19.1691 111.021 18.6091 111 17.8198 111C17.0411 111 16.3371 111.043 15.7078 111.128L15.6438 110.728C16.1238 110.579 16.6358 110.467 17.1798 110.392L19.7078 101.432C18.4491 101.432 17.6438 101.603 17.2918 101.944C17.2171 102.093 17.1798 102.328 17.1798 102.648C17.1798 102.968 17.2331 103.187 17.3398 103.304L17.3238 103.416C17.0571 103.576 16.7905 103.8 16.5238 104.088C16.3958 104.077 16.2945 104.024 16.2198 103.928C16.1345 103.832 16.0918 103.72 16.0918 103.592C16.0918 103.069 16.4065 102.445 17.0358 101.72C17.6651 100.995 18.2518 100.536 18.7958 100.344C20.4065 100.525 22.0385 100.68 23.6918 100.808C23.8411 100.616 23.9638 100.371 24.0598 100.072L24.3958 100.168ZM19.4358 106.184C19.9158 106.259 20.4811 106.296 21.1318 106.296C21.7931 106.296 22.3425 106.259 22.7798 106.184C22.7798 104.296 22.7531 102.755 22.6998 101.56L22.6518 101.512C22.0971 101.459 21.4091 101.432 20.5878 101.432L19.4358 106.184ZM26.7739 102.696L30.4859 102.584C32.4166 102.584 33.3819 103.283 33.3819 104.68C33.3819 105.459 33.0353 106.088 32.3419 106.568C31.6593 107.048 30.8806 107.288 30.0059 107.288C29.8779 107.288 29.7873 107.283 29.7339 107.272L29.7979 106.744H29.9419C30.6033 106.744 31.0939 106.6 31.4139 106.312C31.7446 106.024 31.9099 105.571 31.9099 104.952C31.9099 104.333 31.7766 103.88 31.5099 103.592C31.2539 103.293 30.8379 103.144 30.2619 103.144C29.9099 103.144 29.5793 103.203 29.2699 103.32C29.1953 104.024 29.1579 105.219 29.1579 106.904C29.1579 108.589 29.2059 109.779 29.3019 110.472C29.7499 110.525 30.2193 110.611 30.7099 110.728L30.6619 111.128C30.1393 111.043 29.5099 111 28.7739 111C28.0379 111 27.3979 111.043 26.8539 111.128L26.7899 110.712C27.1099 110.605 27.4459 110.525 27.7979 110.472C27.9046 109.725 27.9579 108.563 27.9579 106.984C27.9579 105.395 27.9099 104.168 27.8139 103.304C27.4406 103.165 27.0939 103.096 26.7739 103.096V102.696ZM34.1333 102.696L37.8453 102.584C39.776 102.584 40.7413 103.283 40.7413 104.68C40.7413 105.459 40.3946 106.088 39.7013 106.568C39.0186 107.048 38.24 107.288 37.3653 107.288C37.2373 107.288 37.1466 107.283 37.0933 107.272L37.1573 106.744H37.3013C37.9626 106.744 38.4533 106.6 38.7733 106.312C39.104 106.024 39.2693 105.571 39.2693 104.952C39.2693 104.333 39.136 103.88 38.8693 103.592C38.6133 103.293 38.1973 103.144 37.6213 103.144C37.2693 103.144 36.9386 103.203 36.6293 103.32C36.5546 104.024 36.5173 105.219 36.5173 106.904C36.5173 108.589 36.5653 109.779 36.6613 110.472C37.1093 110.525 37.5786 110.611 38.0693 110.728L38.0213 111.128C37.4986 111.043 36.8693 111 36.1333 111C35.3973 111 34.7573 111.043 34.2133 111.128L34.1493 110.712C34.4693 110.605 34.8053 110.525 35.1573 110.472C35.264 109.725 35.3173 108.563 35.3173 106.984C35.3173 105.395 35.2693 104.168 35.1733 103.304C34.8 103.165 34.4533 103.096 34.1333 103.096V102.696ZM47.3487 111.176C46.6554 111.059 45.7114 111 44.5167 111C43.3327 111 42.3407 111.053 41.5407 111.16L41.4927 110.76C41.7914 110.643 42.1327 110.547 42.5167 110.472C42.6234 109.832 42.6767 108.744 42.6767 107.208V106.456C42.6767 105.133 42.6234 104.045 42.5167 103.192C42.1647 103.139 41.8287 103.059 41.5087 102.952L41.5727 102.536C42.1167 102.621 42.7567 102.664 43.4927 102.664C44.2287 102.664 44.858 102.621 45.3807 102.536L45.4287 102.936C44.9487 103.053 44.474 103.139 44.0047 103.192C43.9194 103.768 43.8767 104.957 43.8767 106.76C43.8767 108.552 43.9194 109.747 44.0047 110.344C44.2607 110.387 44.6234 110.408 45.0927 110.408C45.562 110.408 45.9834 110.317 46.3567 110.136C46.506 109.773 46.5807 109.347 46.5807 108.856H46.9807C47.0234 109.677 47.1727 110.344 47.4287 110.856L47.3487 111.176ZM49.4163 107.048C49.4483 107.997 49.6243 108.739 49.9443 109.272C50.2643 109.805 50.8083 110.072 51.5763 110.072C52.3443 110.072 53.0536 109.747 53.7043 109.096L53.9283 109.32C53.2136 110.227 52.355 110.851 51.3523 111.192C50.3176 111.192 49.507 110.867 48.9203 110.216C48.3336 109.555 48.0403 108.669 48.0403 107.56C48.0403 106.44 48.387 105.389 49.0803 104.408C49.7736 103.427 50.659 102.781 51.7363 102.472C52.515 102.472 53.395 102.552 54.3763 102.712L54.3603 103.064C54.1576 103.064 53.9656 103.101 53.7843 103.176C53.5816 103.656 53.4483 104.227 53.3843 104.888H52.9843C52.899 104.525 52.8563 104.152 52.8563 103.768C52.451 103.565 51.971 103.464 51.4163 103.464C50.8616 103.464 50.403 103.613 50.0403 103.912C49.6776 104.573 49.4696 105.363 49.4163 106.28C49.8643 106.355 50.3443 106.392 50.8563 106.392C51.7416 106.392 52.275 106.205 52.4563 105.832L52.7923 105.88C52.6963 106.2 52.6483 106.515 52.6483 106.824C52.6483 107.133 52.6856 107.512 52.7603 107.96L52.3763 108.024C52.259 107.704 52.1736 107.373 52.1203 107.032C51.6936 106.989 51.267 106.968 50.8403 106.968C50.4243 106.968 49.9496 106.995 49.4163 107.048ZM11.613 120.144C11.4743 121.083 11.405 122.576 11.405 124.624C11.405 126.661 11.4477 128.16 11.533 129.12C11.8957 129.141 12.237 129.152 12.557 129.152C13.8157 129.152 14.621 128.981 14.973 128.64C15.0477 128.491 15.085 128.256 15.085 127.936C15.085 127.616 15.0317 127.397 14.925 127.28L14.941 127.168C15.2077 127.008 15.4743 126.784 15.741 126.496C15.869 126.507 15.9703 126.56 16.045 126.656C16.1303 126.752 16.173 126.864 16.173 126.992C16.173 127.515 15.8583 128.139 15.229 128.864C14.5997 129.589 14.013 130.048 13.469 130.24C12.5517 130.208 11.5597 130.053 10.493 129.776C10.3437 129.968 10.221 130.213 10.125 130.512L9.789 130.416C10.013 129.339 10.141 127.573 10.173 125.12V124.32C10.173 122.453 10.1143 121.077 9.997 120.192C9.453 120.117 8.941 120.005 8.461 119.856L8.525 119.456C9.09033 119.541 9.83167 119.584 10.749 119.584C11.677 119.584 12.5357 119.541 13.325 119.456L13.373 119.84C12.733 119.989 12.1463 120.091 11.613 120.144ZM18.6219 122.192C18.5365 122.768 18.4939 123.947 18.4939 125.728C18.4939 127.509 18.5419 128.757 18.6379 129.472C19.1179 129.525 19.5605 129.605 19.9659 129.712L19.9179 130.112C19.3632 130.037 18.7392 130 18.0459 130C17.3632 130 16.7499 130.043 16.2059 130.128L16.1419 129.712C16.4405 129.616 16.7765 129.536 17.1499 129.472C17.2459 128.704 17.2939 127.616 17.2939 126.208V125.456C17.2939 124.048 17.2405 122.96 17.1339 122.192C16.7605 122.128 16.4245 122.048 16.1259 121.952L16.1899 121.536C16.7339 121.621 17.3472 121.664 18.0299 121.664C18.7232 121.664 19.3472 121.627 19.9019 121.552L19.9499 121.952C19.5445 122.059 19.1019 122.139 18.6219 122.192ZM24.2794 130.176C23.3087 130.112 22.5247 129.755 21.9274 129.104C21.33 128.453 21.0314 127.579 21.0314 126.48C21.0314 125.381 21.3727 124.341 22.0554 123.36C22.738 122.379 23.6287 121.749 24.7274 121.472C25.826 121.472 26.6634 121.787 27.2394 122.416C27.8154 123.035 28.1034 123.904 28.1034 125.024C28.1034 126.133 27.8207 127.141 27.2554 128.048C26.7007 128.944 25.922 129.611 24.9194 130.048C25.3247 130.059 25.9647 130.256 26.8394 130.64C27.714 131.024 28.2687 131.248 28.5034 131.312C28.8447 131.184 29.1594 131.035 29.4474 130.864L29.6394 131.152C29.138 131.515 28.6847 132.075 28.2794 132.832C26.6687 131.659 25.3354 131.072 24.2794 131.072C23.7674 131.072 23.3087 131.227 22.9034 131.536L22.6314 131.28C23.0794 130.811 23.6287 130.443 24.2794 130.176ZM24.2954 122.448C23.8154 122.448 23.3994 122.581 23.0474 122.848C22.61 123.595 22.3914 124.533 22.3914 125.664C22.3914 126.965 22.754 127.963 23.4794 128.656C23.8634 129.029 24.3167 129.216 24.8394 129.216C25.362 129.216 25.7834 129.077 26.1034 128.8C26.53 128.053 26.7434 127.141 26.7434 126.064C26.7434 124.987 26.5514 124.117 26.1674 123.456C25.7834 122.784 25.1594 122.448 24.2954 122.448ZM36.1573 125.456V126.208C36.1573 127.669 36.2106 128.763 36.3173 129.488C36.8079 129.552 37.2133 129.627 37.5333 129.712L37.4853 130.112C36.9626 130.037 36.4239 130 35.8693 130C35.3253 130 34.9519 130.016 34.7493 130.048L34.6853 129.84C34.7813 129.733 34.8453 129.429 34.8773 128.928C34.3226 129.504 33.6826 129.925 32.9573 130.192C31.1226 130.192 30.2053 129.099 30.2053 126.912C30.2053 126.432 30.2426 125.664 30.3173 124.608C30.3919 123.552 30.4293 122.933 30.4293 122.752C30.4293 122.571 30.3973 122.395 30.3333 122.224V122.208C29.8853 122.133 29.5279 122.053 29.2613 121.968L29.3253 121.536C29.9439 121.621 30.5039 121.664 31.0053 121.664C31.5066 121.664 31.9173 121.637 32.2373 121.584L32.3013 121.856C31.9173 122.059 31.6933 122.427 31.6293 122.96C31.5013 123.984 31.4373 125.035 31.4373 126.112C31.4373 127.189 31.5599 127.957 31.8053 128.416C32.0613 128.864 32.5306 129.088 33.2133 129.088C33.9066 129.088 34.4666 128.891 34.8933 128.496C34.9359 127.643 34.9573 126.635 34.9573 125.472C34.9573 124.309 34.9146 123.216 34.8293 122.192C34.3493 122.139 33.9066 122.059 33.5013 121.952L33.5493 121.552C34.1039 121.627 34.7226 121.664 35.4053 121.664C36.0986 121.664 36.7173 121.621 37.2613 121.536L37.3253 121.952C37.0266 122.048 36.6906 122.128 36.3173 122.192C36.2106 122.907 36.1573 123.995 36.1573 125.456ZM40.1273 126.048C40.1593 126.997 40.3353 127.739 40.6553 128.272C40.9753 128.805 41.5193 129.072 42.2873 129.072C43.0553 129.072 43.7646 128.747 44.4153 128.096L44.6393 128.32C43.9246 129.227 43.0659 129.851 42.0633 130.192C41.0286 130.192 40.2179 129.867 39.6313 129.216C39.0446 128.555 38.7513 127.669 38.7513 126.56C38.7513 125.44 39.0979 124.389 39.7913 123.408C40.4846 122.427 41.3699 121.781 42.4473 121.472C43.2259 121.472 44.1059 121.552 45.0873 121.712L45.0713 122.064C44.8686 122.064 44.6766 122.101 44.4953 122.176C44.2926 122.656 44.1593 123.227 44.0953 123.888H43.6953C43.6099 123.525 43.5673 123.152 43.5673 122.768C43.1619 122.565 42.6819 122.464 42.1273 122.464C41.5726 122.464 41.1139 122.613 40.7513 122.912C40.3886 123.573 40.1806 124.363 40.1273 125.28C40.5753 125.355 41.0553 125.392 41.5673 125.392C42.4526 125.392 42.9859 125.205 43.1673 124.832L43.5033 124.88C43.4073 125.2 43.3593 125.515 43.3593 125.824C43.3593 126.133 43.3966 126.512 43.4713 126.96L43.0873 127.024C42.9699 126.704 42.8846 126.373 42.8313 126.032C42.4046 125.989 41.9779 125.968 41.5513 125.968C41.1353 125.968 40.6606 125.995 40.1273 126.048ZM52.5791 125.456V126.208C52.5791 127.669 52.6325 128.763 52.7391 129.488C53.2298 129.552 53.6351 129.627 53.9551 129.712L53.9071 130.112C53.3845 130.037 52.8458 130 52.2911 130C51.7471 130 51.3738 130.016 51.1711 130.048L51.1071 129.84C51.2031 129.733 51.2671 129.429 51.2991 128.928C50.7445 129.504 50.1045 129.925 49.3791 130.192C47.5445 130.192 46.6271 129.099 46.6271 126.912C46.6271 126.432 46.6645 125.664 46.7391 124.608C46.8138 123.552 46.8511 122.933 46.8511 122.752C46.8511 122.571 46.8191 122.395 46.7551 122.224V122.208C46.3071 122.133 45.9498 122.053 45.6831 121.968L45.7471 121.536C46.3658 121.621 46.9258 121.664 47.4271 121.664C47.9285 121.664 48.3391 121.637 48.6591 121.584L48.7231 121.856C48.3391 122.059 48.1151 122.427 48.0511 122.96C47.9231 123.984 47.8591 125.035 47.8591 126.112C47.8591 127.189 47.9818 127.957 48.2271 128.416C48.4831 128.864 48.9525 129.088 49.6351 129.088C50.3285 129.088 50.8885 128.891 51.3151 128.496C51.3578 127.643 51.3791 126.635 51.3791 125.472C51.3791 124.309 51.3365 123.216 51.2511 122.192C50.7711 122.139 50.3285 122.059 49.9231 121.952L49.9711 121.552C50.5258 121.627 51.1445 121.664 51.8271 121.664C52.5205 121.664 53.1391 121.621 53.6831 121.536L53.7471 121.952C53.4485 122.048 53.1125 122.128 52.7391 122.192C52.6325 122.907 52.5791 123.995 52.5791 125.456ZM55.1411 121.696L58.8211 121.584C59.7811 121.584 60.5011 121.728 60.9811 122.016C61.4611 122.293 61.7011 122.805 61.7011 123.552C61.7011 124.064 61.5411 124.517 61.2211 124.912C60.9118 125.307 60.5011 125.6 59.9891 125.792L61.7811 129.456C62.1438 129.52 62.4851 129.595 62.8051 129.68L62.7411 130.112C62.2931 130.037 61.7865 130 61.2211 130C60.6665 130 60.2291 130.027 59.9091 130.08L59.8451 129.824C59.9838 129.685 60.0531 129.456 60.0531 129.136C60.0531 128.485 59.6798 127.44 58.9331 126C58.7091 125.957 58.4478 125.936 58.1491 125.936L58.1811 125.472H58.3411C59.5998 125.472 60.2291 124.896 60.2291 123.744C60.2291 122.677 59.6905 122.144 58.6131 122.144C58.2505 122.144 57.9251 122.203 57.6371 122.32C57.5625 123.024 57.5251 124.229 57.5251 125.936C57.5251 127.643 57.5731 128.821 57.6691 129.472C58.1385 129.525 58.5758 129.605 58.9811 129.712L58.9331 130.112C58.3785 130.037 57.7545 130 57.0611 130C56.3785 130 55.7651 130.043 55.2211 130.128L55.1571 129.712C55.4558 129.616 55.7918 129.536 56.1651 129.472C56.2718 128.672 56.3251 127.429 56.3251 125.744C56.3251 124.048 56.2771 122.875 56.1811 122.224C55.7651 122.085 55.4185 122.016 55.1411 122.016V121.696Z" fill="#112433"/>
</svg>
