<svg width="87" height="87" viewBox="0 0 87 87" fill="none" xmlns="http://www.w3.org/2000/svg">
<circle cx="43.5" cy="43.5" r="43" fill="#D2D01F" stroke="#112433"/>
<path d="M22.1918 49.44C22.3838 49.76 22.6504 50.0213 22.9918 50.224C23.3438 50.4373 23.7491 50.544 24.2078 50.544C24.6771 50.544 25.1464 50.4053 25.6158 50.128C26.0958 49.8613 26.4958 49.5253 26.8158 49.12L27.0398 49.344C26.2611 50.56 25.2051 51.392 23.8718 51.84C22.9544 51.84 22.2024 51.6053 21.6158 51.136C21.0291 50.6667 20.6131 50.064 20.3678 49.328C20.1331 48.592 20.0158 47.6853 20.0158 46.608C20.0158 45.5307 20.1491 44.512 20.4158 43.552C20.6931 42.5813 21.1678 41.712 21.8398 40.944C22.5118 40.1653 23.3491 39.632 24.3518 39.344C25.4291 39.344 26.5278 39.4453 27.6478 39.648L27.6318 40C27.3544 40 27.0984 40.048 26.8638 40.144C26.5971 40.7733 26.4211 41.5253 26.3358 42.4H25.9358C25.8398 41.8987 25.7918 41.4187 25.7918 40.96C25.2264 40.6507 24.6024 40.496 23.9198 40.496C23.2478 40.496 22.6931 40.6987 22.2558 41.104C21.7118 42.2027 21.4398 43.616 21.4398 45.344C21.4398 47.2747 21.6904 48.64 22.1918 49.44ZM33.0565 41.536C33.6005 41.6213 34.2138 41.664 34.8965 41.664C35.5898 41.664 36.2138 41.6267 36.7685 41.552L36.8165 41.952C36.4112 42.0587 35.9685 42.1387 35.4885 42.192C35.3818 42.8533 35.3285 43.9413 35.3285 45.456V46.208C35.3285 47.744 35.3818 48.832 35.4885 49.472C35.9685 49.5253 36.4112 49.6053 36.8165 49.712L36.7685 50.112C36.2138 50.0373 35.5898 50 34.8965 50C34.2138 50 33.6005 50.0427 33.0565 50.128L32.9925 49.712C33.2912 49.616 33.6272 49.536 34.0005 49.472C34.0858 48.2667 34.1338 47.0613 34.1445 45.856C33.4618 45.792 32.8325 45.76 32.2565 45.76C31.6805 45.76 31.0565 45.792 30.3845 45.856C30.3845 47.616 30.4325 48.8213 30.5285 49.472C31.0085 49.5253 31.4512 49.6053 31.8565 49.712L31.8085 50.112C31.2538 50.0373 30.6298 50 29.9365 50C29.2538 50 28.6405 50.0427 28.0965 50.128L28.0325 49.712C28.3312 49.616 28.6672 49.536 29.0405 49.472C29.1365 48.704 29.1845 47.616 29.1845 46.208V45.456C29.1845 44.048 29.1312 42.96 29.0245 42.192C28.6512 42.128 28.3152 42.048 28.0165 41.952L28.0805 41.536C28.6245 41.6213 29.2378 41.664 29.9205 41.664C30.6138 41.664 31.2378 41.6267 31.7925 41.552L31.8405 41.952C31.4352 42.0587 30.9925 42.1387 30.5125 42.192C30.4272 42.8107 30.3845 43.7653 30.3845 45.056C30.9818 45.1413 31.6218 45.184 32.3045 45.184C32.9978 45.184 33.6112 45.1467 34.1445 45.072C34.1338 44.1653 34.0858 43.2053 34.0005 42.192C33.6272 42.128 33.2912 42.048 32.9925 41.952L33.0565 41.536ZM39.2991 46.048C39.3311 46.9973 39.5071 47.7387 39.8271 48.272C40.1471 48.8053 40.6911 49.072 41.4591 49.072C42.2271 49.072 42.9365 48.7467 43.5871 48.096L43.8111 48.32C43.0965 49.2267 42.2378 49.8507 41.2351 50.192C40.2005 50.192 39.3898 49.8667 38.8031 49.216C38.2165 48.5547 37.9231 47.6693 37.9231 46.56C37.9231 45.44 38.2698 44.3893 38.9631 43.408C39.6565 42.4267 40.5418 41.7813 41.6191 41.472C42.3978 41.472 43.2778 41.552 44.2591 41.712L44.2431 42.064C44.0405 42.064 43.8485 42.1013 43.6671 42.176C43.4645 42.656 43.3311 43.2267 43.2671 43.888H42.8671C42.7818 43.5253 42.7391 43.152 42.7391 42.768C42.3338 42.5653 41.8538 42.464 41.2991 42.464C40.7445 42.464 40.2858 42.6133 39.9231 42.912C39.5605 43.5733 39.3525 44.3627 39.2991 45.28C39.7471 45.3547 40.2271 45.392 40.7391 45.392C41.6245 45.392 42.1578 45.2053 42.3391 44.832L42.6751 44.88C42.5791 45.2 42.5311 45.5147 42.5311 45.824C42.5311 46.1333 42.5685 46.512 42.6431 46.96L42.2591 47.024C42.1418 46.704 42.0565 46.3733 42.0031 46.032C41.5765 45.9893 41.1498 45.968 40.7231 45.968C40.3071 45.968 39.8325 45.9947 39.2991 46.048ZM45.063 41.696L48.743 41.584C49.703 41.584 50.423 41.728 50.903 42.016C51.383 42.2933 51.623 42.8053 51.623 43.552C51.623 44.064 51.463 44.5173 51.143 44.912C50.8337 45.3067 50.423 45.6 49.911 45.792L51.703 49.456C52.0657 49.52 52.407 49.5947 52.727 49.68L52.663 50.112C52.215 50.0373 51.7083 50 51.143 50C50.5883 50 50.151 50.0267 49.831 50.08L49.767 49.824C49.9057 49.6853 49.975 49.456 49.975 49.136C49.975 48.4853 49.6017 47.44 48.855 46C48.631 45.9573 48.3697 45.936 48.071 45.936L48.103 45.472H48.263C49.5217 45.472 50.151 44.896 50.151 43.744C50.151 42.6773 49.6123 42.144 48.535 42.144C48.1723 42.144 47.847 42.2027 47.559 42.32C47.4843 43.024 47.447 44.2293 47.447 45.936C47.447 47.6427 47.495 48.8213 47.591 49.472C48.0603 49.5253 48.4977 49.6053 48.903 49.712L48.855 50.112C48.3003 50.0373 47.6763 50 46.983 50C46.3003 50 45.687 50.0427 45.143 50.128L45.079 49.712C45.3777 49.616 45.7137 49.536 46.087 49.472C46.1937 48.672 46.247 47.4293 46.247 45.744C46.247 44.048 46.199 42.8747 46.103 42.224C45.687 42.0853 45.3403 42.016 45.063 42.016V41.696ZM53.4849 41.696L57.1649 41.584C58.1249 41.584 58.8449 41.728 59.3249 42.016C59.8049 42.2933 60.0449 42.8053 60.0449 43.552C60.0449 44.064 59.8849 44.5173 59.5649 44.912C59.2555 45.3067 58.8449 45.6 58.3329 45.792L60.1249 49.456C60.4875 49.52 60.8289 49.5947 61.1489 49.68L61.0849 50.112C60.6369 50.0373 60.1302 50 59.5649 50C59.0102 50 58.5729 50.0267 58.2529 50.08L58.1889 49.824C58.3275 49.6853 58.3969 49.456 58.3969 49.136C58.3969 48.4853 58.0235 47.44 57.2769 46C57.0529 45.9573 56.7915 45.936 56.4929 45.936L56.5249 45.472H56.6849C57.9435 45.472 58.5729 44.896 58.5729 43.744C58.5729 42.6773 58.0342 42.144 56.9569 42.144C56.5942 42.144 56.2689 42.2027 55.9809 42.32C55.9062 43.024 55.8689 44.2293 55.8689 45.936C55.8689 47.6427 55.9169 48.8213 56.0129 49.472C56.4822 49.5253 56.9195 49.6053 57.3249 49.712L57.2769 50.112C56.7222 50.0373 56.0982 50 55.4049 50C54.7222 50 54.1089 50.0427 53.5649 50.128L53.5009 49.712C53.7995 49.616 54.1355 49.536 54.5089 49.472C54.6155 48.672 54.6689 47.4293 54.6689 45.744C54.6689 44.048 54.6209 42.8747 54.5249 42.224C54.1089 42.0853 53.7622 42.016 53.4849 42.016V41.696ZM66.5948 42.208C66.5948 42.0373 66.4508 41.92 66.1628 41.856L66.2268 41.584C66.5468 41.6373 66.9628 41.664 67.4748 41.664C67.9974 41.664 68.5681 41.6213 69.1868 41.536L69.2508 41.952C68.9734 42.048 68.6214 42.128 68.1948 42.192L65.5388 46.192C65.5388 47.5787 65.5921 48.672 65.6988 49.472C66.1681 49.5253 66.6054 49.6053 67.0108 49.712L66.9628 50.112C66.4081 50.0373 65.7681 50 65.0428 50C64.3281 50 63.6988 50.0427 63.1548 50.128L63.0908 49.712C63.2934 49.648 63.6561 49.568 64.1788 49.472C64.2748 48.896 64.3228 48.0267 64.3228 46.864V46.528C63.0854 44.032 62.3014 42.5813 61.9708 42.176C61.6721 42.144 61.3414 42.0693 60.9787 41.952L61.0427 41.536C61.4694 41.6213 62.0828 41.664 62.8828 41.664C63.6828 41.664 64.3388 41.6213 64.8508 41.536L64.9148 41.936C64.4134 42.0533 63.9921 42.1333 63.6508 42.176C64.0134 43.2853 64.5201 44.4533 65.1708 45.68C66.1201 43.8347 66.5948 42.6773 66.5948 42.208Z" fill="#112433"/>
</svg>
