<svg width="118" height="98" viewBox="0 0 118 98" fill="none" xmlns="http://www.w3.org/2000/svg">
<path d="M90.7476 0.684191C104.759 25.4902 96.193 57.0073 71.4663 71.2833C46.7396 85.5593 15.1617 77.2195 0.685051 52.6818L90.7476 0.684191Z" fill="#D2D01F" stroke="#112433"/>
<path d="M45.9958 40.1777C45.8571 41.1164 45.7878 42.6097 45.7878 44.6577C45.7878 46.695 45.8305 48.1937 45.9158 49.1537C46.2785 49.175 46.6198 49.1857 46.9398 49.1857C48.1985 49.1857 49.0038 49.015 49.3558 48.6737C49.4305 48.5244 49.4678 48.2897 49.4678 47.9697C49.4678 47.6497 49.4145 47.431 49.3078 47.3137L49.3238 47.2017C49.5905 47.0417 49.8571 46.8177 50.1238 46.5297C50.2518 46.5404 50.3531 46.5937 50.4278 46.6897C50.5131 46.7857 50.5558 46.8977 50.5558 47.0257C50.5558 47.5484 50.2411 48.1724 49.6118 48.8977C48.9825 49.623 48.3958 50.0817 47.8518 50.2737C46.9345 50.2417 45.9425 50.087 44.8758 49.8097C44.7265 50.0017 44.6038 50.247 44.5078 50.5457L44.1718 50.4497C44.3958 49.3724 44.5238 47.607 44.5558 45.1537V44.3537C44.5558 42.487 44.4971 41.111 44.3798 40.2257C43.8358 40.151 43.3238 40.039 42.8438 39.8897L42.9078 39.4897C43.4731 39.575 44.2145 39.6177 45.1318 39.6177C46.0598 39.6177 46.9185 39.575 47.7078 39.4897L47.7558 39.8737C47.1158 40.023 46.5291 40.1244 45.9958 40.1777ZM53.0047 42.2257C52.9194 42.8017 52.8767 43.9804 52.8767 45.7617C52.8767 47.543 52.9247 48.791 53.0207 49.5057C53.5007 49.559 53.9434 49.639 54.3487 49.7457L54.3007 50.1457C53.746 50.071 53.122 50.0337 52.4287 50.0337C51.746 50.0337 51.1327 50.0764 50.5887 50.1617L50.5247 49.7457C50.8234 49.6497 51.1594 49.5697 51.5327 49.5057C51.6287 48.7377 51.6767 47.6497 51.6767 46.2417V45.4897C51.6767 44.0817 51.6234 42.9937 51.5167 42.2257C51.1434 42.1617 50.8074 42.0817 50.5087 41.9857L50.5727 41.5697C51.1167 41.655 51.73 41.6977 52.4127 41.6977C53.106 41.6977 53.73 41.6604 54.2847 41.5857L54.3327 41.9857C53.9274 42.0924 53.4847 42.1724 53.0047 42.2257ZM59.5742 49.1377C59.5742 48.4764 59.4089 47.4897 59.0782 46.1777C58.7475 44.855 58.3795 43.575 57.9742 42.3377L57.9102 42.3537L57.5102 45.3297C57.3395 46.5564 57.2542 47.6604 57.2542 48.6417C57.2542 49.239 57.4409 49.639 57.8142 49.8417L57.7502 50.1137C57.4302 50.0604 57.0089 50.0337 56.4862 50.0337C55.9742 50.0337 55.4089 50.0764 54.7902 50.1617L54.7262 49.7457C55.0889 49.6284 55.4302 49.543 55.7502 49.4897L57.2382 42.1937C56.6835 42.0977 56.2729 42.0124 56.0062 41.9377L56.0542 41.5217C56.8222 41.639 57.5315 41.6977 58.1822 41.6977C58.8435 41.6977 59.3555 41.6604 59.7182 41.5857L59.7502 41.8577C59.4622 41.9324 59.3182 42.055 59.3182 42.2257C59.3182 42.4604 59.6489 43.815 60.3102 46.2897L60.6622 47.4897L60.7742 47.4577C60.7742 47.1804 61.2595 45.4417 62.2302 42.2417C62.2302 42.0604 62.0862 41.9324 61.7982 41.8577L61.8302 41.5857C62.1929 41.6604 62.7049 41.6977 63.3662 41.6977C64.0382 41.6977 64.7529 41.639 65.5102 41.5217L65.5582 41.9377C65.2702 42.0124 64.9022 42.0924 64.4542 42.1777C64.4222 42.4337 64.4062 42.8124 64.4062 43.3137C64.4062 43.8044 64.4755 44.8177 64.6142 46.3537C64.7529 47.8897 64.8809 48.9457 64.9982 49.5217C65.3929 49.575 65.7982 49.6497 66.2142 49.7457L66.1662 50.1457C65.6115 50.071 64.9929 50.0337 64.3102 50.0337C63.6382 50.0337 63.0302 50.0764 62.4862 50.1617L62.4222 49.7457C62.7742 49.639 63.1529 49.559 63.5582 49.5057C63.5262 46.9884 63.3555 44.615 63.0462 42.3857H62.9982C61.8995 45.6284 61.3129 47.7297 61.2382 48.6897C61.0142 48.7644 60.7529 48.903 60.4542 49.1057C60.1555 49.2977 59.9262 49.4897 59.7662 49.6817L59.5742 49.5537V49.1377ZM68.4163 46.0817C68.4483 47.031 68.6243 47.7724 68.9443 48.3057C69.2643 48.839 69.8083 49.1057 70.5763 49.1057C71.3443 49.1057 72.0536 48.7804 72.7043 48.1297L72.9283 48.3537C72.2136 49.2604 71.355 49.8844 70.3523 50.2257C69.3176 50.2257 68.507 49.9004 67.9203 49.2497C67.3336 48.5884 67.0403 47.703 67.0403 46.5937C67.0403 45.4737 67.387 44.423 68.0803 43.4417C68.7736 42.4604 69.659 41.815 70.7363 41.5057C71.515 41.5057 72.395 41.5857 73.3763 41.7457L73.3603 42.0977C73.1576 42.0977 72.9656 42.135 72.7843 42.2097C72.5816 42.6897 72.4483 43.2604 72.3843 43.9217H71.9843C71.899 43.559 71.8563 43.1857 71.8563 42.8017C71.451 42.599 70.971 42.4977 70.4163 42.4977C69.8616 42.4977 69.403 42.647 69.0403 42.9457C68.6776 43.607 68.4696 44.3964 68.4163 45.3137C68.8643 45.3884 69.3443 45.4257 69.8563 45.4257C70.7416 45.4257 71.275 45.239 71.4563 44.8657L71.7923 44.9137C71.6963 45.2337 71.6483 45.5484 71.6483 45.8577C71.6483 46.167 71.6856 46.5457 71.7603 46.9937L71.3763 47.0577C71.259 46.7377 71.1736 46.407 71.1203 46.0657C70.6936 46.023 70.267 46.0017 69.8403 46.0017C69.4243 46.0017 68.9496 46.0284 68.4163 46.0817Z" fill="#112433"/>
</svg>
