<svg width="71" height="218" viewBox="0 0 71 218" fill="none" xmlns="http://www.w3.org/2000/svg">
<mask id="path-1-inside-1_72_135" fill="white">
<path fill-rule="evenodd" clip-rule="evenodd" d="M27.7009 0C25.0591 0 22.8731 2.05517 22.7104 4.69195L18.4938 73H5C2.23858 73 0 75.2386 0 78V213C0 215.761 2.23858 218 5 218H66C68.7614 218 71 215.761 71 213V78C71 75.2386 68.7614 73 66 73H52.9568L48.3165 4.66127C48.1383 2.03736 45.9579 0 43.328 0H27.7009Z"/>
</mask>
<path fill-rule="evenodd" clip-rule="evenodd" d="M27.7009 0C25.0591 0 22.8731 2.05517 22.7104 4.69195L18.4938 73H5C2.23858 73 0 75.2386 0 78V213C0 215.761 2.23858 218 5 218H66C68.7614 218 71 215.761 71 213V78C71 75.2386 68.7614 73 66 73H52.9568L48.3165 4.66127C48.1383 2.03736 45.9579 0 43.328 0H27.7009Z" fill="#D2D01F"/>
<path d="M22.7104 4.69195L23.7085 4.75356L23.7085 4.75356L22.7104 4.69195ZM18.4938 73V74H19.434L19.4919 73.0616L18.4938 73ZM52.9568 73L51.9591 73.0677L52.0224 74H52.9568V73ZM48.3165 4.66127L47.3188 4.72902L47.3188 4.72902L48.3165 4.66127ZM23.7085 4.75356C23.8387 2.64414 25.5874 1 27.7009 1V-1C24.5307 -1 21.9076 1.46621 21.7123 4.63034L23.7085 4.75356ZM19.4919 73.0616L23.7085 4.75356L21.7123 4.63034L17.4957 72.9384L19.4919 73.0616ZM5 74H18.4938V72H5V74ZM1 78C1 75.7909 2.79086 74 5 74V72C1.68629 72 -1 74.6863 -1 78H1ZM1 213V78H-1V213H1ZM5 217C2.79086 217 1 215.209 1 213H-1C-1 216.314 1.68629 219 5 219V217ZM66 217H5V219H66V217ZM70 213C70 215.209 68.2091 217 66 217V219C69.3137 219 72 216.314 72 213H70ZM70 78V213H72V78H70ZM66 74C68.2091 74 70 75.7909 70 78H72C72 74.6863 69.3137 72 66 72V74ZM52.9568 74H66V72H52.9568V74ZM47.3188 4.72902L51.9591 73.0677L53.9545 72.9323L49.3142 4.59353L47.3188 4.72902ZM43.328 1C45.432 1 47.1763 2.62989 47.3188 4.72902L49.3142 4.59353C49.1004 1.44484 46.4839 -1 43.328 -1V1ZM27.7009 1H43.328V-1H27.7009V1Z" fill="#112433" mask="url(#path-1-inside-1_72_135)"/>
<path d="M23.4958 101.144C23.3571 102.083 23.2878 103.576 23.2878 105.624C23.2878 107.661 23.3305 109.16 23.4158 110.12C23.7785 110.141 24.1198 110.152 24.4398 110.152C25.6985 110.152 26.5038 109.981 26.8558 109.64C26.9305 109.491 26.9678 109.256 26.9678 108.936C26.9678 108.616 26.9145 108.397 26.8078 108.28L26.8238 108.168C27.0905 108.008 27.3571 107.784 27.6238 107.496C27.7518 107.507 27.8531 107.56 27.9278 107.656C28.0131 107.752 28.0558 107.864 28.0558 107.992C28.0558 108.515 27.7411 109.139 27.1118 109.864C26.4825 110.589 25.8958 111.048 25.3518 111.24C24.4345 111.208 23.4425 111.053 22.3758 110.776C22.2265 110.968 22.1038 111.213 22.0078 111.512L21.6718 111.416C21.8958 110.339 22.0238 108.573 22.0558 106.12V105.32C22.0558 103.453 21.9971 102.077 21.8798 101.192C21.3358 101.117 20.8238 101.005 20.3438 100.856L20.4078 100.456C20.9731 100.541 21.7145 100.584 22.6318 100.584C23.5598 100.584 24.4185 100.541 25.2078 100.456L25.2558 100.84C24.6158 100.989 24.0291 101.091 23.4958 101.144ZM30.5047 103.192C30.4194 103.768 30.3767 104.947 30.3767 106.728C30.3767 108.509 30.4247 109.757 30.5207 110.472C31.0007 110.525 31.4434 110.605 31.8487 110.712L31.8007 111.112C31.246 111.037 30.622 111 29.9287 111C29.246 111 28.6327 111.043 28.0887 111.128L28.0247 110.712C28.3234 110.616 28.6594 110.536 29.0327 110.472C29.1287 109.704 29.1767 108.616 29.1767 107.208V106.456C29.1767 105.048 29.1234 103.96 29.0167 103.192C28.6434 103.128 28.3074 103.048 28.0087 102.952L28.0727 102.536C28.6167 102.621 29.23 102.664 29.9127 102.664C30.606 102.664 31.23 102.627 31.7847 102.552L31.8327 102.952C31.4274 103.059 30.9847 103.139 30.5047 103.192ZM37.0742 110.104C37.0742 109.443 36.9089 108.456 36.5782 107.144C36.2475 105.821 35.8795 104.541 35.4742 103.304L35.4102 103.32L35.0102 106.296C34.8395 107.523 34.7542 108.627 34.7542 109.608C34.7542 110.205 34.9409 110.605 35.3142 110.808L35.2502 111.08C34.9302 111.027 34.5089 111 33.9862 111C33.4742 111 32.9089 111.043 32.2902 111.128L32.2262 110.712C32.5889 110.595 32.9302 110.509 33.2502 110.456L34.7382 103.16C34.1835 103.064 33.7729 102.979 33.5062 102.904L33.5542 102.488C34.3222 102.605 35.0315 102.664 35.6822 102.664C36.3435 102.664 36.8555 102.627 37.2182 102.552L37.2502 102.824C36.9622 102.899 36.8182 103.021 36.8182 103.192C36.8182 103.427 37.1489 104.781 37.8102 107.256L38.1622 108.456L38.2742 108.424C38.2742 108.147 38.7595 106.408 39.7302 103.208C39.7302 103.027 39.5862 102.899 39.2982 102.824L39.3302 102.552C39.6929 102.627 40.2049 102.664 40.8662 102.664C41.5382 102.664 42.2529 102.605 43.0102 102.488L43.0582 102.904C42.7702 102.979 42.4022 103.059 41.9542 103.144C41.9222 103.4 41.9062 103.779 41.9062 104.28C41.9062 104.771 41.9755 105.784 42.1142 107.32C42.2529 108.856 42.3809 109.912 42.4982 110.488C42.8929 110.541 43.2982 110.616 43.7142 110.712L43.6662 111.112C43.1115 111.037 42.4929 111 41.8102 111C41.1382 111 40.5302 111.043 39.9862 111.128L39.9222 110.712C40.2742 110.605 40.6529 110.525 41.0582 110.472C41.0262 107.955 40.8555 105.581 40.5462 103.352H40.4982C39.3995 106.595 38.8129 108.696 38.7382 109.656C38.5142 109.731 38.2529 109.869 37.9542 110.072C37.6555 110.264 37.4262 110.456 37.2662 110.648L37.0742 110.52V110.104ZM45.9163 107.048C45.9483 107.997 46.1243 108.739 46.4443 109.272C46.7643 109.805 47.3083 110.072 48.0763 110.072C48.8443 110.072 49.5536 109.747 50.2043 109.096L50.4283 109.32C49.7136 110.227 48.855 110.851 47.8523 111.192C46.8176 111.192 46.007 110.867 45.4203 110.216C44.8336 109.555 44.5403 108.669 44.5403 107.56C44.5403 106.44 44.887 105.389 45.5803 104.408C46.2736 103.427 47.159 102.781 48.2363 102.472C49.015 102.472 49.895 102.552 50.8763 102.712L50.8603 103.064C50.6576 103.064 50.4656 103.101 50.2843 103.176C50.0816 103.656 49.9483 104.227 49.8843 104.888H49.4843C49.399 104.525 49.3563 104.152 49.3563 103.768C48.951 103.565 48.471 103.464 47.9163 103.464C47.3616 103.464 46.903 103.613 46.5403 103.912C46.1776 104.573 45.9696 105.363 45.9163 106.28C46.3643 106.355 46.8443 106.392 47.3563 106.392C48.2416 106.392 48.775 106.205 48.9563 105.832L49.2923 105.88C49.1963 106.2 49.1483 106.515 49.1483 106.824C49.1483 107.133 49.1856 107.512 49.2603 107.96L48.8763 108.024C48.759 107.704 48.6736 107.373 48.6203 107.032C48.1936 106.989 47.767 106.968 47.3403 106.968C46.9243 106.968 46.4496 106.995 45.9163 107.048ZM21.9683 124.32V125.264C21.9683 127.237 22.0109 128.64 22.0963 129.472C21.3816 130.912 20.0643 132.053 18.1442 132.896L17.9522 132.56C18.9656 131.867 19.6803 131.147 20.0963 130.4C20.5229 129.664 20.7363 128.709 20.7363 127.536V124.32C20.7363 122.709 20.6883 121.424 20.5923 120.464C19.3336 120.464 18.5282 120.635 18.1762 120.976C18.1016 121.125 18.0642 121.36 18.0642 121.68C18.0642 122 18.1176 122.219 18.2242 122.336L18.2082 122.448C17.9416 122.608 17.6749 122.832 17.4082 123.12C17.2802 123.109 17.1789 123.056 17.1042 122.96C17.0189 122.864 16.9762 122.752 16.9762 122.624C16.9762 122.101 17.2909 121.477 17.9202 120.752C18.5496 120.027 19.1363 119.568 19.6803 119.376C19.7656 119.376 20.1496 119.413 20.8323 119.488C21.5149 119.552 22.0483 119.584 22.4323 119.584C22.8163 119.584 23.1789 119.552 23.5203 119.488L23.5843 119.888C23.1683 120.048 22.6936 120.192 22.1603 120.32C22.0323 121.472 21.9683 122.805 21.9683 124.32ZM31.4229 125.456V126.208C31.4229 127.669 31.4762 128.763 31.5829 129.488C32.0735 129.552 32.4789 129.627 32.7989 129.712L32.7509 130.112C32.2282 130.037 31.6895 130 31.1349 130C30.5909 130 30.2175 130.016 30.0149 130.048L29.9509 129.84C30.0469 129.733 30.1109 129.429 30.1429 128.928C29.5882 129.504 28.9482 129.925 28.2229 130.192C26.3882 130.192 25.4709 129.099 25.4709 126.912C25.4709 126.432 25.5082 125.664 25.5829 124.608C25.6575 123.552 25.6949 122.933 25.6949 122.752C25.6949 122.571 25.6629 122.395 25.5989 122.224V122.208C25.1509 122.133 24.7935 122.053 24.5269 121.968L24.5909 121.536C25.2095 121.621 25.7695 121.664 26.2709 121.664C26.7722 121.664 27.1829 121.637 27.5029 121.584L27.5669 121.856C27.1829 122.059 26.9589 122.427 26.8949 122.96C26.7669 123.984 26.7029 125.035 26.7029 126.112C26.7029 127.189 26.8255 127.957 27.0709 128.416C27.3269 128.864 27.7962 129.088 28.4789 129.088C29.1722 129.088 29.7322 128.891 30.1589 128.496C30.2015 127.643 30.2229 126.635 30.2229 125.472C30.2229 124.309 30.1802 123.216 30.0949 122.192C29.6149 122.139 29.1722 122.059 28.7669 121.952L28.8149 121.552C29.3695 121.627 29.9882 121.664 30.6709 121.664C31.3642 121.664 31.9829 121.621 32.5269 121.536L32.5909 121.952C32.2922 122.048 31.9562 122.128 31.5829 122.192C31.4762 122.907 31.4229 123.995 31.4229 125.456ZM36.4969 122.192C36.4115 122.768 36.3689 123.947 36.3689 125.728C36.3689 127.509 36.4169 128.757 36.5129 129.472C36.9929 129.525 37.4355 129.605 37.8409 129.712L37.7929 130.112C37.2382 130.037 36.6142 130 35.9209 130C35.2382 130 34.6249 130.043 34.0809 130.128L34.0169 129.712C34.3155 129.616 34.6515 129.536 35.0249 129.472C35.1209 128.704 35.1689 127.616 35.1689 126.208V125.456C35.1689 124.048 35.1155 122.96 35.0089 122.192C34.6355 122.128 34.2995 122.048 34.0009 121.952L34.0649 121.536C34.6089 121.621 35.2222 121.664 35.9049 121.664C36.5982 121.664 37.2222 121.627 37.7769 121.552L37.8249 121.952C37.4195 122.059 36.9769 122.139 36.4969 122.192ZM42.5384 129.072C43.2744 129.072 43.9677 128.747 44.6184 128.096L44.8424 128.32C44.1277 129.227 43.269 129.851 42.2664 130.192C41.2317 130.192 40.421 129.867 39.8344 129.216C39.2477 128.555 38.9544 127.669 38.9544 126.56C38.9544 125.44 39.301 124.389 39.9944 123.408C40.6877 122.427 41.573 121.781 42.6504 121.472C43.429 121.472 44.309 121.552 45.2904 121.712L45.2744 122.064C45.0717 122.064 44.8797 122.101 44.6984 122.176C44.4957 122.656 44.3624 123.227 44.2984 123.888H43.8984C43.813 123.525 43.7704 123.152 43.7704 122.768C43.365 122.565 42.885 122.464 42.3304 122.464C41.7757 122.464 41.317 122.613 40.9544 122.912C40.5384 123.669 40.3304 124.587 40.3304 125.664C40.3304 127.339 40.6877 128.389 41.4024 128.816C41.7117 128.987 42.0904 129.072 42.5384 129.072ZM47.2679 126.048C47.2999 126.997 47.4759 127.739 47.7959 128.272C48.1159 128.805 48.6599 129.072 49.4279 129.072C50.1959 129.072 50.9052 128.747 51.5559 128.096L51.7799 128.32C51.0652 129.227 50.2065 129.851 49.2039 130.192C48.1692 130.192 47.3585 129.867 46.7719 129.216C46.1852 128.555 45.8919 127.669 45.8919 126.56C45.8919 125.44 46.2385 124.389 46.9319 123.408C47.6252 122.427 48.5105 121.781 49.5879 121.472C50.3665 121.472 51.2465 121.552 52.2279 121.712L52.2119 122.064C52.0092 122.064 51.8172 122.101 51.6359 122.176C51.4332 122.656 51.2999 123.227 51.2359 123.888H50.8359C50.7505 123.525 50.7079 123.152 50.7079 122.768C50.3025 122.565 49.8225 122.464 49.2679 122.464C48.7132 122.464 48.2545 122.613 47.8919 122.912C47.5292 123.573 47.3212 124.363 47.2679 125.28C47.7159 125.355 48.1959 125.392 48.7079 125.392C49.5932 125.392 50.1265 125.205 50.3079 124.832L50.6439 124.88C50.5479 125.2 50.4999 125.515 50.4999 125.824C50.4999 126.133 50.5372 126.512 50.6119 126.96L50.2279 127.024C50.1105 126.704 50.0252 126.373 49.9719 126.032C49.5452 125.989 49.1185 125.968 48.6919 125.968C48.2759 125.968 47.8012 125.995 47.2679 126.048Z" fill="#112433"/>
</svg>
