<svg width="71" height="218" viewBox="0 0 71 218" fill="none" xmlns="http://www.w3.org/2000/svg">
<mask id="path-1-inside-1_81_900" fill="white">
<path fill-rule="evenodd" clip-rule="evenodd" d="M27.7009 0C25.0591 0 22.8731 2.05517 22.7104 4.69195L18.4938 73H5C2.23858 73 0 75.2386 0 78V213C0 215.761 2.23858 218 5 218H66C68.7614 218 71 215.761 71 213V78C71 75.2386 68.7614 73 66 73H52.9568L48.3165 4.66127C48.1383 2.03736 45.9579 0 43.328 0H27.7009Z"/>
</mask>
<path fill-rule="evenodd" clip-rule="evenodd" d="M27.7009 0C25.0591 0 22.8731 2.05517 22.7104 4.69195L18.4938 73H5C2.23858 73 0 75.2386 0 78V213C0 215.761 2.23858 218 5 218H66C68.7614 218 71 215.761 71 213V78C71 75.2386 68.7614 73 66 73H52.9568L48.3165 4.66127C48.1383 2.03736 45.9579 0 43.328 0H27.7009Z" fill="#D2D01F"/>
<path d="M22.7104 4.69195L23.7085 4.75356L23.7085 4.75356L22.7104 4.69195ZM18.4938 73V74H19.434L19.4919 73.0616L18.4938 73ZM52.9568 73L51.9591 73.0677L52.0224 74H52.9568V73ZM48.3165 4.66127L47.3188 4.72902L47.3188 4.72902L48.3165 4.66127ZM23.7085 4.75356C23.8387 2.64414 25.5874 1 27.7009 1V-1C24.5307 -1 21.9076 1.46621 21.7123 4.63034L23.7085 4.75356ZM19.4919 73.0616L23.7085 4.75356L21.7123 4.63034L17.4957 72.9384L19.4919 73.0616ZM5 74H18.4938V72H5V74ZM1 78C1 75.7909 2.79086 74 5 74V72C1.68629 72 -1 74.6863 -1 78H1ZM1 213V78H-1V213H1ZM5 217C2.79086 217 1 215.209 1 213H-1C-1 216.314 1.68629 219 5 219V217ZM66 217H5V219H66V217ZM70 213C70 215.209 68.2091 217 66 217V219C69.3137 219 72 216.314 72 213H70ZM70 78V213H72V78H70ZM66 74C68.2091 74 70 75.7909 70 78H72C72 74.6863 69.3137 72 66 72V74ZM52.9568 74H66V72H52.9568V74ZM47.3188 4.72902L51.9591 73.0677L53.9545 72.9323L49.3142 4.59353L47.3188 4.72902ZM43.328 1C45.432 1 47.1763 2.62989 47.3188 4.72902L49.3142 4.59353C49.1004 1.44484 46.4839 -1 43.328 -1V1ZM27.7009 1H43.328V-1H27.7009V1Z" fill="#112433" mask="url(#path-1-inside-1_81_900)"/>
<path d="M14.6955 100.344C15.9968 100.344 16.9782 100.733 17.6395 101.512C18.3115 102.291 18.6475 103.405 18.6475 104.856C18.6475 106.296 18.2795 107.597 17.5435 108.76C16.8182 109.912 15.8048 110.739 14.5035 111.24C13.2555 111.24 12.2528 110.829 11.4955 110.008C10.7382 109.176 10.3595 108.093 10.3595 106.76C10.3595 104.584 11.1488 102.781 12.7275 101.352L12.9195 101.48C12.1622 102.579 11.7835 103.944 11.7835 105.576C11.7835 106.739 12.0502 107.784 12.5835 108.712C13.1275 109.629 13.8795 110.088 14.8395 110.088C15.4688 110.088 15.9968 109.901 16.4235 109.528C16.9568 108.547 17.2235 107.384 17.2235 106.04C17.2235 104.28 16.8875 102.989 16.2155 102.168C15.8528 101.72 15.3995 101.496 14.8555 101.496C14.5782 101.496 14.3222 101.576 14.0875 101.736C13.8528 101.896 13.6875 102.104 13.5915 102.36C13.5915 102.573 13.6395 102.824 13.7355 103.112C13.8315 103.389 13.9542 103.565 14.1035 103.64L14.1355 103.752C13.9008 104.04 13.7248 104.344 13.6075 104.664C13.5862 104.675 13.5435 104.68 13.4795 104.68C13.0955 104.68 12.9035 104.339 12.9035 103.656C12.9035 102.504 13.5008 101.4 14.6955 100.344ZM20.0005 102.696L23.6805 102.584C24.6405 102.584 25.3605 102.728 25.8405 103.016C26.3205 103.293 26.5605 103.805 26.5605 104.552C26.5605 105.064 26.4005 105.517 26.0805 105.912C25.7712 106.307 25.3605 106.6 24.8485 106.792L26.6405 110.456C27.0032 110.52 27.3445 110.595 27.6645 110.68L27.6005 111.112C27.1525 111.037 26.6458 111 26.0805 111C25.5258 111 25.0885 111.027 24.7685 111.08L24.7045 110.824C24.8432 110.685 24.9125 110.456 24.9125 110.136C24.9125 109.485 24.5392 108.44 23.7925 107C23.5685 106.957 23.3072 106.936 23.0085 106.936L23.0405 106.472H23.2005C24.4592 106.472 25.0885 105.896 25.0885 104.744C25.0885 103.677 24.5498 103.144 23.4725 103.144C23.1098 103.144 22.7845 103.203 22.4965 103.32C22.4218 104.024 22.3845 105.229 22.3845 106.936C22.3845 108.643 22.4325 109.821 22.5285 110.472C22.9978 110.525 23.4352 110.605 23.8405 110.712L23.7925 111.112C23.2378 111.037 22.6138 111 21.9205 111C21.2378 111 20.6245 111.043 20.0805 111.128L20.0165 110.712C20.3152 110.616 20.6512 110.536 21.0245 110.472C21.1312 109.672 21.1845 108.429 21.1845 106.744C21.1845 105.048 21.1365 103.875 21.0405 103.224C20.6245 103.085 20.2778 103.016 20.0005 103.016V102.696ZM29.4624 102.488C30.465 102.605 31.4784 102.664 32.5024 102.664C33.5264 102.664 34.5344 102.605 35.5264 102.488L35.5904 102.904C35.2704 103.032 34.9397 103.128 34.5984 103.192C34.481 104.067 34.4224 105.283 34.4224 106.84C34.4224 108.397 34.481 109.613 34.5984 110.488C34.8117 110.52 35.2064 110.6 35.7824 110.728L35.7184 111.128C35.2064 111.043 34.5504 111 33.7504 111C32.9504 111 32.337 111.043 31.9104 111.128L31.8464 110.712C32.209 110.595 32.6197 110.509 33.0784 110.456C33.1424 109.837 33.1904 108.979 33.2224 107.88C32.721 107.827 32.2197 107.8 31.7184 107.8C31.217 107.8 30.7797 107.827 30.4064 107.88C30.193 108.755 30.0864 109.363 30.0864 109.704C30.0864 110.227 30.273 110.595 30.6464 110.808L30.5824 111.08C30.337 111.027 29.873 111 29.1904 111C28.5077 111 27.969 111.043 27.5744 111.128L27.5104 110.712C27.7664 110.616 28.1184 110.531 28.5664 110.456L30.6464 103.16C30.177 103.085 29.7664 103 29.4144 102.904L29.4624 102.488ZM30.5344 107.128C30.9504 107.192 31.409 107.224 31.9104 107.224C32.4224 107.224 32.8597 107.192 33.2224 107.128C33.2224 105.155 33.1797 103.88 33.0944 103.304C32.7317 103.283 32.4597 103.272 32.2784 103.272C32.1077 103.272 31.841 103.283 31.4784 103.304L30.5344 107.128ZM40.8409 111.112C40.2862 111.037 39.6622 111 38.9689 111C38.2862 111 37.6729 111.043 37.1289 111.128L37.0649 110.712C37.4062 110.605 37.7262 110.525 38.0249 110.472C38.1209 109.64 38.1689 108.552 38.1689 107.208V106.456C38.1689 105.027 38.1155 103.928 38.0089 103.16C37.7209 103.128 37.3742 103.043 36.9689 102.904L37.0169 102.488C37.6249 102.605 38.2595 102.664 38.9209 102.664C39.5929 102.664 40.0729 102.627 40.3609 102.552L40.3929 102.824C40.1049 102.899 39.9609 103.021 39.9609 103.192C39.9609 103.32 40.0835 103.592 40.3289 104.008C40.5849 104.413 40.8302 104.808 41.0649 105.192C41.7689 106.312 42.6009 107.688 43.5609 109.32L43.6089 109.288V107.336C43.6089 105.907 43.5342 104.835 43.3849 104.12C43.2355 103.395 42.9795 102.973 42.6169 102.856L42.6489 102.584C42.9262 102.637 43.3422 102.664 43.8969 102.664C44.4515 102.664 45.0222 102.605 45.6089 102.488L45.6569 102.904C45.2195 103.043 44.8515 103.128 44.5529 103.16C44.4462 104.013 44.3929 105.112 44.3929 106.456V107.208C44.3929 108.829 44.4462 109.928 44.5529 110.504C45.0009 110.579 45.3582 110.664 45.6249 110.76L45.5769 111.176C45.0435 111.059 44.5422 111 44.0729 111C43.6035 111 43.2409 111.021 42.9849 111.064C42.9849 110.829 42.8195 110.435 42.4889 109.88C42.1689 109.325 41.8755 108.835 41.6089 108.408C40.7449 107.011 39.8969 105.592 39.0649 104.152L39.0009 104.184V106.328C39.0009 108.451 39.1609 109.832 39.4809 110.472C39.9609 110.525 40.4302 110.605 40.8889 110.712L40.8409 111.112ZM50.5696 110.072C51.0283 110.072 51.4816 109.939 51.9296 109.672L51.8496 107.96C51.551 107.864 51.1883 107.779 50.7616 107.704L50.8096 107.368C51.0656 107.389 51.2523 107.4 51.3696 107.4C52.1056 107.4 52.7723 107.203 53.3696 106.808L53.5296 107.096C53.4016 107.213 53.2843 107.336 53.1776 107.464C53.0283 108.915 52.9323 110.109 52.8896 111.048H52.5536C52.4683 110.653 52.3403 110.328 52.1696 110.072C51.551 110.616 50.927 110.989 50.2976 111.192C49.263 111.192 48.4523 110.867 47.8656 110.216C47.279 109.555 46.9856 108.669 46.9856 107.56C46.9856 106.44 47.3323 105.389 48.0256 104.408C48.719 103.427 49.6043 102.781 50.6816 102.472C51.4603 102.472 52.3403 102.552 53.3216 102.712L53.3056 103.064C53.103 103.064 52.911 103.101 52.7296 103.176C52.527 103.656 52.3936 104.227 52.3296 104.888H51.9296C51.8443 104.525 51.8016 104.152 51.8016 103.768C51.3963 103.565 50.9163 103.464 50.3616 103.464C49.807 103.464 49.3483 103.613 48.9856 103.912C48.559 104.691 48.3456 105.613 48.3456 106.68C48.3456 107.736 48.5003 108.568 48.8096 109.176C49.1296 109.773 49.7163 110.072 50.5696 110.072ZM56.2366 107.048C56.2686 107.997 56.4446 108.739 56.7646 109.272C57.0846 109.805 57.6286 110.072 58.3966 110.072C59.1646 110.072 59.874 109.747 60.5246 109.096L60.7486 109.32C60.034 110.227 59.1753 110.851 58.1726 111.192C57.138 111.192 56.3273 110.867 55.7406 110.216C55.154 109.555 54.8606 108.669 54.8606 107.56C54.8606 106.44 55.2073 105.389 55.9006 104.408C56.594 103.427 57.4793 102.781 58.5566 102.472C59.3353 102.472 60.2153 102.552 61.1966 102.712L61.1806 103.064C60.978 103.064 60.786 103.101 60.6046 103.176C60.402 103.656 60.2686 104.227 60.2046 104.888H59.8046C59.7193 104.525 59.6766 104.152 59.6766 103.768C59.2713 103.565 58.7913 103.464 58.2366 103.464C57.682 103.464 57.2233 103.613 56.8606 103.912C56.498 104.573 56.29 105.363 56.2366 106.28C56.6846 106.355 57.1646 106.392 57.6766 106.392C58.562 106.392 59.0953 106.205 59.2766 105.832L59.6126 105.88C59.5166 106.2 59.4686 106.515 59.4686 106.824C59.4686 107.133 59.506 107.512 59.5806 107.96L59.1966 108.024C59.0793 107.704 58.994 107.373 58.9406 107.032C58.514 106.989 58.0873 106.968 57.6606 106.968C57.2446 106.968 56.77 106.995 56.2366 107.048ZM21.9683 124.32V125.264C21.9683 127.237 22.0109 128.64 22.0963 129.472C21.3816 130.912 20.0643 132.053 18.1442 132.896L17.9522 132.56C18.9656 131.867 19.6803 131.147 20.0963 130.4C20.5229 129.664 20.7363 128.709 20.7363 127.536V124.32C20.7363 122.709 20.6883 121.424 20.5923 120.464C19.3336 120.464 18.5282 120.635 18.1762 120.976C18.1016 121.125 18.0642 121.36 18.0642 121.68C18.0642 122 18.1176 122.219 18.2242 122.336L18.2082 122.448C17.9416 122.608 17.6749 122.832 17.4082 123.12C17.2802 123.109 17.1789 123.056 17.1042 122.96C17.0189 122.864 16.9762 122.752 16.9762 122.624C16.9762 122.101 17.2909 121.477 17.9202 120.752C18.5496 120.027 19.1363 119.568 19.6803 119.376C19.7656 119.376 20.1496 119.413 20.8323 119.488C21.5149 119.552 22.0483 119.584 22.4323 119.584C22.8163 119.584 23.1789 119.552 23.5203 119.488L23.5843 119.888C23.1683 120.048 22.6936 120.192 22.1603 120.32C22.0323 121.472 21.9683 122.805 21.9683 124.32ZM31.4229 125.456V126.208C31.4229 127.669 31.4762 128.763 31.5829 129.488C32.0735 129.552 32.4789 129.627 32.7989 129.712L32.7509 130.112C32.2282 130.037 31.6895 130 31.1349 130C30.5909 130 30.2175 130.016 30.0149 130.048L29.9509 129.84C30.0469 129.733 30.1109 129.429 30.1429 128.928C29.5882 129.504 28.9482 129.925 28.2229 130.192C26.3882 130.192 25.4709 129.099 25.4709 126.912C25.4709 126.432 25.5082 125.664 25.5829 124.608C25.6575 123.552 25.6949 122.933 25.6949 122.752C25.6949 122.571 25.6629 122.395 25.5989 122.224V122.208C25.1509 122.133 24.7935 122.053 24.5269 121.968L24.5909 121.536C25.2095 121.621 25.7695 121.664 26.2709 121.664C26.7722 121.664 27.1829 121.637 27.5029 121.584L27.5669 121.856C27.1829 122.059 26.9589 122.427 26.8949 122.96C26.7669 123.984 26.7029 125.035 26.7029 126.112C26.7029 127.189 26.8255 127.957 27.0709 128.416C27.3269 128.864 27.7962 129.088 28.4789 129.088C29.1722 129.088 29.7322 128.891 30.1589 128.496C30.2015 127.643 30.2229 126.635 30.2229 125.472C30.2229 124.309 30.1802 123.216 30.0949 122.192C29.6149 122.139 29.1722 122.059 28.7669 121.952L28.8149 121.552C29.3695 121.627 29.9882 121.664 30.6709 121.664C31.3642 121.664 31.9829 121.621 32.5269 121.536L32.5909 121.952C32.2922 122.048 31.9562 122.128 31.5829 122.192C31.4762 122.907 31.4229 123.995 31.4229 125.456ZM36.4969 122.192C36.4115 122.768 36.3689 123.947 36.3689 125.728C36.3689 127.509 36.4169 128.757 36.5129 129.472C36.9929 129.525 37.4355 129.605 37.8409 129.712L37.7929 130.112C37.2382 130.037 36.6142 130 35.9209 130C35.2382 130 34.6249 130.043 34.0809 130.128L34.0169 129.712C34.3155 129.616 34.6515 129.536 35.0249 129.472C35.1209 128.704 35.1689 127.616 35.1689 126.208V125.456C35.1689 124.048 35.1155 122.96 35.0089 122.192C34.6355 122.128 34.2995 122.048 34.0009 121.952L34.0649 121.536C34.6089 121.621 35.2222 121.664 35.9049 121.664C36.5982 121.664 37.2222 121.627 37.7769 121.552L37.8249 121.952C37.4195 122.059 36.9769 122.139 36.4969 122.192ZM42.5384 129.072C43.2744 129.072 43.9677 128.747 44.6184 128.096L44.8424 128.32C44.1277 129.227 43.269 129.851 42.2664 130.192C41.2317 130.192 40.421 129.867 39.8344 129.216C39.2477 128.555 38.9544 127.669 38.9544 126.56C38.9544 125.44 39.301 124.389 39.9944 123.408C40.6877 122.427 41.573 121.781 42.6504 121.472C43.429 121.472 44.309 121.552 45.2904 121.712L45.2744 122.064C45.0717 122.064 44.8797 122.101 44.6984 122.176C44.4957 122.656 44.3624 123.227 44.2984 123.888H43.8984C43.813 123.525 43.7704 123.152 43.7704 122.768C43.365 122.565 42.885 122.464 42.3304 122.464C41.7757 122.464 41.317 122.613 40.9544 122.912C40.5384 123.669 40.3304 124.587 40.3304 125.664C40.3304 127.339 40.6877 128.389 41.4024 128.816C41.7117 128.987 42.0904 129.072 42.5384 129.072ZM47.2679 126.048C47.2999 126.997 47.4759 127.739 47.7959 128.272C48.1159 128.805 48.6599 129.072 49.4279 129.072C50.1959 129.072 50.9052 128.747 51.5559 128.096L51.7799 128.32C51.0652 129.227 50.2065 129.851 49.2039 130.192C48.1692 130.192 47.3585 129.867 46.7719 129.216C46.1852 128.555 45.8919 127.669 45.8919 126.56C45.8919 125.44 46.2385 124.389 46.9319 123.408C47.6252 122.427 48.5105 121.781 49.5879 121.472C50.3665 121.472 51.2465 121.552 52.2279 121.712L52.2119 122.064C52.0092 122.064 51.8172 122.101 51.6359 122.176C51.4332 122.656 51.2999 123.227 51.2359 123.888H50.8359C50.7505 123.525 50.7079 123.152 50.7079 122.768C50.3025 122.565 49.8225 122.464 49.2679 122.464C48.7132 122.464 48.2545 122.613 47.8919 122.912C47.5292 123.573 47.3212 124.363 47.2679 125.28C47.7159 125.355 48.1959 125.392 48.7079 125.392C49.5932 125.392 50.1265 125.205 50.3079 124.832L50.6439 124.88C50.5479 125.2 50.4999 125.515 50.4999 125.824C50.4999 126.133 50.5372 126.512 50.6119 126.96L50.2279 127.024C50.1105 126.704 50.0252 126.373 49.9719 126.032C49.5452 125.989 49.1185 125.968 48.6919 125.968C48.2759 125.968 47.8012 125.995 47.2679 126.048Z" fill="#112433"/>
</svg>
