<svg width="118" height="98" viewBox="0 0 118 98" fill="none" xmlns="http://www.w3.org/2000/svg">
<path d="M90.7476 0.684191C104.759 25.4902 96.193 57.0073 71.4663 71.2833C46.7396 85.5593 15.1617 77.2195 0.685051 52.6818L90.7476 0.684191Z" fill="#D2D01F" stroke="#112433"/>
<path d="M37.1955 39.3777C38.4968 39.3777 39.4782 39.767 40.1395 40.5457C40.8115 41.3244 41.1475 42.439 41.1475 43.8897C41.1475 45.3297 40.7795 46.631 40.0435 47.7937C39.3182 48.9457 38.3048 49.7724 37.0035 50.2737C35.7555 50.2737 34.7528 49.863 33.9955 49.0417C33.2382 48.2097 32.8595 47.127 32.8595 45.7937C32.8595 43.6177 33.6488 41.815 35.2275 40.3857L35.4195 40.5137C34.6622 41.6124 34.2835 42.9777 34.2835 44.6097C34.2835 45.7724 34.5502 46.8177 35.0835 47.7457C35.6275 48.663 36.3795 49.1217 37.3395 49.1217C37.9688 49.1217 38.4968 48.935 38.9235 48.5617C39.4568 47.5804 39.7235 46.4177 39.7235 45.0737C39.7235 43.3137 39.3875 42.023 38.7155 41.2017C38.3528 40.7537 37.8995 40.5297 37.3555 40.5297C37.0782 40.5297 36.8222 40.6097 36.5875 40.7697C36.3528 40.9297 36.1875 41.1377 36.0915 41.3937C36.0915 41.607 36.1395 41.8577 36.2355 42.1457C36.3315 42.423 36.4542 42.599 36.6035 42.6737L36.6355 42.7857C36.4008 43.0737 36.2248 43.3777 36.1075 43.6977C36.0862 43.7084 36.0435 43.7137 35.9795 43.7137C35.5955 43.7137 35.4035 43.3724 35.4035 42.6897C35.4035 41.5377 36.0008 40.4337 37.1955 39.3777ZM42.5005 41.7297L46.1805 41.6177C47.1405 41.6177 47.8605 41.7617 48.3405 42.0497C48.8205 42.327 49.0605 42.839 49.0605 43.5857C49.0605 44.0977 48.9005 44.551 48.5805 44.9457C48.2712 45.3404 47.8605 45.6337 47.3485 45.8257L49.1405 49.4897C49.5032 49.5537 49.8445 49.6284 50.1645 49.7137L50.1005 50.1457C49.6525 50.071 49.1458 50.0337 48.5805 50.0337C48.0258 50.0337 47.5885 50.0604 47.2685 50.1137L47.2045 49.8577C47.3432 49.719 47.4125 49.4897 47.4125 49.1697C47.4125 48.519 47.0392 47.4737 46.2925 46.0337C46.0685 45.991 45.8072 45.9697 45.5085 45.9697L45.5405 45.5057H45.7005C46.9592 45.5057 47.5885 44.9297 47.5885 43.7777C47.5885 42.711 47.0498 42.1777 45.9725 42.1777C45.6098 42.1777 45.2845 42.2364 44.9965 42.3537C44.9218 43.0577 44.8845 44.263 44.8845 45.9697C44.8845 47.6764 44.9325 48.855 45.0285 49.5057C45.4978 49.559 45.9352 49.639 46.3405 49.7457L46.2925 50.1457C45.7378 50.071 45.1138 50.0337 44.4205 50.0337C43.7378 50.0337 43.1245 50.0764 42.5805 50.1617L42.5165 49.7457C42.8152 49.6497 43.1512 49.5697 43.5245 49.5057C43.6312 48.7057 43.6845 47.463 43.6845 45.7777C43.6845 44.0817 43.6365 42.9084 43.5405 42.2577C43.1245 42.119 42.7778 42.0497 42.5005 42.0497V41.7297ZM51.9624 41.5217C52.965 41.639 53.9784 41.6977 55.0024 41.6977C56.0264 41.6977 57.0344 41.639 58.0264 41.5217L58.0904 41.9377C57.7704 42.0657 57.4397 42.1617 57.0984 42.2257C56.981 43.1004 56.9224 44.3164 56.9224 45.8737C56.9224 47.431 56.981 48.647 57.0984 49.5217C57.3117 49.5537 57.7064 49.6337 58.2824 49.7617L58.2184 50.1617C57.7064 50.0764 57.0504 50.0337 56.2504 50.0337C55.4504 50.0337 54.837 50.0764 54.4104 50.1617L54.3464 49.7457C54.709 49.6284 55.1197 49.543 55.5784 49.4897C55.6424 48.871 55.6904 48.0124 55.7224 46.9137C55.221 46.8604 54.7197 46.8337 54.2184 46.8337C53.717 46.8337 53.2797 46.8604 52.9064 46.9137C52.693 47.7884 52.5864 48.3964 52.5864 48.7377C52.5864 49.2604 52.773 49.6284 53.1464 49.8417L53.0824 50.1137C52.837 50.0604 52.373 50.0337 51.6904 50.0337C51.0077 50.0337 50.469 50.0764 50.0744 50.1617L50.0104 49.7457C50.2664 49.6497 50.6184 49.5644 51.0664 49.4897L53.1464 42.1937C52.677 42.119 52.2664 42.0337 51.9144 41.9377L51.9624 41.5217ZM53.0344 46.1617C53.4504 46.2257 53.909 46.2577 54.4104 46.2577C54.9224 46.2577 55.3597 46.2257 55.7224 46.1617C55.7224 44.1884 55.6797 42.9137 55.5944 42.3377C55.2317 42.3164 54.9597 42.3057 54.7784 42.3057C54.6077 42.3057 54.341 42.3164 53.9784 42.3377L53.0344 46.1617ZM63.3409 50.1457C62.7862 50.071 62.1622 50.0337 61.4689 50.0337C60.7862 50.0337 60.1729 50.0764 59.6289 50.1617L59.5649 49.7457C59.9062 49.639 60.2262 49.559 60.5249 49.5057C60.6209 48.6737 60.6689 47.5857 60.6689 46.2417V45.4897C60.6689 44.0604 60.6155 42.9617 60.5089 42.1937C60.2209 42.1617 59.8742 42.0764 59.4689 41.9377L59.5169 41.5217C60.1249 41.639 60.7595 41.6977 61.4209 41.6977C62.0929 41.6977 62.5729 41.6604 62.8609 41.5857L62.8929 41.8577C62.6049 41.9324 62.4609 42.055 62.4609 42.2257C62.4609 42.3537 62.5835 42.6257 62.8289 43.0417C63.0849 43.447 63.3302 43.8417 63.5649 44.2257C64.2689 45.3457 65.1009 46.7217 66.0609 48.3537L66.1089 48.3217V46.3697C66.1089 44.9404 66.0342 43.8684 65.8849 43.1537C65.7355 42.4284 65.4795 42.007 65.1169 41.8897L65.1489 41.6177C65.4262 41.671 65.8422 41.6977 66.3969 41.6977C66.9515 41.6977 67.5222 41.639 68.1089 41.5217L68.1569 41.9377C67.7195 42.0764 67.3515 42.1617 67.0529 42.1937C66.9462 43.047 66.8929 44.1457 66.8929 45.4897V46.2417C66.8929 47.863 66.9462 48.9617 67.0529 49.5377C67.5009 49.6124 67.8582 49.6977 68.1249 49.7937L68.0769 50.2097C67.5435 50.0924 67.0422 50.0337 66.5729 50.0337C66.1035 50.0337 65.7409 50.055 65.4849 50.0977C65.4849 49.863 65.3195 49.4684 64.9889 48.9137C64.6689 48.359 64.3755 47.8684 64.1089 47.4417C63.2449 46.0444 62.3969 44.6257 61.5649 43.1857L61.5009 43.2177V45.3617C61.5009 47.4844 61.6609 48.8657 61.9809 49.5057C62.4609 49.559 62.9302 49.639 63.3889 49.7457L63.3409 50.1457ZM73.0696 49.1057C73.5283 49.1057 73.9816 48.9724 74.4296 48.7057L74.3496 46.9937C74.051 46.8977 73.6883 46.8124 73.2616 46.7377L73.3096 46.4017C73.5656 46.423 73.7523 46.4337 73.8696 46.4337C74.6056 46.4337 75.2723 46.2364 75.8696 45.8417L76.0296 46.1297C75.9016 46.247 75.7843 46.3697 75.6776 46.4977C75.5283 47.9484 75.4323 49.143 75.3896 50.0817H75.0536C74.9683 49.687 74.8403 49.3617 74.6696 49.1057C74.051 49.6497 73.427 50.023 72.7976 50.2257C71.763 50.2257 70.9523 49.9004 70.3656 49.2497C69.779 48.5884 69.4856 47.703 69.4856 46.5937C69.4856 45.4737 69.8323 44.423 70.5256 43.4417C71.219 42.4604 72.1043 41.815 73.1816 41.5057C73.9603 41.5057 74.8403 41.5857 75.8216 41.7457L75.8056 42.0977C75.603 42.0977 75.411 42.135 75.2296 42.2097C75.027 42.6897 74.8936 43.2604 74.8296 43.9217H74.4296C74.3443 43.559 74.3016 43.1857 74.3016 42.8017C73.8963 42.599 73.4163 42.4977 72.8616 42.4977C72.307 42.4977 71.8483 42.647 71.4856 42.9457C71.059 43.7244 70.8456 44.647 70.8456 45.7137C70.8456 46.7697 71.0003 47.6017 71.3096 48.2097C71.6296 48.807 72.2163 49.1057 73.0696 49.1057ZM78.7366 46.0817C78.7686 47.031 78.9446 47.7724 79.2646 48.3057C79.5846 48.839 80.1286 49.1057 80.8966 49.1057C81.6646 49.1057 82.374 48.7804 83.0246 48.1297L83.2486 48.3537C82.534 49.2604 81.6753 49.8844 80.6726 50.2257C79.638 50.2257 78.8273 49.9004 78.2406 49.2497C77.654 48.5884 77.3606 47.703 77.3606 46.5937C77.3606 45.4737 77.7073 44.423 78.4006 43.4417C79.094 42.4604 79.9793 41.815 81.0566 41.5057C81.8353 41.5057 82.7153 41.5857 83.6966 41.7457L83.6806 42.0977C83.478 42.0977 83.286 42.135 83.1046 42.2097C82.902 42.6897 82.7686 43.2604 82.7046 43.9217H82.3046C82.2193 43.559 82.1766 43.1857 82.1766 42.8017C81.7713 42.599 81.2913 42.4977 80.7366 42.4977C80.182 42.4977 79.7233 42.647 79.3606 42.9457C78.998 43.607 78.79 44.3964 78.7366 45.3137C79.1846 45.3884 79.6646 45.4257 80.1766 45.4257C81.062 45.4257 81.5953 45.239 81.7766 44.8657L82.1126 44.9137C82.0166 45.2337 81.9686 45.5484 81.9686 45.8577C81.9686 46.167 82.006 46.5457 82.0806 46.9937L81.6966 47.0577C81.5793 46.7377 81.494 46.407 81.4406 46.0657C81.014 46.023 80.5873 46.0017 80.1606 46.0017C79.7446 46.0017 79.27 46.0284 78.7366 46.0817Z" fill="#112433"/>
</svg>
