<svg width="118" height="83" viewBox="0 0 118 83" fill="none" xmlns="http://www.w3.org/2000/svg">
<rect x="0.5" y="0.5" width="117" height="82" rx="19.5" fill="#D2D01F" stroke="#112433"/>
<path d="M45.8323 46.808C45.8323 45.8693 46.0349 45.0587 46.4403 44.376C46.8563 43.6933 47.2883 43.352 47.7363 43.352C47.8536 43.352 47.9709 43.3893 48.0883 43.464L48.1363 43.576C47.9976 43.8427 47.9123 44.1787 47.8803 44.584L47.7843 44.648C47.7416 44.6267 47.6616 44.616 47.5443 44.616C47.4269 44.616 47.2509 44.68 47.0163 44.808C46.7923 44.936 46.6163 45.064 46.4883 45.192C46.4136 45.3413 46.3763 45.512 46.3763 45.704C46.3763 46.2053 46.7123 46.6373 47.3843 47C48.0669 47.352 48.7229 47.528 49.3523 47.528C50.6643 47.528 51.3203 46.7813 51.3203 45.288C51.3203 44.7227 50.7816 44.0133 49.7043 43.16C49.2563 42.7973 48.8083 42.4347 48.3603 42.072C47.2829 41.2187 46.7443 40.4773 46.7443 39.848C46.7443 39.1013 47.0803 38.408 47.7523 37.768C48.4243 37.1173 49.1869 36.6427 50.0403 36.344C50.9576 36.344 51.8269 36.4347 52.6483 36.616V36.936C52.0936 37.448 51.7843 38.2373 51.7203 39.304H51.3203C51.3203 38.7387 51.2936 38.2427 51.2403 37.816C50.7816 37.6027 50.2803 37.496 49.7363 37.496C49.2029 37.496 48.7496 37.6133 48.3763 37.848C48.0029 38.072 47.8163 38.36 47.8163 38.712C47.8163 39.064 47.9709 39.4213 48.2803 39.784C48.6003 40.136 48.9843 40.4827 49.4323 40.824C49.8803 41.1547 50.3229 41.496 50.7603 41.848C51.2083 42.1893 51.5869 42.5627 51.8963 42.968C52.2163 43.3627 52.3763 43.7467 52.3763 44.12C52.3763 45.1867 52.0829 46.136 51.4963 46.968C50.9096 47.8 50.1096 48.424 49.0963 48.84C47.7629 48.7013 46.6963 48.328 45.8963 47.72C45.8536 47.4213 45.8323 47.1173 45.8323 46.808ZM59.0138 39.528C58.6404 39.3467 58.2831 39.256 57.9418 39.256C57.6004 39.256 57.3711 39.2773 57.2538 39.32C57.1684 39.896 57.1258 41.0107 57.1258 42.664C57.1258 44.3173 57.1844 45.5867 57.3018 46.472C57.7818 46.5253 58.2244 46.6053 58.6298 46.712L58.5818 47.112C58.0271 47.0373 57.3871 47 56.6618 47C55.9471 47 55.3178 47.0427 54.7738 47.128L54.7098 46.712C54.9231 46.648 55.2911 46.568 55.8138 46.472C55.9098 45.704 55.9578 44.616 55.9578 43.208V42.456C55.9578 41.7093 55.8991 40.664 55.7818 39.32C55.6644 39.2773 55.4458 39.256 55.1258 39.256C54.8058 39.256 54.4644 39.3307 54.1018 39.48C53.9951 39.8107 53.9204 40.2533 53.8778 40.808H53.4618C53.4618 39.9333 53.3178 39.256 53.0297 38.776L53.1098 38.504C53.9311 38.6107 55.0831 38.664 56.5658 38.664C58.0484 38.664 59.2431 38.6053 60.1498 38.488L60.2458 38.792C59.9791 39.0907 59.7978 39.384 59.7018 39.672C59.6058 39.9493 59.5471 40.328 59.5258 40.808H59.1258C59.0511 40.456 59.0138 40.0293 59.0138 39.528ZM63.1844 39.192C63.099 39.768 63.0564 40.9467 63.0564 42.728C63.0564 44.5093 63.1044 45.7573 63.2004 46.472C63.6804 46.5253 64.123 46.6053 64.5284 46.712L64.4804 47.112C63.9257 47.0373 63.3017 47 62.6084 47C61.9257 47 61.3124 47.0427 60.7684 47.128L60.7044 46.712C61.003 46.616 61.339 46.536 61.7124 46.472C61.8084 45.704 61.8564 44.616 61.8564 43.208V42.456C61.8564 41.048 61.803 39.96 61.6964 39.192C61.323 39.128 60.987 39.048 60.6884 38.952L60.7524 38.536C61.2964 38.6213 61.9097 38.664 62.5924 38.664C63.2857 38.664 63.9097 38.6267 64.4644 38.552L64.5124 38.952C64.107 39.0587 63.6644 39.1387 63.1844 39.192ZM65.6099 38.696L69.2899 38.584C70.2499 38.584 70.9699 38.728 71.4499 39.016C71.9299 39.2933 72.1699 39.8053 72.1699 40.552C72.1699 41.064 72.0099 41.5173 71.6899 41.912C71.3805 42.3067 70.9699 42.6 70.4579 42.792L72.2499 46.456C72.6125 46.52 72.9539 46.5947 73.2739 46.68L73.2099 47.112C72.7619 47.0373 72.2552 47 71.6899 47C71.1352 47 70.6979 47.0267 70.3779 47.08L70.3139 46.824C70.4525 46.6853 70.5219 46.456 70.5219 46.136C70.5219 45.4853 70.1485 44.44 69.4019 43C69.1779 42.9573 68.9165 42.936 68.6179 42.936L68.6499 42.472H68.8099C70.0685 42.472 70.6979 41.896 70.6979 40.744C70.6979 39.6773 70.1592 39.144 69.0819 39.144C68.7192 39.144 68.3939 39.2027 68.1059 39.32C68.0312 40.024 67.9939 41.2293 67.9939 42.936C67.9939 44.6427 68.0419 45.8213 68.1379 46.472C68.6072 46.5253 69.0445 46.6053 69.4499 46.712L69.4019 47.112C68.8472 47.0373 68.2232 47 67.5299 47C66.8472 47 66.2339 47.0427 65.6899 47.128L65.6259 46.712C65.9245 46.616 66.2605 46.536 66.6339 46.472C66.7405 45.672 66.7939 44.4293 66.7939 42.744C66.7939 41.048 66.7459 39.8747 66.6499 39.224C66.2339 39.0853 65.8872 39.016 65.6099 39.016V38.696Z" fill="#112433"/>
</svg>
