<svg width="71" height="218" viewBox="0 0 71 218" fill="none" xmlns="http://www.w3.org/2000/svg">
<mask id="path-1-inside-1_72_125" fill="white">
<path fill-rule="evenodd" clip-rule="evenodd" d="M27.7009 0C25.0591 0 22.8731 2.05517 22.7104 4.69195L18.4938 73H5C2.23858 73 0 75.2386 0 78V213C0 215.761 2.23858 218 5 218H66C68.7614 218 71 215.761 71 213V78C71 75.2386 68.7614 73 66 73H52.9568L48.3165 4.66127C48.1383 2.03736 45.9579 0 43.328 0H27.7009Z"/>
</mask>
<path fill-rule="evenodd" clip-rule="evenodd" d="M27.7009 0C25.0591 0 22.8731 2.05517 22.7104 4.69195L18.4938 73H5C2.23858 73 0 75.2386 0 78V213C0 215.761 2.23858 218 5 218H66C68.7614 218 71 215.761 71 213V78C71 75.2386 68.7614 73 66 73H52.9568L48.3165 4.66127C48.1383 2.03736 45.9579 0 43.328 0H27.7009Z" fill="#D2D01F"/>
<path d="M22.7104 4.69195L23.7085 4.75356L23.7085 4.75356L22.7104 4.69195ZM18.4938 73V74H19.434L19.4919 73.0616L18.4938 73ZM52.9568 73L51.9591 73.0677L52.0224 74H52.9568V73ZM48.3165 4.66127L47.3188 4.72902L47.3188 4.72902L48.3165 4.66127ZM23.7085 4.75356C23.8387 2.64414 25.5874 1 27.7009 1V-1C24.5307 -1 21.9076 1.46621 21.7123 4.63034L23.7085 4.75356ZM19.4919 73.0616L23.7085 4.75356L21.7123 4.63034L17.4957 72.9384L19.4919 73.0616ZM5 74H18.4938V72H5V74ZM1 78C1 75.7909 2.79086 74 5 74V72C1.68629 72 -1 74.6863 -1 78H1ZM1 213V78H-1V213H1ZM5 217C2.79086 217 1 215.209 1 213H-1C-1 216.314 1.68629 219 5 219V217ZM66 217H5V219H66V217ZM70 213C70 215.209 68.2091 217 66 217V219C69.3137 219 72 216.314 72 213H70ZM70 78V213H72V78H70ZM66 74C68.2091 74 70 75.7909 70 78H72C72 74.6863 69.3137 72 66 72V74ZM52.9568 74H66V72H52.9568V74ZM47.3188 4.72902L51.9591 73.0677L53.9545 72.9323L49.3142 4.59353L47.3188 4.72902ZM43.328 1C45.432 1 47.1763 2.62989 47.3188 4.72902L49.3142 4.59353C49.1004 1.44484 46.4839 -1 43.328 -1V1ZM27.7009 1H43.328V-1H27.7009V1Z" fill="#112433" mask="url(#path-1-inside-1_72_125)"/>
<path d="M10.9379 100.344C11.6739 100.376 12.5165 100.44 13.4659 100.536C14.4259 100.632 15.1085 100.68 15.5139 100.68C15.9192 100.68 16.2232 100.648 16.4259 100.584C16.9165 100.115 17.2632 99.7573 17.4659 99.512L17.7219 99.704C17.1565 100.44 16.8152 101.208 16.6979 102.008C15.6419 101.72 14.6765 101.544 13.8019 101.48C13.7272 102.643 13.6899 104.173 13.6899 106.072C13.6899 107.96 13.7592 109.416 13.8979 110.44C14.4312 110.493 15.0179 110.595 15.6579 110.744L15.6099 111.128C14.8205 111.043 13.9619 111 13.0339 111C12.1165 111 11.3752 111.043 10.8099 111.128L10.7459 110.728C11.2259 110.579 11.7379 110.467 12.2819 110.392C12.3992 109.517 12.4579 108.141 12.4579 106.264V105.32C12.4579 104.264 12.3939 102.968 12.2659 101.432H11.8499C10.5912 101.432 9.78588 101.603 9.43388 101.944C9.35921 102.093 9.32188 102.328 9.32188 102.648C9.32188 102.968 9.37521 103.187 9.48188 103.304L9.46588 103.416C9.19921 103.576 8.93254 103.8 8.66587 104.088C8.53787 104.077 8.43654 104.024 8.36187 103.928C8.27654 103.832 8.23387 103.72 8.23387 103.592C8.23387 103.069 8.54854 102.445 9.17788 101.72C9.80721 100.995 10.3939 100.536 10.9379 100.344ZM19.3148 107.048C19.3468 107.997 19.5228 108.739 19.8428 109.272C20.1628 109.805 20.7068 110.072 21.4748 110.072C22.2428 110.072 22.9521 109.747 23.6028 109.096L23.8268 109.32C23.1121 110.227 22.2534 110.851 21.2508 111.192C20.2161 111.192 19.4054 110.867 18.8188 110.216C18.2321 109.555 17.9388 108.669 17.9388 107.56C17.9388 106.44 18.2854 105.389 18.9788 104.408C19.6721 103.427 20.5574 102.781 21.6348 102.472C22.4134 102.472 23.2934 102.552 24.2748 102.712L24.2588 103.064C24.0561 103.064 23.8641 103.101 23.6828 103.176C23.4801 103.656 23.3468 104.227 23.2828 104.888H22.8828C22.7974 104.525 22.7548 104.152 22.7548 103.768C22.3494 103.565 21.8694 103.464 21.3148 103.464C20.7601 103.464 20.3014 103.613 19.9388 103.912C19.5761 104.573 19.3681 105.363 19.3148 106.28C19.7628 106.355 20.2428 106.392 20.7548 106.392C21.6401 106.392 22.1734 106.205 22.3548 105.832L22.6908 105.88C22.5948 106.2 22.5468 106.515 22.5468 106.824C22.5468 107.133 22.5841 107.512 22.6588 107.96L22.2748 108.024C22.1574 107.704 22.0721 107.373 22.0188 107.032C21.5921 106.989 21.1654 106.968 20.7388 106.968C20.3228 106.968 19.8481 106.995 19.3148 107.048ZM28.3106 111.176C27.34 111.112 26.556 110.755 25.9586 110.104C25.3613 109.453 25.0626 108.579 25.0626 107.48C25.0626 106.381 25.404 105.341 26.0866 104.36C26.7693 103.379 27.66 102.749 28.7586 102.472C29.8573 102.472 30.6946 102.787 31.2706 103.416C31.8466 104.035 32.1346 104.904 32.1346 106.024C32.1346 107.133 31.852 108.141 31.2866 109.048C30.732 109.944 29.9533 110.611 28.9506 111.048C29.356 111.059 29.996 111.256 30.8706 111.64C31.7453 112.024 32.3 112.248 32.5346 112.312C32.876 112.184 33.1906 112.035 33.4786 111.864L33.6706 112.152C33.1693 112.515 32.716 113.075 32.3106 113.832C30.7 112.659 29.3666 112.072 28.3106 112.072C27.7986 112.072 27.34 112.227 26.9346 112.536L26.6626 112.28C27.1106 111.811 27.66 111.443 28.3106 111.176ZM28.3266 103.448C27.8466 103.448 27.4306 103.581 27.0786 103.848C26.6413 104.595 26.4226 105.533 26.4226 106.664C26.4226 107.965 26.7853 108.963 27.5106 109.656C27.8946 110.029 28.348 110.216 28.8706 110.216C29.3933 110.216 29.8146 110.077 30.1346 109.8C30.5613 109.053 30.7746 108.141 30.7746 107.064C30.7746 105.987 30.5826 105.117 30.1986 104.456C29.8146 103.784 29.1906 103.448 28.3266 103.448ZM40.1885 106.456V107.208C40.1885 108.669 40.2418 109.763 40.3485 110.488C40.8392 110.552 41.2445 110.627 41.5645 110.712L41.5165 111.112C40.9938 111.037 40.4552 111 39.9005 111C39.3565 111 38.9832 111.016 38.7805 111.048L38.7165 110.84C38.8125 110.733 38.8765 110.429 38.9085 109.928C38.3538 110.504 37.7138 110.925 36.9885 111.192C35.1538 111.192 34.2365 110.099 34.2365 107.912C34.2365 107.432 34.2738 106.664 34.3485 105.608C34.4232 104.552 34.4605 103.933 34.4605 103.752C34.4605 103.571 34.4285 103.395 34.3645 103.224V103.208C33.9165 103.133 33.5592 103.053 33.2925 102.968L33.3565 102.536C33.9752 102.621 34.5352 102.664 35.0365 102.664C35.5378 102.664 35.9485 102.637 36.2685 102.584L36.3325 102.856C35.9485 103.059 35.7245 103.427 35.6605 103.96C35.5325 104.984 35.4685 106.035 35.4685 107.112C35.4685 108.189 35.5912 108.957 35.8365 109.416C36.0925 109.864 36.5618 110.088 37.2445 110.088C37.9378 110.088 38.4978 109.891 38.9245 109.496C38.9672 108.643 38.9885 107.635 38.9885 106.472C38.9885 105.309 38.9458 104.216 38.8605 103.192C38.3805 103.139 37.9378 103.059 37.5325 102.952L37.5805 102.552C38.1352 102.627 38.7538 102.664 39.4365 102.664C40.1298 102.664 40.7485 102.621 41.2925 102.536L41.3565 102.952C41.0578 103.048 40.7218 103.128 40.3485 103.192C40.2418 103.907 40.1885 104.995 40.1885 106.456ZM45.2625 103.192C45.1772 103.768 45.1345 104.947 45.1345 106.728C45.1345 108.509 45.1825 109.757 45.2785 110.472C45.7585 110.525 46.2012 110.605 46.6065 110.712L46.5585 111.112C46.0038 111.037 45.3798 111 44.6865 111C44.0038 111 43.3905 111.043 42.8465 111.128L42.7825 110.712C43.0812 110.616 43.4172 110.536 43.7905 110.472C43.8865 109.704 43.9345 108.616 43.9345 107.208V106.456C43.9345 105.048 43.8812 103.96 43.7745 103.192C43.4012 103.128 43.0652 103.048 42.7665 102.952L42.8305 102.536C43.3745 102.621 43.9878 102.664 44.6705 102.664C45.3638 102.664 45.9878 102.627 46.5425 102.552L46.5905 102.952C46.1852 103.059 45.7425 103.139 45.2625 103.192ZM53.544 111.176C52.8507 111.059 51.9067 111 50.712 111C49.528 111 48.536 111.053 47.736 111.16L47.688 110.76C47.9867 110.643 48.328 110.547 48.712 110.472C48.8187 109.832 48.872 108.744 48.872 107.208V106.456C48.872 105.133 48.8187 104.045 48.712 103.192C48.36 103.139 48.024 103.059 47.704 102.952L47.768 102.536C48.312 102.621 48.952 102.664 49.688 102.664C50.424 102.664 51.0533 102.621 51.576 102.536L51.624 102.936C51.144 103.053 50.6693 103.139 50.2 103.192C50.1147 103.768 50.072 104.957 50.072 106.76C50.072 108.552 50.1147 109.747 50.2 110.344C50.456 110.387 50.8187 110.408 51.288 110.408C51.7573 110.408 52.1787 110.317 52.552 110.136C52.7013 109.773 52.776 109.347 52.776 108.856H53.176C53.2187 109.677 53.368 110.344 53.624 110.856L53.544 111.176ZM55.2436 102.488C56.2463 102.605 57.2596 102.664 58.2836 102.664C59.3076 102.664 60.3156 102.605 61.3076 102.488L61.3716 102.904C61.0516 103.032 60.721 103.128 60.3796 103.192C60.2623 104.067 60.2036 105.283 60.2036 106.84C60.2036 108.397 60.2623 109.613 60.3796 110.488C60.593 110.52 60.9876 110.6 61.5636 110.728L61.4996 111.128C60.9876 111.043 60.3316 111 59.5316 111C58.7316 111 58.1183 111.043 57.6916 111.128L57.6276 110.712C57.9903 110.595 58.401 110.509 58.8596 110.456C58.9236 109.837 58.9716 108.979 59.0036 107.88C58.5023 107.827 58.001 107.8 57.4996 107.8C56.9983 107.8 56.561 107.827 56.1876 107.88C55.9743 108.755 55.8676 109.363 55.8676 109.704C55.8676 110.227 56.0543 110.595 56.4276 110.808L56.3636 111.08C56.1183 111.027 55.6543 111 54.9716 111C54.289 111 53.7503 111.043 53.3556 111.128L53.2916 110.712C53.5476 110.616 53.8996 110.531 54.3476 110.456L56.4276 103.16C55.9583 103.085 55.5476 103 55.1956 102.904L55.2436 102.488ZM56.3156 107.128C56.7316 107.192 57.1903 107.224 57.6916 107.224C58.2036 107.224 58.641 107.192 59.0036 107.128C59.0036 105.155 58.961 103.88 58.8756 103.304C58.513 103.283 58.241 103.272 58.0596 103.272C57.889 103.272 57.6223 103.283 57.2596 103.304L56.3156 107.128Z" fill="#112433"/>
</svg>
