<svg width="71" height="218" viewBox="0 0 71 218" fill="none" xmlns="http://www.w3.org/2000/svg">
<mask id="path-1-inside-1_81_895" fill="white">
<path fill-rule="evenodd" clip-rule="evenodd" d="M27.7009 0C25.0591 0 22.8731 2.05517 22.7104 4.69195L18.4938 73H5C2.23858 73 0 75.2386 0 78V213C0 215.761 2.23858 218 5 218H66C68.7614 218 71 215.761 71 213V78C71 75.2386 68.7614 73 66 73H52.9568L48.3165 4.66127C48.1383 2.03736 45.9579 0 43.328 0H27.7009Z"/>
</mask>
<path fill-rule="evenodd" clip-rule="evenodd" d="M27.7009 0C25.0591 0 22.8731 2.05517 22.7104 4.69195L18.4938 73H5C2.23858 73 0 75.2386 0 78V213C0 215.761 2.23858 218 5 218H66C68.7614 218 71 215.761 71 213V78C71 75.2386 68.7614 73 66 73H52.9568L48.3165 4.66127C48.1383 2.03736 45.9579 0 43.328 0H27.7009Z" fill="#D2D01F"/>
<path d="M22.7104 4.69195L23.7085 4.75356L23.7085 4.75356L22.7104 4.69195ZM18.4938 73V74H19.434L19.4919 73.0616L18.4938 73ZM52.9568 73L51.9591 73.0677L52.0224 74H52.9568V73ZM48.3165 4.66127L47.3188 4.72902L47.3188 4.72902L48.3165 4.66127ZM23.7085 4.75356C23.8387 2.64414 25.5874 1 27.7009 1V-1C24.5307 -1 21.9076 1.46621 21.7123 4.63034L23.7085 4.75356ZM19.4919 73.0616L23.7085 4.75356L21.7123 4.63034L17.4957 72.9384L19.4919 73.0616ZM5 74H18.4938V72H5V74ZM1 78C1 75.7909 2.79086 74 5 74V72C1.68629 72 -1 74.6863 -1 78H1ZM1 213V78H-1V213H1ZM5 217C2.79086 217 1 215.209 1 213H-1C-1 216.314 1.68629 219 5 219V217ZM66 217H5V219H66V217ZM70 213C70 215.209 68.2091 217 66 217V219C69.3137 219 72 216.314 72 213H70ZM70 78V213H72V78H70ZM66 74C68.2091 74 70 75.7909 70 78H72C72 74.6863 69.3137 72 66 72V74ZM52.9568 74H66V72H52.9568V74ZM47.3188 4.72902L51.9591 73.0677L53.9545 72.9323L49.3142 4.59353L47.3188 4.72902ZM43.328 1C45.432 1 47.1763 2.62989 47.3188 4.72902L49.3142 4.59353C49.1004 1.44484 46.4839 -1 43.328 -1V1ZM27.7009 1H43.328V-1H27.7009V1Z" fill="#112433" mask="url(#path-1-inside-1_81_895)"/>
<path d="M19.7727 111.064C19.2607 111.021 18.722 111 18.1567 111C17.5914 111 17.1434 111.021 16.8127 111.064L16.7487 110.84C16.8767 110.797 16.9994 110.733 17.1167 110.648C17.234 110.552 17.2927 110.451 17.2927 110.344C17.2927 109.565 16.5834 106.963 15.1647 102.536C15.0367 102.131 14.9087 101.773 14.7807 101.464C13.5327 101.464 12.7327 101.635 12.3807 101.976C12.306 102.125 12.2687 102.36 12.2687 102.68C12.2687 103 12.322 103.219 12.4287 103.336L12.4127 103.448C12.146 103.608 11.8794 103.832 11.6127 104.12C11.4847 104.109 11.3834 104.056 11.3087 103.96C11.2234 103.864 11.1807 103.752 11.1807 103.624C11.1807 103.101 11.4954 102.477 12.1247 101.752C12.754 101.027 13.3407 100.568 13.8847 100.376C13.97 100.376 14.354 100.413 15.0367 100.488C15.7194 100.552 16.2634 100.584 16.6687 100.584H18.5407C20.8447 100.584 22.514 100.531 23.5487 100.424L23.6127 100.824C23.1434 100.973 22.6314 101.096 22.0767 101.192C22.13 101.565 22.1567 101.907 22.1567 102.216C22.1567 102.515 22.114 102.893 22.0287 103.352C22.434 105.165 23.074 107.347 23.9487 109.896C24.738 107.901 25.2554 106.392 25.5007 105.368C25.7567 104.333 25.8847 103.448 25.8847 102.712C25.8847 101.709 25.618 101.053 25.0847 100.744L25.1487 100.52C25.4794 100.563 26.0074 100.584 26.7327 100.584C27.4687 100.584 28.1514 100.541 28.7807 100.456L28.8447 100.856C28.3647 101.005 27.8527 101.117 27.3087 101.192C27.362 101.565 27.3887 101.875 27.3887 102.12C27.3887 103.016 27.1647 104.045 26.7167 105.208C26.2794 106.371 25.4794 108.12 24.3167 110.456C24.498 110.552 24.7434 110.643 25.0527 110.728L25.0047 111.064C24.4927 111.021 23.954 111 23.3887 111C22.8234 111 22.3754 111.021 22.0447 111.064L21.9807 110.84C22.1087 110.797 22.2314 110.733 22.3487 110.648C22.466 110.552 22.5247 110.451 22.5247 110.344C22.5247 109.715 22.146 108.12 21.3887 105.56H21.3247C20.8234 106.851 20.0767 108.483 19.0847 110.456C19.266 110.552 19.5114 110.643 19.8207 110.728L19.7727 111.064ZM18.7167 109.896C19.506 107.901 20.0234 106.392 20.2687 105.368C20.5247 104.333 20.6527 103.453 20.6527 102.728C20.6527 101.992 20.5194 101.517 20.2527 101.304C19.986 101.08 19.4367 100.968 18.6047 100.968C17.7834 100.968 17.058 101.064 16.4287 101.256C16.5247 102.131 16.7967 103.427 17.2447 105.144C17.7034 106.861 18.194 108.445 18.7167 109.896ZM34.0487 102.536C34.5927 102.621 35.206 102.664 35.8887 102.664C36.582 102.664 37.206 102.627 37.7607 102.552L37.8087 102.952C37.4034 103.059 36.9607 103.139 36.4807 103.192C36.374 103.853 36.3207 104.941 36.3207 106.456V107.208C36.3207 108.744 36.374 109.832 36.4807 110.472C36.9607 110.525 37.4034 110.605 37.8087 110.712L37.7607 111.112C37.206 111.037 36.582 111 35.8887 111C35.206 111 34.5927 111.043 34.0487 111.128L33.9847 110.712C34.2834 110.616 34.6194 110.536 34.9927 110.472C35.078 109.267 35.126 108.061 35.1367 106.856C34.454 106.792 33.8247 106.76 33.2487 106.76C32.6727 106.76 32.0487 106.792 31.3767 106.856C31.3767 108.616 31.4247 109.821 31.5207 110.472C32.0007 110.525 32.4434 110.605 32.8487 110.712L32.8007 111.112C32.246 111.037 31.622 111 30.9287 111C30.246 111 29.6327 111.043 29.0887 111.128L29.0247 110.712C29.3234 110.616 29.6594 110.536 30.0327 110.472C30.1287 109.704 30.1767 108.616 30.1767 107.208V106.456C30.1767 105.048 30.1234 103.96 30.0167 103.192C29.6434 103.128 29.3074 103.048 29.0087 102.952L29.0727 102.536C29.6167 102.621 30.23 102.664 30.9127 102.664C31.606 102.664 32.23 102.627 32.7847 102.552L32.8327 102.952C32.4274 103.059 31.9847 103.139 31.5047 103.192C31.4194 103.811 31.3767 104.765 31.3767 106.056C31.974 106.141 32.614 106.184 33.2967 106.184C33.99 106.184 34.6034 106.147 35.1367 106.072C35.126 105.165 35.078 104.205 34.9927 103.192C34.6194 103.128 34.2834 103.048 33.9847 102.952L34.0487 102.536ZM41.3953 103.192C41.31 103.768 41.2673 104.947 41.2673 106.728C41.2673 108.509 41.3153 109.757 41.4113 110.472C41.8913 110.525 42.334 110.605 42.7393 110.712L42.6913 111.112C42.1366 111.037 41.5126 111 40.8193 111C40.1366 111 39.5233 111.043 38.9793 111.128L38.9153 110.712C39.214 110.616 39.55 110.536 39.9233 110.472C40.0193 109.704 40.0673 108.616 40.0673 107.208V106.456C40.0673 105.048 40.014 103.96 39.9073 103.192C39.534 103.128 39.198 103.048 38.8993 102.952L38.9633 102.536C39.5073 102.621 40.1206 102.664 40.8033 102.664C41.4966 102.664 42.1206 102.627 42.6753 102.552L42.7233 102.952C42.318 103.059 41.8753 103.139 41.3953 103.192ZM49.0528 103.528C48.6795 103.347 48.3221 103.256 47.9808 103.256C47.6395 103.256 47.4101 103.277 47.2928 103.32C47.2075 103.896 47.1648 105.011 47.1648 106.664C47.1648 108.317 47.2235 109.587 47.3408 110.472C47.8208 110.525 48.2635 110.605 48.6688 110.712L48.6208 111.112C48.0661 111.037 47.4261 111 46.7008 111C45.9861 111 45.3568 111.043 44.8128 111.128L44.7488 110.712C44.9621 110.648 45.3301 110.568 45.8528 110.472C45.9488 109.704 45.9968 108.616 45.9968 107.208V106.456C45.9968 105.709 45.9381 104.664 45.8208 103.32C45.7035 103.277 45.4848 103.256 45.1648 103.256C44.8448 103.256 44.5035 103.331 44.1408 103.48C44.0341 103.811 43.9595 104.253 43.9168 104.808H43.5008C43.5008 103.933 43.3568 103.256 43.0688 102.776L43.1488 102.504C43.9701 102.611 45.1221 102.664 46.6048 102.664C48.0875 102.664 49.2821 102.605 50.1888 102.488L50.2848 102.792C50.0181 103.091 49.8368 103.384 49.7408 103.672C49.6448 103.949 49.5861 104.328 49.5648 104.808H49.1648C49.0901 104.456 49.0528 104.029 49.0528 103.528ZM52.1194 107.048C52.1514 107.997 52.3274 108.739 52.6474 109.272C52.9674 109.805 53.5114 110.072 54.2794 110.072C55.0474 110.072 55.7568 109.747 56.4074 109.096L56.6314 109.32C55.9168 110.227 55.0581 110.851 54.0554 111.192C53.0208 111.192 52.2101 110.867 51.6234 110.216C51.0368 109.555 50.7434 108.669 50.7434 107.56C50.7434 106.44 51.0901 105.389 51.7834 104.408C52.4768 103.427 53.3621 102.781 54.4394 102.472C55.2181 102.472 56.0981 102.552 57.0794 102.712L57.0634 103.064C56.8608 103.064 56.6688 103.101 56.4874 103.176C56.2848 103.656 56.1514 104.227 56.0874 104.888H55.6874C55.6021 104.525 55.5594 104.152 55.5594 103.768C55.1541 103.565 54.6741 103.464 54.1194 103.464C53.5648 103.464 53.1061 103.613 52.7434 103.912C52.3808 104.573 52.1728 105.363 52.1194 106.28C52.5674 106.355 53.0474 106.392 53.5594 106.392C54.4448 106.392 54.9781 106.205 55.1594 105.832L55.4954 105.88C55.3994 106.2 55.3514 106.515 55.3514 106.824C55.3514 107.133 55.3888 107.512 55.4634 107.96L55.0794 108.024C54.9621 107.704 54.8768 107.373 54.8234 107.032C54.3968 106.989 53.9701 106.968 53.5434 106.968C53.1274 106.968 52.6528 106.995 52.1194 107.048ZM23.1789 130.064C22.6669 130.021 22.1283 130 21.5629 130C20.9976 130 20.5496 130.021 20.2189 130.064L20.1549 129.84C20.2829 129.797 20.4056 129.733 20.5229 129.648C20.6403 129.552 20.6989 129.451 20.6989 129.344C20.6989 128.565 19.9896 125.963 18.5709 121.536C18.4429 121.131 18.3149 120.773 18.1869 120.464C16.9389 120.464 16.1389 120.635 15.7869 120.976C15.7123 121.125 15.6749 121.36 15.6749 121.68C15.6749 122 15.7283 122.219 15.8349 122.336L15.8189 122.448C15.5523 122.608 15.2856 122.832 15.0189 123.12C14.8909 123.109 14.7896 123.056 14.7149 122.96C14.6296 122.864 14.5869 122.752 14.5869 122.624C14.5869 122.101 14.9016 121.477 15.5309 120.752C16.1603 120.027 16.7469 119.568 17.2909 119.376C17.3763 119.376 17.7603 119.413 18.4429 119.488C19.1256 119.552 19.6696 119.584 20.0749 119.584H21.9469C24.2509 119.584 25.9203 119.531 26.9549 119.424L27.0189 119.824C26.5496 119.973 26.0376 120.096 25.4829 120.192C25.5363 120.565 25.5629 120.907 25.5629 121.216C25.5629 121.515 25.5203 121.893 25.4349 122.352C25.8403 124.165 26.4803 126.347 27.3549 128.896C28.1443 126.901 28.6616 125.392 28.9069 124.368C29.1629 123.333 29.2909 122.448 29.2909 121.712C29.2909 120.709 29.0243 120.053 28.4909 119.744L28.5549 119.52C28.8856 119.563 29.4136 119.584 30.1389 119.584C30.8749 119.584 31.5576 119.541 32.1869 119.456L32.2509 119.856C31.7709 120.005 31.2589 120.117 30.7149 120.192C30.7683 120.565 30.7949 120.875 30.7949 121.12C30.7949 122.016 30.5709 123.045 30.1229 124.208C29.6856 125.371 28.8856 127.12 27.7229 129.456C27.9043 129.552 28.1496 129.643 28.4589 129.728L28.4109 130.064C27.8989 130.021 27.3603 130 26.7949 130C26.2296 130 25.7816 130.021 25.4509 130.064L25.3869 129.84C25.5149 129.797 25.6376 129.733 25.7549 129.648C25.8723 129.552 25.9309 129.451 25.9309 129.344C25.9309 128.715 25.5523 127.12 24.7949 124.56H24.7309C24.2296 125.851 23.4829 127.483 22.4909 129.456C22.6723 129.552 22.9176 129.643 23.2269 129.728L23.1789 130.064ZM22.1229 128.896C22.9123 126.901 23.4296 125.392 23.6749 124.368C23.9309 123.333 24.0589 122.453 24.0589 121.728C24.0589 120.992 23.9256 120.517 23.6589 120.304C23.3923 120.08 22.8429 119.968 22.0109 119.968C21.1896 119.968 20.4643 120.064 19.8349 120.256C19.9309 121.131 20.2029 122.427 20.6509 124.144C21.1096 125.861 21.6003 127.445 22.1229 128.896ZM34.9109 122.192C34.8256 122.768 34.7829 123.947 34.7829 125.728C34.7829 127.509 34.8309 128.757 34.9269 129.472C35.4069 129.525 35.8496 129.605 36.2549 129.712L36.2069 130.112C35.6523 130.037 35.0283 130 34.3349 130C33.6523 130 33.0389 130.043 32.4949 130.128L32.4309 129.712C32.7296 129.616 33.0656 129.536 33.4389 129.472C33.5349 128.704 33.5829 127.616 33.5829 126.208V125.456C33.5829 124.048 33.5296 122.96 33.4229 122.192C33.0496 122.128 32.7136 122.048 32.4149 121.952L32.4789 121.536C33.0229 121.621 33.6363 121.664 34.3189 121.664C35.0123 121.664 35.6363 121.627 36.1909 121.552L36.2389 121.952C35.8336 122.059 35.3909 122.139 34.9109 122.192ZM41.1924 130.112C40.6378 130.037 40.0138 130 39.3204 130C38.6378 130 38.0244 130.043 37.4804 130.128L37.4164 129.712C37.7578 129.605 38.0778 129.525 38.3764 129.472C38.4724 128.64 38.5204 127.552 38.5204 126.208V125.456C38.5204 124.027 38.4671 122.928 38.3604 122.16C38.0724 122.128 37.7258 122.043 37.3204 121.904L37.3684 121.488C37.9764 121.605 38.6111 121.664 39.2724 121.664C39.9444 121.664 40.4244 121.627 40.7124 121.552L40.7444 121.824C40.4564 121.899 40.3124 122.021 40.3124 122.192C40.3124 122.32 40.4351 122.592 40.6804 123.008C40.9364 123.413 41.1818 123.808 41.4164 124.192C42.1204 125.312 42.9524 126.688 43.9124 128.32L43.9604 128.288V126.336C43.9604 124.907 43.8858 123.835 43.7364 123.12C43.5871 122.395 43.3311 121.973 42.9684 121.856L43.0004 121.584C43.2778 121.637 43.6938 121.664 44.2484 121.664C44.8031 121.664 45.3738 121.605 45.9604 121.488L46.0084 121.904C45.5711 122.043 45.2031 122.128 44.9044 122.16C44.7978 123.013 44.7444 124.112 44.7444 125.456V126.208C44.7444 127.829 44.7978 128.928 44.9044 129.504C45.3524 129.579 45.7098 129.664 45.9764 129.76L45.9284 130.176C45.3951 130.059 44.8938 130 44.4244 130C43.9551 130 43.5924 130.021 43.3364 130.064C43.3364 129.829 43.1711 129.435 42.8404 128.88C42.5204 128.325 42.2271 127.835 41.9604 127.408C41.0964 126.011 40.2484 124.592 39.4164 123.152L39.3524 123.184V125.328C39.3524 127.451 39.5124 128.832 39.8324 129.472C40.3124 129.525 40.7818 129.605 41.2404 129.712L41.1924 130.112ZM48.7132 126.048C48.7452 126.997 48.9212 127.739 49.2412 128.272C49.5612 128.805 50.1052 129.072 50.8732 129.072C51.6412 129.072 52.3505 128.747 53.0012 128.096L53.2252 128.32C52.5105 129.227 51.6519 129.851 50.6492 130.192C49.6145 130.192 48.8039 129.867 48.2172 129.216C47.6305 128.555 47.3372 127.669 47.3372 126.56C47.3372 125.44 47.6839 124.389 48.3772 123.408C49.0705 122.427 49.9559 121.781 51.0332 121.472C51.8119 121.472 52.6919 121.552 53.6732 121.712L53.6572 122.064C53.4545 122.064 53.2625 122.101 53.0812 122.176C52.8785 122.656 52.7452 123.227 52.6812 123.888H52.2812C52.1959 123.525 52.1532 123.152 52.1532 122.768C51.7479 122.565 51.2679 122.464 50.7132 122.464C50.1585 122.464 49.6999 122.613 49.3372 122.912C48.9745 123.573 48.7665 124.363 48.7132 125.28C49.1612 125.355 49.6412 125.392 50.1532 125.392C51.0385 125.392 51.5719 125.205 51.7532 124.832L52.0892 124.88C51.9932 125.2 51.9452 125.515 51.9452 125.824C51.9452 126.133 51.9825 126.512 52.0572 126.96L51.6732 127.024C51.5559 126.704 51.4705 126.373 51.4172 126.032C50.9905 125.989 50.5639 125.968 50.1372 125.968C49.7212 125.968 49.2465 125.995 48.7132 126.048Z" fill="#112433"/>
</svg>
