<svg width="121" height="132" viewBox="0 0 121 132" fill="none" xmlns="http://www.w3.org/2000/svg">
<path d="M120.739 17.7826C120.739 27.1332 112.695 34.7391 102.739 34.7391C92.7833 34.7391 84.7391 27.1332 84.7391 17.7826C84.7391 8.432 92.7833 0.826055 102.739 0.826055C112.695 0.826055 120.739 8.432 120.739 17.7826Z" fill="#E3812D" stroke="black" stroke-width="0.521739"/>
<circle cx="102.739" cy="17.7825" r="14.8696" fill="#E8E0C3" stroke="black" stroke-width="0.521739"/>
<circle cx="102.739" cy="17.7825" r="1.56522" fill="#E8E0C3"/>
<circle cx="102.739" cy="17.7825" r="1.46087" stroke="black" stroke-opacity="0.3" stroke-width="0.208696"/>
<path d="M102.456 14.1699L99.0019 5.54271C98.9197 5.33724 99.0708 5.1136 99.2921 5.1133L106.177 5.10374C106.399 5.10344 106.55 5.32665 106.469 5.53235L103.038 14.1691C102.934 14.4321 102.562 14.4326 102.456 14.1699Z" fill="#E93A3D" fill-opacity="0.81" stroke="black" stroke-width="0.208696"/>
<path d="M103.165 21.4595L106.508 30.1306C106.587 30.3371 106.433 30.5588 106.212 30.5562L99.3274 30.4768C99.1061 30.4743 98.9572 30.2491 99.0416 30.0445L102.583 21.4528C102.691 21.1912 103.063 21.1955 103.165 21.4595Z" fill="#E93A3D" fill-opacity="0.81" stroke="black" stroke-width="0.208696"/>
<path d="M100.365 15.7414L91.1873 12.4442C90.9704 12.3662 90.9092 12.0886 91.0733 11.9267L97.0743 6.00412C97.2383 5.84224 97.5151 5.90708 97.5901 6.12496L100.766 15.3448C100.852 15.5932 100.612 15.8302 100.365 15.7414Z" fill="#E93A3D" fill-opacity="0.81" stroke="black" stroke-width="0.208696"/>
<path d="M105.474 19.9478L114.211 23.1016C114.43 23.1809 114.489 23.4639 114.319 23.624L108.204 29.381C108.034 29.541 107.755 29.4654 107.689 29.2414L105.068 20.3306C104.995 20.0846 105.233 19.8607 105.474 19.9478Z" fill="#E93A3D" fill-opacity="0.81" stroke="black" stroke-width="0.208696"/>
<path d="M105.078 15.1447L107.635 6.20377C107.699 5.97938 107.978 5.9016 108.149 6.0602L114.311 11.768C114.482 11.9266 114.426 12.21 114.207 12.2912L105.487 15.5243C105.247 15.6135 105.007 15.3913 105.078 15.1447Z" fill="#E93A3D" fill-opacity="0.81" stroke="black" stroke-width="0.208696"/>
<path d="M100.25 19.8106L98.1635 29.0325C98.1113 29.2632 97.832 29.3549 97.6532 29.2001L90.91 23.3592C90.7312 23.2043 90.7821 22.9148 91.003 22.8302L99.8328 19.4492C100.066 19.3598 100.305 19.5667 100.25 19.8106Z" fill="#E93A3D" fill-opacity="0.81" stroke="black" stroke-width="0.208696"/>
<path d="M106.393 17.5794L114.998 14.0703C115.203 13.9867 115.427 14.1364 115.429 14.3578L115.482 21.2426C115.484 21.464 115.262 21.6171 115.055 21.5367L106.397 18.1609C106.133 18.0581 106.131 17.6862 106.393 17.5794Z" fill="#E93A3D" fill-opacity="0.81" stroke="black" stroke-width="0.208696"/>
<path d="M99.183 18.2394L90.5036 21.5606C90.2968 21.6397 90.0756 21.4852 90.0787 21.2639L90.1752 14.3795C90.1783 14.1581 90.4038 14.0099 90.6082 14.0947L99.1911 17.6579C99.4524 17.7664 99.4472 18.1383 99.183 18.2394Z" fill="#E93A3D" fill-opacity="0.81" stroke="black" stroke-width="0.208696"/>
<path d="M96.6074 131H9.21499C8.9959 131 8.8141 130.831 8.79864 130.612L1.03162 20.8382C1.01453 20.5967 1.20585 20.3914 1.44797 20.3914H103.339C103.579 20.3914 103.77 20.5942 103.755 20.8343L97.024 130.608C97.0105 130.828 96.828 131 96.6074 131Z" fill="#103454" stroke="white" stroke-width="1.04348"/>
<line x1="1" y1="25.0869" x2="103.261" y2="25.0869" stroke="white" stroke-width="1.04348"/>
<path d="M10.913 127.348H93.3477L98.0434 43.3479H5.17383L10.913 127.348Z" fill="#FFB700" fill-opacity="0.9"/>
<rect x="80.4343" y="97.8343" width="3.98672" height="3.97954" rx="1.98261" transform="rotate(-16.6061 80.4343 97.8343)" fill="white" fill-opacity="0.8" stroke="black" stroke-width="0.208696"/>
<rect x="58.4696" y="34.3237" width="13.0435" height="13.0435" rx="1.82609" transform="rotate(22.2019 58.4696 34.3237)" stroke="black" stroke-width="0.521739"/>
<rect x="54.5792" y="51.8045" width="13.0435" height="13.0435" rx="1.82609" transform="rotate(1.11183 54.5792 51.8045)" stroke="black" stroke-width="0.521739"/>
<rect x="68.1073" y="47.4" width="13.0435" height="13.0435" rx="1.82609" transform="rotate(-16.6061 68.1073 47.4)" stroke="black" stroke-width="0.521739"/>
<rect x="38.8807" y="41.5561" width="13.0435" height="13.0435" rx="1.82609" transform="rotate(-13.7952 38.8807 41.5561)" stroke="black" stroke-width="0.521739"/>
<rect x="80.62" y="36.3388" width="13.0435" height="13.0435" rx="1.82609" transform="rotate(-13.7952 80.62 36.3388)" stroke="black" stroke-width="0.521739"/>
<rect x="10.4425" y="35.3672" width="13.0435" height="13.0435" rx="1.82609" transform="rotate(22.2019 10.4425 35.3672)" stroke="black" stroke-width="0.521739"/>
<rect x="22.1942" y="34.8783" width="13.0435" height="13.0435" rx="1.82609" transform="rotate(-16.6061 22.1942 34.8783)" stroke="black" stroke-width="0.521739"/>
<rect x="21.172" y="47.488" width="13.0435" height="13.0435" rx="1.82609" transform="rotate(6.26383 21.172 47.488)" stroke="black" stroke-width="0.521739"/>
<rect x="58.4696" y="34.3237" width="13.0435" height="13.0435" rx="1.82609" transform="rotate(22.2019 58.4696 34.3237)" fill="white" fill-opacity="0.2" stroke="black" stroke-width="0.521739"/>
<rect x="54.5792" y="51.8045" width="13.0435" height="13.0435" rx="1.82609" transform="rotate(1.11183 54.5792 51.8045)" fill="white" fill-opacity="0.2" stroke="black" stroke-width="0.521739"/>
<rect x="68.1073" y="47.4" width="13.0435" height="13.0435" rx="1.82609" transform="rotate(-16.6061 68.1073 47.4)" fill="white" fill-opacity="0.2" stroke="black" stroke-width="0.521739"/>
<rect x="38.8807" y="41.5561" width="13.0435" height="13.0435" rx="1.82609" transform="rotate(-13.7952 38.8807 41.5561)" fill="white" fill-opacity="0.2" stroke="black" stroke-width="0.521739"/>
<rect x="80.62" y="36.3388" width="13.0435" height="13.0435" rx="1.82609" transform="rotate(-13.7952 80.62 36.3388)" fill="white" fill-opacity="0.2" stroke="black" stroke-width="0.521739"/>
<rect x="10.4425" y="35.3672" width="13.0435" height="13.0435" rx="1.82609" transform="rotate(22.2019 10.4425 35.3672)" fill="white" fill-opacity="0.2" stroke="black" stroke-width="0.521739"/>
<rect x="22.1942" y="34.8783" width="13.0435" height="13.0435" rx="1.82609" transform="rotate(-16.6061 22.1942 34.8783)" fill="white" fill-opacity="0.2" stroke="black" stroke-width="0.521739"/>
<rect x="21.172" y="47.488" width="13.0435" height="13.0435" rx="1.82609" transform="rotate(6.26383 21.172 47.488)" fill="white" fill-opacity="0.2" stroke="black" stroke-width="0.521739"/>
<rect x="1.12982" y="20.6168" width="3.98672" height="3.97954" rx="1.98261" transform="rotate(-16.6061 1.12982 20.6168)" fill="white" stroke="black" stroke-width="0.208696"/>
<rect x="4.26019" y="22.7037" width="3.98672" height="3.97954" rx="1.98261" transform="rotate(-16.6061 4.26019 22.7037)" fill="white" stroke="black" stroke-width="0.208696"/>
<rect x="7.3908" y="20.6168" width="3.98672" height="3.97954" rx="1.98261" transform="rotate(-16.6061 7.3908 20.6168)" fill="white" stroke="black" stroke-width="0.208696"/>
<rect x="10.5555" y="18.468" width="3.98672" height="3.97954" rx="1.98261" transform="rotate(-15.1607 10.5555 18.468)" fill="white" stroke="black" stroke-width="0.208696"/>
<rect x="12.6081" y="21.6603" width="3.98672" height="3.97954" rx="1.98261" transform="rotate(-16.6061 12.6081 21.6603)" fill="white" stroke="black" stroke-width="0.208696"/>
<rect x="15.7385" y="20.6168" width="3.98672" height="3.97954" rx="1.98261" transform="rotate(-16.6061 15.7385 20.6168)" fill="white" stroke="black" stroke-width="0.208696"/>
<rect x="37.0172" y="22.3485" width="3.98672" height="3.97954" rx="1.98261" transform="rotate(170.433 37.0172 22.3485)" fill="white" stroke="black" stroke-width="0.208696"/>
<rect x="33.8868" y="23.3922" width="3.98672" height="3.97954" rx="1.98261" transform="rotate(170.433 33.8868 23.3922)" fill="white" stroke="black" stroke-width="0.208696"/>
<rect x="30.7565" y="22.3485" width="3.98672" height="3.97954" rx="1.98261" transform="rotate(170.433 30.7565 22.3485)" fill="white" stroke="black" stroke-width="0.208696"/>
<rect x="27.7306" y="24.4357" width="3.98672" height="3.97954" rx="1.98261" transform="rotate(170.433 27.7306 24.4357)" fill="white" stroke="black" stroke-width="0.208696"/>
<rect x="23.452" y="25.4791" width="3.98672" height="3.97954" rx="1.98261" transform="rotate(170.433 23.452 25.4791)" fill="white" stroke="black" stroke-width="0.208696"/>
<rect x="34.5212" y="20.5804" width="3.98672" height="3.97954" rx="1.98261" transform="rotate(-16.6061 34.5212 20.5804)" fill="white" stroke="black" stroke-width="0.208696"/>
<rect x="37.6515" y="22.6673" width="3.98672" height="3.97954" rx="1.98261" transform="rotate(-16.6061 37.6515 22.6673)" fill="white" stroke="black" stroke-width="0.208696"/>
<rect x="40.7819" y="20.5804" width="3.98672" height="3.97954" rx="1.98261" transform="rotate(-16.6061 40.7819 20.5804)" fill="white" stroke="black" stroke-width="0.208696"/>
<rect x="43.9469" y="18.4316" width="3.98672" height="3.97954" rx="1.98261" transform="rotate(-15.1607 43.9469 18.4316)" fill="white" stroke="black" stroke-width="0.208696"/>
<rect x="45.9994" y="21.6239" width="3.98672" height="3.97954" rx="1.98261" transform="rotate(-16.6061 45.9994 21.6239)" fill="white" stroke="black" stroke-width="0.208696"/>
<rect x="49.1298" y="20.5804" width="3.98672" height="3.97954" rx="1.98261" transform="rotate(-16.6061 49.1298 20.5804)" fill="white" stroke="black" stroke-width="0.208696"/>
<rect x="70.4086" y="22.3122" width="3.98672" height="3.97954" rx="1.98261" transform="rotate(170.433 70.4086 22.3122)" fill="white" stroke="black" stroke-width="0.208696"/>
<rect x="67.2782" y="23.3556" width="3.98672" height="3.97954" rx="1.98261" transform="rotate(170.433 67.2782 23.3556)" fill="white" stroke="black" stroke-width="0.208696"/>
<rect x="64.1478" y="22.3122" width="3.98672" height="3.97954" rx="1.98261" transform="rotate(170.433 64.1478 22.3122)" fill="white" stroke="black" stroke-width="0.208696"/>
<rect x="61.1217" y="24.3991" width="3.98672" height="3.97954" rx="1.98261" transform="rotate(170.433 61.1217 24.3991)" fill="white" stroke="black" stroke-width="0.208696"/>
<rect x="56.8434" y="25.4425" width="3.98672" height="3.97954" rx="1.98261" transform="rotate(170.433 56.8434 25.4425)" fill="white" stroke="black" stroke-width="0.208696"/>
<rect x="65.8254" y="21.6603" width="3.98672" height="3.97954" rx="1.98261" transform="rotate(-16.6061 65.8254 21.6603)" fill="white" stroke="black" stroke-width="0.208696"/>
<rect x="87.1044" y="23.3922" width="3.98672" height="3.97954" rx="1.98261" transform="rotate(170.433 87.1044 23.3922)" fill="white" stroke="black" stroke-width="0.208696"/>
<rect x="83.9738" y="24.4357" width="3.98672" height="3.97954" rx="1.98261" transform="rotate(170.433 83.9738 24.4357)" fill="white" stroke="black" stroke-width="0.208696"/>
<rect x="80.8434" y="23.3922" width="3.98672" height="3.97954" rx="1.98261" transform="rotate(170.433 80.8434 23.3922)" fill="white" stroke="black" stroke-width="0.208696"/>
<rect x="77.8175" y="25.4791" width="3.98672" height="3.97954" rx="1.98261" transform="rotate(170.433 77.8175 25.4791)" fill="white" stroke="black" stroke-width="0.208696"/>
<rect x="73.5392" y="26.5226" width="3.98672" height="3.97954" rx="1.98261" transform="rotate(170.433 73.5392 26.5226)" fill="white" stroke="black" stroke-width="0.208696"/>
<rect x="1.12982" y="20.6168" width="3.98672" height="3.97954" rx="1.98261" transform="rotate(-16.6061 1.12982 20.6168)" fill="white" stroke="black" stroke-width="0.208696"/>
<rect x="4.26019" y="22.7037" width="3.98672" height="3.97954" rx="1.98261" transform="rotate(-16.6061 4.26019 22.7037)" fill="white" stroke="black" stroke-width="0.208696"/>
<rect x="7.3908" y="20.6168" width="3.98672" height="3.97954" rx="1.98261" transform="rotate(-16.6061 7.3908 20.6168)" fill="white" stroke="black" stroke-width="0.208696"/>
<rect x="10.5555" y="18.468" width="3.98672" height="3.97954" rx="1.98261" transform="rotate(-15.1607 10.5555 18.468)" fill="white" stroke="black" stroke-width="0.208696"/>
<rect x="12.6081" y="21.6603" width="3.98672" height="3.97954" rx="1.98261" transform="rotate(-16.6061 12.6081 21.6603)" fill="white" stroke="black" stroke-width="0.208696"/>
<rect x="15.7385" y="20.6168" width="3.98672" height="3.97954" rx="1.98261" transform="rotate(-16.6061 15.7385 20.6168)" fill="white" stroke="black" stroke-width="0.208696"/>
<rect x="37.0172" y="22.3485" width="3.98672" height="3.97954" rx="1.98261" transform="rotate(170.433 37.0172 22.3485)" fill="white" stroke="black" stroke-width="0.208696"/>
<rect x="33.8868" y="23.3922" width="3.98672" height="3.97954" rx="1.98261" transform="rotate(170.433 33.8868 23.3922)" fill="white" stroke="black" stroke-width="0.208696"/>
<rect x="30.7565" y="22.3485" width="3.98672" height="3.97954" rx="1.98261" transform="rotate(170.433 30.7565 22.3485)" fill="white" stroke="black" stroke-width="0.208696"/>
<rect x="27.7306" y="24.4357" width="3.98672" height="3.97954" rx="1.98261" transform="rotate(170.433 27.7306 24.4357)" fill="white" stroke="black" stroke-width="0.208696"/>
<rect x="23.452" y="25.4791" width="3.98672" height="3.97954" rx="1.98261" transform="rotate(170.433 23.452 25.4791)" fill="white" stroke="black" stroke-width="0.208696"/>
<rect x="34.5212" y="20.5804" width="3.98672" height="3.97954" rx="1.98261" transform="rotate(-16.6061 34.5212 20.5804)" fill="white" stroke="black" stroke-width="0.208696"/>
<rect x="37.6515" y="22.6673" width="3.98672" height="3.97954" rx="1.98261" transform="rotate(-16.6061 37.6515 22.6673)" fill="white" stroke="black" stroke-width="0.208696"/>
<rect x="40.7819" y="20.5804" width="3.98672" height="3.97954" rx="1.98261" transform="rotate(-16.6061 40.7819 20.5804)" fill="white" stroke="black" stroke-width="0.208696"/>
<rect x="43.9469" y="18.4316" width="3.98672" height="3.97954" rx="1.98261" transform="rotate(-15.1607 43.9469 18.4316)" fill="white" stroke="black" stroke-width="0.208696"/>
<rect x="45.9994" y="21.6239" width="3.98672" height="3.97954" rx="1.98261" transform="rotate(-16.6061 45.9994 21.6239)" fill="white" stroke="black" stroke-width="0.208696"/>
<rect x="49.1298" y="20.5804" width="3.98672" height="3.97954" rx="1.98261" transform="rotate(-16.6061 49.1298 20.5804)" fill="white" stroke="black" stroke-width="0.208696"/>
<rect x="70.4086" y="22.3122" width="3.98672" height="3.97954" rx="1.98261" transform="rotate(170.433 70.4086 22.3122)" fill="white" stroke="black" stroke-width="0.208696"/>
<rect x="67.2782" y="23.3556" width="3.98672" height="3.97954" rx="1.98261" transform="rotate(170.433 67.2782 23.3556)" fill="white" stroke="black" stroke-width="0.208696"/>
<rect x="64.1478" y="22.3122" width="3.98672" height="3.97954" rx="1.98261" transform="rotate(170.433 64.1478 22.3122)" fill="white" stroke="black" stroke-width="0.208696"/>
<rect x="61.1217" y="24.3991" width="3.98672" height="3.97954" rx="1.98261" transform="rotate(170.433 61.1217 24.3991)" fill="white" stroke="black" stroke-width="0.208696"/>
<rect x="56.8434" y="25.4425" width="3.98672" height="3.97954" rx="1.98261" transform="rotate(170.433 56.8434 25.4425)" fill="white" stroke="black" stroke-width="0.208696"/>
<rect x="65.8254" y="21.6603" width="3.98672" height="3.97954" rx="1.98261" transform="rotate(-16.6061 65.8254 21.6603)" fill="white" stroke="black" stroke-width="0.208696"/>
<rect x="83.9738" y="24.4357" width="3.98672" height="3.97954" rx="1.98261" transform="rotate(170.433 83.9738 24.4357)" fill="white" stroke="black" stroke-width="0.208696"/>
<rect x="80.8434" y="23.3922" width="3.98672" height="3.97954" rx="1.98261" transform="rotate(170.433 80.8434 23.3922)" fill="white" stroke="black" stroke-width="0.208696"/>
<rect x="77.8175" y="25.4791" width="3.98672" height="3.97954" rx="1.98261" transform="rotate(170.433 77.8175 25.4791)" fill="white" stroke="black" stroke-width="0.208696"/>
<rect x="73.5392" y="26.5226" width="3.98672" height="3.97954" rx="1.98261" transform="rotate(170.433 73.5392 26.5226)" fill="white" stroke="black" stroke-width="0.208696"/>
<rect x="87.1044" y="23.3922" width="3.98672" height="3.97954" rx="1.98261" transform="rotate(170.433 87.1044 23.3922)" fill="white" stroke="black" stroke-width="0.208696"/>
<rect x="26.1733" y="78.0082" width="3.98672" height="3.97954" rx="1.98261" transform="rotate(-16.6061 26.1733 78.0082)" fill="white" fill-opacity="0.8" stroke="black" stroke-width="0.208696"/>
<rect x="84.6081" y="69.6603" width="3.98672" height="3.97954" rx="1.98261" transform="rotate(-16.6061 84.6081 69.6603)" fill="white" fill-opacity="0.8" stroke="black" stroke-width="0.208696"/>
<rect x="65.8254" y="80.0951" width="3.98672" height="3.97954" rx="1.98261" transform="rotate(-16.6061 65.8254 80.0951)" fill="white" fill-opacity="0.8" stroke="black" stroke-width="0.208696"/>
<rect x="16.7819" y="106.182" width="3.98672" height="3.97954" rx="1.98261" transform="rotate(-16.6061 16.7819 106.182)" fill="white" fill-opacity="0.8" stroke="black" stroke-width="0.208696"/>
<rect x="43.9125" y="95.7474" width="3.98672" height="3.97954" rx="1.98261" transform="rotate(-16.6061 43.9125 95.7474)" fill="white" fill-opacity="0.8" stroke="black" stroke-width="0.208696"/>
</svg>
