<svg width="109" height="130" viewBox="0 0 109 130" fill="none" xmlns="http://www.w3.org/2000/svg">
<path d="M83.5489 19.204C74.5788 18.489 69.5104 18.6301 60.6469 20.1293C60.4814 20.1573 60.3249 20.0333 60.3169 19.8655C60.0314 13.9244 61.2319 10.6399 66.9997 5.27153C67.0199 5.25277 67.0429 5.23675 67.0677 5.22472C74.4049 1.66176 86.0144 1.08908 86.9157 3.34979C86.9695 3.48486 87.0844 3.60449 87.2295 3.61102C95.4331 3.98006 99.412 5.50943 105.168 10.6765C105.183 10.6903 105.197 10.7064 105.209 10.7232C108.693 15.615 108.758 18.5666 107.484 23.7958C107.447 23.9477 107.287 24.0397 107.136 23.999C99.4313 21.9256 98.2613 20.2502 83.5489 19.204Z" fill="#D3FE98" fill-opacity="0.77" stroke="#386845" stroke-width="0.701897"/>
<path d="M88.2799 18.905H8.91401C8.79441 18.905 8.68712 18.9831 8.64793 19.0961C3.72573 33.2896 1.0345 41.1628 1.01088 41.8686C1.00994 41.8965 1.01307 41.9212 1.0122 41.949C0.884282 46.0564 1.74095 47.5743 4.58887 49.1532C9.48459 51.6778 12.262 52.7033 17.2399 54.1946C20.1488 54.7231 23.7442 55.1204 35.1164 56.0851C38.9685 56.3201 40.6812 56.8921 43.3482 58.2808C43.3606 58.2873 43.3711 58.2935 43.3823 58.302C46.6823 60.807 45.8954 92.0467 46.9424 120.047C46.9208 121.216 45.6502 121.845 43.3671 122.253C30.6284 124.19 16.4324 124.79 15.0641 126.629C15.046 126.654 15.0275 126.674 15.0037 126.693C14.3406 127.226 13.8782 127.819 13.1001 129.075C12.9848 129.261 13.1194 129.5 13.3382 129.5H83.8102C84.0366 129.5 84.1695 129.245 84.0386 129.061C83.2292 127.919 82.6628 127.28 81.666 126.704C81.6201 126.678 81.5856 126.642 81.5419 126.612C80.4626 125.873 65.1331 124.021 53.543 122.253C51.4829 122.002 50.6388 121.613 50.2523 120.086C50.2459 120.061 50.2432 120.034 50.2441 120.008C51.1618 94.6639 49.3817 67.7845 53.5321 58.3154C53.5396 58.2983 53.548 58.2833 53.5592 58.2683C54.1788 57.4403 56.5342 56.9564 62.8937 56.0851L79.1201 54.1946C85.2943 53.3778 88.1267 52.4689 92.5597 50.4304C92.5837 50.4193 92.6068 50.4044 92.6268 50.3871C95.5117 47.883 96.3226 46.067 95.8965 41.9062C94.6092 34.5584 92.4576 29.0058 88.5418 19.0847C88.4995 18.9775 88.3952 18.905 88.2799 18.905Z" fill="#103454" stroke="white" stroke-width="0.701897"/>
<path d="M85.8409 25.839L12.1689 26.7803C12.0658 26.7816 11.9716 26.8394 11.9238 26.9308L8.71543 33.0569C8.70596 33.075 8.6984 33.0944 8.69307 33.1141C8.05531 35.475 7.92089 36.8687 8.70119 39.3858C9.34109 41.8128 10.3431 42.9514 12.8265 44.7423C15.6255 46.8256 17.2869 47.6431 20.5272 48.5233L31.5281 51.044C35.8019 51.8327 38.2025 52.1195 42.529 52.3043H54.63C58.9907 52.1804 61.5086 51.9274 66.181 51.044L77.4569 48.5233C80.7803 47.5075 82.6436 46.7747 85.9827 44.7423C87.6303 43.5956 88.3528 42.6296 89.2829 40.3311C90.0765 37.7677 90.047 36.1701 89.2829 33.0841C88.6951 30.0982 87.9919 28.5071 86.0688 25.9512C86.0152 25.8799 85.9301 25.8378 85.8409 25.839Z" fill="#2CD050" stroke="black" stroke-width="0.701897"/>
<path d="M14.7226 24.7421C15.3521 19.3886 16.254 18.1234 18.4883 17.964C18.5162 17.962 18.5448 17.9645 18.5716 17.9709C19.2121 18.1235 19.5426 18.1002 20.0015 17.7037C20.5032 18.224 21.1677 17.7212 21.3933 17.5206C21.4456 17.4742 21.5105 17.4423 21.5788 17.4372C23.7923 17.2722 24.8841 18.6762 26.5198 23.6071C26.5239 23.6196 26.5274 23.6332 26.5297 23.6463C27.5417 29.3126 27.1517 31.2107 23.8015 30.9907C23.7786 30.9892 23.7548 30.9844 23.7332 30.9773C22.8619 30.6922 22.3886 30.8255 21.6412 31.3114C21.5767 31.3533 21.4989 31.3687 21.4254 31.3549C20.6158 31.203 20.1585 31.3368 19.3942 31.7536C15.9773 33.0722 14.9201 31.6323 14.7208 24.7847C14.7204 24.7708 14.721 24.7559 14.7226 24.7421Z" fill="#E93A3D"/>
<path d="M20.0015 17.7037C20.5032 18.224 21.1677 17.7212 21.3933 17.5206C21.4456 17.4742 21.5105 17.4423 21.5788 17.4372C23.7923 17.2722 24.8841 18.6762 26.5198 23.6071C26.5239 23.6196 26.5274 23.6332 26.5297 23.6463C27.5417 29.3126 27.1517 31.2107 23.8015 30.9907C23.7786 30.9892 23.7548 30.9844 23.7332 30.9773C22.8619 30.6922 22.3886 30.8255 21.6412 31.3114C21.5767 31.3533 21.4989 31.3687 21.4254 31.3549C20.6158 31.203 20.1585 31.3368 19.3942 31.7536C15.9773 33.0722 14.9201 31.6323 14.7208 24.7847C14.7204 24.7708 14.721 24.7559 14.7226 24.7421C15.3521 19.3886 16.254 18.1234 18.4883 17.964C18.5162 17.962 18.5448 17.9645 18.5716 17.9709C19.2121 18.1235 19.5426 18.1002 20.0015 17.7037ZM20.0015 17.7037C17.8389 13.9921 17.5883 7.71519 16.3018 1.24719" stroke="black" stroke-width="0.701897"/>
<rect x="0.10007" y="0.239624" width="6.95747" height="7.70079" rx="1.22832" transform="matrix(0.905865 0.423566 -0.33558 0.942012 30.7576 35.8912)" fill="white" fill-opacity="0.2" stroke="black" stroke-width="0.350948"/>
<rect x="0.161999" y="0.191635" width="6.8073" height="7.83458" rx="1.22832" transform="matrix(0.995505 0.0947134 -0.0722957 0.997383 50.0236 30.2334)" fill="white" fill-opacity="0.2" stroke="black" stroke-width="0.350948"/>
<rect x="-0.104889" y="0.237019" width="7.71505" height="6.94172" rx="1.22832" transform="matrix(0.317663 0.948204 -0.915407 0.402529 76.0404 35.5306)" fill="white" fill-opacity="0.2" stroke="black" stroke-width="0.350948"/>
<rect x="0.0841016" y="0.0452322" width="2.09919" height="2.36423" rx="1.04959" transform="matrix(0.946289 -0.323321 0.251916 0.967749 20.2583 34.7821)" fill="white" fill-opacity="0.8" stroke="black" stroke-width="0.140379"/>
<rect x="0.0841016" y="0.0452322" width="2.09919" height="2.36423" rx="1.04959" transform="matrix(0.946289 -0.323321 0.251916 0.967749 43.3603 39.1932)" fill="white" fill-opacity="0.8" stroke="black" stroke-width="0.140379"/>
<rect x="0.0841016" y="0.0452322" width="2.09919" height="2.36423" rx="1.04959" transform="matrix(0.946289 -0.323321 0.251916 0.967749 63.7119 43.6043)" fill="white" fill-opacity="0.8" stroke="black" stroke-width="0.140379"/>
<rect x="0.0841016" y="0.0452322" width="2.09919" height="2.36423" rx="1.04959" transform="matrix(0.946289 -0.323321 0.251916 0.967749 81.3134 29.7406)" fill="white" fill-opacity="0.8" stroke="black" stroke-width="0.140379"/>
</svg>
