<svg width="155" height="185" viewBox="0 0 155 185" fill="none" xmlns="http://www.w3.org/2000/svg">
<path d="M118.608 27.3602C105.828 26.3416 98.6074 26.5427 85.9796 28.6785C85.7438 28.7184 85.5209 28.5417 85.5094 28.3027C85.1026 19.8384 86.813 15.1589 95.0305 7.51052C95.0592 7.48379 95.0921 7.46096 95.1274 7.44382C105.581 2.36764 122.121 1.55173 123.405 4.77259C123.482 4.96502 123.645 5.13547 123.852 5.14477C135.54 5.67054 141.209 7.84945 149.409 15.2111C149.431 15.2307 149.451 15.2537 149.468 15.2776C154.431 22.247 154.524 26.4522 152.709 33.9022C152.656 34.1187 152.429 34.2497 152.213 34.1918C141.236 31.2377 139.569 28.8509 118.608 27.3602Z" fill="#D3FE98" fill-opacity="0.77" stroke="#386845"/>
<path d="M125.349 26.9343H12.2752C12.1048 26.9343 11.9519 27.0456 11.8961 27.2066C4.88338 47.4282 1.04915 58.6452 1.01549 59.6508C1.01417 59.6905 1.01862 59.7257 1.01738 59.7654C0.835135 65.6172 2.05564 67.7797 6.1131 70.0292C13.0881 73.626 17.0451 75.0871 24.1372 77.2117C28.2815 77.9647 33.4039 78.5307 49.606 79.9051C55.0941 80.2399 57.5342 81.0549 61.3339 83.0334C61.3517 83.0427 61.3666 83.0515 61.3825 83.0636C66.0841 86.6325 64.9629 131.14 66.4546 171.033C66.4239 172.697 64.6136 173.594 61.3609 174.175C43.2119 176.935 22.9867 177.79 21.0373 180.41C21.0114 180.445 20.9851 180.474 20.9513 180.501C20.0065 181.26 19.3477 182.105 18.2391 183.894C18.0749 184.159 18.2666 184.5 18.5784 184.5H118.981C119.303 184.5 119.492 184.137 119.306 183.874C118.153 182.247 117.346 181.337 115.926 180.517C115.86 180.48 115.811 180.428 115.749 180.385C114.211 179.333 92.3711 176.694 75.8585 174.175C72.9235 173.818 71.721 173.264 71.1702 171.088C71.1612 171.052 71.1572 171.014 71.1586 170.977C72.466 134.869 69.9299 96.5735 75.843 83.0827C75.8537 83.0583 75.8657 83.037 75.8816 83.0157C76.7643 81.8359 80.1202 81.1465 89.1807 79.9051L112.299 77.2117C121.095 76.0481 125.13 74.7531 131.446 71.8488C131.48 71.8331 131.513 71.8118 131.542 71.7871C135.652 68.2195 136.807 65.6323 136.2 59.7044C134.366 49.2359 131.301 41.325 125.722 27.1903C125.661 27.0375 125.513 26.9343 125.349 26.9343Z" fill="#103454" stroke="white"/>
<path d="M121.874 36.8129L16.9124 38.154C16.7655 38.1558 16.6314 38.2382 16.5632 38.3684L11.9922 47.0964C11.9787 47.1221 11.968 47.1498 11.9604 47.1778C11.0517 50.5415 10.8602 52.5271 11.9719 56.1132C12.8836 59.5709 14.3112 61.1931 17.8494 63.7446C21.8371 66.7127 24.204 67.8775 28.8205 69.1315L44.4937 72.7227C50.5825 73.8464 54.0028 74.2551 60.1668 74.5183H77.4072C83.6199 74.3418 87.2072 73.9814 93.864 72.7227L109.929 69.1315C114.664 67.6843 117.318 66.6403 122.076 63.7446C124.423 62.111 125.452 60.7347 126.778 57.4599C127.908 53.8079 127.866 51.5318 126.778 47.1351C125.94 42.881 124.938 40.6143 122.198 36.9727C122.122 36.8713 122.001 36.8113 121.874 36.8129Z" fill="#2CD050" stroke="black"/>
<path d="M20.5508 35.2503C21.4477 27.6232 22.7326 25.8207 25.9158 25.5936C25.9555 25.5907 25.9962 25.5943 26.0344 25.6034C26.947 25.8208 27.4178 25.7877 28.0716 25.2227C28.7865 25.964 29.7332 25.2476 30.0545 24.9619C30.129 24.8957 30.2216 24.8503 30.3188 24.843C33.4725 24.608 35.0279 26.6082 37.3583 33.6334C37.3642 33.6512 37.3691 33.6706 37.3724 33.6892C38.8142 41.762 38.2586 44.4663 33.4856 44.1528C33.453 44.1506 33.4191 44.1439 33.3882 44.1338C32.1469 43.7276 31.4726 43.9175 30.4077 44.6097C30.3158 44.6695 30.2051 44.6914 30.1003 44.6717C28.9468 44.4553 28.2953 44.6459 27.2065 45.2397C22.3384 47.1184 20.8321 45.0669 20.5481 35.3111C20.5475 35.2913 20.5485 35.2701 20.5508 35.2503Z" fill="#E93A3D"/>
<path d="M28.0716 25.2227C28.7865 25.964 29.7332 25.2476 30.0545 24.9619C30.129 24.8957 30.2216 24.8503 30.3188 24.843C33.4725 24.608 35.0279 26.6082 37.3583 33.6334C37.3642 33.6512 37.3691 33.6706 37.3724 33.6892C38.8142 41.762 38.2586 44.4663 33.4856 44.1528C33.453 44.1506 33.4191 44.1439 33.3882 44.1338C32.1469 43.7276 31.4726 43.9175 30.4077 44.6097C30.3158 44.6695 30.2051 44.6914 30.1003 44.6717C28.9468 44.4553 28.2953 44.6459 27.2065 45.2397C22.3384 47.1184 20.8321 45.0669 20.5481 35.3111C20.5475 35.2913 20.5485 35.2701 20.5508 35.2503C21.4477 27.6232 22.7326 25.8207 25.9158 25.5936C25.9555 25.5907 25.9962 25.5943 26.0344 25.6034C26.947 25.8208 27.4178 25.7877 28.0716 25.2227ZM28.0716 25.2227C24.9906 19.9348 24.6335 10.992 22.8007 1.77694" stroke="black"/>
<rect x="0.142571" y="0.341394" width="9.91238" height="10.9714" rx="1.75" transform="matrix(0.905865 0.423566 -0.33558 0.942012 43.3961 51.1347)" fill="white" fill-opacity="0.2" stroke="black" stroke-width="0.5"/>
<rect x="0.230802" y="0.273024" width="9.69843" height="11.162" rx="1.75" transform="matrix(0.995505 0.0947134 -0.0722957 0.997383 70.8445 43.0738)" fill="white" fill-opacity="0.2" stroke="black" stroke-width="0.5"/>
<rect x="-0.149436" y="0.337683" width="10.9917" height="9.88995" rx="1.75" transform="matrix(0.317663 0.948204 -0.915407 0.402529 107.911 50.6208)" fill="white" fill-opacity="0.2" stroke="black" stroke-width="0.5"/>
<rect x="0.11982" y="0.0644428" width="2.99074" height="3.36835" rx="1.49537" transform="matrix(0.946289 -0.323321 0.251916 0.967749 28.4375 49.5542)" fill="white" fill-opacity="0.8" stroke="black" stroke-width="0.2"/>
<rect x="0.11982" y="0.0644428" width="2.99074" height="3.36835" rx="1.49537" transform="matrix(0.946289 -0.323321 0.251916 0.967749 61.351 55.8389)" fill="white" fill-opacity="0.8" stroke="black" stroke-width="0.2"/>
<rect x="0.11982" y="0.0644428" width="2.99074" height="3.36835" rx="1.49537" transform="matrix(0.946289 -0.323321 0.251916 0.967749 90.3462 62.1236)" fill="white" fill-opacity="0.8" stroke="black" stroke-width="0.2"/>
<rect x="0.11982" y="0.0644428" width="2.99074" height="3.36835" rx="1.49537" transform="matrix(0.946289 -0.323321 0.251916 0.967749 115.423 42.3716)" fill="white" fill-opacity="0.8" stroke="black" stroke-width="0.2"/>
</svg>
